%TF.GenerationSoftware,KiCad,Pcbnew,9.0.1*%
%TF.CreationDate,2025-05-12T15:51:15-07:00*%
%TF.ProjectId,SmartKnobController_ME507,536d6172-744b-46e6-9f62-436f6e74726f,rev?*%
%TF.SameCoordinates,Original*%
%TF.FileFunction,Legend,Bot*%
%TF.FilePolarity,Positive*%
%FSLAX46Y46*%
G04 Gerber Fmt 4.6, Leading zero omitted, Abs format (unit mm)*
G04 Created by KiCad (PCBNEW 9.0.1) date 2025-05-12 15:51:15*
%MOMM*%
%LPD*%
G01*
G04 APERTURE LIST*
%ADD10C,0.250000*%
%ADD11C,0.150000*%
%ADD12C,0.120000*%
%ADD13C,0.200000*%
G04 APERTURE END LIST*
D10*
X108756955Y-99184023D02*
X107983146Y-99184023D01*
X107983146Y-99184023D02*
X108399812Y-99660214D01*
X108399812Y-99660214D02*
X108221241Y-99660214D01*
X108221241Y-99660214D02*
X108102193Y-99719738D01*
X108102193Y-99719738D02*
X108042669Y-99779261D01*
X108042669Y-99779261D02*
X107983146Y-99898309D01*
X107983146Y-99898309D02*
X107983146Y-100195928D01*
X107983146Y-100195928D02*
X108042669Y-100314976D01*
X108042669Y-100314976D02*
X108102193Y-100374500D01*
X108102193Y-100374500D02*
X108221241Y-100434023D01*
X108221241Y-100434023D02*
X108578384Y-100434023D01*
X108578384Y-100434023D02*
X108697431Y-100374500D01*
X108697431Y-100374500D02*
X108756955Y-100314976D01*
X107626003Y-99184023D02*
X107209336Y-100434023D01*
X107209336Y-100434023D02*
X106792670Y-99184023D01*
X106495050Y-99184023D02*
X105721241Y-99184023D01*
X105721241Y-99184023D02*
X106137907Y-99660214D01*
X106137907Y-99660214D02*
X105959336Y-99660214D01*
X105959336Y-99660214D02*
X105840288Y-99719738D01*
X105840288Y-99719738D02*
X105780764Y-99779261D01*
X105780764Y-99779261D02*
X105721241Y-99898309D01*
X105721241Y-99898309D02*
X105721241Y-100195928D01*
X105721241Y-100195928D02*
X105780764Y-100314976D01*
X105780764Y-100314976D02*
X105840288Y-100374500D01*
X105840288Y-100374500D02*
X105959336Y-100434023D01*
X105959336Y-100434023D02*
X106316479Y-100434023D01*
X106316479Y-100434023D02*
X106435526Y-100374500D01*
X106435526Y-100374500D02*
X106495050Y-100314976D01*
X113716479Y-96684023D02*
X113002193Y-96684023D01*
X113359336Y-97934023D02*
X113359336Y-96684023D01*
X112704574Y-96684023D02*
X111871241Y-97934023D01*
X111871241Y-96684023D02*
X112704574Y-97934023D01*
X110859336Y-96684023D02*
X111097431Y-96684023D01*
X111097431Y-96684023D02*
X111216479Y-96743547D01*
X111216479Y-96743547D02*
X111276003Y-96803071D01*
X111276003Y-96803071D02*
X111395050Y-96981642D01*
X111395050Y-96981642D02*
X111454574Y-97219738D01*
X111454574Y-97219738D02*
X111454574Y-97695928D01*
X111454574Y-97695928D02*
X111395050Y-97814976D01*
X111395050Y-97814976D02*
X111335527Y-97874500D01*
X111335527Y-97874500D02*
X111216479Y-97934023D01*
X111216479Y-97934023D02*
X110978384Y-97934023D01*
X110978384Y-97934023D02*
X110859336Y-97874500D01*
X110859336Y-97874500D02*
X110799812Y-97814976D01*
X110799812Y-97814976D02*
X110740289Y-97695928D01*
X110740289Y-97695928D02*
X110740289Y-97398309D01*
X110740289Y-97398309D02*
X110799812Y-97279261D01*
X110799812Y-97279261D02*
X110859336Y-97219738D01*
X110859336Y-97219738D02*
X110978384Y-97160214D01*
X110978384Y-97160214D02*
X111216479Y-97160214D01*
X111216479Y-97160214D02*
X111335527Y-97219738D01*
X111335527Y-97219738D02*
X111395050Y-97279261D01*
X111395050Y-97279261D02*
X111454574Y-97398309D01*
X116123622Y-113584023D02*
X116540288Y-112988785D01*
X116837907Y-113584023D02*
X116837907Y-112334023D01*
X116837907Y-112334023D02*
X116361717Y-112334023D01*
X116361717Y-112334023D02*
X116242669Y-112393547D01*
X116242669Y-112393547D02*
X116183146Y-112453071D01*
X116183146Y-112453071D02*
X116123622Y-112572119D01*
X116123622Y-112572119D02*
X116123622Y-112750690D01*
X116123622Y-112750690D02*
X116183146Y-112869738D01*
X116183146Y-112869738D02*
X116242669Y-112929261D01*
X116242669Y-112929261D02*
X116361717Y-112988785D01*
X116361717Y-112988785D02*
X116837907Y-112988785D01*
X115706955Y-112334023D02*
X114873622Y-113584023D01*
X114873622Y-112334023D02*
X115706955Y-113584023D01*
X113742670Y-113584023D02*
X114456955Y-113584023D01*
X114099812Y-113584023D02*
X114099812Y-112334023D01*
X114099812Y-112334023D02*
X114218860Y-112512595D01*
X114218860Y-112512595D02*
X114337908Y-112631642D01*
X114337908Y-112631642D02*
X114456955Y-112691166D01*
X113697431Y-105474500D02*
X113518860Y-105534023D01*
X113518860Y-105534023D02*
X113221241Y-105534023D01*
X113221241Y-105534023D02*
X113102193Y-105474500D01*
X113102193Y-105474500D02*
X113042669Y-105414976D01*
X113042669Y-105414976D02*
X112983146Y-105295928D01*
X112983146Y-105295928D02*
X112983146Y-105176880D01*
X112983146Y-105176880D02*
X113042669Y-105057833D01*
X113042669Y-105057833D02*
X113102193Y-104998309D01*
X113102193Y-104998309D02*
X113221241Y-104938785D01*
X113221241Y-104938785D02*
X113459336Y-104879261D01*
X113459336Y-104879261D02*
X113578384Y-104819738D01*
X113578384Y-104819738D02*
X113637907Y-104760214D01*
X113637907Y-104760214D02*
X113697431Y-104641166D01*
X113697431Y-104641166D02*
X113697431Y-104522119D01*
X113697431Y-104522119D02*
X113637907Y-104403071D01*
X113637907Y-104403071D02*
X113578384Y-104343547D01*
X113578384Y-104343547D02*
X113459336Y-104284023D01*
X113459336Y-104284023D02*
X113161717Y-104284023D01*
X113161717Y-104284023D02*
X112983146Y-104343547D01*
X112566479Y-104284023D02*
X112268860Y-105534023D01*
X112268860Y-105534023D02*
X112030765Y-104641166D01*
X112030765Y-104641166D02*
X111792670Y-105534023D01*
X111792670Y-105534023D02*
X111495051Y-104284023D01*
X110780765Y-104284023D02*
X110542670Y-104284023D01*
X110542670Y-104284023D02*
X110423622Y-104343547D01*
X110423622Y-104343547D02*
X110304575Y-104462595D01*
X110304575Y-104462595D02*
X110245051Y-104700690D01*
X110245051Y-104700690D02*
X110245051Y-105117357D01*
X110245051Y-105117357D02*
X110304575Y-105355452D01*
X110304575Y-105355452D02*
X110423622Y-105474500D01*
X110423622Y-105474500D02*
X110542670Y-105534023D01*
X110542670Y-105534023D02*
X110780765Y-105534023D01*
X110780765Y-105534023D02*
X110899813Y-105474500D01*
X110899813Y-105474500D02*
X111018860Y-105355452D01*
X111018860Y-105355452D02*
X111078384Y-105117357D01*
X111078384Y-105117357D02*
X111078384Y-104700690D01*
X111078384Y-104700690D02*
X111018860Y-104462595D01*
X111018860Y-104462595D02*
X110899813Y-104343547D01*
X110899813Y-104343547D02*
X110780765Y-104284023D01*
X115216479Y-110084023D02*
X114502193Y-110084023D01*
X114859336Y-111334023D02*
X114859336Y-110084023D01*
X114204574Y-110084023D02*
X113371241Y-111334023D01*
X113371241Y-110084023D02*
X114204574Y-111334023D01*
X112240289Y-111334023D02*
X112954574Y-111334023D01*
X112597431Y-111334023D02*
X112597431Y-110084023D01*
X112597431Y-110084023D02*
X112716479Y-110262595D01*
X112716479Y-110262595D02*
X112835527Y-110381642D01*
X112835527Y-110381642D02*
X112954574Y-110441166D01*
X193437907Y-114434023D02*
X193437907Y-113184023D01*
X193437907Y-113184023D02*
X193021241Y-114076880D01*
X193021241Y-114076880D02*
X192604574Y-113184023D01*
X192604574Y-113184023D02*
X192604574Y-114434023D01*
X191771241Y-113184023D02*
X191533146Y-113184023D01*
X191533146Y-113184023D02*
X191414098Y-113243547D01*
X191414098Y-113243547D02*
X191295051Y-113362595D01*
X191295051Y-113362595D02*
X191235527Y-113600690D01*
X191235527Y-113600690D02*
X191235527Y-114017357D01*
X191235527Y-114017357D02*
X191295051Y-114255452D01*
X191295051Y-114255452D02*
X191414098Y-114374500D01*
X191414098Y-114374500D02*
X191533146Y-114434023D01*
X191533146Y-114434023D02*
X191771241Y-114434023D01*
X191771241Y-114434023D02*
X191890289Y-114374500D01*
X191890289Y-114374500D02*
X192009336Y-114255452D01*
X192009336Y-114255452D02*
X192068860Y-114017357D01*
X192068860Y-114017357D02*
X192068860Y-113600690D01*
X192068860Y-113600690D02*
X192009336Y-113362595D01*
X192009336Y-113362595D02*
X191890289Y-113243547D01*
X191890289Y-113243547D02*
X191771241Y-113184023D01*
X190878384Y-113184023D02*
X190164098Y-113184023D01*
X190521241Y-114434023D02*
X190521241Y-113184023D01*
X189509336Y-113184023D02*
X189271241Y-113184023D01*
X189271241Y-113184023D02*
X189152193Y-113243547D01*
X189152193Y-113243547D02*
X189033146Y-113362595D01*
X189033146Y-113362595D02*
X188973622Y-113600690D01*
X188973622Y-113600690D02*
X188973622Y-114017357D01*
X188973622Y-114017357D02*
X189033146Y-114255452D01*
X189033146Y-114255452D02*
X189152193Y-114374500D01*
X189152193Y-114374500D02*
X189271241Y-114434023D01*
X189271241Y-114434023D02*
X189509336Y-114434023D01*
X189509336Y-114434023D02*
X189628384Y-114374500D01*
X189628384Y-114374500D02*
X189747431Y-114255452D01*
X189747431Y-114255452D02*
X189806955Y-114017357D01*
X189806955Y-114017357D02*
X189806955Y-113600690D01*
X189806955Y-113600690D02*
X189747431Y-113362595D01*
X189747431Y-113362595D02*
X189628384Y-113243547D01*
X189628384Y-113243547D02*
X189509336Y-113184023D01*
X187723622Y-114434023D02*
X188140288Y-113838785D01*
X188437907Y-114434023D02*
X188437907Y-113184023D01*
X188437907Y-113184023D02*
X187961717Y-113184023D01*
X187961717Y-113184023D02*
X187842669Y-113243547D01*
X187842669Y-113243547D02*
X187783146Y-113303071D01*
X187783146Y-113303071D02*
X187723622Y-113422119D01*
X187723622Y-113422119D02*
X187723622Y-113600690D01*
X187723622Y-113600690D02*
X187783146Y-113719738D01*
X187783146Y-113719738D02*
X187842669Y-113779261D01*
X187842669Y-113779261D02*
X187961717Y-113838785D01*
X187961717Y-113838785D02*
X188437907Y-113838785D01*
X117923622Y-97934023D02*
X118340288Y-97338785D01*
X118637907Y-97934023D02*
X118637907Y-96684023D01*
X118637907Y-96684023D02*
X118161717Y-96684023D01*
X118161717Y-96684023D02*
X118042669Y-96743547D01*
X118042669Y-96743547D02*
X117983146Y-96803071D01*
X117983146Y-96803071D02*
X117923622Y-96922119D01*
X117923622Y-96922119D02*
X117923622Y-97100690D01*
X117923622Y-97100690D02*
X117983146Y-97219738D01*
X117983146Y-97219738D02*
X118042669Y-97279261D01*
X118042669Y-97279261D02*
X118161717Y-97338785D01*
X118161717Y-97338785D02*
X118637907Y-97338785D01*
X117506955Y-96684023D02*
X116673622Y-97934023D01*
X116673622Y-96684023D02*
X117506955Y-97934023D01*
X115661717Y-96684023D02*
X115899812Y-96684023D01*
X115899812Y-96684023D02*
X116018860Y-96743547D01*
X116018860Y-96743547D02*
X116078384Y-96803071D01*
X116078384Y-96803071D02*
X116197431Y-96981642D01*
X116197431Y-96981642D02*
X116256955Y-97219738D01*
X116256955Y-97219738D02*
X116256955Y-97695928D01*
X116256955Y-97695928D02*
X116197431Y-97814976D01*
X116197431Y-97814976D02*
X116137908Y-97874500D01*
X116137908Y-97874500D02*
X116018860Y-97934023D01*
X116018860Y-97934023D02*
X115780765Y-97934023D01*
X115780765Y-97934023D02*
X115661717Y-97874500D01*
X115661717Y-97874500D02*
X115602193Y-97814976D01*
X115602193Y-97814976D02*
X115542670Y-97695928D01*
X115542670Y-97695928D02*
X115542670Y-97398309D01*
X115542670Y-97398309D02*
X115602193Y-97279261D01*
X115602193Y-97279261D02*
X115661717Y-97219738D01*
X115661717Y-97219738D02*
X115780765Y-97160214D01*
X115780765Y-97160214D02*
X116018860Y-97160214D01*
X116018860Y-97160214D02*
X116137908Y-97219738D01*
X116137908Y-97219738D02*
X116197431Y-97279261D01*
X116197431Y-97279261D02*
X116256955Y-97398309D01*
X117483146Y-114643547D02*
X117602193Y-114584023D01*
X117602193Y-114584023D02*
X117780765Y-114584023D01*
X117780765Y-114584023D02*
X117959336Y-114643547D01*
X117959336Y-114643547D02*
X118078384Y-114762595D01*
X118078384Y-114762595D02*
X118137907Y-114881642D01*
X118137907Y-114881642D02*
X118197431Y-115119738D01*
X118197431Y-115119738D02*
X118197431Y-115298309D01*
X118197431Y-115298309D02*
X118137907Y-115536404D01*
X118137907Y-115536404D02*
X118078384Y-115655452D01*
X118078384Y-115655452D02*
X117959336Y-115774500D01*
X117959336Y-115774500D02*
X117780765Y-115834023D01*
X117780765Y-115834023D02*
X117661717Y-115834023D01*
X117661717Y-115834023D02*
X117483146Y-115774500D01*
X117483146Y-115774500D02*
X117423622Y-115714976D01*
X117423622Y-115714976D02*
X117423622Y-115298309D01*
X117423622Y-115298309D02*
X117661717Y-115298309D01*
X116887907Y-115834023D02*
X116887907Y-114584023D01*
X116887907Y-114584023D02*
X116173622Y-115834023D01*
X116173622Y-115834023D02*
X116173622Y-114584023D01*
X115578383Y-115834023D02*
X115578383Y-114584023D01*
X115578383Y-114584023D02*
X115280764Y-114584023D01*
X115280764Y-114584023D02*
X115102193Y-114643547D01*
X115102193Y-114643547D02*
X114983145Y-114762595D01*
X114983145Y-114762595D02*
X114923622Y-114881642D01*
X114923622Y-114881642D02*
X114864098Y-115119738D01*
X114864098Y-115119738D02*
X114864098Y-115298309D01*
X114864098Y-115298309D02*
X114923622Y-115536404D01*
X114923622Y-115536404D02*
X114983145Y-115655452D01*
X114983145Y-115655452D02*
X115102193Y-115774500D01*
X115102193Y-115774500D02*
X115280764Y-115834023D01*
X115280764Y-115834023D02*
X115578383Y-115834023D01*
X114306955Y-107934023D02*
X113533146Y-107934023D01*
X113533146Y-107934023D02*
X113949812Y-108410214D01*
X113949812Y-108410214D02*
X113771241Y-108410214D01*
X113771241Y-108410214D02*
X113652193Y-108469738D01*
X113652193Y-108469738D02*
X113592669Y-108529261D01*
X113592669Y-108529261D02*
X113533146Y-108648309D01*
X113533146Y-108648309D02*
X113533146Y-108945928D01*
X113533146Y-108945928D02*
X113592669Y-109064976D01*
X113592669Y-109064976D02*
X113652193Y-109124500D01*
X113652193Y-109124500D02*
X113771241Y-109184023D01*
X113771241Y-109184023D02*
X114128384Y-109184023D01*
X114128384Y-109184023D02*
X114247431Y-109124500D01*
X114247431Y-109124500D02*
X114306955Y-109064976D01*
X113176003Y-107934023D02*
X112759336Y-109184023D01*
X112759336Y-109184023D02*
X112342670Y-107934023D01*
X112045050Y-107934023D02*
X111271241Y-107934023D01*
X111271241Y-107934023D02*
X111687907Y-108410214D01*
X111687907Y-108410214D02*
X111509336Y-108410214D01*
X111509336Y-108410214D02*
X111390288Y-108469738D01*
X111390288Y-108469738D02*
X111330764Y-108529261D01*
X111330764Y-108529261D02*
X111271241Y-108648309D01*
X111271241Y-108648309D02*
X111271241Y-108945928D01*
X111271241Y-108945928D02*
X111330764Y-109064976D01*
X111330764Y-109064976D02*
X111390288Y-109124500D01*
X111390288Y-109124500D02*
X111509336Y-109184023D01*
X111509336Y-109184023D02*
X111866479Y-109184023D01*
X111866479Y-109184023D02*
X111985526Y-109124500D01*
X111985526Y-109124500D02*
X112045050Y-109064976D01*
X108737907Y-103034023D02*
X108737907Y-101784023D01*
X108737907Y-101784023D02*
X108023622Y-103034023D01*
X108023622Y-103034023D02*
X108023622Y-101784023D01*
X106714098Y-103034023D02*
X107130764Y-102438785D01*
X107428383Y-103034023D02*
X107428383Y-101784023D01*
X107428383Y-101784023D02*
X106952193Y-101784023D01*
X106952193Y-101784023D02*
X106833145Y-101843547D01*
X106833145Y-101843547D02*
X106773622Y-101903071D01*
X106773622Y-101903071D02*
X106714098Y-102022119D01*
X106714098Y-102022119D02*
X106714098Y-102200690D01*
X106714098Y-102200690D02*
X106773622Y-102319738D01*
X106773622Y-102319738D02*
X106833145Y-102379261D01*
X106833145Y-102379261D02*
X106952193Y-102438785D01*
X106952193Y-102438785D02*
X107428383Y-102438785D01*
X106237907Y-102974500D02*
X106059336Y-103034023D01*
X106059336Y-103034023D02*
X105761717Y-103034023D01*
X105761717Y-103034023D02*
X105642669Y-102974500D01*
X105642669Y-102974500D02*
X105583145Y-102914976D01*
X105583145Y-102914976D02*
X105523622Y-102795928D01*
X105523622Y-102795928D02*
X105523622Y-102676880D01*
X105523622Y-102676880D02*
X105583145Y-102557833D01*
X105583145Y-102557833D02*
X105642669Y-102498309D01*
X105642669Y-102498309D02*
X105761717Y-102438785D01*
X105761717Y-102438785D02*
X105999812Y-102379261D01*
X105999812Y-102379261D02*
X106118860Y-102319738D01*
X106118860Y-102319738D02*
X106178383Y-102260214D01*
X106178383Y-102260214D02*
X106237907Y-102141166D01*
X106237907Y-102141166D02*
X106237907Y-102022119D01*
X106237907Y-102022119D02*
X106178383Y-101903071D01*
X106178383Y-101903071D02*
X106118860Y-101843547D01*
X106118860Y-101843547D02*
X105999812Y-101784023D01*
X105999812Y-101784023D02*
X105702193Y-101784023D01*
X105702193Y-101784023D02*
X105523622Y-101843547D01*
X105166479Y-101784023D02*
X104452193Y-101784023D01*
X104809336Y-103034023D02*
X104809336Y-101784023D01*
X125897431Y-102974500D02*
X125718860Y-103034023D01*
X125718860Y-103034023D02*
X125421241Y-103034023D01*
X125421241Y-103034023D02*
X125302193Y-102974500D01*
X125302193Y-102974500D02*
X125242669Y-102914976D01*
X125242669Y-102914976D02*
X125183146Y-102795928D01*
X125183146Y-102795928D02*
X125183146Y-102676880D01*
X125183146Y-102676880D02*
X125242669Y-102557833D01*
X125242669Y-102557833D02*
X125302193Y-102498309D01*
X125302193Y-102498309D02*
X125421241Y-102438785D01*
X125421241Y-102438785D02*
X125659336Y-102379261D01*
X125659336Y-102379261D02*
X125778384Y-102319738D01*
X125778384Y-102319738D02*
X125837907Y-102260214D01*
X125837907Y-102260214D02*
X125897431Y-102141166D01*
X125897431Y-102141166D02*
X125897431Y-102022119D01*
X125897431Y-102022119D02*
X125837907Y-101903071D01*
X125837907Y-101903071D02*
X125778384Y-101843547D01*
X125778384Y-101843547D02*
X125659336Y-101784023D01*
X125659336Y-101784023D02*
X125361717Y-101784023D01*
X125361717Y-101784023D02*
X125183146Y-101843547D01*
X124766479Y-101784023D02*
X124468860Y-103034023D01*
X124468860Y-103034023D02*
X124230765Y-102141166D01*
X124230765Y-102141166D02*
X123992670Y-103034023D01*
X123992670Y-103034023D02*
X123695051Y-101784023D01*
X123218860Y-103034023D02*
X123218860Y-101784023D01*
X123218860Y-101784023D02*
X122921241Y-101784023D01*
X122921241Y-101784023D02*
X122742670Y-101843547D01*
X122742670Y-101843547D02*
X122623622Y-101962595D01*
X122623622Y-101962595D02*
X122564099Y-102081642D01*
X122564099Y-102081642D02*
X122504575Y-102319738D01*
X122504575Y-102319738D02*
X122504575Y-102498309D01*
X122504575Y-102498309D02*
X122564099Y-102736404D01*
X122564099Y-102736404D02*
X122623622Y-102855452D01*
X122623622Y-102855452D02*
X122742670Y-102974500D01*
X122742670Y-102974500D02*
X122921241Y-103034023D01*
X122921241Y-103034023D02*
X123218860Y-103034023D01*
X121968860Y-103034023D02*
X121968860Y-101784023D01*
X121135527Y-101784023D02*
X120897432Y-101784023D01*
X120897432Y-101784023D02*
X120778384Y-101843547D01*
X120778384Y-101843547D02*
X120659337Y-101962595D01*
X120659337Y-101962595D02*
X120599813Y-102200690D01*
X120599813Y-102200690D02*
X120599813Y-102617357D01*
X120599813Y-102617357D02*
X120659337Y-102855452D01*
X120659337Y-102855452D02*
X120778384Y-102974500D01*
X120778384Y-102974500D02*
X120897432Y-103034023D01*
X120897432Y-103034023D02*
X121135527Y-103034023D01*
X121135527Y-103034023D02*
X121254575Y-102974500D01*
X121254575Y-102974500D02*
X121373622Y-102855452D01*
X121373622Y-102855452D02*
X121433146Y-102617357D01*
X121433146Y-102617357D02*
X121433146Y-102200690D01*
X121433146Y-102200690D02*
X121373622Y-101962595D01*
X121373622Y-101962595D02*
X121254575Y-101843547D01*
X121254575Y-101843547D02*
X121135527Y-101784023D01*
X123183146Y-99243547D02*
X123302193Y-99184023D01*
X123302193Y-99184023D02*
X123480765Y-99184023D01*
X123480765Y-99184023D02*
X123659336Y-99243547D01*
X123659336Y-99243547D02*
X123778384Y-99362595D01*
X123778384Y-99362595D02*
X123837907Y-99481642D01*
X123837907Y-99481642D02*
X123897431Y-99719738D01*
X123897431Y-99719738D02*
X123897431Y-99898309D01*
X123897431Y-99898309D02*
X123837907Y-100136404D01*
X123837907Y-100136404D02*
X123778384Y-100255452D01*
X123778384Y-100255452D02*
X123659336Y-100374500D01*
X123659336Y-100374500D02*
X123480765Y-100434023D01*
X123480765Y-100434023D02*
X123361717Y-100434023D01*
X123361717Y-100434023D02*
X123183146Y-100374500D01*
X123183146Y-100374500D02*
X123123622Y-100314976D01*
X123123622Y-100314976D02*
X123123622Y-99898309D01*
X123123622Y-99898309D02*
X123361717Y-99898309D01*
X122587907Y-100434023D02*
X122587907Y-99184023D01*
X122587907Y-99184023D02*
X121873622Y-100434023D01*
X121873622Y-100434023D02*
X121873622Y-99184023D01*
X121278383Y-100434023D02*
X121278383Y-99184023D01*
X121278383Y-99184023D02*
X120980764Y-99184023D01*
X120980764Y-99184023D02*
X120802193Y-99243547D01*
X120802193Y-99243547D02*
X120683145Y-99362595D01*
X120683145Y-99362595D02*
X120623622Y-99481642D01*
X120623622Y-99481642D02*
X120564098Y-99719738D01*
X120564098Y-99719738D02*
X120564098Y-99898309D01*
X120564098Y-99898309D02*
X120623622Y-100136404D01*
X120623622Y-100136404D02*
X120683145Y-100255452D01*
X120683145Y-100255452D02*
X120802193Y-100374500D01*
X120802193Y-100374500D02*
X120980764Y-100434023D01*
X120980764Y-100434023D02*
X121278383Y-100434023D01*
X121197431Y-105474500D02*
X121018860Y-105534023D01*
X121018860Y-105534023D02*
X120721241Y-105534023D01*
X120721241Y-105534023D02*
X120602193Y-105474500D01*
X120602193Y-105474500D02*
X120542669Y-105414976D01*
X120542669Y-105414976D02*
X120483146Y-105295928D01*
X120483146Y-105295928D02*
X120483146Y-105176880D01*
X120483146Y-105176880D02*
X120542669Y-105057833D01*
X120542669Y-105057833D02*
X120602193Y-104998309D01*
X120602193Y-104998309D02*
X120721241Y-104938785D01*
X120721241Y-104938785D02*
X120959336Y-104879261D01*
X120959336Y-104879261D02*
X121078384Y-104819738D01*
X121078384Y-104819738D02*
X121137907Y-104760214D01*
X121137907Y-104760214D02*
X121197431Y-104641166D01*
X121197431Y-104641166D02*
X121197431Y-104522119D01*
X121197431Y-104522119D02*
X121137907Y-104403071D01*
X121137907Y-104403071D02*
X121078384Y-104343547D01*
X121078384Y-104343547D02*
X120959336Y-104284023D01*
X120959336Y-104284023D02*
X120661717Y-104284023D01*
X120661717Y-104284023D02*
X120483146Y-104343547D01*
X120066479Y-104284023D02*
X119768860Y-105534023D01*
X119768860Y-105534023D02*
X119530765Y-104641166D01*
X119530765Y-104641166D02*
X119292670Y-105534023D01*
X119292670Y-105534023D02*
X118995051Y-104284023D01*
X117804575Y-105414976D02*
X117864099Y-105474500D01*
X117864099Y-105474500D02*
X118042670Y-105534023D01*
X118042670Y-105534023D02*
X118161718Y-105534023D01*
X118161718Y-105534023D02*
X118340289Y-105474500D01*
X118340289Y-105474500D02*
X118459337Y-105355452D01*
X118459337Y-105355452D02*
X118518860Y-105236404D01*
X118518860Y-105236404D02*
X118578384Y-104998309D01*
X118578384Y-104998309D02*
X118578384Y-104819738D01*
X118578384Y-104819738D02*
X118518860Y-104581642D01*
X118518860Y-104581642D02*
X118459337Y-104462595D01*
X118459337Y-104462595D02*
X118340289Y-104343547D01*
X118340289Y-104343547D02*
X118161718Y-104284023D01*
X118161718Y-104284023D02*
X118042670Y-104284023D01*
X118042670Y-104284023D02*
X117864099Y-104343547D01*
X117864099Y-104343547D02*
X117804575Y-104403071D01*
X116673622Y-105534023D02*
X117268860Y-105534023D01*
X117268860Y-105534023D02*
X117268860Y-104284023D01*
X116256955Y-105534023D02*
X116256955Y-104284023D01*
X115542670Y-105534023D02*
X116078384Y-104819738D01*
X115542670Y-104284023D02*
X116256955Y-104998309D01*
D11*
X160242857Y-88009580D02*
X160290476Y-88057200D01*
X160290476Y-88057200D02*
X160433333Y-88104819D01*
X160433333Y-88104819D02*
X160528571Y-88104819D01*
X160528571Y-88104819D02*
X160671428Y-88057200D01*
X160671428Y-88057200D02*
X160766666Y-87961961D01*
X160766666Y-87961961D02*
X160814285Y-87866723D01*
X160814285Y-87866723D02*
X160861904Y-87676247D01*
X160861904Y-87676247D02*
X160861904Y-87533390D01*
X160861904Y-87533390D02*
X160814285Y-87342914D01*
X160814285Y-87342914D02*
X160766666Y-87247676D01*
X160766666Y-87247676D02*
X160671428Y-87152438D01*
X160671428Y-87152438D02*
X160528571Y-87104819D01*
X160528571Y-87104819D02*
X160433333Y-87104819D01*
X160433333Y-87104819D02*
X160290476Y-87152438D01*
X160290476Y-87152438D02*
X160242857Y-87200057D01*
X159861904Y-87200057D02*
X159814285Y-87152438D01*
X159814285Y-87152438D02*
X159719047Y-87104819D01*
X159719047Y-87104819D02*
X159480952Y-87104819D01*
X159480952Y-87104819D02*
X159385714Y-87152438D01*
X159385714Y-87152438D02*
X159338095Y-87200057D01*
X159338095Y-87200057D02*
X159290476Y-87295295D01*
X159290476Y-87295295D02*
X159290476Y-87390533D01*
X159290476Y-87390533D02*
X159338095Y-87533390D01*
X159338095Y-87533390D02*
X159909523Y-88104819D01*
X159909523Y-88104819D02*
X159290476Y-88104819D01*
X158433333Y-87438152D02*
X158433333Y-88104819D01*
X158671428Y-87057200D02*
X158909523Y-87771485D01*
X158909523Y-87771485D02*
X158290476Y-87771485D01*
X147292857Y-88059580D02*
X147340476Y-88107200D01*
X147340476Y-88107200D02*
X147483333Y-88154819D01*
X147483333Y-88154819D02*
X147578571Y-88154819D01*
X147578571Y-88154819D02*
X147721428Y-88107200D01*
X147721428Y-88107200D02*
X147816666Y-88011961D01*
X147816666Y-88011961D02*
X147864285Y-87916723D01*
X147864285Y-87916723D02*
X147911904Y-87726247D01*
X147911904Y-87726247D02*
X147911904Y-87583390D01*
X147911904Y-87583390D02*
X147864285Y-87392914D01*
X147864285Y-87392914D02*
X147816666Y-87297676D01*
X147816666Y-87297676D02*
X147721428Y-87202438D01*
X147721428Y-87202438D02*
X147578571Y-87154819D01*
X147578571Y-87154819D02*
X147483333Y-87154819D01*
X147483333Y-87154819D02*
X147340476Y-87202438D01*
X147340476Y-87202438D02*
X147292857Y-87250057D01*
X146911904Y-87250057D02*
X146864285Y-87202438D01*
X146864285Y-87202438D02*
X146769047Y-87154819D01*
X146769047Y-87154819D02*
X146530952Y-87154819D01*
X146530952Y-87154819D02*
X146435714Y-87202438D01*
X146435714Y-87202438D02*
X146388095Y-87250057D01*
X146388095Y-87250057D02*
X146340476Y-87345295D01*
X146340476Y-87345295D02*
X146340476Y-87440533D01*
X146340476Y-87440533D02*
X146388095Y-87583390D01*
X146388095Y-87583390D02*
X146959523Y-88154819D01*
X146959523Y-88154819D02*
X146340476Y-88154819D01*
X146007142Y-87154819D02*
X145388095Y-87154819D01*
X145388095Y-87154819D02*
X145721428Y-87535771D01*
X145721428Y-87535771D02*
X145578571Y-87535771D01*
X145578571Y-87535771D02*
X145483333Y-87583390D01*
X145483333Y-87583390D02*
X145435714Y-87631009D01*
X145435714Y-87631009D02*
X145388095Y-87726247D01*
X145388095Y-87726247D02*
X145388095Y-87964342D01*
X145388095Y-87964342D02*
X145435714Y-88059580D01*
X145435714Y-88059580D02*
X145483333Y-88107200D01*
X145483333Y-88107200D02*
X145578571Y-88154819D01*
X145578571Y-88154819D02*
X145864285Y-88154819D01*
X145864285Y-88154819D02*
X145959523Y-88107200D01*
X145959523Y-88107200D02*
X146007142Y-88059580D01*
D10*
X153416666Y-133815273D02*
X153416666Y-134708130D01*
X153416666Y-134708130D02*
X153476189Y-134886702D01*
X153476189Y-134886702D02*
X153595237Y-135005750D01*
X153595237Y-135005750D02*
X153773808Y-135065273D01*
X153773808Y-135065273D02*
X153892856Y-135065273D01*
X152166666Y-135065273D02*
X152880951Y-135065273D01*
X152523808Y-135065273D02*
X152523808Y-133815273D01*
X152523808Y-133815273D02*
X152642856Y-133993845D01*
X152642856Y-133993845D02*
X152761904Y-134112892D01*
X152761904Y-134112892D02*
X152880951Y-134172416D01*
D11*
X104142857Y-85554819D02*
X104476190Y-85078628D01*
X104714285Y-85554819D02*
X104714285Y-84554819D01*
X104714285Y-84554819D02*
X104333333Y-84554819D01*
X104333333Y-84554819D02*
X104238095Y-84602438D01*
X104238095Y-84602438D02*
X104190476Y-84650057D01*
X104190476Y-84650057D02*
X104142857Y-84745295D01*
X104142857Y-84745295D02*
X104142857Y-84888152D01*
X104142857Y-84888152D02*
X104190476Y-84983390D01*
X104190476Y-84983390D02*
X104238095Y-85031009D01*
X104238095Y-85031009D02*
X104333333Y-85078628D01*
X104333333Y-85078628D02*
X104714285Y-85078628D01*
X103190476Y-85554819D02*
X103761904Y-85554819D01*
X103476190Y-85554819D02*
X103476190Y-84554819D01*
X103476190Y-84554819D02*
X103571428Y-84697676D01*
X103571428Y-84697676D02*
X103666666Y-84792914D01*
X103666666Y-84792914D02*
X103761904Y-84840533D01*
X102285714Y-84554819D02*
X102761904Y-84554819D01*
X102761904Y-84554819D02*
X102809523Y-85031009D01*
X102809523Y-85031009D02*
X102761904Y-84983390D01*
X102761904Y-84983390D02*
X102666666Y-84935771D01*
X102666666Y-84935771D02*
X102428571Y-84935771D01*
X102428571Y-84935771D02*
X102333333Y-84983390D01*
X102333333Y-84983390D02*
X102285714Y-85031009D01*
X102285714Y-85031009D02*
X102238095Y-85126247D01*
X102238095Y-85126247D02*
X102238095Y-85364342D01*
X102238095Y-85364342D02*
X102285714Y-85459580D01*
X102285714Y-85459580D02*
X102333333Y-85507200D01*
X102333333Y-85507200D02*
X102428571Y-85554819D01*
X102428571Y-85554819D02*
X102666666Y-85554819D01*
X102666666Y-85554819D02*
X102761904Y-85507200D01*
X102761904Y-85507200D02*
X102809523Y-85459580D01*
X153911904Y-85104819D02*
X153911904Y-85914342D01*
X153911904Y-85914342D02*
X153864285Y-86009580D01*
X153864285Y-86009580D02*
X153816666Y-86057200D01*
X153816666Y-86057200D02*
X153721428Y-86104819D01*
X153721428Y-86104819D02*
X153530952Y-86104819D01*
X153530952Y-86104819D02*
X153435714Y-86057200D01*
X153435714Y-86057200D02*
X153388095Y-86009580D01*
X153388095Y-86009580D02*
X153340476Y-85914342D01*
X153340476Y-85914342D02*
X153340476Y-85104819D01*
X152435714Y-85104819D02*
X152626190Y-85104819D01*
X152626190Y-85104819D02*
X152721428Y-85152438D01*
X152721428Y-85152438D02*
X152769047Y-85200057D01*
X152769047Y-85200057D02*
X152864285Y-85342914D01*
X152864285Y-85342914D02*
X152911904Y-85533390D01*
X152911904Y-85533390D02*
X152911904Y-85914342D01*
X152911904Y-85914342D02*
X152864285Y-86009580D01*
X152864285Y-86009580D02*
X152816666Y-86057200D01*
X152816666Y-86057200D02*
X152721428Y-86104819D01*
X152721428Y-86104819D02*
X152530952Y-86104819D01*
X152530952Y-86104819D02*
X152435714Y-86057200D01*
X152435714Y-86057200D02*
X152388095Y-86009580D01*
X152388095Y-86009580D02*
X152340476Y-85914342D01*
X152340476Y-85914342D02*
X152340476Y-85676247D01*
X152340476Y-85676247D02*
X152388095Y-85581009D01*
X152388095Y-85581009D02*
X152435714Y-85533390D01*
X152435714Y-85533390D02*
X152530952Y-85485771D01*
X152530952Y-85485771D02*
X152721428Y-85485771D01*
X152721428Y-85485771D02*
X152816666Y-85533390D01*
X152816666Y-85533390D02*
X152864285Y-85581009D01*
X152864285Y-85581009D02*
X152911904Y-85676247D01*
D12*
%TO.C,J4*%
X109479999Y-103780000D02*
X109479999Y-98480000D01*
X117209999Y-101130001D02*
X119859999Y-101130001D01*
X117209999Y-103780001D02*
X109479999Y-103780000D01*
X117209999Y-103780001D02*
X117209999Y-101130001D01*
X118479998Y-103780000D02*
X119859999Y-103780001D01*
X119859999Y-98480001D02*
X109479999Y-98480000D01*
X119859999Y-101130001D02*
X119859999Y-98480001D01*
X119859999Y-103780001D02*
X119859998Y-102400002D01*
%TO.C,J2*%
X105075996Y-110180478D02*
X107466226Y-108800477D01*
X107466226Y-108800477D02*
X112656227Y-117789820D01*
X108140412Y-109508201D02*
X107941226Y-109623202D01*
X108570412Y-110252983D02*
X108371225Y-110367982D01*
X108791226Y-111095444D02*
X106400995Y-112475445D01*
X109481982Y-111666585D02*
X109211226Y-111822906D01*
X109824853Y-107565740D02*
X108725000Y-108200739D01*
X109911982Y-112411366D02*
X109641226Y-112567688D01*
X110061226Y-113295149D02*
X107670996Y-114675149D01*
X110265996Y-119169822D02*
X105075996Y-110180478D01*
X110459854Y-108665591D02*
X109824853Y-107565740D01*
X110751982Y-113866289D02*
X110481226Y-114022610D01*
X111181982Y-114611071D02*
X110911226Y-114767392D01*
X111331227Y-115494853D02*
X108940996Y-116874853D01*
X112021982Y-116065994D02*
X111751226Y-116222315D01*
X112451982Y-116810776D02*
X112181226Y-116967097D01*
X112656227Y-117789820D02*
X110265996Y-119169822D01*
D13*
%TO.C,R15*%
X106003382Y-84400000D02*
X125750000Y-84400000D01*
X106003382Y-92600000D02*
X106003382Y-84400000D01*
X106003382Y-92600000D02*
X125750000Y-92600000D01*
X138950000Y-84400000D02*
X144950000Y-84400000D01*
X138950000Y-92600000D02*
X144950000Y-92600000D01*
X144950001Y-84400000D02*
G75*
G02*
X161349999Y-84400001I8199999J-3999999D01*
G01*
X161279114Y-92600000D02*
G75*
G02*
X145020886Y-92600000I-8129114J4199999D01*
G01*
D12*
%TO.C,J3*%
X176624859Y-119030779D02*
X184912150Y-127318071D01*
X178689610Y-117828698D02*
X179043164Y-117475144D01*
X179043164Y-117475144D02*
X182932251Y-121364232D01*
X180202820Y-115452818D02*
X176624859Y-119030779D01*
X180202820Y-115452818D02*
X183780779Y-111874859D01*
X180457377Y-116060931D02*
X180810931Y-115707377D01*
X180810931Y-115707377D02*
X184700018Y-119596465D01*
X182225144Y-114293164D02*
X182578698Y-113939609D01*
X182578698Y-113939609D02*
X186467785Y-117828698D01*
X182578698Y-121717785D02*
X178689610Y-117828698D01*
X182734261Y-123131999D02*
X185308130Y-120558130D01*
X182932251Y-121364232D02*
X182578698Y-121717785D01*
X183780779Y-111874859D02*
X192068071Y-120162150D01*
X184346465Y-119950018D02*
X180457377Y-116060931D01*
X184700018Y-119596465D02*
X184346465Y-119950018D01*
X184912150Y-127318071D02*
X185916242Y-126313979D01*
X185916242Y-126313979D02*
X182734261Y-123131999D01*
X186078876Y-124864410D02*
X186291007Y-125500807D01*
X186114232Y-118182251D02*
X182225144Y-114293164D01*
X186291007Y-125500807D02*
X186715273Y-125076541D01*
X186467785Y-117828698D02*
X186114232Y-118182251D01*
X186715273Y-125076541D02*
X186078876Y-124864410D01*
X187881998Y-117984261D02*
X185308130Y-120558130D01*
X191063979Y-121166242D02*
X187881998Y-117984261D01*
X192068071Y-120162150D02*
X191063979Y-121166242D01*
D10*
%TO.C,U6*%
X151620000Y-87510000D02*
X151620000Y-89290000D01*
X151620000Y-89290000D02*
X151700000Y-89290000D01*
X152650000Y-87510000D02*
X151620000Y-87510000D01*
X152690000Y-89290000D02*
X153600000Y-89290000D01*
X154590000Y-89290000D02*
X154670000Y-89290000D01*
X154670000Y-87510000D02*
X153640000Y-87510000D01*
X154670000Y-89290000D02*
X154670000Y-87510000D01*
X154930000Y-89670000D02*
G75*
G02*
X154670000Y-89670000I-130000J0D01*
G01*
X154670000Y-89670000D02*
G75*
G02*
X154930000Y-89670000I130000J0D01*
G01*
%TD*%
M02*
