M48
; DRILL file {KiCad 9.0.1} date 2025-05-12T15:51:55-0700
; FORMAT={-:-/ absolute / metric / decimal}
; #@! TF.CreationDate,2025-05-12T15:51:55-07:00
; #@! TF.GenerationSoftware,Kicad,Pcbnew,9.0.1
; #@! TF.FileFunction,MixedPlating,1,2
FMAT,2
METRIC
; #@! TA.AperFunction,Plated,PTH,ViaDrill
T1C0.300
; #@! TA.AperFunction,Plated,PTH,ComponentDrill
T2C0.300
; #@! TA.AperFunction,Plated,PTH,ComponentDrill
T3C0.500
; #@! TA.AperFunction,Plated,PTH,ComponentDrill
T4C0.950
; #@! TA.AperFunction,Plated,PTH,ComponentDrill
T5C1.000
; #@! TA.AperFunction,NonPlated,NPTH,ComponentDrill
T6C0.600
; #@! TA.AperFunction,NonPlated,NPTH,ComponentDrill
T7C2.700
; #@! TA.AperFunction,NonPlated,NPTH,ComponentDrill
T8C3.200
%
G90
G05
T1
X106.3Y-89.7
X108.3Y-87.1
X115.6Y-108.7
X117.6Y-108.7
X118.375Y-112.45
X118.4Y-110.5
X119.575Y-88.875
X119.7Y-114.4
X120.855Y-124.645
X120.9Y-110.4
X120.9Y-112.95
X121.95Y-110.4
X121.95Y-113.455
X123.0Y-110.4
X123.0Y-113.95
X124.105Y-108.695
X124.3Y-121.2
X125.47Y-107.23
X125.85Y-127.445
X128.5Y-109.95
X128.5Y-113.1
X128.55Y-116.0
X128.7Y-117.9
X129.1Y-121.9
X129.1Y-125.295
X130.05Y-111.5
X131.6Y-109.95
X131.65Y-113.1
X132.8Y-121.7
X132.8Y-125.1
X132.8Y-129.2
X133.5Y-107.5
X133.8Y-122.6
X133.8Y-123.5
X133.8Y-124.4
X134.1Y-130.5
X135.2Y-122.6
X135.2Y-123.5
X135.2Y-124.4
X136.6Y-85.6
X137.55Y-120.65
X138.8Y-110.55
X138.8Y-111.95
X139.7Y-110.55
X139.7Y-111.95
X140.803Y-122.6
X140.95Y-128.58
X143.351Y-125.1
X146.172Y-128.578
X147.82Y-126.83
X148.0Y-134.4
X148.0Y-135.35
X148.75Y-134.4
X148.75Y-135.35
X151.0Y-83.8
X152.2Y-92.9
X153.8Y-92.9
X156.4Y-132.5
X156.4Y-133.4
X156.8Y-134.4
X156.8Y-135.35
X157.55Y-134.4
X157.55Y-135.35
X158.05Y-89.5
X158.3Y-134.4
X158.3Y-135.35
X159.566Y-126.719
X161.2Y-128.319
X161.545Y-124.855
X162.2Y-132.1
X162.266Y-127.319
X162.266Y-128.319
X162.266Y-129.419
X163.24Y-122.84
X163.366Y-128.319
X165.1Y-133.0
X165.1Y-138.3
X166.5Y-120.8
X167.7Y-127.4
X169.8Y-124.1
X170.445Y-119.145
X170.9Y-112.2
X171.445Y-120.145
X171.7Y-110.2
X172.5Y-108.3
X172.5Y-112.2
X174.025Y-115.375
X175.4Y-106.9
X176.0Y-106.2
X176.45Y-113.9
X176.8Y-108.3
X177.15Y-113.2
X177.15Y-114.6
X177.5Y-107.6
X177.85Y-112.5
X177.85Y-113.9
X178.55Y-111.8
X178.55Y-113.2
X178.7Y-106.3
X179.25Y-112.5
X179.597Y-129.897
X179.774Y-117.426
X179.95Y-109.5
X180.25Y-117.9
X181.05Y-116.1
X181.497Y-131.897
X181.55Y-116.6
X181.7Y-115.45
X181.9Y-129.6
X182.197Y-127.197
X182.2Y-115.95
X184.197Y-129.197
T2
X151.15Y-140.1
X151.15Y-142.1
X155.15Y-140.1
X155.15Y-142.1
T3
X127.2Y-131.4
X131.9Y-135.5
X136.8Y-139.2
X145.7Y-114.3
X168.6Y-115.5
X168.8Y-136.8
X170.2Y-115.6
X171.8Y-115.7
X173.65Y-135.5
T4
X185.018Y-123.804
X186.786Y-122.036
X188.554Y-120.268
T5
X109.36Y-109.301
X110.63Y-111.5
X110.86Y-99.86
X110.86Y-102.4
X111.9Y-113.7
X113.17Y-115.9
X113.4Y-99.86
X113.4Y-102.4
X115.94Y-99.86
X115.94Y-102.4
X118.48Y-99.86
X118.48Y-102.4
T6
X150.26Y-137.8
X156.04Y-137.8
T7
X141.129Y-76.379
X141.129Y-100.421
X165.171Y-76.379
X165.171Y-100.421
T8
X114.65Y-88.4
X153.15Y-49.9
X153.15Y-126.9
X191.65Y-88.4
T3
G00X148.82Y-137.83
M15
G01X148.82Y-136.73
M16
G05
G00X148.82Y-141.88
M15
G01X148.82Y-141.08
M16
G05
G00X157.48Y-137.83
M15
G01X157.48Y-136.73
M16
G05
G00X157.48Y-141.88
M15
G01X157.48Y-141.08
M16
G05
M30
