%TF.GenerationSoftware,KiCad,Pcbnew,9.0.1*%
%TF.CreationDate,2025-05-12T15:51:15-07:00*%
%TF.ProjectId,SmartKnobController_ME507,536d6172-744b-46e6-9f62-436f6e74726f,rev?*%
%TF.SameCoordinates,Original*%
%TF.FileFunction,Copper,L1,Top*%
%TF.FilePolarity,Positive*%
%FSLAX46Y46*%
G04 Gerber Fmt 4.6, Leading zero omitted, Abs format (unit mm)*
G04 Created by KiCad (PCBNEW 9.0.1) date 2025-05-12 15:51:15*
%MOMM*%
%LPD*%
G01*
G04 APERTURE LIST*
G04 Aperture macros list*
%AMRoundRect*
0 Rectangle with rounded corners*
0 $1 Rounding radius*
0 $2 $3 $4 $5 $6 $7 $8 $9 X,Y pos of 4 corners*
0 Add a 4 corners polygon primitive as box body*
4,1,4,$2,$3,$4,$5,$6,$7,$8,$9,$2,$3,0*
0 Add four circle primitives for the rounded corners*
1,1,$1+$1,$2,$3*
1,1,$1+$1,$4,$5*
1,1,$1+$1,$6,$7*
1,1,$1+$1,$8,$9*
0 Add four rect primitives between the rounded corners*
20,1,$1+$1,$2,$3,$4,$5,0*
20,1,$1+$1,$4,$5,$6,$7,0*
20,1,$1+$1,$6,$7,$8,$9,0*
20,1,$1+$1,$8,$9,$2,$3,0*%
%AMHorizOval*
0 Thick line with rounded ends*
0 $1 width*
0 $2 $3 position (X,Y) of the first rounded end (center of the circle)*
0 $4 $5 position (X,Y) of the second rounded end (center of the circle)*
0 Add line between two ends*
20,1,$1,$2,$3,$4,$5,0*
0 Add two circle primitives to create the rounded ends*
1,1,$1,$2,$3*
1,1,$1,$4,$5*%
%AMRotRect*
0 Rectangle, with rotation*
0 The origin of the aperture is its center*
0 $1 length*
0 $2 width*
0 $3 Rotation angle, in degrees counterclockwise*
0 Add horizontal line*
21,1,$1,$2,0,0,$3*%
G04 Aperture macros list end*
%TA.AperFunction,SMDPad,CuDef*%
%ADD10R,0.300000X0.550000*%
%TD*%
%TA.AperFunction,SMDPad,CuDef*%
%ADD11R,0.550000X0.300000*%
%TD*%
%TA.AperFunction,SMDPad,CuDef*%
%ADD12R,5.600000X5.600000*%
%TD*%
%TA.AperFunction,SMDPad,CuDef*%
%ADD13RoundRect,0.200000X-0.275000X0.200000X-0.275000X-0.200000X0.275000X-0.200000X0.275000X0.200000X0*%
%TD*%
%TA.AperFunction,ComponentPad*%
%ADD14RoundRect,0.225000X-0.212132X-0.530330X0.530330X0.212132X0.212132X0.530330X-0.530330X-0.212132X0*%
%TD*%
%TA.AperFunction,SMDPad,CuDef*%
%ADD15RoundRect,0.140000X-0.140000X-0.170000X0.140000X-0.170000X0.140000X0.170000X-0.140000X0.170000X0*%
%TD*%
%TA.AperFunction,SMDPad,CuDef*%
%ADD16RoundRect,0.200000X0.335876X0.053033X0.053033X0.335876X-0.335876X-0.053033X-0.053033X-0.335876X0*%
%TD*%
%TA.AperFunction,SMDPad,CuDef*%
%ADD17RoundRect,0.140000X0.140000X0.170000X-0.140000X0.170000X-0.140000X-0.170000X0.140000X-0.170000X0*%
%TD*%
%TA.AperFunction,SMDPad,CuDef*%
%ADD18RoundRect,0.140000X0.021213X-0.219203X0.219203X-0.021213X-0.021213X0.219203X-0.219203X0.021213X0*%
%TD*%
%TA.AperFunction,SMDPad,CuDef*%
%ADD19R,2.470000X0.980000*%
%TD*%
%TA.AperFunction,SMDPad,CuDef*%
%ADD20R,2.470000X3.600000*%
%TD*%
%TA.AperFunction,SMDPad,CuDef*%
%ADD21RoundRect,0.140000X0.170000X-0.140000X0.170000X0.140000X-0.170000X0.140000X-0.170000X-0.140000X0*%
%TD*%
%TA.AperFunction,SMDPad,CuDef*%
%ADD22RoundRect,0.140000X-0.170000X0.140000X-0.170000X-0.140000X0.170000X-0.140000X0.170000X0.140000X0*%
%TD*%
%TA.AperFunction,ComponentPad*%
%ADD23RoundRect,0.225000X-0.530330X0.212132X0.212132X-0.530330X0.530330X-0.212132X-0.212132X0.530330X0*%
%TD*%
%TA.AperFunction,SMDPad,CuDef*%
%ADD24RoundRect,0.242500X0.242500X0.457500X-0.242500X0.457500X-0.242500X-0.457500X0.242500X-0.457500X0*%
%TD*%
%TA.AperFunction,SMDPad,CuDef*%
%ADD25RotRect,0.254000X0.812800X315.000000*%
%TD*%
%TA.AperFunction,SMDPad,CuDef*%
%ADD26RotRect,0.254000X0.812800X225.000000*%
%TD*%
%TA.AperFunction,SMDPad,CuDef*%
%ADD27RotRect,2.641600X2.641600X225.000000*%
%TD*%
%TA.AperFunction,ComponentPad*%
%ADD28RoundRect,0.225000X-0.525000X-0.225000X0.525000X-0.225000X0.525000X0.225000X-0.525000X0.225000X0*%
%TD*%
%TA.AperFunction,SMDPad,CuDef*%
%ADD29RoundRect,0.150000X0.590000X0.150000X-0.590000X0.150000X-0.590000X-0.150000X0.590000X-0.150000X0*%
%TD*%
%TA.AperFunction,SMDPad,CuDef*%
%ADD30RoundRect,0.200000X0.275000X-0.200000X0.275000X0.200000X-0.275000X0.200000X-0.275000X-0.200000X0*%
%TD*%
%TA.AperFunction,SMDPad,CuDef*%
%ADD31RoundRect,0.140000X-0.219203X-0.021213X-0.021213X-0.219203X0.219203X0.021213X0.021213X0.219203X0*%
%TD*%
%TA.AperFunction,SMDPad,CuDef*%
%ADD32RoundRect,0.200000X-0.335876X-0.053033X-0.053033X-0.335876X0.335876X0.053033X0.053033X0.335876X0*%
%TD*%
%TA.AperFunction,SMDPad,CuDef*%
%ADD33RoundRect,0.140000X0.219203X0.021213X0.021213X0.219203X-0.219203X-0.021213X-0.021213X-0.219203X0*%
%TD*%
%TA.AperFunction,SMDPad,CuDef*%
%ADD34RoundRect,0.250000X0.350000X-0.450000X0.350000X0.450000X-0.350000X0.450000X-0.350000X-0.450000X0*%
%TD*%
%TA.AperFunction,SMDPad,CuDef*%
%ADD35RoundRect,0.140000X-0.021213X0.219203X-0.219203X0.021213X0.021213X-0.219203X0.219203X-0.021213X0*%
%TD*%
%TA.AperFunction,SMDPad,CuDef*%
%ADD36RoundRect,0.220000X-0.255000X0.220000X-0.255000X-0.220000X0.255000X-0.220000X0.255000X0.220000X0*%
%TD*%
%TA.AperFunction,SMDPad,CuDef*%
%ADD37HorizOval,0.340000X-0.491439X0.491439X0.491439X-0.491439X0*%
%TD*%
%TA.AperFunction,SMDPad,CuDef*%
%ADD38RotRect,6.200000X2.750000X45.000000*%
%TD*%
%TA.AperFunction,SMDPad,CuDef*%
%ADD39RoundRect,0.250000X0.159099X-0.512652X0.512652X-0.159099X-0.159099X0.512652X-0.512652X0.159099X0*%
%TD*%
%TA.AperFunction,SMDPad,CuDef*%
%ADD40R,0.600000X1.100000*%
%TD*%
%TA.AperFunction,SMDPad,CuDef*%
%ADD41RoundRect,0.225000X0.250000X-0.225000X0.250000X0.225000X-0.250000X0.225000X-0.250000X-0.225000X0*%
%TD*%
%TA.AperFunction,SMDPad,CuDef*%
%ADD42RoundRect,0.250000X0.512652X0.159099X0.159099X0.512652X-0.512652X-0.159099X-0.159099X-0.512652X0*%
%TD*%
%TA.AperFunction,SMDPad,CuDef*%
%ADD43R,0.900000X1.000000*%
%TD*%
%TA.AperFunction,SMDPad,CuDef*%
%ADD44R,1.700000X0.550000*%
%TD*%
%TA.AperFunction,SMDPad,CuDef*%
%ADD45RotRect,2.800000X5.000000X135.000000*%
%TD*%
%TA.AperFunction,SMDPad,CuDef*%
%ADD46RotRect,4.000000X5.000000X135.000000*%
%TD*%
%TA.AperFunction,SMDPad,CuDef*%
%ADD47R,0.400000X1.700000*%
%TD*%
%TA.AperFunction,SMDPad,CuDef*%
%ADD48RoundRect,0.200000X-0.200000X-0.275000X0.200000X-0.275000X0.200000X0.275000X-0.200000X0.275000X0*%
%TD*%
%TA.AperFunction,ComponentPad*%
%ADD49RoundRect,0.225000X0.525000X0.225000X-0.525000X0.225000X-0.525000X-0.225000X0.525000X-0.225000X0*%
%TD*%
%TA.AperFunction,ComponentPad*%
%ADD50RoundRect,0.225000X0.212132X0.530330X-0.530330X-0.212132X-0.212132X-0.530330X0.530330X0.212132X0*%
%TD*%
%TA.AperFunction,ComponentPad*%
%ADD51R,1.700000X1.700000*%
%TD*%
%TA.AperFunction,ComponentPad*%
%ADD52C,1.700000*%
%TD*%
%TA.AperFunction,ComponentPad*%
%ADD53RotRect,1.700000X1.700000X210.000000*%
%TD*%
%TA.AperFunction,ComponentPad*%
%ADD54O,1.300000X2.100000*%
%TD*%
%TA.AperFunction,ComponentPad*%
%ADD55O,1.300000X2.300000*%
%TD*%
%TA.AperFunction,ComponentPad*%
%ADD56C,0.500000*%
%TD*%
%TA.AperFunction,ComponentPad*%
%ADD57RoundRect,0.250000X0.088388X-0.936916X0.936916X-0.088388X-0.088388X0.936916X-0.936916X0.088388X0*%
%TD*%
%TA.AperFunction,ComponentPad*%
%ADD58HorizOval,1.700000X-0.088388X0.088388X0.088388X-0.088388X0*%
%TD*%
%TA.AperFunction,ViaPad*%
%ADD59C,0.700000*%
%TD*%
%TA.AperFunction,Conductor*%
%ADD60C,0.700000*%
%TD*%
%TA.AperFunction,Conductor*%
%ADD61C,0.500000*%
%TD*%
%TA.AperFunction,Conductor*%
%ADD62C,0.600000*%
%TD*%
%TA.AperFunction,Conductor*%
%ADD63C,0.300000*%
%TD*%
%TA.AperFunction,Conductor*%
%ADD64C,0.900000*%
%TD*%
%TA.AperFunction,Conductor*%
%ADD65C,0.299000*%
%TD*%
%TA.AperFunction,Conductor*%
%ADD66C,1.500000*%
%TD*%
%TA.AperFunction,Conductor*%
%ADD67C,1.000000*%
%TD*%
%TA.AperFunction,Conductor*%
%ADD68C,0.250000*%
%TD*%
G04 APERTURE END LIST*
D10*
%TO.P,U4,1,VBAT*%
%TO.N,+3.3V*%
X127300000Y-114875000D03*
%TO.P,U4,2,PC13*%
%TO.N,unconnected-(U4-PC13-Pad2)*%
X127800000Y-114875000D03*
%TO.P,U4,3,PC14*%
%TO.N,unconnected-(U4-PC14-Pad3)*%
X128300001Y-114875000D03*
%TO.P,U4,4,PC15*%
%TO.N,unconnected-(U4-PC15-Pad4)*%
X128800000Y-114875000D03*
%TO.P,U4,5,PH0*%
%TO.N,/OSC_IN*%
X129300000Y-114874999D03*
%TO.P,U4,6,PH1*%
%TO.N,/OSC_OUT*%
X129800000Y-114875000D03*
%TO.P,U4,7,NRST*%
%TO.N,/NRST*%
X130300000Y-114875000D03*
%TO.P,U4,8,VSSA*%
%TO.N,GND*%
X130800000Y-114874999D03*
%TO.P,U4,9,VDDA*%
%TO.N,+3.3VA*%
X131300000Y-114875000D03*
%TO.P,U4,10,PA0*%
%TO.N,/FSR_ADC*%
X131799999Y-114875000D03*
%TO.P,U4,11,PA1*%
%TO.N,/USER*%
X132300000Y-114875000D03*
%TO.P,U4,12,PA2*%
%TO.N,/TIM2_CH3*%
X132800000Y-114875000D03*
D11*
%TO.P,U4,13,PA3*%
%TO.N,/TIM2_CH4*%
X133425000Y-114250000D03*
%TO.P,U4,14,PA4*%
%TO.N,/MOT_EN2*%
X133425000Y-113750000D03*
%TO.P,U4,15,PA5*%
%TO.N,/TIM2_CH1*%
X133425000Y-113249999D03*
%TO.P,U4,16,PA6*%
%TO.N,/MOT_EN3*%
X133425000Y-112750000D03*
%TO.P,U4,17,PA7*%
%TO.N,/MOT_EN1*%
X133424999Y-112250000D03*
%TO.P,U4,18,PB0*%
%TO.N,/DRV_nFLT*%
X133425000Y-111750000D03*
%TO.P,U4,19,PB1*%
%TO.N,/HALL_ADC*%
X133425000Y-111250000D03*
%TO.P,U4,20,PB2*%
%TO.N,/DRV_nSLP*%
X133424999Y-110750000D03*
%TO.P,U4,21,PB10*%
%TO.N,/DRV_nRST*%
X133425000Y-110250000D03*
%TO.P,U4,22,VCAP_1*%
%TO.N,Net-(U4-VCAP_1)*%
X133425000Y-109750001D03*
%TO.P,U4,23,VSS*%
%TO.N,GND*%
X133425000Y-109250000D03*
%TO.P,U4,24,VDD*%
%TO.N,+3.3V*%
X133425000Y-108750000D03*
D10*
%TO.P,U4,25,PB12*%
%TO.N,/ENC_CSn*%
X132800000Y-108125000D03*
%TO.P,U4,26,PB13*%
%TO.N,/ENC_SCK*%
X132300000Y-108125000D03*
%TO.P,U4,27,PB14*%
%TO.N,/ENC_MISO*%
X131799999Y-108125000D03*
%TO.P,U4,28,PB15*%
%TO.N,/ENC_MOSI*%
X131300000Y-108125000D03*
%TO.P,U4,29,PA8*%
%TO.N,/TIM1_CH1*%
X130800000Y-108125001D03*
%TO.P,U4,30,PA9*%
%TO.N,/TIM1_CH2*%
X130300000Y-108125000D03*
%TO.P,U4,31,PA10*%
%TO.N,/ENC_I*%
X129800000Y-108125000D03*
%TO.P,U4,32,PA11*%
%TO.N,/TX6*%
X129300000Y-108125001D03*
%TO.P,U4,33,PA12*%
%TO.N,/RX6*%
X128800000Y-108125000D03*
%TO.P,U4,34,PA13*%
%TO.N,/SWDIO*%
X128300001Y-108125000D03*
%TO.P,U4,35,VSS*%
%TO.N,GND*%
X127800000Y-108125000D03*
%TO.P,U4,36,VDD*%
%TO.N,+3.3V*%
X127300000Y-108125000D03*
D11*
%TO.P,U4,37,PA14*%
%TO.N,/SWCLK*%
X126675000Y-108750000D03*
%TO.P,U4,38,PA15*%
%TO.N,unconnected-(U4-PA15-Pad38)*%
X126675000Y-109250000D03*
%TO.P,U4,39,PB3*%
%TO.N,/SWO*%
X126675000Y-109750001D03*
%TO.P,U4,40,PB4*%
%TO.N,unconnected-(U4-PB4-Pad40)*%
X126675000Y-110250000D03*
%TO.P,U4,41,PB5*%
%TO.N,/PD_nINT*%
X126675001Y-110750000D03*
%TO.P,U4,42,PB6*%
%TO.N,/TX1*%
X126675000Y-111250000D03*
%TO.P,U4,43,PB7*%
%TO.N,/RX1*%
X126675000Y-111750000D03*
%TO.P,U4,44,BOOT0*%
%TO.N,/BOOT0*%
X126675001Y-112250000D03*
%TO.P,U4,45,PB8*%
%TO.N,/PD_SCL*%
X126675000Y-112750000D03*
%TO.P,U4,46,PB9*%
%TO.N,/PD_SDA*%
X126675000Y-113249999D03*
%TO.P,U4,47,VSS*%
%TO.N,GND*%
X126675000Y-113750000D03*
%TO.P,U4,48,VDD*%
%TO.N,+3.3V*%
X126675000Y-114250000D03*
D12*
%TO.P,U4,49,GND*%
%TO.N,GND*%
X130050000Y-111500000D03*
%TD*%
D13*
%TO.P,R16,1*%
%TO.N,Net-(D1-Pad1)*%
X139100000Y-128879999D03*
%TO.P,R16,2*%
%TO.N,Net-(Q1-D)*%
X139100000Y-130520001D03*
%TD*%
D14*
%TO.P,TP3,1,1*%
%TO.N,+12V*%
X168800000Y-136800000D03*
%TD*%
D15*
%TO.P,C19,1*%
%TO.N,/V_BUS*%
X161212564Y-133116386D03*
%TO.P,C19,2*%
%TO.N,GND*%
X162212562Y-133116386D03*
%TD*%
D16*
%TO.P,R9,1*%
%TO.N,/ISNK_C*%
X168445634Y-121052740D03*
%TO.P,R9,2*%
%TO.N,GND*%
X167285978Y-119893084D03*
%TD*%
D17*
%TO.P,R1,1*%
%TO.N,+3.3V*%
X131299999Y-121700000D03*
%TO.P,R1,2*%
%TO.N,/NRST*%
X130300001Y-121700000D03*
%TD*%
D15*
%TO.P,C4,1*%
%TO.N,+3.3V*%
X134550001Y-107500000D03*
%TO.P,C4,2*%
%TO.N,GND*%
X135549999Y-107500000D03*
%TD*%
D18*
%TO.P,C31,1*%
%TO.N,Net-(U2-V3P3OUT)*%
X177346447Y-106353553D03*
%TO.P,C31,2*%
%TO.N,GND*%
X178053553Y-105646447D03*
%TD*%
D19*
%TO.P,U3,1,GND*%
%TO.N,GND*%
X144730000Y-137800000D03*
%TO.P,U3,2,OUT*%
%TO.N,+3.3V*%
X144730000Y-135500000D03*
%TO.P,U3,3,IN*%
%TO.N,/V_BUS*%
X144730000Y-133200000D03*
D20*
%TO.P,U3,4,OUT*%
%TO.N,+3.3V*%
X139070000Y-135500000D03*
%TD*%
D21*
%TO.P,C13,1*%
%TO.N,/OSC_OUT*%
X129019999Y-120799999D03*
%TO.P,C13,2*%
%TO.N,GND*%
X129019999Y-119800001D03*
%TD*%
D22*
%TO.P,R22,1*%
%TO.N,+3.3V*%
X120900001Y-108700001D03*
%TO.P,R22,2*%
%TO.N,/PD_SCL*%
X120900001Y-109700001D03*
%TD*%
%TO.P,C22,1*%
%TO.N,/V_BUS*%
X159039340Y-137200002D03*
%TO.P,C22,2*%
%TO.N,/FET_EN_2*%
X159039340Y-138200000D03*
%TD*%
D17*
%TO.P,C7,1*%
%TO.N,+3.3VA*%
X132049998Y-117362500D03*
%TO.P,C7,2*%
%TO.N,GND*%
X131050000Y-117362500D03*
%TD*%
D23*
%TO.P,TP4,1,1*%
%TO.N,/HALL_ADC*%
X145700000Y-114300000D03*
%TD*%
D24*
%TO.P,D3,1*%
%TO.N,/PWR_LED*%
X154089999Y-139000000D03*
%TO.P,D3,2*%
%TO.N,+3.3V*%
X152210001Y-139000000D03*
%TD*%
D16*
%TO.P,R10,1*%
%TO.N,/ISNK_FINE*%
X165119359Y-123219359D03*
%TO.P,R10,2*%
%TO.N,GND*%
X163959703Y-122059703D03*
%TD*%
D25*
%TO.P,U1,1,VBUS_MIN*%
%TO.N,/VBUS_MIN*%
X164487747Y-127865184D03*
%TO.P,U1,2,VBUS_MAX*%
%TO.N,/VBUS_MAX*%
X164134194Y-127511632D03*
%TO.P,U1,3,VBUS_FET_EN*%
%TO.N,/VBUS_FET_EN*%
X163780640Y-127158078D03*
%TO.P,U1,4,SAFE_PWR_EN*%
%TO.N,unconnected-(U1-SAFE_PWR_EN-Pad4)*%
X163427086Y-126804524D03*
%TO.P,U1,5,ISNK_COARSE*%
%TO.N,/ISNK_C*%
X163073532Y-126450970D03*
%TO.P,U1,6,ISNK_FINE*%
%TO.N,/ISNK_FINE*%
X162719980Y-126097417D03*
D26*
%TO.P,U1,7,~{HPI_INT}*%
%TO.N,/PD_nINT*%
X161811630Y-126097417D03*
%TO.P,U1,8,GPIO_1*%
%TO.N,unconnected-(U1-GPIO_1-Pad8)*%
X161458078Y-126450970D03*
%TO.P,U1,9,FAULT*%
%TO.N,/FAULT*%
X161104524Y-126804524D03*
%TO.P,U1,10,FLIP*%
%TO.N,unconnected-(U1-FLIP-Pad10)*%
X160750970Y-127158078D03*
%TO.P,U1,11,VDC_OUT*%
%TO.N,+12V*%
X160397416Y-127511632D03*
%TO.P,U1,12,HPI_SDA*%
%TO.N,/PD_SDA*%
X160043863Y-127865184D03*
D25*
%TO.P,U1,13,HPI_SCL*%
%TO.N,/PD_SCL*%
X160043863Y-128773534D03*
%TO.P,U1,14,CC2*%
%TO.N,Net-(J1-CC2)*%
X160397416Y-129127086D03*
%TO.P,U1,15,CC1*%
%TO.N,Net-(J1-CC1)*%
X160750970Y-129480640D03*
%TO.P,U1,16,D-*%
%TO.N,unconnected-(U1-D--Pad16)*%
X161104524Y-129834194D03*
%TO.P,U1,17,D+*%
%TO.N,unconnected-(U1-D+-Pad17)*%
X161458078Y-130187748D03*
%TO.P,U1,18,VBUS_IN*%
%TO.N,/V_BUS*%
X161811630Y-130541301D03*
D26*
%TO.P,U1,19,GND*%
%TO.N,GND*%
X162719980Y-130541301D03*
%TO.P,U1,20,DNU1*%
%TO.N,unconnected-(U1-DNU1-Pad20)*%
X163073532Y-130187748D03*
%TO.P,U1,21,DNU2*%
%TO.N,unconnected-(U1-DNU2-Pad21)*%
X163427086Y-129834194D03*
%TO.P,U1,22,GND*%
%TO.N,GND*%
X163780640Y-129480640D03*
%TO.P,U1,23,VDDD*%
%TO.N,/3.3V_PD*%
X164134194Y-129127086D03*
%TO.P,U1,24,VCCD*%
%TO.N,Net-(U1-VCCD)*%
X164487747Y-128773534D03*
D27*
%TO.P,U1,25,EP*%
%TO.N,GND*%
X162265805Y-128319359D03*
%TD*%
D14*
%TO.P,TP9,1,1*%
%TO.N,/TIM2_CH4*%
X170200000Y-115600000D03*
%TD*%
D21*
%TO.P,C1,1*%
%TO.N,Net-(U4-VCAP_1)*%
X134799999Y-109499999D03*
%TO.P,C1,2*%
%TO.N,GND*%
X134799999Y-108500001D03*
%TD*%
D22*
%TO.P,R23,1*%
%TO.N,+3.3V*%
X121950001Y-108700001D03*
%TO.P,R23,2*%
%TO.N,/PD_SDA*%
X121950001Y-109700001D03*
%TD*%
D28*
%TO.P,TP2,1,1*%
%TO.N,GND*%
X173650000Y-135500000D03*
%TD*%
D29*
%TO.P,Q1,1,G*%
%TO.N,/FAULT*%
X142830000Y-130629999D03*
%TO.P,Q1,2,S*%
%TO.N,GND*%
X142830000Y-128729999D03*
%TO.P,Q1,3,D*%
%TO.N,Net-(Q1-D)*%
X140950001Y-129679999D03*
%TD*%
D30*
%TO.P,R20,1*%
%TO.N,/FAULT*%
X144640000Y-130500000D03*
%TO.P,R20,2*%
%TO.N,GND*%
X144640000Y-128859998D03*
%TD*%
D15*
%TO.P,C20,1*%
%TO.N,/V_BUS*%
X161200001Y-134300000D03*
%TO.P,C20,2*%
%TO.N,GND*%
X162199999Y-134300000D03*
%TD*%
D31*
%TO.P,C18,1*%
%TO.N,Net-(U1-VCCD)*%
X166065806Y-127365806D03*
%TO.P,C18,2*%
%TO.N,GND*%
X166772912Y-128072912D03*
%TD*%
D14*
%TO.P,TP8,1,1*%
%TO.N,/TIM2_CH3*%
X168600000Y-115500000D03*
%TD*%
D32*
%TO.P,R5,1*%
%TO.N,/VBUS_MAX*%
X169539531Y-122139531D03*
%TO.P,R5,2*%
%TO.N,GND*%
X170699187Y-123299187D03*
%TD*%
D28*
%TO.P,TP10,1,1*%
%TO.N,GND*%
X131900000Y-135500000D03*
%TD*%
D22*
%TO.P,C21,1*%
%TO.N,+12V*%
X164300000Y-137300001D03*
%TO.P,C21,2*%
%TO.N,/FET_EN_2*%
X164300000Y-138299999D03*
%TD*%
D16*
%TO.P,R4,1*%
%TO.N,/3.3V_PD*%
X171759847Y-122238527D03*
%TO.P,R4,2*%
%TO.N,/VBUS_MAX*%
X170600191Y-121078871D03*
%TD*%
D22*
%TO.P,C25,1*%
%TO.N,/V_BUS*%
X147150000Y-135350001D03*
%TO.P,C25,2*%
%TO.N,GND*%
X147150000Y-136349999D03*
%TD*%
D15*
%TO.P,C5,1*%
%TO.N,+3.3V*%
X126700001Y-115999999D03*
%TO.P,C5,2*%
%TO.N,GND*%
X127699999Y-115999999D03*
%TD*%
D33*
%TO.P,C15,1*%
%TO.N,/3.3V_PD*%
X166872912Y-129872912D03*
%TO.P,C15,2*%
%TO.N,GND*%
X166165806Y-129165806D03*
%TD*%
D17*
%TO.P,C9,1*%
%TO.N,+3.3V*%
X132049999Y-120600000D03*
%TO.P,C9,2*%
%TO.N,GND*%
X131050001Y-120600000D03*
%TD*%
D34*
%TO.P,X2,1,OSC*%
%TO.N,/OSC_OUT*%
X127600000Y-121300000D03*
%TO.P,X2,2,GND*%
%TO.N,GND*%
X127600000Y-119100002D03*
%TO.P,X2,3,OSC*%
%TO.N,/OSC_IN*%
X125840000Y-119100002D03*
%TO.P,X2,4,GND*%
%TO.N,GND*%
X125840000Y-121300000D03*
%TD*%
D35*
%TO.P,C17,1*%
%TO.N,/3.3V_PD*%
X166022912Y-130715806D03*
%TO.P,C17,2*%
%TO.N,GND*%
X165315806Y-131422912D03*
%TD*%
D22*
%TO.P,R24,1*%
%TO.N,+3.3V*%
X123000001Y-108700001D03*
%TO.P,R24,2*%
%TO.N,/PD_nINT*%
X122999999Y-109699999D03*
%TD*%
D32*
%TO.P,R7,1*%
%TO.N,/VBUS_MIN*%
X167439531Y-125539531D03*
%TO.P,R7,2*%
%TO.N,GND*%
X168599187Y-126699187D03*
%TD*%
D22*
%TO.P,C12,1*%
%TO.N,/USER*%
X149800000Y-132900001D03*
%TO.P,C12,2*%
%TO.N,+3.3V*%
X149800000Y-133899999D03*
%TD*%
D36*
%TO.P,D1,1*%
%TO.N,Net-(D1-Pad1)*%
X137350000Y-128910001D03*
%TO.P,D1,2*%
%TO.N,+3.3V*%
X137350000Y-130489999D03*
%TD*%
D21*
%TO.P,C2,1*%
%TO.N,+3.3V*%
X125550001Y-114899999D03*
%TO.P,C2,2*%
%TO.N,GND*%
X125550001Y-113900001D03*
%TD*%
D37*
%TO.P,U2,1,CP1*%
%TO.N,Net-(U2-CP1)*%
X176888335Y-118220458D03*
%TO.P,U2,2,CP2*%
%TO.N,Net-(U2-CP2)*%
X177347954Y-117760839D03*
%TO.P,U2,3,VCP*%
%TO.N,Net-(U2-VCP)*%
X177807574Y-117301219D03*
%TO.P,U2,4,VM*%
%TO.N,+12V*%
X178267193Y-116841600D03*
%TO.P,U2,5,OUT1*%
%TO.N,/MOT_1*%
X178726812Y-116381981D03*
%TO.P,U2,6,PGND1*%
%TO.N,GND*%
X179186432Y-115922361D03*
%TO.P,U2,7,PGND2*%
X179653122Y-115455671D03*
%TO.P,U2,8,OUT2*%
%TO.N,/MOT_2*%
X180112742Y-114996051D03*
%TO.P,U2,9,OUT3*%
%TO.N,/MOT_3*%
X180572361Y-114536432D03*
%TO.P,U2,10,PGND3*%
%TO.N,GND*%
X181031981Y-114076812D03*
%TO.P,U2,11,VM*%
%TO.N,+12V*%
X181491600Y-113617193D03*
%TO.P,U2,12,COMPP*%
%TO.N,GND*%
X181951219Y-113157574D03*
%TO.P,U2,13,COMPN*%
X182410839Y-112697954D03*
%TO.P,U2,14,GND*%
X182870458Y-112238335D03*
%TO.P,U2,15,V3P3OUT*%
%TO.N,Net-(U2-V3P3OUT)*%
X178811665Y-108179542D03*
%TO.P,U2,16,~{RESET}*%
%TO.N,/DRV_nRST*%
X178352046Y-108639161D03*
%TO.P,U2,17,~{SLEEP}*%
%TO.N,/DRV_nSLP*%
X177892426Y-109098781D03*
%TO.P,U2,18,~{FAULT}*%
%TO.N,/DRV_nFLT*%
X177432807Y-109558400D03*
%TO.P,U2,19,~{COMPO}*%
%TO.N,GND*%
X176973188Y-110018019D03*
%TO.P,U2,20,GND*%
X176513568Y-110477639D03*
%TO.P,U2,21,NC*%
X176053949Y-110937258D03*
%TO.P,U2,22,EN3*%
%TO.N,/MOT_EN3*%
X175594329Y-111396878D03*
%TO.P,U2,23,IN3*%
%TO.N,/TIM2_CH1*%
X175127639Y-111863568D03*
%TO.P,U2,24,EN2*%
%TO.N,/MOT_EN2*%
X174668019Y-112323188D03*
%TO.P,U2,25,IN2*%
%TO.N,/TIM2_CH4*%
X174208400Y-112782807D03*
%TO.P,U2,26,EN1*%
%TO.N,/MOT_EN1*%
X173748781Y-113242426D03*
%TO.P,U2,27,IN1*%
%TO.N,/TIM2_CH3*%
X173289161Y-113702046D03*
%TO.P,U2,28,GND*%
%TO.N,GND*%
X172829542Y-114161665D03*
D38*
%TO.P,U2,29,EP*%
X177850000Y-113200000D03*
%TD*%
D39*
%TO.P,C33,1*%
%TO.N,+12V*%
X180878249Y-119071751D03*
%TO.P,C33,2*%
%TO.N,GND*%
X182221751Y-117728249D03*
%TD*%
D15*
%TO.P,C3,1*%
%TO.N,+3.3V*%
X126550000Y-107000000D03*
%TO.P,C3,2*%
%TO.N,GND*%
X127549998Y-107000000D03*
%TD*%
D22*
%TO.P,R2,1*%
%TO.N,/BOOT0*%
X119700000Y-112400001D03*
%TO.P,R2,2*%
%TO.N,GND*%
X119700000Y-113399999D03*
%TD*%
D40*
%TO.P,Q3,1,G1*%
%TO.N,/G*%
X161250000Y-138450000D03*
%TO.P,Q3,2,S2*%
%TO.N,/S*%
X162200000Y-138450000D03*
%TO.P,Q3,3,G2*%
%TO.N,/G*%
X163150000Y-138450000D03*
%TO.P,Q3,4,D2*%
%TO.N,+12V*%
X163150000Y-135750000D03*
%TO.P,Q3,5,S1*%
%TO.N,/S*%
X162200000Y-135750000D03*
%TO.P,Q3,6,D1*%
%TO.N,/V_BUS*%
X161250000Y-135750000D03*
%TD*%
D28*
%TO.P,TP1,1,1*%
%TO.N,+3.3V*%
X136800000Y-139200000D03*
%TD*%
D35*
%TO.P,C16,1*%
%TO.N,/3.3V_PD*%
X165272912Y-129965806D03*
%TO.P,C16,2*%
%TO.N,GND*%
X164565806Y-130672912D03*
%TD*%
D21*
%TO.P,R25,1*%
%TO.N,GND*%
X136350000Y-119049999D03*
%TO.P,R25,2*%
%TO.N,/USER*%
X136350000Y-118050001D03*
%TD*%
D41*
%TO.P,C26,1*%
%TO.N,+3.3V*%
X147150000Y-139380000D03*
%TO.P,C26,2*%
%TO.N,GND*%
X147150000Y-137820000D03*
%TD*%
D17*
%TO.P,C8,1*%
%TO.N,+3.3VA*%
X132049999Y-119000001D03*
%TO.P,C8,2*%
%TO.N,GND*%
X131050001Y-118999999D03*
%TD*%
D42*
%TO.P,C35,1*%
%TO.N,+12V*%
X179721751Y-120671751D03*
%TO.P,C35,2*%
%TO.N,Net-(U2-VCP)*%
X178378249Y-119328249D03*
%TD*%
D31*
%TO.P,C32,1*%
%TO.N,Net-(U2-CP2)*%
X174660661Y-117889340D03*
%TO.P,C32,2*%
%TO.N,Net-(U2-CP1)*%
X175367767Y-118596446D03*
%TD*%
D32*
%TO.P,R8,1*%
%TO.N,/3.3V_PD*%
X168346638Y-118832424D03*
%TO.P,R8,2*%
%TO.N,/ISNK_C*%
X169506294Y-119992080D03*
%TD*%
D15*
%TO.P,C28,1*%
%TO.N,GND*%
X151850001Y-83800000D03*
%TO.P,C28,2*%
%TO.N,+3.3V*%
X152849999Y-83800000D03*
%TD*%
D22*
%TO.P,C10,1*%
%TO.N,/NRST*%
X125795001Y-125510001D03*
%TO.P,C10,2*%
%TO.N,GND*%
X125795001Y-126509999D03*
%TD*%
D43*
%TO.P,SW2,1*%
%TO.N,+3.3V*%
X151100000Y-134205000D03*
%TO.P,SW2,2*%
%TO.N,/USER*%
X151100000Y-132605000D03*
%TO.P,SW2,3*%
X155200000Y-132605000D03*
%TO.P,SW2,4*%
%TO.N,+3.3V*%
X155200000Y-134205000D03*
D44*
%TO.P,SW2,5*%
%TO.N,unconnected-(SW2-Pad5)*%
X153150000Y-134825000D03*
%TD*%
D45*
%TO.P,C14,1*%
%TO.N,+12V*%
X178293756Y-125993756D03*
D46*
%TO.P,C14,2*%
%TO.N,GND*%
X181900000Y-129600000D03*
%TD*%
D15*
%TO.P,R13,1*%
%TO.N,/G*%
X163300001Y-139800000D03*
%TO.P,R13,2*%
%TO.N,/FET_EN_2*%
X164299999Y-139800000D03*
%TD*%
D16*
%TO.P,R6,1*%
%TO.N,/3.3V_PD*%
X169599187Y-125699187D03*
%TO.P,R6,2*%
%TO.N,/VBUS_MIN*%
X168439531Y-124539531D03*
%TD*%
D36*
%TO.P,FB1,1*%
%TO.N,+3.3VA*%
X133350000Y-119010001D03*
%TO.P,FB1,2*%
%TO.N,+3.3V*%
X133350000Y-120589999D03*
%TD*%
D47*
%TO.P,U5,1,CSn*%
%TO.N,/ENC_CSn*%
X151200000Y-91200000D03*
%TO.P,U5,2,CLK*%
%TO.N,/ENC_SCK*%
X151850000Y-91200000D03*
%TO.P,U5,3,MISO*%
%TO.N,/ENC_MISO*%
X152500001Y-91200000D03*
%TO.P,U5,4,MOSI*%
%TO.N,/ENC_MOSI*%
X153150000Y-91200000D03*
%TO.P,U5,5,Test*%
%TO.N,GND*%
X153799999Y-91200000D03*
%TO.P,U5,6,B*%
%TO.N,/TIM1_CH1*%
X154450000Y-91200000D03*
%TO.P,U5,7,A*%
%TO.N,/TIM1_CH2*%
X155100000Y-91200000D03*
%TO.P,U5,8,W/PWM*%
%TO.N,unconnected-(U5-W{slash}PWM-Pad8)*%
X155100000Y-85600000D03*
%TO.P,U5,9,V*%
%TO.N,unconnected-(U5-V-Pad9)*%
X154450000Y-85600000D03*
%TO.P,U5,10,U*%
%TO.N,unconnected-(U5-U-Pad10)*%
X153799999Y-85600000D03*
%TO.P,U5,11,VDD*%
%TO.N,+3.3V*%
X153150000Y-85600000D03*
%TO.P,U5,12,VDD3V3*%
X152500001Y-85600000D03*
%TO.P,U5,13,GND*%
%TO.N,GND*%
X151850000Y-85600000D03*
%TO.P,U5,14,I*%
%TO.N,/ENC_I*%
X151200000Y-85600000D03*
%TD*%
D15*
%TO.P,C11,1*%
%TO.N,/OSC_IN*%
X126200001Y-117600001D03*
%TO.P,C11,2*%
%TO.N,GND*%
X127199999Y-117600001D03*
%TD*%
D43*
%TO.P,SW1,1*%
%TO.N,GND*%
X127145001Y-127300000D03*
%TO.P,SW1,2*%
%TO.N,/NRST*%
X127145002Y-125700000D03*
%TO.P,SW1,3*%
X131245000Y-125700000D03*
%TO.P,SW1,4*%
%TO.N,GND*%
X131245001Y-127300000D03*
D44*
%TO.P,SW1,5*%
%TO.N,unconnected-(SW1-Pad5)*%
X129195001Y-127920001D03*
%TD*%
D39*
%TO.P,C34,1*%
%TO.N,+12V*%
X183678249Y-116271751D03*
%TO.P,C34,2*%
%TO.N,GND*%
X185021751Y-114928249D03*
%TD*%
D22*
%TO.P,R12,1*%
%TO.N,/V_BUS*%
X159950000Y-137200001D03*
%TO.P,R12,2*%
%TO.N,/FET_EN_2*%
X159950000Y-138199999D03*
%TD*%
D21*
%TO.P,R21,1*%
%TO.N,GND*%
X156100000Y-139999999D03*
%TO.P,R21,2*%
%TO.N,/PWR_LED*%
X156100000Y-139000001D03*
%TD*%
D48*
%TO.P,R18,1*%
%TO.N,/FSR_ADC*%
X134729999Y-120649999D03*
%TO.P,R18,2*%
%TO.N,GND*%
X136370001Y-120650001D03*
%TD*%
D32*
%TO.P,R11,1*%
%TO.N,/3.3V_PD*%
X164959703Y-121059703D03*
%TO.P,R11,2*%
%TO.N,/ISNK_FINE*%
X166119359Y-122219359D03*
%TD*%
D49*
%TO.P,TP5,1,1*%
%TO.N,/FSR_ADC*%
X127200000Y-131400000D03*
%TD*%
D41*
%TO.P,C6,1*%
%TO.N,+3.3V*%
X124300000Y-115680000D03*
%TO.P,C6,2*%
%TO.N,GND*%
X124300000Y-114120000D03*
%TD*%
D18*
%TO.P,R19,1*%
%TO.N,/DRV_nFLT*%
X175596447Y-108153553D03*
%TO.P,R19,2*%
%TO.N,Net-(U2-V3P3OUT)*%
X176303553Y-107446447D03*
%TD*%
D50*
%TO.P,TP7,1,1*%
%TO.N,/TIM2_CH1*%
X171800000Y-115700000D03*
%TD*%
D35*
%TO.P,R14,1*%
%TO.N,/FET_EN_2*%
X165319358Y-125365806D03*
%TO.P,R14,2*%
%TO.N,/VBUS_FET_EN*%
X164612252Y-126072912D03*
%TD*%
D51*
%TO.P,J4,1,Pin_1*%
%TO.N,/SWDIO*%
X118479999Y-102400001D03*
D52*
%TO.P,J4,2,Pin_2*%
%TO.N,GND*%
X118479999Y-99860001D03*
%TO.P,J4,3,Pin_3*%
%TO.N,/SWCLK*%
X115939999Y-102400001D03*
%TO.P,J4,4,Pin_4*%
%TO.N,/RX6*%
X115939999Y-99860000D03*
%TO.P,J4,5,Pin_5*%
%TO.N,/SWO*%
X113400000Y-102400000D03*
%TO.P,J4,6,Pin_6*%
%TO.N,/TX6*%
X113399999Y-99860001D03*
%TO.P,J4,7,Pin_7*%
%TO.N,/NRST*%
X110859999Y-102400001D03*
%TO.P,J4,8,Pin_8*%
%TO.N,+3.3V*%
X110859999Y-99860000D03*
%TD*%
D53*
%TO.P,J2,1,Pin_1*%
%TO.N,+3.3V*%
X109360001Y-109300592D03*
D52*
%TO.P,J2,2,Pin_2*%
%TO.N,/TX1*%
X110630001Y-111500297D03*
%TO.P,J2,3,Pin_3*%
%TO.N,/RX1*%
X111900001Y-113700000D03*
%TO.P,J2,4,Pin_4*%
%TO.N,GND*%
X113170001Y-115899706D03*
%TD*%
D54*
%TO.P,J1,S1,SHIELD*%
%TO.N,GND*%
X157480000Y-141480001D03*
D55*
X157480000Y-137280000D03*
D56*
X155150000Y-142100000D03*
X155150000Y-140100000D03*
X151150000Y-142100000D03*
X151150000Y-140100000D03*
D54*
X148820000Y-141480001D03*
D55*
X148820000Y-137280000D03*
%TD*%
D57*
%TO.P,J3,1,Pin_1*%
%TO.N,/MOT_1*%
X185018216Y-123803750D03*
D58*
%TO.P,J3,2,Pin_2*%
%TO.N,/MOT_2*%
X186785983Y-122035983D03*
%TO.P,J3,3,Pin_3*%
%TO.N,/MOT_3*%
X188553750Y-120268216D03*
%TD*%
D59*
%TO.N,/HALL_ADC*%
X152200000Y-92900000D03*
%TO.N,/PD_SCL*%
X120900000Y-112950000D03*
%TO.N,GND*%
X179596878Y-129896878D03*
X162265805Y-129419359D03*
X166500000Y-120800000D03*
X167700000Y-127400000D03*
X174025000Y-115375000D03*
X178700000Y-106300000D03*
X178550000Y-111800000D03*
X169800000Y-124100000D03*
X137550000Y-120650000D03*
X131649999Y-113100000D03*
X153800000Y-92900000D03*
X181496878Y-131896878D03*
X140950001Y-128579999D03*
X184196878Y-129196878D03*
X163365805Y-128319359D03*
X182196878Y-127196878D03*
X162265805Y-128319359D03*
X177150000Y-113200000D03*
X177150000Y-114600000D03*
X178550000Y-113200000D03*
X179250000Y-112500000D03*
X181900000Y-129600000D03*
X128500000Y-113100000D03*
X162200000Y-132100000D03*
X131600000Y-109950001D03*
X163239531Y-122839531D03*
X119700000Y-114400000D03*
X128500000Y-109950000D03*
X161200000Y-128319359D03*
X128549999Y-116000000D03*
X179950000Y-109500000D03*
X162265805Y-127319359D03*
X151000000Y-83800000D03*
X130050000Y-111500000D03*
X125850000Y-127445000D03*
X177850000Y-113900000D03*
X176450000Y-113900000D03*
X177850000Y-112500000D03*
X128700000Y-117900000D03*
%TO.N,/NRST*%
X118400000Y-110500000D03*
X118375000Y-112450000D03*
X129100000Y-121900000D03*
X129100000Y-125295006D03*
%TO.N,+3.3V*%
X133500000Y-107500000D03*
X117600000Y-108700000D03*
X132800000Y-125100006D03*
X108300000Y-87100000D03*
X132800000Y-121700000D03*
X124300000Y-121200000D03*
X125469975Y-107230025D03*
X134100000Y-130500000D03*
X158050000Y-89500000D03*
X124105025Y-108694975D03*
X132800000Y-129200000D03*
X115600000Y-108700000D03*
X120855025Y-124644975D03*
X119575000Y-88875000D03*
X136600000Y-85600000D03*
%TO.N,/USER*%
X143350765Y-125100006D03*
X140802944Y-122600000D03*
%TO.N,+12V*%
X159565805Y-126719359D03*
X161544975Y-124855025D03*
%TO.N,/3.3V_PD*%
X171444975Y-120144975D03*
X170444556Y-119144556D03*
%TO.N,/V_BUS*%
X156800000Y-134400000D03*
X148000000Y-134400000D03*
X157550000Y-134400000D03*
X157550000Y-135350000D03*
X148750000Y-134400000D03*
X156800000Y-135350000D03*
X158300000Y-135350000D03*
X158300000Y-134400000D03*
X148000000Y-135350000D03*
X148750000Y-135350000D03*
%TO.N,/FET_EN_2*%
X165100000Y-133000000D03*
X165100000Y-138300000D03*
%TO.N,Net-(J1-CC1)*%
X156400000Y-133400003D03*
%TO.N,Net-(J1-CC2)*%
X156400000Y-132500000D03*
%TO.N,/MOT_2*%
X181549927Y-116599927D03*
X181050000Y-116100000D03*
%TO.N,/MOT_1*%
X180250000Y-117900000D03*
X179774293Y-117425707D03*
%TO.N,/FAULT*%
X146171505Y-128578495D03*
X147819975Y-126830025D03*
%TO.N,/FSR_ADC*%
X106300000Y-89700000D03*
%TO.N,/PD_SCL*%
X120900000Y-110400000D03*
X135200000Y-124400006D03*
X133800000Y-124400006D03*
%TO.N,/PD_SDA*%
X135200000Y-123500003D03*
X133800000Y-123500003D03*
X121950000Y-113454673D03*
X121950000Y-110400000D03*
%TO.N,/PD_nINT*%
X133800000Y-122600000D03*
X123000000Y-113949999D03*
X122999999Y-110399999D03*
X135200000Y-122600000D03*
%TO.N,/DRV_nRST*%
X139700000Y-110550000D03*
X177500000Y-107600000D03*
X139700000Y-111950000D03*
X176000000Y-106200000D03*
%TO.N,/MOT_3*%
X182200000Y-115950000D03*
X181700000Y-115450000D03*
%TO.N,/MOT_EN1*%
X172500000Y-108300000D03*
X172500001Y-112200118D03*
%TO.N,/DRV_nSLP*%
X138799997Y-111950000D03*
X175400000Y-106900000D03*
X176800000Y-108300000D03*
X138799997Y-110550000D03*
%TO.N,/TIM2_CH4*%
X170900000Y-112200500D03*
%TO.N,/TIM2_CH1*%
X171700000Y-110200000D03*
%TD*%
D60*
%TO.N,+3.3V*%
X155700000Y-82600000D02*
X152900000Y-82600000D01*
X158050000Y-84950000D02*
X155700000Y-82600000D01*
X158050000Y-89500000D02*
X158050000Y-84950000D01*
D61*
%TO.N,Net-(D1-Pad1)*%
X137380002Y-128879999D02*
X137350000Y-128910001D01*
X139100000Y-128879999D02*
X137380002Y-128879999D01*
%TO.N,Net-(Q1-D)*%
X140320001Y-129679999D02*
X140950001Y-129679999D01*
X139479999Y-130520001D02*
X140320001Y-129679999D01*
X139100000Y-130520001D02*
X139479999Y-130520001D01*
%TO.N,/ISNK_FINE*%
X166119359Y-122219359D02*
X165119359Y-123219359D01*
D62*
%TO.N,/3.3V_PD*%
X167046638Y-118832424D02*
X164959703Y-120919359D01*
X170132424Y-118832424D02*
X167046638Y-118832424D01*
X164959703Y-120919359D02*
X164959703Y-121059703D01*
X170444556Y-119144556D02*
X170132424Y-118832424D01*
D63*
%TO.N,/PD_nINT*%
X123350000Y-110750000D02*
X126675001Y-110750000D01*
X122999999Y-110399999D02*
X123350000Y-110750000D01*
%TO.N,/PD_SCL*%
X120900001Y-110399999D02*
X120900000Y-110400000D01*
X120900001Y-109700001D02*
X120900001Y-110399999D01*
%TO.N,/PD_SDA*%
X121950001Y-110399999D02*
X121950000Y-110400000D01*
X121950001Y-109700001D02*
X121950001Y-110399999D01*
%TO.N,/PD_nINT*%
X122999999Y-110399999D02*
X122999999Y-109699999D01*
D60*
%TO.N,/MOT_1*%
X180250000Y-117900000D02*
X180248586Y-117900000D01*
X180248586Y-117900000D02*
X179774293Y-117425707D01*
%TO.N,/MOT_2*%
X181549927Y-116599927D02*
X181050000Y-116100000D01*
%TO.N,/MOT_3*%
X182200000Y-115950000D02*
X181700000Y-115450000D01*
D63*
X181485929Y-115450000D02*
X180572361Y-114536432D01*
X181700000Y-115450000D02*
X181485929Y-115450000D01*
%TO.N,/MOT_2*%
X181050000Y-115933309D02*
X180112742Y-114996051D01*
X181050000Y-116100000D02*
X181050000Y-115933309D01*
D62*
%TO.N,GND*%
X136350000Y-120630000D02*
X136370001Y-120650001D01*
D60*
X129019999Y-119800001D02*
X129019999Y-118219999D01*
X127600000Y-119320000D02*
X125840000Y-121080000D01*
D62*
X167285978Y-120014022D02*
X166500000Y-120800000D01*
D61*
X128549998Y-115999999D02*
X128549999Y-116000000D01*
D62*
X127000001Y-127445000D02*
X127145001Y-127300000D01*
D63*
X127800001Y-108125000D02*
X127800000Y-107249998D01*
D64*
X131245001Y-127300000D02*
X130939002Y-126994001D01*
D62*
X136370001Y-120650001D02*
X137550000Y-120650000D01*
X167445824Y-127400000D02*
X166772912Y-128072912D01*
D63*
X164565806Y-130265806D02*
X164565806Y-130672912D01*
D62*
X144360001Y-128579999D02*
X140950001Y-128579999D01*
D63*
X151850001Y-83800000D02*
X151000000Y-83800000D01*
D60*
X127600000Y-119100002D02*
X127600000Y-119320000D01*
X181352456Y-117728249D02*
X179550000Y-115925793D01*
D63*
X153799999Y-91200000D02*
X153800000Y-92900000D01*
D60*
X127199999Y-117600001D02*
X128400001Y-117600001D01*
D63*
X156100000Y-139999999D02*
X156099999Y-140000000D01*
D62*
X125795001Y-126509999D02*
X125795001Y-127390001D01*
D65*
X130799999Y-112250000D02*
X130799999Y-117112499D01*
D63*
X135549998Y-107750001D02*
X135549998Y-107500000D01*
D61*
X165315806Y-131422912D02*
X164565806Y-130672912D01*
D63*
X155250000Y-140000000D02*
X155150000Y-140100000D01*
D60*
X128400001Y-117600001D02*
X128700000Y-117900000D01*
D63*
X172829542Y-114179542D02*
X172829542Y-114161665D01*
D62*
X131050001Y-120600000D02*
X131050000Y-117362500D01*
D63*
X163780640Y-129480640D02*
X164565806Y-130265806D01*
D65*
X130799999Y-117112499D02*
X131050000Y-117362500D01*
D63*
X163398038Y-131219359D02*
X164019359Y-131219359D01*
X127800001Y-113750001D02*
X130050000Y-111500000D01*
X174050000Y-115400000D02*
X174025000Y-115375000D01*
D62*
X166772912Y-128072912D02*
X165926465Y-128919359D01*
D60*
X182410839Y-112710839D02*
X182410839Y-112697954D01*
D62*
X178700000Y-106300000D02*
X178053553Y-105653553D01*
D65*
X127800000Y-113750000D02*
X125800001Y-113750000D01*
D62*
X125850000Y-127445000D02*
X127000001Y-127445000D01*
X178053553Y-105653553D02*
X178053553Y-105646447D01*
X168175462Y-127122912D02*
X168175462Y-127124538D01*
D65*
X128500000Y-113100000D02*
X128500000Y-113050000D01*
D60*
X163959703Y-122059703D02*
X163959703Y-122119359D01*
D63*
X132300001Y-109250001D02*
X131600000Y-109950001D01*
X134041738Y-109250001D02*
X134791737Y-108500001D01*
D62*
X167900000Y-127400000D02*
X167700000Y-127400000D01*
D63*
X133425002Y-109249999D02*
X134041738Y-109250001D01*
D65*
X127799999Y-108125000D02*
X127799999Y-109250000D01*
D63*
X127800000Y-107249998D02*
X127550000Y-106999999D01*
X164019359Y-131219359D02*
X164565806Y-130672912D01*
D65*
X130050000Y-111500000D02*
X130799999Y-112250000D01*
D64*
X127451000Y-126994001D02*
X127145001Y-127300000D01*
D63*
X124519999Y-113900001D02*
X124300000Y-114120000D01*
D60*
X127600000Y-119100002D02*
X127600000Y-119000000D01*
D63*
X133425002Y-109249999D02*
X132300001Y-109250001D01*
D65*
X127799999Y-109250000D02*
X128500000Y-109950000D01*
D63*
X177199000Y-112077679D02*
X177199000Y-112549000D01*
D62*
X168175462Y-127124538D02*
X167900000Y-127400000D01*
X136350000Y-119049999D02*
X136350000Y-120630000D01*
X125795001Y-127390001D02*
X125850000Y-127445000D01*
X168599187Y-126699187D02*
X168175462Y-127122912D01*
D63*
X162619359Y-128319359D02*
X162265805Y-128319359D01*
D60*
X184628249Y-114928249D02*
X182410839Y-112710839D01*
X182221751Y-117728249D02*
X181352456Y-117728249D01*
D62*
X170600813Y-123299187D02*
X169800000Y-124100000D01*
X165926465Y-128926465D02*
X165926465Y-128919359D01*
D65*
X128500000Y-109950000D02*
X130050000Y-111500000D01*
D60*
X163959703Y-122119359D02*
X163239531Y-122839531D01*
X127600000Y-119000000D02*
X128700000Y-117900000D01*
D63*
X163780640Y-129480640D02*
X162619359Y-128319359D01*
D60*
X129019999Y-118219999D02*
X128700000Y-117900000D01*
D63*
X134791737Y-108500001D02*
X134800000Y-108500000D01*
D61*
X127649999Y-115999999D02*
X128549998Y-115999999D01*
D63*
X176053949Y-110937258D02*
X176058579Y-110937258D01*
X134800000Y-108500000D02*
X135549998Y-107750001D01*
D60*
X119700000Y-113399999D02*
X119700000Y-114400000D01*
D63*
X174025000Y-115375000D02*
X172829542Y-114179542D01*
X131600000Y-109950001D02*
X130050000Y-111500000D01*
D62*
X166165806Y-129165806D02*
X165926465Y-128926465D01*
X167700000Y-127400000D02*
X167445824Y-127400000D01*
D60*
X185021751Y-114928249D02*
X184628249Y-114928249D01*
D62*
X167285978Y-119893084D02*
X167285978Y-120014022D01*
D63*
X125550001Y-113900001D02*
X124519999Y-113900001D01*
X162719980Y-130541301D02*
X163398038Y-131219359D01*
D64*
X130939002Y-126994001D02*
X127451000Y-126994001D01*
D63*
X151850000Y-85600000D02*
X151850001Y-83800000D01*
D60*
X179550000Y-115925793D02*
X179550000Y-115900000D01*
D65*
X128450000Y-113100000D02*
X127800000Y-113750000D01*
X128500000Y-113050000D02*
X130050000Y-111500000D01*
D62*
X170699187Y-123299187D02*
X170600813Y-123299187D01*
D63*
X156099999Y-140000000D02*
X155250000Y-140000000D01*
D65*
X128500000Y-113100000D02*
X128450000Y-113100000D01*
D62*
X144640000Y-128859998D02*
X144360001Y-128579999D01*
X162199999Y-134300000D02*
X162200000Y-132100000D01*
D65*
X125800001Y-113750000D02*
X125550001Y-113999999D01*
D60*
X125840000Y-121080000D02*
X125840000Y-121300000D01*
D63*
%TO.N,Net-(U4-VCAP_1)*%
X134549999Y-109750000D02*
X134800000Y-109499997D01*
X133425000Y-109750000D02*
X134549999Y-109750000D01*
D62*
%TO.N,+3.3VA*%
X132049999Y-117362501D02*
X132049998Y-117362500D01*
D63*
X131299999Y-114875000D02*
X131299999Y-116512500D01*
D62*
X133350000Y-119010001D02*
X132059999Y-119010001D01*
X132059999Y-119010001D02*
X132049999Y-119000001D01*
D63*
X131299999Y-116512500D02*
X132049998Y-117262499D01*
D62*
X132049999Y-119000001D02*
X132049998Y-117362500D01*
D63*
X132049998Y-117262499D02*
X132049998Y-117362500D01*
%TO.N,/NRST*%
X118400000Y-110500000D02*
X110859999Y-102959999D01*
X130300001Y-121700000D02*
X129300000Y-121700000D01*
D64*
X131245000Y-125700000D02*
X131245000Y-125490000D01*
X131151006Y-125396006D02*
X127398994Y-125396006D01*
X131245000Y-125490000D02*
X131151006Y-125396006D01*
D63*
X118400000Y-112475000D02*
X118375000Y-112450000D01*
X125795001Y-125510001D02*
X125620003Y-125510001D01*
X125610002Y-125500000D02*
X122700000Y-125500000D01*
X118400000Y-121200000D02*
X118400000Y-112475000D01*
X122700000Y-125500000D02*
X118400000Y-121200000D01*
X129300000Y-121700000D02*
X129100000Y-121900000D01*
X126955003Y-125510001D02*
X127145002Y-125700000D01*
X125620003Y-125510001D02*
X125610002Y-125500000D01*
X130300000Y-114875000D02*
X130300000Y-120700000D01*
X125795001Y-125510001D02*
X126955003Y-125510001D01*
X110859999Y-102959999D02*
X110859999Y-102400001D01*
D64*
X127398994Y-125396006D02*
X127145002Y-125649998D01*
D63*
X130300000Y-120700000D02*
X130300001Y-121700000D01*
D64*
X127145002Y-125649998D02*
X127145002Y-125700000D01*
D63*
%TO.N,/OSC_IN*%
X126200001Y-117600001D02*
X126200001Y-118740001D01*
X129299999Y-114874999D02*
X129299999Y-116450000D01*
X126200001Y-117290002D02*
X126200001Y-117600001D01*
X126690003Y-116800000D02*
X126200001Y-117290002D01*
X129299999Y-116450000D02*
X128950000Y-116800000D01*
X128950000Y-116800000D02*
X126690003Y-116800000D01*
X126200001Y-118740001D02*
X125840000Y-119100002D01*
D66*
%TO.N,+3.3V*%
X108610000Y-99860000D02*
X108600000Y-99850000D01*
D62*
X115600000Y-108700000D02*
X108300000Y-108700000D01*
X133500000Y-108599000D02*
X133425000Y-108599000D01*
D60*
X119575000Y-88875000D02*
X108600000Y-99850000D01*
D67*
X132800000Y-129200000D02*
X132750000Y-129150000D01*
D66*
X109449999Y-98450000D02*
X108900000Y-98450000D01*
D60*
X136600000Y-85600000D02*
X146600000Y-85600000D01*
D63*
X126550002Y-107749998D02*
X126550002Y-106999999D01*
D62*
X133500000Y-107500000D02*
X133500000Y-108599000D01*
D60*
X146600000Y-85600000D02*
X149600000Y-82600000D01*
D62*
X125700000Y-107000000D02*
X126550000Y-107000000D01*
D64*
X151100000Y-134205000D02*
X151100000Y-135605000D01*
D62*
X152849999Y-82650001D02*
X152900000Y-82600000D01*
D64*
X149900000Y-139400000D02*
X142500000Y-139400000D01*
D67*
X134100000Y-130530000D02*
X137410000Y-133840000D01*
D62*
X134550001Y-107500000D02*
X133500000Y-107500000D01*
D67*
X123050000Y-129150000D02*
X119700000Y-125800000D01*
D66*
X109360001Y-109300592D02*
X109360001Y-109339999D01*
D60*
X132800000Y-125100006D02*
X132800000Y-129200000D01*
D62*
X152849999Y-83800000D02*
X152849999Y-82650001D01*
D64*
X151406000Y-133899000D02*
X154894000Y-133899000D01*
D63*
X152500001Y-85600000D02*
X152500001Y-84149998D01*
X153150000Y-85600000D02*
X153150000Y-84100001D01*
D62*
X125469975Y-107230025D02*
X125700000Y-107000000D01*
D60*
X137350000Y-130489999D02*
X137350000Y-133780000D01*
X149600000Y-82600000D02*
X152900000Y-82600000D01*
D63*
X152500001Y-84149998D02*
X152849999Y-83800000D01*
D60*
X132800000Y-121700000D02*
X132800000Y-120600000D01*
D67*
X108300000Y-114400000D02*
X119700000Y-125800000D01*
D62*
X124105025Y-108694975D02*
X124099999Y-108700001D01*
D63*
X127300000Y-108125000D02*
X126925000Y-108125000D01*
D60*
X132800000Y-121700000D02*
X131299999Y-121700000D01*
D62*
X124099999Y-108700001D02*
X123000001Y-108700001D01*
D67*
X108300000Y-87100000D02*
X108300000Y-114400000D01*
D64*
X150300000Y-139000000D02*
X149900000Y-139400000D01*
D60*
X137350000Y-133780000D02*
X137410000Y-133840000D01*
D63*
X150794999Y-133899999D02*
X151100000Y-134205000D01*
D64*
X151100000Y-134205000D02*
X151406000Y-133899000D01*
X152210001Y-139000000D02*
X150300000Y-139000000D01*
X151100000Y-135605000D02*
X152210001Y-136715001D01*
X152210001Y-136715001D02*
X152210001Y-139000000D01*
D63*
X152849999Y-83800000D02*
X153150000Y-84100001D01*
D67*
X137410000Y-133840000D02*
X139070000Y-135500000D01*
D64*
X154894000Y-133899000D02*
X155200000Y-134205000D01*
D60*
X124300000Y-115680000D02*
X124300000Y-121200000D01*
D66*
X110859999Y-99860000D02*
X108610000Y-99860000D01*
D63*
X126550001Y-107750000D02*
X126550002Y-107749998D01*
D67*
X132750000Y-129150000D02*
X123050000Y-129150000D01*
D62*
X123000001Y-108700001D02*
X117600001Y-108700001D01*
D60*
X132060000Y-120589999D02*
X132049999Y-120600000D01*
D63*
X149800000Y-133899999D02*
X150794999Y-133899999D01*
D60*
X120855025Y-124644975D02*
X119700000Y-125800000D01*
X133350000Y-120589999D02*
X132060000Y-120589999D01*
D62*
X117600001Y-108700001D02*
X117600000Y-108700000D01*
D63*
X126925000Y-108125000D02*
X126550001Y-107750000D01*
D67*
X134100000Y-130500000D02*
X134100000Y-130530000D01*
D66*
X110859999Y-99860000D02*
X109449999Y-98450000D01*
D63*
%TO.N,/USER*%
X150804999Y-132900001D02*
X151100000Y-132605000D01*
X143282966Y-125100006D02*
X143682966Y-125100006D01*
X132300000Y-114875000D02*
X132300000Y-115300000D01*
D64*
X155200000Y-132605000D02*
X151100000Y-132605000D01*
D63*
X151100000Y-132517040D02*
X151100000Y-132605000D01*
X134050000Y-115600000D02*
X140802944Y-122352944D01*
X132600000Y-115600000D02*
X134050000Y-115600000D01*
X143282966Y-125100006D02*
X143350765Y-125100006D01*
X132300000Y-115300000D02*
X132600000Y-115600000D01*
X143682966Y-125100006D02*
X151100000Y-132517040D01*
X140802944Y-122352944D02*
X140802944Y-122600000D01*
X149800000Y-132900001D02*
X150804999Y-132900001D01*
D65*
%TO.N,/OSC_OUT*%
X129799999Y-114875000D02*
X129799999Y-120149999D01*
X129799999Y-120149999D02*
X129149999Y-120799999D01*
X129149999Y-120799999D02*
X129019999Y-120799999D01*
X128100001Y-120799999D02*
X127600000Y-121300000D01*
X129019999Y-120799999D02*
X128100001Y-120799999D01*
D68*
%TO.N,+12V*%
X162400000Y-124000000D02*
X162400000Y-122200000D01*
D63*
X180430387Y-119071751D02*
X180878249Y-119071751D01*
D68*
X160397416Y-127511632D02*
X159605143Y-126719359D01*
X173300000Y-117800000D02*
X177600000Y-122100000D01*
X162400000Y-122200000D02*
X166800000Y-117800000D01*
D63*
X181491600Y-113617193D02*
X183678249Y-115803842D01*
X178267193Y-116908557D02*
X180430387Y-119071751D01*
X178267193Y-116841600D02*
X178267193Y-116908557D01*
D68*
X166800000Y-117800000D02*
X173300000Y-117800000D01*
X159605143Y-126719359D02*
X159565805Y-126719359D01*
X161544975Y-124855025D02*
X162400000Y-124000000D01*
D63*
X183678249Y-115803842D02*
X183678249Y-116271751D01*
D68*
%TO.N,/3.3V_PD*%
X164972914Y-129965806D02*
X165272912Y-129965806D01*
X164134194Y-129127086D02*
X164972914Y-129965806D01*
D62*
X171739981Y-125005843D02*
X170322912Y-126422912D01*
X164959703Y-121019359D02*
X164959703Y-121059703D01*
X166865806Y-129872912D02*
X166022912Y-130715806D01*
X169599187Y-125699187D02*
X170322912Y-126422912D01*
X166872912Y-129872912D02*
X166865806Y-129872912D01*
X171444975Y-120144975D02*
X171739981Y-120439981D01*
X171739981Y-120439981D02*
X171739981Y-125005843D01*
D61*
X166022912Y-130715806D02*
X165272912Y-129965806D01*
D62*
X170322912Y-126422912D02*
X166872912Y-129872912D01*
D68*
%TO.N,Net-(U1-VCCD)*%
X165872912Y-127365806D02*
X166065806Y-127365806D01*
X164487747Y-128750971D02*
X165872912Y-127365806D01*
X164487747Y-128773534D02*
X164487747Y-128750971D01*
%TO.N,/V_BUS*%
X161212564Y-131140367D02*
X161212564Y-133116386D01*
D63*
X161200001Y-133128949D02*
X161212564Y-133116386D01*
D68*
X161811630Y-130541301D02*
X161212564Y-131140367D01*
D63*
%TO.N,/FET_EN_2*%
X165319358Y-125365806D02*
X165319358Y-125280642D01*
X160100000Y-139900000D02*
X160100000Y-138200000D01*
X165100000Y-138300000D02*
X164300000Y-138299999D01*
X160100000Y-138200000D02*
X159039340Y-138200000D01*
X160661000Y-140461000D02*
X160100000Y-139900000D01*
X163739000Y-140461000D02*
X160661000Y-140461000D01*
X164299999Y-139800000D02*
X164299999Y-139900001D01*
X173100000Y-120300000D02*
X173100000Y-125000000D01*
X164299999Y-139900001D02*
X163739000Y-140461000D01*
X164300000Y-138299999D02*
X164299999Y-139800000D01*
X165319358Y-125280642D02*
X171400000Y-119200000D01*
X165100000Y-133000000D02*
X165100000Y-133100000D01*
X172000000Y-119200000D02*
X173100000Y-120300000D01*
X171400000Y-119200000D02*
X172000000Y-119200000D01*
X173100000Y-125000000D02*
X165100000Y-133000000D01*
%TO.N,/HALL_ADC*%
X142050000Y-111250000D02*
X148700000Y-117900000D01*
X148700000Y-117900000D02*
X151600000Y-117900000D01*
X133425000Y-111250000D02*
X142050000Y-111250000D01*
X151600000Y-117900000D02*
X152200000Y-117300000D01*
X152200000Y-117300000D02*
X152200000Y-92900000D01*
D65*
%TO.N,Net-(U2-V3P3OUT)*%
X177346447Y-106353553D02*
X177346447Y-106360771D01*
D63*
X176617767Y-107139340D02*
X176610660Y-107139340D01*
X177396447Y-106353553D02*
X176617767Y-107132233D01*
D65*
X177346447Y-106360771D02*
X178200500Y-107214824D01*
D63*
X178811665Y-108179542D02*
X178316061Y-107683938D01*
D65*
X178200500Y-107214824D02*
X178200500Y-107568377D01*
X178200500Y-107568377D02*
X178811665Y-108179542D01*
D63*
X176610660Y-107139340D02*
X176303553Y-107446447D01*
X176617767Y-107132233D02*
X176617767Y-107139340D01*
%TO.N,Net-(U2-CP1)*%
X176888335Y-118220458D02*
X176158793Y-118950000D01*
X176158793Y-118950000D02*
X175721321Y-118950000D01*
X175721321Y-118950000D02*
X175367767Y-118596446D01*
%TO.N,Net-(U2-CP2)*%
X175650001Y-116900000D02*
X174660661Y-117889340D01*
X177347954Y-117760839D02*
X176487115Y-116900000D01*
X176487115Y-116900000D02*
X175650001Y-116900000D01*
%TO.N,Net-(U2-VCP)*%
X177807574Y-117301219D02*
X178950000Y-118443645D01*
X178950000Y-118443645D02*
X178950000Y-118756498D01*
X178950000Y-118756498D02*
X178378249Y-119328249D01*
%TO.N,Net-(J1-CC1)*%
X156400000Y-133400003D02*
X156831607Y-133400003D01*
X156831607Y-133400003D02*
X160750970Y-129480640D01*
D68*
%TO.N,Net-(J1-CC2)*%
X157024502Y-132500000D02*
X156400000Y-132500000D01*
X160397416Y-129127086D02*
X157024502Y-132500000D01*
D63*
%TO.N,/TX1*%
X110880298Y-111250000D02*
X110630001Y-111500297D01*
X126675000Y-111250000D02*
X110880298Y-111250000D01*
%TO.N,/MOT_1*%
X178726812Y-116381981D02*
X178730567Y-116381981D01*
X178730567Y-116381981D02*
X179774293Y-117425707D01*
%TO.N,/SWO*%
X116250000Y-105250000D02*
X113400000Y-102400000D01*
X126675000Y-109750001D02*
X126250001Y-109750001D01*
X121750000Y-105250000D02*
X116250000Y-105250000D01*
X126250001Y-109750001D02*
X121750000Y-105250000D01*
%TO.N,/SWCLK*%
X122000000Y-104750000D02*
X116550000Y-104750000D01*
X115939999Y-104139999D02*
X115939999Y-102400001D01*
X116550000Y-104750000D02*
X115939999Y-104139999D01*
X126675000Y-108750000D02*
X126000000Y-108750000D01*
X126000000Y-108750000D02*
X122000000Y-104750000D01*
%TO.N,/SWDIO*%
X124150000Y-102400001D02*
X118479999Y-102400001D01*
X128300001Y-106550002D02*
X124150000Y-102400001D01*
X128300001Y-108125000D02*
X128300001Y-106550002D01*
%TO.N,/RX6*%
X116450000Y-97700000D02*
X115939999Y-98210001D01*
X128800000Y-106250002D02*
X120249998Y-97700000D01*
X128800000Y-108125000D02*
X128800000Y-106250002D01*
X115939999Y-98210001D02*
X115939999Y-99860000D01*
X120249998Y-97700000D02*
X116450000Y-97700000D01*
D65*
%TO.N,/TX6*%
X120549999Y-97200000D02*
X116150000Y-97200000D01*
X116150000Y-97200000D02*
X113489999Y-99860001D01*
X129300000Y-105950001D02*
X120549999Y-97200000D01*
X129300000Y-108125001D02*
X129300000Y-105950001D01*
X113489999Y-99860001D02*
X113399999Y-99860001D01*
D63*
%TO.N,/FAULT*%
X159100000Y-126000000D02*
X160300000Y-126000000D01*
X144819999Y-130679999D02*
X144640000Y-130500000D01*
X142959999Y-130500000D02*
X142830000Y-130629999D01*
X151206520Y-130498000D02*
X154602000Y-130498000D01*
X147819975Y-127111455D02*
X151206520Y-130498000D01*
X147819975Y-126830025D02*
X147819975Y-127111455D01*
X160300000Y-126000000D02*
X161104524Y-126804524D01*
X146171505Y-129078495D02*
X144750000Y-130500000D01*
X144769999Y-130629999D02*
X144640000Y-130500000D01*
X154602000Y-130498000D02*
X159100000Y-126000000D01*
X146171505Y-128578495D02*
X146171505Y-129078495D01*
X144640000Y-130500000D02*
X142959999Y-130500000D01*
D62*
%TO.N,/S*%
X162200000Y-135750000D02*
X162200000Y-138449999D01*
%TO.N,/G*%
X163150000Y-138450000D02*
X163150000Y-139649999D01*
X161250000Y-139352000D02*
X161698000Y-139800000D01*
X161698000Y-139800000D02*
X163300001Y-139800000D01*
X163150000Y-139649999D02*
X163300001Y-139800000D01*
X161250000Y-138450000D02*
X161250000Y-139352000D01*
D63*
%TO.N,/BOOT0*%
X119850001Y-112250000D02*
X119700000Y-112400001D01*
X126675001Y-112250000D02*
X119850001Y-112250000D01*
D68*
%TO.N,/VBUS_MAX*%
X164134194Y-127511632D02*
X169506295Y-122139531D01*
X169506295Y-122139531D02*
X169539531Y-122139531D01*
D61*
X170600190Y-121078871D02*
X169539531Y-122139531D01*
%TO.N,/VBUS_MIN*%
X167439531Y-125539531D02*
X168439531Y-124539531D01*
D68*
X164487747Y-127865184D02*
X166352931Y-126000000D01*
X166979062Y-126000000D02*
X167439531Y-125539531D01*
X166352931Y-126000000D02*
X166979062Y-126000000D01*
%TO.N,/ISNK_C*%
X163073532Y-126450970D02*
X163073532Y-126424842D01*
X163073532Y-126424842D02*
X168445634Y-121052740D01*
X168371762Y-121052740D02*
X168445634Y-121052740D01*
D61*
X169506294Y-119992080D02*
X168445634Y-121052740D01*
D68*
%TO.N,/ISNK_FINE*%
X164619359Y-123719359D02*
X165119359Y-123219359D01*
X164619359Y-124198038D02*
X164619359Y-123719359D01*
X162719980Y-126097417D02*
X164619359Y-124198038D01*
%TO.N,/VBUS_FET_EN*%
X163780640Y-127158078D02*
X164612252Y-126326466D01*
X164612252Y-126326466D02*
X164612252Y-126172912D01*
D63*
%TO.N,/FSR_ADC*%
X134500000Y-128850000D02*
X134500000Y-118500000D01*
X134500000Y-118500000D02*
X131799999Y-115799999D01*
X106300000Y-115300000D02*
X122000000Y-131000000D01*
X122000000Y-131000000D02*
X132350000Y-131000000D01*
X106300000Y-89700000D02*
X106300000Y-115300000D01*
X131799999Y-115799999D02*
X131799999Y-114875000D01*
X132350000Y-131000000D02*
X134500000Y-128850000D01*
%TO.N,/DRV_nFLT*%
X176405580Y-109005580D02*
X176879987Y-109005580D01*
X159100001Y-119800000D02*
X171300001Y-107600000D01*
X171300001Y-107600000D02*
X175042894Y-107600000D01*
X145391480Y-119800000D02*
X159100001Y-119800000D01*
X133425000Y-111750000D02*
X137341480Y-111750000D01*
X175042894Y-107600000D02*
X175596447Y-108153553D01*
X176879987Y-109005580D02*
X177432807Y-109558400D01*
X137341480Y-111750000D02*
X145391480Y-119800000D01*
X175596447Y-108196447D02*
X176405580Y-109005580D01*
X175596447Y-108153553D02*
X175596447Y-108196447D01*
%TO.N,/PD_SCL*%
X157417043Y-129100000D02*
X159717397Y-129100000D01*
X151985834Y-131501000D02*
X151986835Y-131500000D01*
X150792480Y-131501000D02*
X151985834Y-131501000D01*
X159717397Y-129100000D02*
X160043863Y-128773534D01*
X135200000Y-124400006D02*
X143691486Y-124400006D01*
X155017043Y-131500000D02*
X157417043Y-129100000D01*
X151986835Y-131500000D02*
X155017043Y-131500000D01*
X143691486Y-124400006D02*
X150792480Y-131501000D01*
%TO.N,/PD_SDA*%
X121950000Y-121750000D02*
X123700003Y-123500003D01*
X143850000Y-123850000D02*
X150999000Y-130999000D01*
X121950000Y-113454673D02*
X121950000Y-121750000D01*
X150999000Y-130999000D02*
X151196586Y-130999000D01*
X135200000Y-123500003D02*
X135500003Y-123500003D01*
X135500003Y-123500003D02*
X135850000Y-123850000D01*
X151197586Y-131000000D02*
X151778314Y-131000000D01*
X159628679Y-127450000D02*
X160043863Y-127865184D01*
X135850000Y-123850000D02*
X143850000Y-123850000D01*
X151778314Y-131000000D02*
X151779314Y-130999000D01*
X123700003Y-123500003D02*
X133800000Y-123500003D01*
X151196586Y-130999000D02*
X151197586Y-131000000D01*
X154809521Y-130999000D02*
X158358521Y-127450000D01*
X121950000Y-113454673D02*
X122154674Y-113249999D01*
X158358521Y-127450000D02*
X159628679Y-127450000D01*
X151779314Y-130999000D02*
X154809521Y-130999000D01*
X122154674Y-113249999D02*
X126675000Y-113249999D01*
%TO.N,/PD_nINT*%
X123000000Y-121400000D02*
X124200000Y-122600000D01*
X161811630Y-126097417D02*
X161270238Y-125556025D01*
X160843975Y-125129762D02*
X159014213Y-123300000D01*
X124200000Y-122600000D02*
X133800000Y-122600000D01*
X123000000Y-113949999D02*
X123000000Y-121400000D01*
X136300000Y-123300000D02*
X135600000Y-122600000D01*
X135600000Y-122600000D02*
X135200000Y-122600000D01*
X161254611Y-125556025D02*
X160843975Y-125145389D01*
X161270238Y-125556025D02*
X161254611Y-125556025D01*
X159014213Y-123300000D02*
X136300000Y-123300000D01*
X160843975Y-125145389D02*
X160843975Y-125129762D01*
%TO.N,/DRV_nRST*%
X139700000Y-110550000D02*
X139700000Y-110150000D01*
D65*
X177500000Y-107787115D02*
X177500000Y-107600000D01*
X178352046Y-108639161D02*
X177500000Y-107787115D01*
D63*
X175691364Y-106200000D02*
X176000000Y-106200000D01*
X171092480Y-106399000D02*
X171101000Y-106399000D01*
X175108636Y-106200000D02*
X175109636Y-106199000D01*
X139700000Y-112650000D02*
X145848000Y-118798000D01*
X175690364Y-106199000D02*
X175691364Y-106200000D01*
X139700000Y-111950000D02*
X139700000Y-112650000D01*
X139400000Y-109850000D02*
X135600000Y-109850000D01*
X170884960Y-106598000D02*
X170893479Y-106598000D01*
X171101000Y-106399000D02*
X171300000Y-106200000D01*
X158684960Y-118798000D02*
X170884960Y-106598000D01*
X135600000Y-109850000D02*
X135200000Y-110250000D01*
X139700000Y-110150000D02*
X139400000Y-109850000D01*
X170893479Y-106598000D02*
X171092480Y-106399000D01*
X175109636Y-106199000D02*
X175690364Y-106199000D01*
X145848000Y-118798000D02*
X158684960Y-118798000D01*
X171300000Y-106200000D02*
X175108636Y-106200000D01*
X135200000Y-110250000D02*
X133425000Y-110250000D01*
%TO.N,/RX1*%
X113850000Y-111750000D02*
X113100000Y-112500000D01*
X126675000Y-111750000D02*
X113850000Y-111750000D01*
X113100000Y-112500000D02*
X111900000Y-113700000D01*
D65*
%TO.N,/TIM1_CH1*%
X121600000Y-88971575D02*
X122671575Y-87900000D01*
X122671575Y-87900000D02*
X152300000Y-87900000D01*
X152300000Y-87900000D02*
X154450000Y-90050000D01*
D63*
X130800000Y-103300000D02*
X130775000Y-103275000D01*
D65*
X154450000Y-90050000D02*
X154450000Y-91200000D01*
X130775000Y-103275000D02*
X121600000Y-94100000D01*
X121600000Y-94100000D02*
X121600000Y-88971575D01*
D63*
X130800000Y-108125001D02*
X130800000Y-103300000D01*
D65*
%TO.N,/MOT_EN1*%
X172500001Y-112200118D02*
X172500044Y-112200161D01*
D63*
X172500000Y-108300000D02*
X171400000Y-108300000D01*
X159400000Y-120300000D02*
X145150000Y-120300000D01*
X171400000Y-108300000D02*
X159400000Y-120300000D01*
D65*
X172500044Y-112200161D02*
X172706516Y-112200161D01*
D63*
X145150000Y-120300000D02*
X137100000Y-112250000D01*
X137100000Y-112250000D02*
X133424999Y-112250000D01*
D65*
X172706516Y-112200161D02*
X173748781Y-113242426D01*
D63*
%TO.N,/TIM1_CH2*%
X130300000Y-103600000D02*
X130250000Y-103550000D01*
D65*
X152600000Y-87400000D02*
X155100000Y-89900000D01*
X121100000Y-94400000D02*
X121100000Y-88764468D01*
D63*
X130300000Y-108125000D02*
X130300000Y-103600000D01*
D65*
X155100000Y-89900000D02*
X155100000Y-91200000D01*
X130250000Y-103550000D02*
X121100000Y-94400000D01*
X122464468Y-87400000D02*
X152600000Y-87400000D01*
X121100000Y-88764468D02*
X122464468Y-87400000D01*
D63*
%TO.N,/DRV_nSLP*%
X135450000Y-110750000D02*
X133424999Y-110750000D01*
D65*
X177093645Y-108300000D02*
X176800000Y-108300000D01*
D63*
X135850000Y-110350000D02*
X135450000Y-110750000D01*
X171101000Y-107099000D02*
X171300000Y-106900000D01*
X171092480Y-107099000D02*
X171101000Y-107099000D01*
D65*
X177892426Y-109098781D02*
X177093645Y-108300000D01*
D63*
X171300000Y-106900000D02*
X175400000Y-106900000D01*
X145599000Y-119299000D02*
X158892480Y-119299000D01*
X138799997Y-110550000D02*
X138599997Y-110350000D01*
X138599997Y-110350000D02*
X135850000Y-110350000D01*
X138799997Y-111950000D02*
X138799997Y-112499997D01*
X158892480Y-119299000D02*
X171092480Y-107099000D01*
X138799997Y-112499997D02*
X145599000Y-119299000D01*
%TO.N,/MOT_EN2*%
X136350000Y-113750000D02*
X144400000Y-121800000D01*
X171100000Y-110900000D02*
X173244831Y-110900000D01*
X144400000Y-121800000D02*
X160200000Y-121800000D01*
X173244831Y-110900000D02*
X174668019Y-112323188D01*
X160200000Y-121800000D02*
X171100000Y-110900000D01*
X133425000Y-113750000D02*
X136350000Y-113750000D01*
%TO.N,/MOT_EN3*%
X171500000Y-109000000D02*
X173197451Y-109000000D01*
X133425000Y-112750000D02*
X136850000Y-112750000D01*
X159700000Y-120800000D02*
X171500000Y-109000000D01*
X136850000Y-112750000D02*
X144900000Y-120800000D01*
X173197451Y-109000000D02*
X175594329Y-111396878D01*
X144900000Y-120800000D02*
X159700000Y-120800000D01*
D65*
%TO.N,/TIM2_CH3*%
X132800000Y-114875000D02*
X136017186Y-114875000D01*
X136017186Y-114875000D02*
X143942686Y-122800500D01*
X143942686Y-122800500D02*
X160749500Y-122800500D01*
X172487115Y-112900000D02*
X173289161Y-113702046D01*
X160749500Y-122800500D02*
X170650000Y-112900000D01*
X170650000Y-112900000D02*
X172487115Y-112900000D01*
D63*
%TO.N,/PWR_LED*%
X154089999Y-139000000D02*
X156100000Y-139000001D01*
%TO.N,/ENC_SCK*%
X132300000Y-102400000D02*
X132275000Y-102375000D01*
D65*
X123292894Y-89400000D02*
X151400000Y-89400000D01*
X151850000Y-89850000D02*
X151850000Y-91200000D01*
X123100000Y-93200000D02*
X123100000Y-89592894D01*
X123100000Y-89592894D02*
X123292894Y-89400000D01*
X151400000Y-89400000D02*
X151850000Y-89850000D01*
X132275000Y-102375000D02*
X123100000Y-93200000D01*
D63*
X132300000Y-108125000D02*
X132300000Y-102400000D01*
%TO.N,/TIM2_CH4*%
X170400500Y-112399500D02*
X170950000Y-111850000D01*
X160492186Y-122300000D02*
X170392686Y-112399500D01*
X170392686Y-112399500D02*
X170400500Y-112399500D01*
X136100000Y-114250000D02*
X144150000Y-122300000D01*
X174208400Y-112782807D02*
X172925593Y-111500000D01*
X171300000Y-111500000D02*
X170400500Y-112399500D01*
X172925593Y-111500000D02*
X171300000Y-111500000D01*
X133425000Y-114250000D02*
X136100000Y-114250000D01*
X144150000Y-122300000D02*
X160492186Y-122300000D01*
%TO.N,/ENC_MOSI*%
X131300000Y-108125000D02*
X131300000Y-103000000D01*
D65*
X122100000Y-89178681D02*
X122878681Y-88400000D01*
X152000000Y-88400000D02*
X153150000Y-89550000D01*
X153150000Y-89550000D02*
X153150000Y-91200000D01*
X122878681Y-88400000D02*
X152000000Y-88400000D01*
X131300000Y-103000000D02*
X122100000Y-93800000D01*
X122100000Y-93800000D02*
X122100000Y-89178681D01*
%TO.N,/TIM2_CH1*%
X171100000Y-110200000D02*
X171700000Y-110200000D01*
X170892686Y-110399500D02*
X170900500Y-110399500D01*
X170900500Y-110399500D02*
X171100000Y-110200000D01*
X171100000Y-110200000D02*
X171300000Y-110000000D01*
X159908314Y-121299500D02*
X159992686Y-121299500D01*
X159992686Y-121299500D02*
X170892686Y-110399500D01*
X144650500Y-121300500D02*
X159907314Y-121300500D01*
X133425000Y-113249999D02*
X136599999Y-113249999D01*
X136599999Y-113249999D02*
X144650500Y-121300500D01*
X171300000Y-110000000D02*
X171900000Y-110000000D01*
X159907314Y-121300500D02*
X159908314Y-121299500D01*
X171700000Y-110200000D02*
X171900000Y-110000000D01*
X171900000Y-110000000D02*
X173264071Y-110000000D01*
X173264071Y-110000000D02*
X175127639Y-111863568D01*
%TO.N,/ENC_MISO*%
X122600000Y-89385787D02*
X123085787Y-88900000D01*
X152500001Y-89700001D02*
X152500001Y-91200000D01*
X123085787Y-88900000D02*
X151700000Y-88900000D01*
X151700000Y-88900000D02*
X152500001Y-89700001D01*
X131775000Y-102675000D02*
X122600000Y-93500000D01*
D63*
X131799999Y-102699999D02*
X131775000Y-102675000D01*
D65*
X122600000Y-93500000D02*
X122600000Y-89385787D01*
D63*
X131799999Y-108125000D02*
X131799999Y-102699999D01*
D65*
%TO.N,/ENC_CSn*%
X132675000Y-101975000D02*
X123600000Y-92900000D01*
X123600000Y-92900000D02*
X123600000Y-89900000D01*
X149200000Y-89900000D02*
X150500000Y-91200000D01*
X123600000Y-89900000D02*
X149200000Y-89900000D01*
X150500000Y-91200000D02*
X151200000Y-91200000D01*
D63*
X132800000Y-102100000D02*
X132675000Y-101975000D01*
X132800000Y-108125000D02*
X132800000Y-102100000D01*
D65*
%TO.N,/ENC_I*%
X120600000Y-94700000D02*
X120600000Y-88500000D01*
X149200000Y-86900000D02*
X150500000Y-85600000D01*
X129800000Y-103900000D02*
X120600000Y-94700000D01*
D63*
X129800000Y-108125000D02*
X129800000Y-103900000D01*
D65*
X150500000Y-85600000D02*
X151200000Y-85600000D01*
X120600000Y-88500000D02*
X122200000Y-86900000D01*
X122200000Y-86900000D02*
X149200000Y-86900000D01*
D63*
%TO.N,/PD_SCL*%
X120900000Y-122100000D02*
X120900000Y-112950000D01*
X126675000Y-112750000D02*
X121100000Y-112750000D01*
X121100000Y-112750000D02*
X120900000Y-112950000D01*
X123200006Y-124400006D02*
X120900000Y-122100000D01*
X133800000Y-124400006D02*
X123200006Y-124400006D01*
%TD*%
%TA.AperFunction,Conductor*%
%TO.N,+3.3V*%
G36*
X142709640Y-132001527D02*
G01*
X142746361Y-132007342D01*
X142788756Y-132014057D01*
X142825651Y-132026044D01*
X142888228Y-132057929D01*
X142890135Y-132059314D01*
X142891359Y-132059581D01*
X142919613Y-132080732D01*
X142969267Y-132130386D01*
X142992071Y-132161772D01*
X143023954Y-132224346D01*
X143035942Y-132261242D01*
X143047699Y-132335474D01*
X143048473Y-132340357D01*
X143050000Y-132359756D01*
X143050000Y-134300000D01*
X145740243Y-134300000D01*
X145759640Y-134301527D01*
X145796361Y-134307342D01*
X145838756Y-134314057D01*
X145875651Y-134326044D01*
X145938228Y-134357929D01*
X145969613Y-134380732D01*
X146019267Y-134430386D01*
X146042071Y-134461772D01*
X146073954Y-134524346D01*
X146085942Y-134561242D01*
X146098473Y-134640357D01*
X146100000Y-134659756D01*
X146100000Y-136290243D01*
X146098473Y-136309642D01*
X146085942Y-136388757D01*
X146073954Y-136425653D01*
X146042071Y-136488227D01*
X146019267Y-136519613D01*
X145969613Y-136569267D01*
X145938227Y-136592071D01*
X145875653Y-136623954D01*
X145838757Y-136635942D01*
X145776308Y-136645833D01*
X145759640Y-136648473D01*
X145740243Y-136650000D01*
X143050000Y-136650000D01*
X143050000Y-139490243D01*
X143048473Y-139509640D01*
X143048473Y-139509642D01*
X143035942Y-139588757D01*
X143023954Y-139625653D01*
X142992071Y-139688227D01*
X142969267Y-139719613D01*
X142919613Y-139769267D01*
X142888227Y-139792071D01*
X142825653Y-139823954D01*
X142788757Y-139835942D01*
X142726308Y-139845833D01*
X142709640Y-139848473D01*
X142690243Y-139850000D01*
X136159757Y-139850000D01*
X136140359Y-139848473D01*
X136061243Y-139835942D01*
X136024346Y-139823954D01*
X135961772Y-139792071D01*
X135930386Y-139769267D01*
X135880732Y-139719613D01*
X135857928Y-139688227D01*
X135826045Y-139625653D01*
X135814057Y-139588755D01*
X135801527Y-139509640D01*
X135800000Y-139490243D01*
X135800000Y-135502668D01*
X135800001Y-135502234D01*
X135800007Y-135500518D01*
X135800013Y-135499602D01*
X135800036Y-135497489D01*
X135800042Y-135497068D01*
X135844932Y-132354664D01*
X135846704Y-132335484D01*
X135860133Y-132257220D01*
X135860812Y-132255209D01*
X135860712Y-132254091D01*
X135872428Y-132220802D01*
X135904647Y-132159101D01*
X135927507Y-132128197D01*
X135977079Y-132079329D01*
X136008297Y-132056918D01*
X136070464Y-132025577D01*
X136107049Y-132013807D01*
X136164632Y-132004771D01*
X136185485Y-132001499D01*
X136204707Y-132000000D01*
X142690243Y-132000000D01*
X142709640Y-132001527D01*
G37*
%TD.AperFunction*%
%TD*%
%TA.AperFunction,Conductor*%
%TO.N,GND*%
G36*
X149159640Y-135901527D02*
G01*
X149196361Y-135907342D01*
X149238756Y-135914057D01*
X149275651Y-135926044D01*
X149338228Y-135957929D01*
X149340135Y-135959314D01*
X149341359Y-135959581D01*
X149369613Y-135980732D01*
X149419267Y-136030386D01*
X149442071Y-136061772D01*
X149473954Y-136124346D01*
X149485942Y-136161242D01*
X149498473Y-136240357D01*
X149500000Y-136259756D01*
X149500000Y-138240243D01*
X149498473Y-138259640D01*
X149498473Y-138259642D01*
X149485942Y-138338757D01*
X149473954Y-138375653D01*
X149442071Y-138438227D01*
X149419267Y-138469613D01*
X149369613Y-138519267D01*
X149338227Y-138542071D01*
X149275653Y-138573954D01*
X149238757Y-138585942D01*
X149176308Y-138595833D01*
X149159640Y-138598473D01*
X149140243Y-138600000D01*
X143709757Y-138600000D01*
X143690359Y-138598473D01*
X143611243Y-138585942D01*
X143574346Y-138573954D01*
X143511772Y-138542071D01*
X143480386Y-138519267D01*
X143430732Y-138469613D01*
X143407928Y-138438227D01*
X143376045Y-138375653D01*
X143364057Y-138338755D01*
X143351527Y-138259640D01*
X143350000Y-138240243D01*
X143350000Y-137259756D01*
X143351527Y-137240359D01*
X143364057Y-137161244D01*
X143376043Y-137124349D01*
X143407930Y-137061768D01*
X143430729Y-137030389D01*
X143480389Y-136980729D01*
X143511768Y-136957930D01*
X143574349Y-136926043D01*
X143611235Y-136914058D01*
X143690370Y-136901525D01*
X143709757Y-136900000D01*
X146350000Y-136900000D01*
X146350000Y-136259756D01*
X146351527Y-136240359D01*
X146364057Y-136161244D01*
X146364058Y-136161242D01*
X146376043Y-136124349D01*
X146407930Y-136061768D01*
X146430729Y-136030389D01*
X146480389Y-135980729D01*
X146511768Y-135957930D01*
X146574349Y-135926043D01*
X146576588Y-135925316D01*
X146577523Y-135924483D01*
X146611237Y-135914058D01*
X146662871Y-135905880D01*
X146691193Y-135904771D01*
X146691197Y-135904771D01*
X146692017Y-135904739D01*
X146692727Y-135904794D01*
X146693641Y-135904867D01*
X146709747Y-135905500D01*
X146709757Y-135905500D01*
X148740253Y-135905500D01*
X148756352Y-135904867D01*
X148756358Y-135904866D01*
X148756371Y-135904866D01*
X148775768Y-135903339D01*
X148791788Y-135901443D01*
X148791797Y-135901441D01*
X148792486Y-135901360D01*
X148804797Y-135900521D01*
X148805945Y-135900500D01*
X148822475Y-135900500D01*
X148823686Y-135900175D01*
X148832131Y-135900021D01*
X148832507Y-135900123D01*
X148834399Y-135900000D01*
X149140243Y-135900000D01*
X149159640Y-135901527D01*
G37*
%TD.AperFunction*%
%TD*%
%TA.AperFunction,Conductor*%
%TO.N,+12V*%
G36*
X183723914Y-115053278D02*
G01*
X183790548Y-115074620D01*
X183792565Y-115075635D01*
X183793764Y-115075698D01*
X183825068Y-115092001D01*
X183889877Y-115138556D01*
X183904688Y-115151060D01*
X187588943Y-118791455D01*
X187601809Y-118806368D01*
X187649728Y-118871763D01*
X187667630Y-118906712D01*
X187689605Y-118974295D01*
X187690018Y-118976931D01*
X187690785Y-118978135D01*
X187695681Y-119013088D01*
X187695423Y-119084152D01*
X187689064Y-119122903D01*
X187666596Y-119190328D01*
X187648441Y-119225145D01*
X187600050Y-119290186D01*
X187587075Y-119305005D01*
X168807831Y-137592372D01*
X168789182Y-137607318D01*
X168707124Y-137660974D01*
X168663052Y-137678888D01*
X168591114Y-137692950D01*
X168566828Y-137697697D01*
X168543042Y-137700000D01*
X163480916Y-137700000D01*
X163470738Y-137699500D01*
X163469748Y-137699500D01*
X163056600Y-137699500D01*
X163037202Y-137697973D01*
X162961243Y-137685942D01*
X162924346Y-137673954D01*
X162861772Y-137642071D01*
X162830386Y-137619267D01*
X162780732Y-137569613D01*
X162757928Y-137538227D01*
X162726045Y-137475653D01*
X162714057Y-137438755D01*
X162702027Y-137362797D01*
X162700500Y-137343400D01*
X162700500Y-135179262D01*
X162700000Y-135169084D01*
X162700000Y-134377811D01*
X162700499Y-134370198D01*
X162700499Y-133951714D01*
X162702018Y-133932366D01*
X162713987Y-133856599D01*
X162725916Y-133819785D01*
X162757644Y-133757330D01*
X162780335Y-133725991D01*
X162829782Y-133676347D01*
X162861028Y-133653534D01*
X162923358Y-133621556D01*
X162960120Y-133609482D01*
X163039003Y-133596699D01*
X163058337Y-133595104D01*
X165197664Y-133586603D01*
X165197664Y-133586602D01*
X165248879Y-133586399D01*
X165248880Y-133586398D01*
X165341308Y-133586032D01*
X179798008Y-119201982D01*
X179799745Y-119200267D01*
X179800357Y-119199669D01*
X179801761Y-119198305D01*
X179802023Y-119198051D01*
X180666096Y-118365492D01*
X180680924Y-118353275D01*
X180745749Y-118307813D01*
X180747591Y-118306908D01*
X180748291Y-118306076D01*
X180780156Y-118290920D01*
X180846456Y-118270328D01*
X180884379Y-118264754D01*
X180953798Y-118265398D01*
X180991613Y-118271676D01*
X181057515Y-118293495D01*
X181091606Y-118311025D01*
X181155583Y-118357689D01*
X181170185Y-118370185D01*
X182099999Y-119299999D01*
X182100000Y-119300000D01*
X182347422Y-119060309D01*
X182347426Y-119060307D01*
X183444594Y-117997425D01*
X183444594Y-117997424D01*
X183452129Y-117990125D01*
X183452130Y-117990123D01*
X183700000Y-117750000D01*
X182526242Y-116576242D01*
X182492757Y-116514919D01*
X182497741Y-116445227D01*
X182533235Y-116397224D01*
X182532268Y-116396257D01*
X182573641Y-116354884D01*
X182640510Y-116288015D01*
X182712984Y-116162485D01*
X182727661Y-116107713D01*
X182733227Y-116086942D01*
X182742063Y-116053961D01*
X182750500Y-116022475D01*
X182750500Y-115877525D01*
X182750499Y-115877523D01*
X182749439Y-115869469D01*
X182752979Y-115869002D01*
X182754089Y-115815646D01*
X182784629Y-115765370D01*
X183397420Y-115152579D01*
X183412150Y-115139992D01*
X183476687Y-115093044D01*
X183511100Y-115075456D01*
X183577607Y-115053715D01*
X183615759Y-115047579D01*
X183685724Y-115047370D01*
X183723914Y-115053278D01*
G37*
%TD.AperFunction*%
%TD*%
%TA.AperFunction,Conductor*%
%TO.N,+3.3V*%
G36*
X126992539Y-114120185D02*
G01*
X127038294Y-114172989D01*
X127049500Y-114224500D01*
X127049500Y-114319752D01*
X127061131Y-114378229D01*
X127061132Y-114378230D01*
X127105447Y-114444552D01*
X127171769Y-114488867D01*
X127171770Y-114488868D01*
X127230247Y-114500499D01*
X127230250Y-114500500D01*
X127230252Y-114500500D01*
X127325500Y-114500500D01*
X127392539Y-114520185D01*
X127438294Y-114572989D01*
X127449500Y-114624500D01*
X127449500Y-115169752D01*
X127449839Y-115173195D01*
X127449500Y-115174982D01*
X127449500Y-115175840D01*
X127449337Y-115175840D01*
X127436819Y-115241841D01*
X127388752Y-115292550D01*
X127326437Y-115309346D01*
X127200000Y-115309346D01*
X127200000Y-115459347D01*
X127199999Y-115928767D01*
X127199998Y-115929267D01*
X127199958Y-115938973D01*
X127199499Y-115940690D01*
X127199499Y-116052999D01*
X127199498Y-116053247D01*
X127199445Y-116053421D01*
X127197972Y-116072146D01*
X127185941Y-116148104D01*
X127173953Y-116185000D01*
X127142070Y-116247574D01*
X127119266Y-116278960D01*
X127069612Y-116328614D01*
X127038226Y-116351417D01*
X126975655Y-116383299D01*
X126938757Y-116395289D01*
X126859634Y-116407820D01*
X126840237Y-116409346D01*
X125424999Y-116409346D01*
X124009756Y-116409346D01*
X123990358Y-116407819D01*
X123911242Y-116395288D01*
X123874345Y-116383300D01*
X123811771Y-116351417D01*
X123780385Y-116328613D01*
X123730731Y-116278959D01*
X123707927Y-116247573D01*
X123676044Y-116184999D01*
X123664056Y-116148101D01*
X123651526Y-116068986D01*
X123649999Y-116049589D01*
X123649999Y-115269103D01*
X123651526Y-115249706D01*
X123664056Y-115170591D01*
X123676042Y-115133696D01*
X123707929Y-115071115D01*
X123730728Y-115039736D01*
X123780388Y-114990076D01*
X123811767Y-114967277D01*
X123874348Y-114935390D01*
X123911234Y-114923405D01*
X123990369Y-114910872D01*
X124009756Y-114909347D01*
X125000000Y-114909347D01*
X125000000Y-114716884D01*
X125002381Y-114692702D01*
X125010768Y-114650534D01*
X125029279Y-114605844D01*
X125046246Y-114580451D01*
X125080451Y-114546246D01*
X125105844Y-114529279D01*
X125150534Y-114510768D01*
X125192701Y-114502381D01*
X125216885Y-114500000D01*
X126249999Y-114500000D01*
X126249999Y-114266884D01*
X126252382Y-114242692D01*
X126260813Y-114200308D01*
X126293198Y-114138397D01*
X126353914Y-114103823D01*
X126382430Y-114100500D01*
X126925500Y-114100500D01*
X126992539Y-114120185D01*
G37*
%TD.AperFunction*%
%TD*%
%TA.AperFunction,Conductor*%
%TO.N,/V_BUS*%
G36*
X161357181Y-132601546D02*
G01*
X161436786Y-132614235D01*
X161439180Y-132615018D01*
X161440517Y-132614889D01*
X161473889Y-132626373D01*
X161501357Y-132640473D01*
X161536752Y-132658642D01*
X161568244Y-132681715D01*
X161617960Y-132731930D01*
X161640718Y-132763652D01*
X161672356Y-132826834D01*
X161684123Y-132864060D01*
X161696015Y-132943785D01*
X161697366Y-132963319D01*
X161653561Y-137343803D01*
X161651861Y-137363062D01*
X161638701Y-137441572D01*
X161626495Y-137478139D01*
X161594379Y-137540095D01*
X161571533Y-137571147D01*
X161521939Y-137620248D01*
X161490659Y-137642784D01*
X161428386Y-137674278D01*
X161391701Y-137686116D01*
X161316238Y-137697992D01*
X161296961Y-137699500D01*
X160929262Y-137699500D01*
X160919084Y-137700000D01*
X158909757Y-137700000D01*
X158890359Y-137698473D01*
X158811243Y-137685942D01*
X158774346Y-137673954D01*
X158711772Y-137642071D01*
X158680386Y-137619267D01*
X158630732Y-137569613D01*
X158607928Y-137538227D01*
X158576045Y-137475653D01*
X158564057Y-137438755D01*
X158551527Y-137359640D01*
X158550000Y-137340243D01*
X158550000Y-135700000D01*
X158200000Y-135700000D01*
X156809757Y-135700000D01*
X156790359Y-135698473D01*
X156711243Y-135685942D01*
X156674346Y-135673954D01*
X156611772Y-135642071D01*
X156580386Y-135619267D01*
X156530732Y-135569613D01*
X156507928Y-135538227D01*
X156476045Y-135475653D01*
X156464057Y-135438755D01*
X156451527Y-135359640D01*
X156450000Y-135340243D01*
X156450000Y-134366103D01*
X156452383Y-134341912D01*
X156468320Y-134261790D01*
X156486834Y-134217092D01*
X156493648Y-134206892D01*
X156525306Y-134159513D01*
X156559513Y-134125306D01*
X156617092Y-134086834D01*
X156661785Y-134068320D01*
X156741922Y-134052381D01*
X156766104Y-134050000D01*
X157057786Y-134050000D01*
X157150121Y-133957427D01*
X157150133Y-133957417D01*
X157160353Y-133947171D01*
X158151485Y-132953500D01*
X158392885Y-132711480D01*
X158411680Y-132696022D01*
X158494645Y-132640473D01*
X158539401Y-132621900D01*
X158637324Y-132602390D01*
X158661554Y-132600000D01*
X161337661Y-132600000D01*
X161357181Y-132601546D01*
G37*
%TD.AperFunction*%
%TD*%
%TA.AperFunction,Conductor*%
%TO.N,/V_BUS*%
G36*
X148759640Y-132001527D02*
G01*
X148796361Y-132007342D01*
X148838756Y-132014057D01*
X148875651Y-132026044D01*
X148938228Y-132057929D01*
X148940135Y-132059314D01*
X148941359Y-132059581D01*
X148969613Y-132080732D01*
X149019267Y-132130386D01*
X149042071Y-132161772D01*
X149073954Y-132224346D01*
X149085942Y-132261242D01*
X149098473Y-132340357D01*
X149100000Y-132359756D01*
X149100000Y-135340243D01*
X149098473Y-135359640D01*
X149098473Y-135359642D01*
X149085942Y-135438757D01*
X149073954Y-135475653D01*
X149042071Y-135538227D01*
X149019267Y-135569613D01*
X148969613Y-135619267D01*
X148938227Y-135642071D01*
X148875653Y-135673954D01*
X148838757Y-135685942D01*
X148776308Y-135695833D01*
X148759640Y-135698473D01*
X148740243Y-135700000D01*
X146709757Y-135700000D01*
X146690359Y-135698473D01*
X146611243Y-135685942D01*
X146574346Y-135673954D01*
X146511772Y-135642071D01*
X146480386Y-135619267D01*
X146430732Y-135569613D01*
X146407928Y-135538227D01*
X146376045Y-135475653D01*
X146364057Y-135438755D01*
X146351527Y-135359640D01*
X146350000Y-135340243D01*
X146350000Y-134050000D01*
X146000000Y-134050000D01*
X143709757Y-134050000D01*
X143690359Y-134048473D01*
X143611243Y-134035942D01*
X143574346Y-134023954D01*
X143511772Y-133992071D01*
X143480386Y-133969267D01*
X143430732Y-133919613D01*
X143407928Y-133888227D01*
X143376045Y-133825653D01*
X143364057Y-133788755D01*
X143351527Y-133709640D01*
X143350000Y-133690243D01*
X143350000Y-132359756D01*
X143351527Y-132340359D01*
X143364057Y-132261244D01*
X143364058Y-132261242D01*
X143376043Y-132224349D01*
X143407930Y-132161768D01*
X143430729Y-132130389D01*
X143480389Y-132080729D01*
X143511768Y-132057930D01*
X143574349Y-132026043D01*
X143611235Y-132014058D01*
X143690370Y-132001525D01*
X143709757Y-132000000D01*
X148740243Y-132000000D01*
X148759640Y-132001527D01*
G37*
%TD.AperFunction*%
%TD*%
%TA.AperFunction,Conductor*%
%TO.N,GND*%
G36*
X179984388Y-109152922D02*
G01*
X179986922Y-109153345D01*
X179988256Y-109153008D01*
X180022970Y-109159350D01*
X180090112Y-109181860D01*
X180124773Y-109199989D01*
X180189559Y-109248256D01*
X180204308Y-109261181D01*
X181162830Y-110245609D01*
X183209395Y-112347488D01*
X183402316Y-112545623D01*
X183414660Y-112560451D01*
X183460579Y-112625275D01*
X183477676Y-112659734D01*
X183498577Y-112726162D01*
X183504291Y-112764207D01*
X183503826Y-112833847D01*
X183497606Y-112871807D01*
X183475821Y-112937955D01*
X183458265Y-112972186D01*
X183411487Y-113036390D01*
X183398947Y-113051052D01*
X182704390Y-113745609D01*
X182689594Y-113758246D01*
X182624783Y-113805334D01*
X182590217Y-113822947D01*
X182567143Y-113830444D01*
X182523428Y-113844647D01*
X182485114Y-113850716D01*
X182414886Y-113850716D01*
X182376570Y-113844647D01*
X182343175Y-113833797D01*
X182309783Y-113822947D01*
X182275216Y-113805334D01*
X182210405Y-113758246D01*
X182195609Y-113745609D01*
X180700000Y-112250000D01*
X180100000Y-112850000D01*
X181691361Y-114441361D01*
X181706782Y-114460151D01*
X181732281Y-114498313D01*
X181750797Y-114543015D01*
X181757320Y-114575811D01*
X181757320Y-114624190D01*
X181750797Y-114656985D01*
X181732281Y-114701686D01*
X181713574Y-114729683D01*
X181679730Y-114763648D01*
X181650699Y-114783196D01*
X181606933Y-114801691D01*
X181572458Y-114808933D01*
X181524949Y-114809612D01*
X181490280Y-114803357D01*
X181446004Y-114786119D01*
X181405907Y-114760753D01*
X181387059Y-114746111D01*
X181073529Y-114450000D01*
X179749999Y-113199999D01*
X178750000Y-114199999D01*
X178750000Y-114200000D01*
X180295609Y-115745609D01*
X180308246Y-115760405D01*
X180355334Y-115825216D01*
X180372947Y-115859783D01*
X180394647Y-115926568D01*
X180400716Y-115964886D01*
X180400716Y-116035113D01*
X180394647Y-116073431D01*
X180372947Y-116140216D01*
X180355334Y-116174783D01*
X180308246Y-116239594D01*
X180295609Y-116254390D01*
X180002129Y-116547870D01*
X179987423Y-116560442D01*
X179923024Y-116607319D01*
X179888687Y-116624893D01*
X179822332Y-116646652D01*
X179784252Y-116652824D01*
X179714420Y-116653138D01*
X179676288Y-116647309D01*
X179609743Y-116626150D01*
X179575248Y-116608886D01*
X179510429Y-116562591D01*
X179495610Y-116550153D01*
X179493285Y-116547870D01*
X177194876Y-114290503D01*
X177194875Y-114290502D01*
X176950000Y-114050000D01*
X176704295Y-114290585D01*
X176704245Y-114290634D01*
X174804388Y-116150910D01*
X174789567Y-116163315D01*
X174724744Y-116209480D01*
X174690260Y-116226686D01*
X174623753Y-116247755D01*
X174585653Y-116253543D01*
X174515889Y-116253176D01*
X174477854Y-116246988D01*
X174411566Y-116225218D01*
X174377270Y-116207652D01*
X174312939Y-116160809D01*
X174298249Y-116148249D01*
X173804390Y-115654390D01*
X173791753Y-115639594D01*
X173744665Y-115574783D01*
X173727052Y-115540215D01*
X173705353Y-115473430D01*
X173699284Y-115435113D01*
X173699284Y-115364886D01*
X173705353Y-115326569D01*
X173727052Y-115259784D01*
X173744665Y-115225216D01*
X173791753Y-115160405D01*
X173804384Y-115145615D01*
X176602513Y-112347487D01*
X176850000Y-112100000D01*
X175504390Y-110754390D01*
X175491753Y-110739594D01*
X175444665Y-110674783D01*
X175427052Y-110640215D01*
X175405353Y-110573430D01*
X175399284Y-110535113D01*
X175399284Y-110464886D01*
X175405353Y-110426569D01*
X175427052Y-110359784D01*
X175444665Y-110325216D01*
X175491753Y-110260405D01*
X175504384Y-110245615D01*
X176295615Y-109454384D01*
X176310405Y-109441753D01*
X176375216Y-109394665D01*
X176409779Y-109377053D01*
X176455657Y-109362147D01*
X176493970Y-109356080D01*
X176606030Y-109356080D01*
X176644347Y-109362149D01*
X176690215Y-109377052D01*
X176724783Y-109394665D01*
X176789594Y-109441753D01*
X176804390Y-109454390D01*
X178149999Y-110799999D01*
X178150000Y-110800000D01*
X179692234Y-109257765D01*
X179707158Y-109245037D01*
X179772574Y-109197643D01*
X179807475Y-109179976D01*
X179874906Y-109158364D01*
X179913575Y-109152451D01*
X179984388Y-109152922D01*
G37*
%TD.AperFunction*%
%TD*%
M02*
