%TF.GenerationSoftware,KiCad,Pcbnew,9.0.1*%
%TF.CreationDate,2025-05-12T15:51:15-07:00*%
%TF.ProjectId,SmartKnobController_ME507,536d6172-744b-46e6-9f62-436f6e74726f,rev?*%
%TF.SameCoordinates,Original*%
%TF.FileFunction,Soldermask,Bot*%
%TF.FilePolarity,Negative*%
%FSLAX46Y46*%
G04 Gerber Fmt 4.6, Leading zero omitted, Abs format (unit mm)*
G04 Created by KiCad (PCBNEW 9.0.1) date 2025-05-12 15:51:15*
%MOMM*%
%LPD*%
G01*
G04 APERTURE LIST*
G04 Aperture macros list*
%AMRoundRect*
0 Rectangle with rounded corners*
0 $1 Rounding radius*
0 $2 $3 $4 $5 $6 $7 $8 $9 X,Y pos of 4 corners*
0 Add a 4 corners polygon primitive as box body*
4,1,4,$2,$3,$4,$5,$6,$7,$8,$9,$2,$3,0*
0 Add four circle primitives for the rounded corners*
1,1,$1+$1,$2,$3*
1,1,$1+$1,$4,$5*
1,1,$1+$1,$6,$7*
1,1,$1+$1,$8,$9*
0 Add four rect primitives between the rounded corners*
20,1,$1+$1,$2,$3,$4,$5,0*
20,1,$1+$1,$4,$5,$6,$7,0*
20,1,$1+$1,$6,$7,$8,$9,0*
20,1,$1+$1,$8,$9,$2,$3,0*%
%AMHorizOval*
0 Thick line with rounded ends*
0 $1 width*
0 $2 $3 position (X,Y) of the first rounded end (center of the circle)*
0 $4 $5 position (X,Y) of the second rounded end (center of the circle)*
0 Add line between two ends*
20,1,$1,$2,$3,$4,$5,0*
0 Add two circle primitives to create the rounded ends*
1,1,$1,$2,$3*
1,1,$1,$4,$5*%
%AMRotRect*
0 Rectangle, with rotation*
0 The origin of the aperture is its center*
0 $1 length*
0 $2 width*
0 $3 Rotation angle, in degrees counterclockwise*
0 Add horizontal line*
21,1,$1,$2,0,0,$3*%
G04 Aperture macros list end*
%ADD10RoundRect,0.269000X0.494000X-0.269000X0.494000X0.269000X-0.494000X0.269000X-0.494000X-0.269000X0*%
%ADD11RoundRect,0.225000X-0.212132X-0.530330X0.530330X0.212132X0.212132X0.530330X-0.530330X-0.212132X0*%
%ADD12C,3.200000*%
%ADD13C,2.700000*%
%ADD14RoundRect,0.225000X-0.530330X0.212132X0.212132X-0.530330X0.530330X-0.212132X-0.212132X0.530330X0*%
%ADD15RoundRect,0.225000X-0.525000X-0.225000X0.525000X-0.225000X0.525000X0.225000X-0.525000X0.225000X0*%
%ADD16RoundRect,0.225000X0.525000X0.225000X-0.525000X0.225000X-0.525000X-0.225000X0.525000X-0.225000X0*%
%ADD17RoundRect,0.225000X0.212132X0.530330X-0.530330X-0.212132X-0.212132X-0.530330X0.530330X0.212132X0*%
%ADD18R,1.700000X1.700000*%
%ADD19C,1.700000*%
%ADD20RotRect,1.700000X1.700000X210.000000*%
%ADD21C,0.600000*%
%ADD22R,0.300000X1.400000*%
%ADD23R,0.500000X1.400000*%
%ADD24O,1.300000X2.100000*%
%ADD25O,1.300000X2.300000*%
%ADD26C,0.500000*%
%ADD27RoundRect,0.500000X2.000000X1.000000X-2.000000X1.000000X-2.000000X-1.000000X2.000000X-1.000000X0*%
%ADD28RoundRect,0.150000X-1.350000X-0.350000X1.350000X-0.350000X1.350000X0.350000X-1.350000X0.350000X0*%
%ADD29RoundRect,0.250000X0.088388X-0.936916X0.936916X-0.088388X-0.088388X0.936916X-0.936916X0.088388X0*%
%ADD30HorizOval,1.700000X-0.088388X0.088388X0.088388X-0.088388X0*%
%ADD31R,0.530000X1.040000*%
G04 APERTURE END LIST*
D10*
%TO.C,C24*%
X156600000Y-89499999D03*
X156600000Y-87600001D03*
%TD*%
%TO.C,C23*%
X149700000Y-89499999D03*
X149700000Y-87600001D03*
%TD*%
D11*
%TO.C,TP3*%
X168800000Y-136800000D03*
%TD*%
D12*
%TO.C,H6*%
X153150000Y-49900000D03*
%TD*%
D13*
%TO.C,H4*%
X165170815Y-76379185D03*
%TD*%
D14*
%TO.C,TP4*%
X145700000Y-114300000D03*
%TD*%
D12*
%TO.C,H5*%
X114650000Y-88400000D03*
%TD*%
D11*
%TO.C,TP9*%
X170200000Y-115600000D03*
%TD*%
D15*
%TO.C,TP2*%
X173650000Y-135500000D03*
%TD*%
D11*
%TO.C,TP8*%
X168600000Y-115500000D03*
%TD*%
D13*
%TO.C,H1*%
X141129185Y-100420815D03*
%TD*%
D15*
%TO.C,TP10*%
X131900000Y-135500000D03*
%TD*%
%TO.C,TP1*%
X136800000Y-139200000D03*
%TD*%
D13*
%TO.C,H2*%
X165170815Y-100420815D03*
%TD*%
%TO.C,H3*%
X141129185Y-76379185D03*
%TD*%
D12*
%TO.C,H8*%
X191650000Y-88400000D03*
%TD*%
%TO.C,H7*%
X153150000Y-126900000D03*
%TD*%
D16*
%TO.C,TP5*%
X127200000Y-131400000D03*
%TD*%
D17*
%TO.C,TP7*%
X171800000Y-115700000D03*
%TD*%
D18*
%TO.C,J4*%
X118479999Y-102400001D03*
D19*
X118479999Y-99860001D03*
X115939999Y-102400001D03*
X115939999Y-99860000D03*
X113400000Y-102400000D03*
X113399999Y-99860001D03*
X110859999Y-102400001D03*
X110859999Y-99860000D03*
%TD*%
D20*
%TO.C,J2*%
X109360001Y-109300592D03*
D19*
X110630001Y-111500297D03*
X111900001Y-113700000D03*
X113170001Y-115899706D03*
%TD*%
D21*
%TO.C,J1*%
X156040000Y-137800000D03*
X150260000Y-137800000D03*
D22*
X154400000Y-136600001D03*
X153400000Y-136600000D03*
X152900000Y-136600000D03*
X151900000Y-136600001D03*
D23*
X150750000Y-136600000D03*
X149950000Y-136600000D03*
D22*
X151400000Y-136600000D03*
X152400000Y-136600000D03*
X153900000Y-136600000D03*
X154900000Y-136600000D03*
D23*
X155550000Y-136600000D03*
X156350000Y-136600000D03*
D24*
X157480000Y-141480001D03*
D25*
X157480000Y-137280000D03*
D26*
X155150000Y-142100000D03*
X155150000Y-140100000D03*
D27*
X153150000Y-141100001D03*
D26*
X151150000Y-142100000D03*
X151150000Y-140100000D03*
D24*
X148820000Y-141480001D03*
D25*
X148820000Y-137280000D03*
%TD*%
D28*
%TO.C,R15*%
X103503382Y-89670000D03*
X103503382Y-87130000D03*
%TD*%
D29*
%TO.C,J3*%
X185018216Y-123803750D03*
D30*
X186785983Y-122035983D03*
X188553750Y-120268216D03*
%TD*%
D31*
%TO.C,U6*%
X154100000Y-89500000D03*
X152200000Y-89500000D03*
X153150000Y-87300000D03*
%TD*%
M02*
