%TF.GenerationSoftware,KiCad,Pcbnew,9.0.1*%
%TF.CreationDate,2025-05-12T15:51:15-07:00*%
%TF.ProjectId,SmartKnobController_ME507,536d6172-744b-46e6-9f62-436f6e74726f,rev?*%
%TF.SameCoordinates,Original*%
%TF.FileFunction,Legend,Top*%
%TF.FilePolarity,Positive*%
%FSLAX46Y46*%
G04 Gerber Fmt 4.6, Leading zero omitted, Abs format (unit mm)*
G04 Created by KiCad (PCBNEW 9.0.1) date 2025-05-12 15:51:15*
%MOMM*%
%LPD*%
G01*
G04 APERTURE LIST*
%ADD10C,0.250000*%
%ADD11C,0.100000*%
%ADD12C,0.150000*%
%ADD13C,0.350000*%
%ADD14C,0.152400*%
%ADD15C,0.000000*%
%ADD16C,0.120000*%
%ADD17C,0.300000*%
%ADD18C,0.400000*%
G04 APERTURE END LIST*
D10*
X136462092Y-125584023D02*
X136462092Y-124334023D01*
X136462092Y-124334023D02*
X136938282Y-124334023D01*
X136938282Y-124334023D02*
X137057330Y-124393547D01*
X137057330Y-124393547D02*
X137116853Y-124453071D01*
X137116853Y-124453071D02*
X137176377Y-124572119D01*
X137176377Y-124572119D02*
X137176377Y-124750690D01*
X137176377Y-124750690D02*
X137116853Y-124869738D01*
X137116853Y-124869738D02*
X137057330Y-124929261D01*
X137057330Y-124929261D02*
X136938282Y-124988785D01*
X136938282Y-124988785D02*
X136462092Y-124988785D01*
X137712092Y-125584023D02*
X137712092Y-124334023D01*
X137712092Y-124334023D02*
X138009711Y-124334023D01*
X138009711Y-124334023D02*
X138188282Y-124393547D01*
X138188282Y-124393547D02*
X138307330Y-124512595D01*
X138307330Y-124512595D02*
X138366853Y-124631642D01*
X138366853Y-124631642D02*
X138426377Y-124869738D01*
X138426377Y-124869738D02*
X138426377Y-125048309D01*
X138426377Y-125048309D02*
X138366853Y-125286404D01*
X138366853Y-125286404D02*
X138307330Y-125405452D01*
X138307330Y-125405452D02*
X138188282Y-125524500D01*
X138188282Y-125524500D02*
X138009711Y-125584023D01*
X138009711Y-125584023D02*
X137712092Y-125584023D01*
X135328758Y-126829261D02*
X134912092Y-126829261D01*
X134912092Y-127484023D02*
X134912092Y-126234023D01*
X134912092Y-126234023D02*
X135507330Y-126234023D01*
X135923997Y-127126880D02*
X136519235Y-127126880D01*
X135804949Y-127484023D02*
X136221616Y-126234023D01*
X136221616Y-126234023D02*
X136638282Y-127484023D01*
X137054950Y-126234023D02*
X137054950Y-127245928D01*
X137054950Y-127245928D02*
X137114473Y-127364976D01*
X137114473Y-127364976D02*
X137173997Y-127424500D01*
X137173997Y-127424500D02*
X137293045Y-127484023D01*
X137293045Y-127484023D02*
X137531140Y-127484023D01*
X137531140Y-127484023D02*
X137650188Y-127424500D01*
X137650188Y-127424500D02*
X137709711Y-127364976D01*
X137709711Y-127364976D02*
X137769235Y-127245928D01*
X137769235Y-127245928D02*
X137769235Y-126234023D01*
X138959712Y-127484023D02*
X138364474Y-127484023D01*
X138364474Y-127484023D02*
X138364474Y-126234023D01*
X139197807Y-126234023D02*
X139912093Y-126234023D01*
X139554950Y-127484023D02*
X139554950Y-126234023D01*
D11*
X132600000Y-118000000D02*
X131600000Y-118000000D01*
X159400000Y-138900000D02*
X159400000Y-140600000D01*
X164000000Y-131300000D02*
X165500000Y-132700000D01*
X130700000Y-123200000D02*
X130700000Y-122400000D01*
X164000000Y-131300000D02*
X164200000Y-131100000D01*
X135200000Y-119100000D02*
X134400000Y-119100000D01*
X128700000Y-122200000D02*
X128700000Y-121400000D01*
X135200000Y-117000000D02*
X135200000Y-119100000D01*
X132100000Y-122000000D02*
X132100000Y-121300000D01*
X131600000Y-118000000D02*
X131600000Y-118400000D01*
X109500000Y-98500000D02*
X119900000Y-98500000D01*
X119900000Y-103800000D01*
X109500000Y-103800000D01*
X109500000Y-98500000D01*
D10*
X107976377Y-114284023D02*
X107559711Y-113688785D01*
X107262092Y-114284023D02*
X107262092Y-113034023D01*
X107262092Y-113034023D02*
X107738282Y-113034023D01*
X107738282Y-113034023D02*
X107857330Y-113093547D01*
X107857330Y-113093547D02*
X107916853Y-113153071D01*
X107916853Y-113153071D02*
X107976377Y-113272119D01*
X107976377Y-113272119D02*
X107976377Y-113450690D01*
X107976377Y-113450690D02*
X107916853Y-113569738D01*
X107916853Y-113569738D02*
X107857330Y-113629261D01*
X107857330Y-113629261D02*
X107738282Y-113688785D01*
X107738282Y-113688785D02*
X107262092Y-113688785D01*
X108393044Y-113034023D02*
X109226377Y-114284023D01*
X109226377Y-113034023D02*
X108393044Y-114284023D01*
X110357329Y-114284023D02*
X109643044Y-114284023D01*
X110000187Y-114284023D02*
X110000187Y-113034023D01*
X110000187Y-113034023D02*
X109881139Y-113212595D01*
X109881139Y-113212595D02*
X109762091Y-113331642D01*
X109762091Y-113331642D02*
X109643044Y-113391166D01*
X176262092Y-102234023D02*
X176262092Y-100984023D01*
X176262092Y-100984023D02*
X176678758Y-101876880D01*
X176678758Y-101876880D02*
X177095425Y-100984023D01*
X177095425Y-100984023D02*
X177095425Y-102234023D01*
X177631139Y-101876880D02*
X178226377Y-101876880D01*
X177512091Y-102234023D02*
X177928758Y-100984023D01*
X177928758Y-100984023D02*
X178345424Y-102234023D01*
X179000187Y-101638785D02*
X179000187Y-102234023D01*
X178583520Y-100984023D02*
X179000187Y-101638785D01*
X179000187Y-101638785D02*
X179416853Y-100984023D01*
X180726378Y-101103071D02*
X180785902Y-101043547D01*
X180785902Y-101043547D02*
X180904949Y-100984023D01*
X180904949Y-100984023D02*
X181202568Y-100984023D01*
X181202568Y-100984023D02*
X181321616Y-101043547D01*
X181321616Y-101043547D02*
X181381140Y-101103071D01*
X181381140Y-101103071D02*
X181440663Y-101222119D01*
X181440663Y-101222119D02*
X181440663Y-101341166D01*
X181440663Y-101341166D02*
X181381140Y-101519738D01*
X181381140Y-101519738D02*
X180666854Y-102234023D01*
X180666854Y-102234023D02*
X181440663Y-102234023D01*
X182214473Y-100984023D02*
X182333520Y-100984023D01*
X182333520Y-100984023D02*
X182452568Y-101043547D01*
X182452568Y-101043547D02*
X182512092Y-101103071D01*
X182512092Y-101103071D02*
X182571616Y-101222119D01*
X182571616Y-101222119D02*
X182631139Y-101460214D01*
X182631139Y-101460214D02*
X182631139Y-101757833D01*
X182631139Y-101757833D02*
X182571616Y-101995928D01*
X182571616Y-101995928D02*
X182512092Y-102114976D01*
X182512092Y-102114976D02*
X182452568Y-102174500D01*
X182452568Y-102174500D02*
X182333520Y-102234023D01*
X182333520Y-102234023D02*
X182214473Y-102234023D01*
X182214473Y-102234023D02*
X182095425Y-102174500D01*
X182095425Y-102174500D02*
X182035901Y-102114976D01*
X182035901Y-102114976D02*
X181976378Y-101995928D01*
X181976378Y-101995928D02*
X181916854Y-101757833D01*
X181916854Y-101757833D02*
X181916854Y-101460214D01*
X181916854Y-101460214D02*
X181976378Y-101222119D01*
X181976378Y-101222119D02*
X182035901Y-101103071D01*
X182035901Y-101103071D02*
X182095425Y-101043547D01*
X182095425Y-101043547D02*
X182214473Y-100984023D01*
X183107330Y-101103071D02*
X183166854Y-101043547D01*
X183166854Y-101043547D02*
X183285901Y-100984023D01*
X183285901Y-100984023D02*
X183583520Y-100984023D01*
X183583520Y-100984023D02*
X183702568Y-101043547D01*
X183702568Y-101043547D02*
X183762092Y-101103071D01*
X183762092Y-101103071D02*
X183821615Y-101222119D01*
X183821615Y-101222119D02*
X183821615Y-101341166D01*
X183821615Y-101341166D02*
X183762092Y-101519738D01*
X183762092Y-101519738D02*
X183047806Y-102234023D01*
X183047806Y-102234023D02*
X183821615Y-102234023D01*
X184952568Y-100984023D02*
X184357330Y-100984023D01*
X184357330Y-100984023D02*
X184297806Y-101579261D01*
X184297806Y-101579261D02*
X184357330Y-101519738D01*
X184357330Y-101519738D02*
X184476377Y-101460214D01*
X184476377Y-101460214D02*
X184773996Y-101460214D01*
X184773996Y-101460214D02*
X184893044Y-101519738D01*
X184893044Y-101519738D02*
X184952568Y-101579261D01*
X184952568Y-101579261D02*
X185012091Y-101698309D01*
X185012091Y-101698309D02*
X185012091Y-101995928D01*
X185012091Y-101995928D02*
X184952568Y-102114976D01*
X184952568Y-102114976D02*
X184893044Y-102174500D01*
X184893044Y-102174500D02*
X184773996Y-102234023D01*
X184773996Y-102234023D02*
X184476377Y-102234023D01*
X184476377Y-102234023D02*
X184357330Y-102174500D01*
X184357330Y-102174500D02*
X184297806Y-102114976D01*
D12*
X132100000Y-137369819D02*
X132719047Y-137369819D01*
X132719047Y-137369819D02*
X132385714Y-137750771D01*
X132385714Y-137750771D02*
X132528571Y-137750771D01*
X132528571Y-137750771D02*
X132623809Y-137798390D01*
X132623809Y-137798390D02*
X132671428Y-137846009D01*
X132671428Y-137846009D02*
X132719047Y-137941247D01*
X132719047Y-137941247D02*
X132719047Y-138179342D01*
X132719047Y-138179342D02*
X132671428Y-138274580D01*
X132671428Y-138274580D02*
X132623809Y-138322200D01*
X132623809Y-138322200D02*
X132528571Y-138369819D01*
X132528571Y-138369819D02*
X132242857Y-138369819D01*
X132242857Y-138369819D02*
X132147619Y-138322200D01*
X132147619Y-138322200D02*
X132100000Y-138274580D01*
X133004762Y-137369819D02*
X133338095Y-138369819D01*
X133338095Y-138369819D02*
X133671428Y-137369819D01*
X133909524Y-137369819D02*
X134528571Y-137369819D01*
X134528571Y-137369819D02*
X134195238Y-137750771D01*
X134195238Y-137750771D02*
X134338095Y-137750771D01*
X134338095Y-137750771D02*
X134433333Y-137798390D01*
X134433333Y-137798390D02*
X134480952Y-137846009D01*
X134480952Y-137846009D02*
X134528571Y-137941247D01*
X134528571Y-137941247D02*
X134528571Y-138179342D01*
X134528571Y-138179342D02*
X134480952Y-138274580D01*
X134480952Y-138274580D02*
X134433333Y-138322200D01*
X134433333Y-138322200D02*
X134338095Y-138369819D01*
X134338095Y-138369819D02*
X134052381Y-138369819D01*
X134052381Y-138369819D02*
X133957143Y-138322200D01*
X133957143Y-138322200D02*
X133909524Y-138274580D01*
X134719048Y-138465057D02*
X135480952Y-138465057D01*
X135576191Y-137369819D02*
X136147619Y-137369819D01*
X135861905Y-138369819D02*
X135861905Y-137369819D01*
X136480953Y-138369819D02*
X136480953Y-137369819D01*
X136480953Y-137369819D02*
X136861905Y-137369819D01*
X136861905Y-137369819D02*
X136957143Y-137417438D01*
X136957143Y-137417438D02*
X137004762Y-137465057D01*
X137004762Y-137465057D02*
X137052381Y-137560295D01*
X137052381Y-137560295D02*
X137052381Y-137703152D01*
X137052381Y-137703152D02*
X137004762Y-137798390D01*
X137004762Y-137798390D02*
X136957143Y-137846009D01*
X136957143Y-137846009D02*
X136861905Y-137893628D01*
X136861905Y-137893628D02*
X136480953Y-137893628D01*
D10*
X127276377Y-130134023D02*
X126859711Y-129538785D01*
X126562092Y-130134023D02*
X126562092Y-128884023D01*
X126562092Y-128884023D02*
X127038282Y-128884023D01*
X127038282Y-128884023D02*
X127157330Y-128943547D01*
X127157330Y-128943547D02*
X127216853Y-129003071D01*
X127216853Y-129003071D02*
X127276377Y-129122119D01*
X127276377Y-129122119D02*
X127276377Y-129300690D01*
X127276377Y-129300690D02*
X127216853Y-129419738D01*
X127216853Y-129419738D02*
X127157330Y-129479261D01*
X127157330Y-129479261D02*
X127038282Y-129538785D01*
X127038282Y-129538785D02*
X126562092Y-129538785D01*
X127812092Y-129479261D02*
X128228758Y-129479261D01*
X128407330Y-130134023D02*
X127812092Y-130134023D01*
X127812092Y-130134023D02*
X127812092Y-128884023D01*
X127812092Y-128884023D02*
X128407330Y-128884023D01*
X128883520Y-130074500D02*
X129062091Y-130134023D01*
X129062091Y-130134023D02*
X129359710Y-130134023D01*
X129359710Y-130134023D02*
X129478758Y-130074500D01*
X129478758Y-130074500D02*
X129538282Y-130014976D01*
X129538282Y-130014976D02*
X129597805Y-129895928D01*
X129597805Y-129895928D02*
X129597805Y-129776880D01*
X129597805Y-129776880D02*
X129538282Y-129657833D01*
X129538282Y-129657833D02*
X129478758Y-129598309D01*
X129478758Y-129598309D02*
X129359710Y-129538785D01*
X129359710Y-129538785D02*
X129121615Y-129479261D01*
X129121615Y-129479261D02*
X129002567Y-129419738D01*
X129002567Y-129419738D02*
X128943044Y-129360214D01*
X128943044Y-129360214D02*
X128883520Y-129241166D01*
X128883520Y-129241166D02*
X128883520Y-129122119D01*
X128883520Y-129122119D02*
X128943044Y-129003071D01*
X128943044Y-129003071D02*
X129002567Y-128943547D01*
X129002567Y-128943547D02*
X129121615Y-128884023D01*
X129121615Y-128884023D02*
X129419234Y-128884023D01*
X129419234Y-128884023D02*
X129597805Y-128943547D01*
X130133520Y-129479261D02*
X130550186Y-129479261D01*
X130728758Y-130134023D02*
X130133520Y-130134023D01*
X130133520Y-130134023D02*
X130133520Y-128884023D01*
X130133520Y-128884023D02*
X130728758Y-128884023D01*
X131085900Y-128884023D02*
X131800186Y-128884023D01*
X131443043Y-130134023D02*
X131443043Y-128884023D01*
X104662092Y-103034023D02*
X104662092Y-101784023D01*
X104662092Y-101784023D02*
X105376377Y-103034023D01*
X105376377Y-103034023D02*
X105376377Y-101784023D01*
X106685901Y-103034023D02*
X106269235Y-102438785D01*
X105971616Y-103034023D02*
X105971616Y-101784023D01*
X105971616Y-101784023D02*
X106447806Y-101784023D01*
X106447806Y-101784023D02*
X106566854Y-101843547D01*
X106566854Y-101843547D02*
X106626377Y-101903071D01*
X106626377Y-101903071D02*
X106685901Y-102022119D01*
X106685901Y-102022119D02*
X106685901Y-102200690D01*
X106685901Y-102200690D02*
X106626377Y-102319738D01*
X106626377Y-102319738D02*
X106566854Y-102379261D01*
X106566854Y-102379261D02*
X106447806Y-102438785D01*
X106447806Y-102438785D02*
X105971616Y-102438785D01*
X107162092Y-102974500D02*
X107340663Y-103034023D01*
X107340663Y-103034023D02*
X107638282Y-103034023D01*
X107638282Y-103034023D02*
X107757330Y-102974500D01*
X107757330Y-102974500D02*
X107816854Y-102914976D01*
X107816854Y-102914976D02*
X107876377Y-102795928D01*
X107876377Y-102795928D02*
X107876377Y-102676880D01*
X107876377Y-102676880D02*
X107816854Y-102557833D01*
X107816854Y-102557833D02*
X107757330Y-102498309D01*
X107757330Y-102498309D02*
X107638282Y-102438785D01*
X107638282Y-102438785D02*
X107400187Y-102379261D01*
X107400187Y-102379261D02*
X107281139Y-102319738D01*
X107281139Y-102319738D02*
X107221616Y-102260214D01*
X107221616Y-102260214D02*
X107162092Y-102141166D01*
X107162092Y-102141166D02*
X107162092Y-102022119D01*
X107162092Y-102022119D02*
X107221616Y-101903071D01*
X107221616Y-101903071D02*
X107281139Y-101843547D01*
X107281139Y-101843547D02*
X107400187Y-101784023D01*
X107400187Y-101784023D02*
X107697806Y-101784023D01*
X107697806Y-101784023D02*
X107876377Y-101843547D01*
X108233520Y-101784023D02*
X108947806Y-101784023D01*
X108590663Y-103034023D02*
X108590663Y-101784023D01*
X115602568Y-105474500D02*
X115781139Y-105534023D01*
X115781139Y-105534023D02*
X116078758Y-105534023D01*
X116078758Y-105534023D02*
X116197806Y-105474500D01*
X116197806Y-105474500D02*
X116257330Y-105414976D01*
X116257330Y-105414976D02*
X116316853Y-105295928D01*
X116316853Y-105295928D02*
X116316853Y-105176880D01*
X116316853Y-105176880D02*
X116257330Y-105057833D01*
X116257330Y-105057833D02*
X116197806Y-104998309D01*
X116197806Y-104998309D02*
X116078758Y-104938785D01*
X116078758Y-104938785D02*
X115840663Y-104879261D01*
X115840663Y-104879261D02*
X115721615Y-104819738D01*
X115721615Y-104819738D02*
X115662092Y-104760214D01*
X115662092Y-104760214D02*
X115602568Y-104641166D01*
X115602568Y-104641166D02*
X115602568Y-104522119D01*
X115602568Y-104522119D02*
X115662092Y-104403071D01*
X115662092Y-104403071D02*
X115721615Y-104343547D01*
X115721615Y-104343547D02*
X115840663Y-104284023D01*
X115840663Y-104284023D02*
X116138282Y-104284023D01*
X116138282Y-104284023D02*
X116316853Y-104343547D01*
X116733520Y-104284023D02*
X117031139Y-105534023D01*
X117031139Y-105534023D02*
X117269234Y-104641166D01*
X117269234Y-104641166D02*
X117507329Y-105534023D01*
X117507329Y-105534023D02*
X117804949Y-104284023D01*
X118995424Y-105414976D02*
X118935900Y-105474500D01*
X118935900Y-105474500D02*
X118757329Y-105534023D01*
X118757329Y-105534023D02*
X118638281Y-105534023D01*
X118638281Y-105534023D02*
X118459710Y-105474500D01*
X118459710Y-105474500D02*
X118340662Y-105355452D01*
X118340662Y-105355452D02*
X118281139Y-105236404D01*
X118281139Y-105236404D02*
X118221615Y-104998309D01*
X118221615Y-104998309D02*
X118221615Y-104819738D01*
X118221615Y-104819738D02*
X118281139Y-104581642D01*
X118281139Y-104581642D02*
X118340662Y-104462595D01*
X118340662Y-104462595D02*
X118459710Y-104343547D01*
X118459710Y-104343547D02*
X118638281Y-104284023D01*
X118638281Y-104284023D02*
X118757329Y-104284023D01*
X118757329Y-104284023D02*
X118935900Y-104343547D01*
X118935900Y-104343547D02*
X118995424Y-104403071D01*
X120126377Y-105534023D02*
X119531139Y-105534023D01*
X119531139Y-105534023D02*
X119531139Y-104284023D01*
X120543044Y-105534023D02*
X120543044Y-104284023D01*
X121257329Y-105534023D02*
X120721615Y-104819738D01*
X121257329Y-104284023D02*
X120543044Y-104998309D01*
X121416853Y-99343547D02*
X121297806Y-99284023D01*
X121297806Y-99284023D02*
X121119234Y-99284023D01*
X121119234Y-99284023D02*
X120940663Y-99343547D01*
X120940663Y-99343547D02*
X120821615Y-99462595D01*
X120821615Y-99462595D02*
X120762092Y-99581642D01*
X120762092Y-99581642D02*
X120702568Y-99819738D01*
X120702568Y-99819738D02*
X120702568Y-99998309D01*
X120702568Y-99998309D02*
X120762092Y-100236404D01*
X120762092Y-100236404D02*
X120821615Y-100355452D01*
X120821615Y-100355452D02*
X120940663Y-100474500D01*
X120940663Y-100474500D02*
X121119234Y-100534023D01*
X121119234Y-100534023D02*
X121238282Y-100534023D01*
X121238282Y-100534023D02*
X121416853Y-100474500D01*
X121416853Y-100474500D02*
X121476377Y-100414976D01*
X121476377Y-100414976D02*
X121476377Y-99998309D01*
X121476377Y-99998309D02*
X121238282Y-99998309D01*
X122012092Y-100534023D02*
X122012092Y-99284023D01*
X122012092Y-99284023D02*
X122726377Y-100534023D01*
X122726377Y-100534023D02*
X122726377Y-99284023D01*
X123321616Y-100534023D02*
X123321616Y-99284023D01*
X123321616Y-99284023D02*
X123619235Y-99284023D01*
X123619235Y-99284023D02*
X123797806Y-99343547D01*
X123797806Y-99343547D02*
X123916854Y-99462595D01*
X123916854Y-99462595D02*
X123976377Y-99581642D01*
X123976377Y-99581642D02*
X124035901Y-99819738D01*
X124035901Y-99819738D02*
X124035901Y-99998309D01*
X124035901Y-99998309D02*
X123976377Y-100236404D01*
X123976377Y-100236404D02*
X123916854Y-100355452D01*
X123916854Y-100355452D02*
X123797806Y-100474500D01*
X123797806Y-100474500D02*
X123619235Y-100534023D01*
X123619235Y-100534023D02*
X123321616Y-100534023D01*
X108966853Y-115293547D02*
X108847806Y-115234023D01*
X108847806Y-115234023D02*
X108669234Y-115234023D01*
X108669234Y-115234023D02*
X108490663Y-115293547D01*
X108490663Y-115293547D02*
X108371615Y-115412595D01*
X108371615Y-115412595D02*
X108312092Y-115531642D01*
X108312092Y-115531642D02*
X108252568Y-115769738D01*
X108252568Y-115769738D02*
X108252568Y-115948309D01*
X108252568Y-115948309D02*
X108312092Y-116186404D01*
X108312092Y-116186404D02*
X108371615Y-116305452D01*
X108371615Y-116305452D02*
X108490663Y-116424500D01*
X108490663Y-116424500D02*
X108669234Y-116484023D01*
X108669234Y-116484023D02*
X108788282Y-116484023D01*
X108788282Y-116484023D02*
X108966853Y-116424500D01*
X108966853Y-116424500D02*
X109026377Y-116364976D01*
X109026377Y-116364976D02*
X109026377Y-115948309D01*
X109026377Y-115948309D02*
X108788282Y-115948309D01*
X109562092Y-116484023D02*
X109562092Y-115234023D01*
X109562092Y-115234023D02*
X110276377Y-116484023D01*
X110276377Y-116484023D02*
X110276377Y-115234023D01*
X110871616Y-116484023D02*
X110871616Y-115234023D01*
X110871616Y-115234023D02*
X111169235Y-115234023D01*
X111169235Y-115234023D02*
X111347806Y-115293547D01*
X111347806Y-115293547D02*
X111466854Y-115412595D01*
X111466854Y-115412595D02*
X111526377Y-115531642D01*
X111526377Y-115531642D02*
X111585901Y-115769738D01*
X111585901Y-115769738D02*
X111585901Y-115948309D01*
X111585901Y-115948309D02*
X111526377Y-116186404D01*
X111526377Y-116186404D02*
X111466854Y-116305452D01*
X111466854Y-116305452D02*
X111347806Y-116424500D01*
X111347806Y-116424500D02*
X111169235Y-116484023D01*
X111169235Y-116484023D02*
X110871616Y-116484023D01*
D12*
X142914285Y-113069819D02*
X142914285Y-112069819D01*
X142914285Y-112546009D02*
X143485713Y-112546009D01*
X143485713Y-113069819D02*
X143485713Y-112069819D01*
X143914285Y-112784104D02*
X144390475Y-112784104D01*
X143819047Y-113069819D02*
X144152380Y-112069819D01*
X144152380Y-112069819D02*
X144485713Y-113069819D01*
X145295237Y-113069819D02*
X144819047Y-113069819D01*
X144819047Y-113069819D02*
X144819047Y-112069819D01*
X146104761Y-113069819D02*
X145628571Y-113069819D01*
X145628571Y-113069819D02*
X145628571Y-112069819D01*
X146200000Y-113165057D02*
X146961904Y-113165057D01*
X147057143Y-112069819D02*
X147628571Y-112069819D01*
X147342857Y-113069819D02*
X147342857Y-112069819D01*
X147961905Y-113069819D02*
X147961905Y-112069819D01*
X147961905Y-112069819D02*
X148342857Y-112069819D01*
X148342857Y-112069819D02*
X148438095Y-112117438D01*
X148438095Y-112117438D02*
X148485714Y-112165057D01*
X148485714Y-112165057D02*
X148533333Y-112260295D01*
X148533333Y-112260295D02*
X148533333Y-112403152D01*
X148533333Y-112403152D02*
X148485714Y-112498390D01*
X148485714Y-112498390D02*
X148438095Y-112546009D01*
X148438095Y-112546009D02*
X148342857Y-112593628D01*
X148342857Y-112593628D02*
X147961905Y-112593628D01*
D10*
X110402568Y-105474500D02*
X110581139Y-105534023D01*
X110581139Y-105534023D02*
X110878758Y-105534023D01*
X110878758Y-105534023D02*
X110997806Y-105474500D01*
X110997806Y-105474500D02*
X111057330Y-105414976D01*
X111057330Y-105414976D02*
X111116853Y-105295928D01*
X111116853Y-105295928D02*
X111116853Y-105176880D01*
X111116853Y-105176880D02*
X111057330Y-105057833D01*
X111057330Y-105057833D02*
X110997806Y-104998309D01*
X110997806Y-104998309D02*
X110878758Y-104938785D01*
X110878758Y-104938785D02*
X110640663Y-104879261D01*
X110640663Y-104879261D02*
X110521615Y-104819738D01*
X110521615Y-104819738D02*
X110462092Y-104760214D01*
X110462092Y-104760214D02*
X110402568Y-104641166D01*
X110402568Y-104641166D02*
X110402568Y-104522119D01*
X110402568Y-104522119D02*
X110462092Y-104403071D01*
X110462092Y-104403071D02*
X110521615Y-104343547D01*
X110521615Y-104343547D02*
X110640663Y-104284023D01*
X110640663Y-104284023D02*
X110938282Y-104284023D01*
X110938282Y-104284023D02*
X111116853Y-104343547D01*
X111533520Y-104284023D02*
X111831139Y-105534023D01*
X111831139Y-105534023D02*
X112069234Y-104641166D01*
X112069234Y-104641166D02*
X112307329Y-105534023D01*
X112307329Y-105534023D02*
X112604949Y-104284023D01*
X113319234Y-104284023D02*
X113557329Y-104284023D01*
X113557329Y-104284023D02*
X113676377Y-104343547D01*
X113676377Y-104343547D02*
X113795424Y-104462595D01*
X113795424Y-104462595D02*
X113854948Y-104700690D01*
X113854948Y-104700690D02*
X113854948Y-105117357D01*
X113854948Y-105117357D02*
X113795424Y-105355452D01*
X113795424Y-105355452D02*
X113676377Y-105474500D01*
X113676377Y-105474500D02*
X113557329Y-105534023D01*
X113557329Y-105534023D02*
X113319234Y-105534023D01*
X113319234Y-105534023D02*
X113200186Y-105474500D01*
X113200186Y-105474500D02*
X113081139Y-105355452D01*
X113081139Y-105355452D02*
X113021615Y-105117357D01*
X113021615Y-105117357D02*
X113021615Y-104700690D01*
X113021615Y-104700690D02*
X113081139Y-104462595D01*
X113081139Y-104462595D02*
X113200186Y-104343547D01*
X113200186Y-104343547D02*
X113319234Y-104284023D01*
D12*
X171266667Y-113169819D02*
X171885714Y-113169819D01*
X171885714Y-113169819D02*
X171552381Y-113550771D01*
X171552381Y-113550771D02*
X171695238Y-113550771D01*
X171695238Y-113550771D02*
X171790476Y-113598390D01*
X171790476Y-113598390D02*
X171838095Y-113646009D01*
X171838095Y-113646009D02*
X171885714Y-113741247D01*
X171885714Y-113741247D02*
X171885714Y-113979342D01*
X171885714Y-113979342D02*
X171838095Y-114074580D01*
X171838095Y-114074580D02*
X171790476Y-114122200D01*
X171790476Y-114122200D02*
X171695238Y-114169819D01*
X171695238Y-114169819D02*
X171409524Y-114169819D01*
X171409524Y-114169819D02*
X171314286Y-114122200D01*
X171314286Y-114122200D02*
X171266667Y-114074580D01*
X129876190Y-133617438D02*
X129780952Y-133569819D01*
X129780952Y-133569819D02*
X129638095Y-133569819D01*
X129638095Y-133569819D02*
X129495238Y-133617438D01*
X129495238Y-133617438D02*
X129400000Y-133712676D01*
X129400000Y-133712676D02*
X129352381Y-133807914D01*
X129352381Y-133807914D02*
X129304762Y-133998390D01*
X129304762Y-133998390D02*
X129304762Y-134141247D01*
X129304762Y-134141247D02*
X129352381Y-134331723D01*
X129352381Y-134331723D02*
X129400000Y-134426961D01*
X129400000Y-134426961D02*
X129495238Y-134522200D01*
X129495238Y-134522200D02*
X129638095Y-134569819D01*
X129638095Y-134569819D02*
X129733333Y-134569819D01*
X129733333Y-134569819D02*
X129876190Y-134522200D01*
X129876190Y-134522200D02*
X129923809Y-134474580D01*
X129923809Y-134474580D02*
X129923809Y-134141247D01*
X129923809Y-134141247D02*
X129733333Y-134141247D01*
X130352381Y-134569819D02*
X130352381Y-133569819D01*
X130352381Y-133569819D02*
X130923809Y-134569819D01*
X130923809Y-134569819D02*
X130923809Y-133569819D01*
X131400000Y-134569819D02*
X131400000Y-133569819D01*
X131400000Y-133569819D02*
X131638095Y-133569819D01*
X131638095Y-133569819D02*
X131780952Y-133617438D01*
X131780952Y-133617438D02*
X131876190Y-133712676D01*
X131876190Y-133712676D02*
X131923809Y-133807914D01*
X131923809Y-133807914D02*
X131971428Y-133998390D01*
X131971428Y-133998390D02*
X131971428Y-134141247D01*
X131971428Y-134141247D02*
X131923809Y-134331723D01*
X131923809Y-134331723D02*
X131876190Y-134426961D01*
X131876190Y-134426961D02*
X131780952Y-134522200D01*
X131780952Y-134522200D02*
X131638095Y-134569819D01*
X131638095Y-134569819D02*
X131400000Y-134569819D01*
X132161905Y-134665057D02*
X132923809Y-134665057D01*
X133019048Y-133569819D02*
X133590476Y-133569819D01*
X133304762Y-134569819D02*
X133304762Y-133569819D01*
X133923810Y-134569819D02*
X133923810Y-133569819D01*
X133923810Y-133569819D02*
X134304762Y-133569819D01*
X134304762Y-133569819D02*
X134400000Y-133617438D01*
X134400000Y-133617438D02*
X134447619Y-133665057D01*
X134447619Y-133665057D02*
X134495238Y-133760295D01*
X134495238Y-133760295D02*
X134495238Y-133903152D01*
X134495238Y-133903152D02*
X134447619Y-133998390D01*
X134447619Y-133998390D02*
X134400000Y-134046009D01*
X134400000Y-134046009D02*
X134304762Y-134093628D01*
X134304762Y-134093628D02*
X133923810Y-134093628D01*
D10*
X110833520Y-96684023D02*
X111547806Y-96684023D01*
X111190663Y-97934023D02*
X111190663Y-96684023D01*
X111845425Y-96684023D02*
X112678758Y-97934023D01*
X112678758Y-96684023D02*
X111845425Y-97934023D01*
X113690663Y-96684023D02*
X113452568Y-96684023D01*
X113452568Y-96684023D02*
X113333520Y-96743547D01*
X113333520Y-96743547D02*
X113273996Y-96803071D01*
X113273996Y-96803071D02*
X113154949Y-96981642D01*
X113154949Y-96981642D02*
X113095425Y-97219738D01*
X113095425Y-97219738D02*
X113095425Y-97695928D01*
X113095425Y-97695928D02*
X113154949Y-97814976D01*
X113154949Y-97814976D02*
X113214472Y-97874500D01*
X113214472Y-97874500D02*
X113333520Y-97934023D01*
X113333520Y-97934023D02*
X113571615Y-97934023D01*
X113571615Y-97934023D02*
X113690663Y-97874500D01*
X113690663Y-97874500D02*
X113750187Y-97814976D01*
X113750187Y-97814976D02*
X113809710Y-97695928D01*
X113809710Y-97695928D02*
X113809710Y-97398309D01*
X113809710Y-97398309D02*
X113750187Y-97279261D01*
X113750187Y-97279261D02*
X113690663Y-97219738D01*
X113690663Y-97219738D02*
X113571615Y-97160214D01*
X113571615Y-97160214D02*
X113333520Y-97160214D01*
X113333520Y-97160214D02*
X113214472Y-97219738D01*
X113214472Y-97219738D02*
X113154949Y-97279261D01*
X113154949Y-97279261D02*
X113095425Y-97398309D01*
X116326377Y-97934023D02*
X115909711Y-97338785D01*
X115612092Y-97934023D02*
X115612092Y-96684023D01*
X115612092Y-96684023D02*
X116088282Y-96684023D01*
X116088282Y-96684023D02*
X116207330Y-96743547D01*
X116207330Y-96743547D02*
X116266853Y-96803071D01*
X116266853Y-96803071D02*
X116326377Y-96922119D01*
X116326377Y-96922119D02*
X116326377Y-97100690D01*
X116326377Y-97100690D02*
X116266853Y-97219738D01*
X116266853Y-97219738D02*
X116207330Y-97279261D01*
X116207330Y-97279261D02*
X116088282Y-97338785D01*
X116088282Y-97338785D02*
X115612092Y-97338785D01*
X116743044Y-96684023D02*
X117576377Y-97934023D01*
X117576377Y-96684023D02*
X116743044Y-97934023D01*
X118588282Y-96684023D02*
X118350187Y-96684023D01*
X118350187Y-96684023D02*
X118231139Y-96743547D01*
X118231139Y-96743547D02*
X118171615Y-96803071D01*
X118171615Y-96803071D02*
X118052568Y-96981642D01*
X118052568Y-96981642D02*
X117993044Y-97219738D01*
X117993044Y-97219738D02*
X117993044Y-97695928D01*
X117993044Y-97695928D02*
X118052568Y-97814976D01*
X118052568Y-97814976D02*
X118112091Y-97874500D01*
X118112091Y-97874500D02*
X118231139Y-97934023D01*
X118231139Y-97934023D02*
X118469234Y-97934023D01*
X118469234Y-97934023D02*
X118588282Y-97874500D01*
X118588282Y-97874500D02*
X118647806Y-97814976D01*
X118647806Y-97814976D02*
X118707329Y-97695928D01*
X118707329Y-97695928D02*
X118707329Y-97398309D01*
X118707329Y-97398309D02*
X118647806Y-97279261D01*
X118647806Y-97279261D02*
X118588282Y-97219738D01*
X118588282Y-97219738D02*
X118469234Y-97160214D01*
X118469234Y-97160214D02*
X118231139Y-97160214D01*
X118231139Y-97160214D02*
X118112091Y-97219738D01*
X118112091Y-97219738D02*
X118052568Y-97279261D01*
X118052568Y-97279261D02*
X117993044Y-97398309D01*
X151512092Y-141734023D02*
X151512092Y-140484023D01*
X151512092Y-140484023D02*
X151988282Y-140484023D01*
X151988282Y-140484023D02*
X152107330Y-140543547D01*
X152107330Y-140543547D02*
X152166853Y-140603071D01*
X152166853Y-140603071D02*
X152226377Y-140722119D01*
X152226377Y-140722119D02*
X152226377Y-140900690D01*
X152226377Y-140900690D02*
X152166853Y-141019738D01*
X152166853Y-141019738D02*
X152107330Y-141079261D01*
X152107330Y-141079261D02*
X151988282Y-141138785D01*
X151988282Y-141138785D02*
X151512092Y-141138785D01*
X152643044Y-140484023D02*
X152940663Y-141734023D01*
X152940663Y-141734023D02*
X153178758Y-140841166D01*
X153178758Y-140841166D02*
X153416853Y-141734023D01*
X153416853Y-141734023D02*
X153714473Y-140484023D01*
X154904948Y-141734023D02*
X154488282Y-141138785D01*
X154190663Y-141734023D02*
X154190663Y-140484023D01*
X154190663Y-140484023D02*
X154666853Y-140484023D01*
X154666853Y-140484023D02*
X154785901Y-140543547D01*
X154785901Y-140543547D02*
X154845424Y-140603071D01*
X154845424Y-140603071D02*
X154904948Y-140722119D01*
X154904948Y-140722119D02*
X154904948Y-140900690D01*
X154904948Y-140900690D02*
X154845424Y-141019738D01*
X154845424Y-141019738D02*
X154785901Y-141079261D01*
X154785901Y-141079261D02*
X154666853Y-141138785D01*
X154666853Y-141138785D02*
X154190663Y-141138785D01*
X120702568Y-102974500D02*
X120881139Y-103034023D01*
X120881139Y-103034023D02*
X121178758Y-103034023D01*
X121178758Y-103034023D02*
X121297806Y-102974500D01*
X121297806Y-102974500D02*
X121357330Y-102914976D01*
X121357330Y-102914976D02*
X121416853Y-102795928D01*
X121416853Y-102795928D02*
X121416853Y-102676880D01*
X121416853Y-102676880D02*
X121357330Y-102557833D01*
X121357330Y-102557833D02*
X121297806Y-102498309D01*
X121297806Y-102498309D02*
X121178758Y-102438785D01*
X121178758Y-102438785D02*
X120940663Y-102379261D01*
X120940663Y-102379261D02*
X120821615Y-102319738D01*
X120821615Y-102319738D02*
X120762092Y-102260214D01*
X120762092Y-102260214D02*
X120702568Y-102141166D01*
X120702568Y-102141166D02*
X120702568Y-102022119D01*
X120702568Y-102022119D02*
X120762092Y-101903071D01*
X120762092Y-101903071D02*
X120821615Y-101843547D01*
X120821615Y-101843547D02*
X120940663Y-101784023D01*
X120940663Y-101784023D02*
X121238282Y-101784023D01*
X121238282Y-101784023D02*
X121416853Y-101843547D01*
X121833520Y-101784023D02*
X122131139Y-103034023D01*
X122131139Y-103034023D02*
X122369234Y-102141166D01*
X122369234Y-102141166D02*
X122607329Y-103034023D01*
X122607329Y-103034023D02*
X122904949Y-101784023D01*
X123381139Y-103034023D02*
X123381139Y-101784023D01*
X123381139Y-101784023D02*
X123678758Y-101784023D01*
X123678758Y-101784023D02*
X123857329Y-101843547D01*
X123857329Y-101843547D02*
X123976377Y-101962595D01*
X123976377Y-101962595D02*
X124035900Y-102081642D01*
X124035900Y-102081642D02*
X124095424Y-102319738D01*
X124095424Y-102319738D02*
X124095424Y-102498309D01*
X124095424Y-102498309D02*
X124035900Y-102736404D01*
X124035900Y-102736404D02*
X123976377Y-102855452D01*
X123976377Y-102855452D02*
X123857329Y-102974500D01*
X123857329Y-102974500D02*
X123678758Y-103034023D01*
X123678758Y-103034023D02*
X123381139Y-103034023D01*
X124631139Y-103034023D02*
X124631139Y-101784023D01*
X125464472Y-101784023D02*
X125702567Y-101784023D01*
X125702567Y-101784023D02*
X125821615Y-101843547D01*
X125821615Y-101843547D02*
X125940662Y-101962595D01*
X125940662Y-101962595D02*
X126000186Y-102200690D01*
X126000186Y-102200690D02*
X126000186Y-102617357D01*
X126000186Y-102617357D02*
X125940662Y-102855452D01*
X125940662Y-102855452D02*
X125821615Y-102974500D01*
X125821615Y-102974500D02*
X125702567Y-103034023D01*
X125702567Y-103034023D02*
X125464472Y-103034023D01*
X125464472Y-103034023D02*
X125345424Y-102974500D01*
X125345424Y-102974500D02*
X125226377Y-102855452D01*
X125226377Y-102855452D02*
X125166853Y-102617357D01*
X125166853Y-102617357D02*
X125166853Y-102200690D01*
X125166853Y-102200690D02*
X125226377Y-101962595D01*
X125226377Y-101962595D02*
X125345424Y-101843547D01*
X125345424Y-101843547D02*
X125464472Y-101784023D01*
D12*
X169714286Y-113265057D02*
X169761905Y-113217438D01*
X169761905Y-113217438D02*
X169857143Y-113169819D01*
X169857143Y-113169819D02*
X170095238Y-113169819D01*
X170095238Y-113169819D02*
X170190476Y-113217438D01*
X170190476Y-113217438D02*
X170238095Y-113265057D01*
X170238095Y-113265057D02*
X170285714Y-113360295D01*
X170285714Y-113360295D02*
X170285714Y-113455533D01*
X170285714Y-113455533D02*
X170238095Y-113598390D01*
X170238095Y-113598390D02*
X169666667Y-114169819D01*
X169666667Y-114169819D02*
X170285714Y-114169819D01*
D10*
X104243044Y-108684023D02*
X105016853Y-108684023D01*
X105016853Y-108684023D02*
X104600187Y-109160214D01*
X104600187Y-109160214D02*
X104778758Y-109160214D01*
X104778758Y-109160214D02*
X104897806Y-109219738D01*
X104897806Y-109219738D02*
X104957330Y-109279261D01*
X104957330Y-109279261D02*
X105016853Y-109398309D01*
X105016853Y-109398309D02*
X105016853Y-109695928D01*
X105016853Y-109695928D02*
X104957330Y-109814976D01*
X104957330Y-109814976D02*
X104897806Y-109874500D01*
X104897806Y-109874500D02*
X104778758Y-109934023D01*
X104778758Y-109934023D02*
X104421615Y-109934023D01*
X104421615Y-109934023D02*
X104302568Y-109874500D01*
X104302568Y-109874500D02*
X104243044Y-109814976D01*
X105373996Y-108684023D02*
X105790663Y-109934023D01*
X105790663Y-109934023D02*
X106207329Y-108684023D01*
X106504949Y-108684023D02*
X107278758Y-108684023D01*
X107278758Y-108684023D02*
X106862092Y-109160214D01*
X106862092Y-109160214D02*
X107040663Y-109160214D01*
X107040663Y-109160214D02*
X107159711Y-109219738D01*
X107159711Y-109219738D02*
X107219235Y-109279261D01*
X107219235Y-109279261D02*
X107278758Y-109398309D01*
X107278758Y-109398309D02*
X107278758Y-109695928D01*
X107278758Y-109695928D02*
X107219235Y-109814976D01*
X107219235Y-109814976D02*
X107159711Y-109874500D01*
X107159711Y-109874500D02*
X107040663Y-109934023D01*
X107040663Y-109934023D02*
X106683520Y-109934023D01*
X106683520Y-109934023D02*
X106564473Y-109874500D01*
X106564473Y-109874500D02*
X106504949Y-109814976D01*
X150962092Y-135784023D02*
X150962092Y-136795928D01*
X150962092Y-136795928D02*
X151021615Y-136914976D01*
X151021615Y-136914976D02*
X151081139Y-136974500D01*
X151081139Y-136974500D02*
X151200187Y-137034023D01*
X151200187Y-137034023D02*
X151438282Y-137034023D01*
X151438282Y-137034023D02*
X151557330Y-136974500D01*
X151557330Y-136974500D02*
X151616853Y-136914976D01*
X151616853Y-136914976D02*
X151676377Y-136795928D01*
X151676377Y-136795928D02*
X151676377Y-135784023D01*
X152212092Y-136974500D02*
X152390663Y-137034023D01*
X152390663Y-137034023D02*
X152688282Y-137034023D01*
X152688282Y-137034023D02*
X152807330Y-136974500D01*
X152807330Y-136974500D02*
X152866854Y-136914976D01*
X152866854Y-136914976D02*
X152926377Y-136795928D01*
X152926377Y-136795928D02*
X152926377Y-136676880D01*
X152926377Y-136676880D02*
X152866854Y-136557833D01*
X152866854Y-136557833D02*
X152807330Y-136498309D01*
X152807330Y-136498309D02*
X152688282Y-136438785D01*
X152688282Y-136438785D02*
X152450187Y-136379261D01*
X152450187Y-136379261D02*
X152331139Y-136319738D01*
X152331139Y-136319738D02*
X152271616Y-136260214D01*
X152271616Y-136260214D02*
X152212092Y-136141166D01*
X152212092Y-136141166D02*
X152212092Y-136022119D01*
X152212092Y-136022119D02*
X152271616Y-135903071D01*
X152271616Y-135903071D02*
X152331139Y-135843547D01*
X152331139Y-135843547D02*
X152450187Y-135784023D01*
X152450187Y-135784023D02*
X152747806Y-135784023D01*
X152747806Y-135784023D02*
X152926377Y-135843547D01*
X153462092Y-136379261D02*
X153878758Y-136379261D01*
X154057330Y-137034023D02*
X153462092Y-137034023D01*
X153462092Y-137034023D02*
X153462092Y-135784023D01*
X153462092Y-135784023D02*
X154057330Y-135784023D01*
X155307329Y-137034023D02*
X154890663Y-136438785D01*
X154593044Y-137034023D02*
X154593044Y-135784023D01*
X154593044Y-135784023D02*
X155069234Y-135784023D01*
X155069234Y-135784023D02*
X155188282Y-135843547D01*
X155188282Y-135843547D02*
X155247805Y-135903071D01*
X155247805Y-135903071D02*
X155307329Y-136022119D01*
X155307329Y-136022119D02*
X155307329Y-136200690D01*
X155307329Y-136200690D02*
X155247805Y-136319738D01*
X155247805Y-136319738D02*
X155188282Y-136379261D01*
X155188282Y-136379261D02*
X155069234Y-136438785D01*
X155069234Y-136438785D02*
X154593044Y-136438785D01*
X105683520Y-110834023D02*
X106397806Y-110834023D01*
X106040663Y-112084023D02*
X106040663Y-110834023D01*
X106695425Y-110834023D02*
X107528758Y-112084023D01*
X107528758Y-110834023D02*
X106695425Y-112084023D01*
X108659710Y-112084023D02*
X107945425Y-112084023D01*
X108302568Y-112084023D02*
X108302568Y-110834023D01*
X108302568Y-110834023D02*
X108183520Y-111012595D01*
X108183520Y-111012595D02*
X108064472Y-111131642D01*
X108064472Y-111131642D02*
X107945425Y-111191166D01*
X105943044Y-99234023D02*
X106716853Y-99234023D01*
X106716853Y-99234023D02*
X106300187Y-99710214D01*
X106300187Y-99710214D02*
X106478758Y-99710214D01*
X106478758Y-99710214D02*
X106597806Y-99769738D01*
X106597806Y-99769738D02*
X106657330Y-99829261D01*
X106657330Y-99829261D02*
X106716853Y-99948309D01*
X106716853Y-99948309D02*
X106716853Y-100245928D01*
X106716853Y-100245928D02*
X106657330Y-100364976D01*
X106657330Y-100364976D02*
X106597806Y-100424500D01*
X106597806Y-100424500D02*
X106478758Y-100484023D01*
X106478758Y-100484023D02*
X106121615Y-100484023D01*
X106121615Y-100484023D02*
X106002568Y-100424500D01*
X106002568Y-100424500D02*
X105943044Y-100364976D01*
X107073996Y-99234023D02*
X107490663Y-100484023D01*
X107490663Y-100484023D02*
X107907329Y-99234023D01*
X108204949Y-99234023D02*
X108978758Y-99234023D01*
X108978758Y-99234023D02*
X108562092Y-99710214D01*
X108562092Y-99710214D02*
X108740663Y-99710214D01*
X108740663Y-99710214D02*
X108859711Y-99769738D01*
X108859711Y-99769738D02*
X108919235Y-99829261D01*
X108919235Y-99829261D02*
X108978758Y-99948309D01*
X108978758Y-99948309D02*
X108978758Y-100245928D01*
X108978758Y-100245928D02*
X108919235Y-100364976D01*
X108919235Y-100364976D02*
X108859711Y-100424500D01*
X108859711Y-100424500D02*
X108740663Y-100484023D01*
X108740663Y-100484023D02*
X108383520Y-100484023D01*
X108383520Y-100484023D02*
X108264473Y-100424500D01*
X108264473Y-100424500D02*
X108204949Y-100364976D01*
D12*
X160728571Y-115969819D02*
X160728571Y-114969819D01*
X160728571Y-114969819D02*
X161109523Y-114969819D01*
X161109523Y-114969819D02*
X161204761Y-115017438D01*
X161204761Y-115017438D02*
X161252380Y-115065057D01*
X161252380Y-115065057D02*
X161299999Y-115160295D01*
X161299999Y-115160295D02*
X161299999Y-115303152D01*
X161299999Y-115303152D02*
X161252380Y-115398390D01*
X161252380Y-115398390D02*
X161204761Y-115446009D01*
X161204761Y-115446009D02*
X161109523Y-115493628D01*
X161109523Y-115493628D02*
X160728571Y-115493628D01*
X161633333Y-114969819D02*
X161871428Y-115969819D01*
X161871428Y-115969819D02*
X162061904Y-115255533D01*
X162061904Y-115255533D02*
X162252380Y-115969819D01*
X162252380Y-115969819D02*
X162490476Y-114969819D01*
X162871428Y-115969819D02*
X162871428Y-114969819D01*
X162871428Y-114969819D02*
X163204761Y-115684104D01*
X163204761Y-115684104D02*
X163538094Y-114969819D01*
X163538094Y-114969819D02*
X163538094Y-115969819D01*
X163776190Y-116065057D02*
X164538094Y-116065057D01*
X164633333Y-114969819D02*
X165204761Y-114969819D01*
X164919047Y-115969819D02*
X164919047Y-114969819D01*
X165538095Y-115969819D02*
X165538095Y-114969819D01*
X165538095Y-114969819D02*
X165919047Y-114969819D01*
X165919047Y-114969819D02*
X166014285Y-115017438D01*
X166014285Y-115017438D02*
X166061904Y-115065057D01*
X166061904Y-115065057D02*
X166109523Y-115160295D01*
X166109523Y-115160295D02*
X166109523Y-115303152D01*
X166109523Y-115303152D02*
X166061904Y-115398390D01*
X166061904Y-115398390D02*
X166014285Y-115446009D01*
X166014285Y-115446009D02*
X165919047Y-115493628D01*
X165919047Y-115493628D02*
X165538095Y-115493628D01*
X166490476Y-115922200D02*
X166585714Y-115969819D01*
X166585714Y-115969819D02*
X166776190Y-115969819D01*
X166776190Y-115969819D02*
X166871428Y-115922200D01*
X166871428Y-115922200D02*
X166919047Y-115826961D01*
X166919047Y-115826961D02*
X166919047Y-115779342D01*
X166919047Y-115779342D02*
X166871428Y-115684104D01*
X166871428Y-115684104D02*
X166776190Y-115636485D01*
X166776190Y-115636485D02*
X166633333Y-115636485D01*
X166633333Y-115636485D02*
X166538095Y-115588866D01*
X166538095Y-115588866D02*
X166490476Y-115493628D01*
X166490476Y-115493628D02*
X166490476Y-115446009D01*
X166490476Y-115446009D02*
X166538095Y-115350771D01*
X166538095Y-115350771D02*
X166633333Y-115303152D01*
X166633333Y-115303152D02*
X166776190Y-115303152D01*
X166776190Y-115303152D02*
X166871428Y-115350771D01*
X170619047Y-137569819D02*
X170047619Y-137569819D01*
X170333333Y-137569819D02*
X170333333Y-136569819D01*
X170333333Y-136569819D02*
X170238095Y-136712676D01*
X170238095Y-136712676D02*
X170142857Y-136807914D01*
X170142857Y-136807914D02*
X170047619Y-136855533D01*
X171000000Y-136665057D02*
X171047619Y-136617438D01*
X171047619Y-136617438D02*
X171142857Y-136569819D01*
X171142857Y-136569819D02*
X171380952Y-136569819D01*
X171380952Y-136569819D02*
X171476190Y-136617438D01*
X171476190Y-136617438D02*
X171523809Y-136665057D01*
X171523809Y-136665057D02*
X171571428Y-136760295D01*
X171571428Y-136760295D02*
X171571428Y-136855533D01*
X171571428Y-136855533D02*
X171523809Y-136998390D01*
X171523809Y-136998390D02*
X170952381Y-137569819D01*
X170952381Y-137569819D02*
X171571428Y-137569819D01*
X171857143Y-136569819D02*
X172190476Y-137569819D01*
X172190476Y-137569819D02*
X172523809Y-136569819D01*
X172619048Y-137665057D02*
X173380952Y-137665057D01*
X173476191Y-136569819D02*
X174047619Y-136569819D01*
X173761905Y-137569819D02*
X173761905Y-136569819D01*
X174380953Y-137569819D02*
X174380953Y-136569819D01*
X174380953Y-136569819D02*
X174761905Y-136569819D01*
X174761905Y-136569819D02*
X174857143Y-136617438D01*
X174857143Y-136617438D02*
X174904762Y-136665057D01*
X174904762Y-136665057D02*
X174952381Y-136760295D01*
X174952381Y-136760295D02*
X174952381Y-136903152D01*
X174952381Y-136903152D02*
X174904762Y-136998390D01*
X174904762Y-136998390D02*
X174857143Y-137046009D01*
X174857143Y-137046009D02*
X174761905Y-137093628D01*
X174761905Y-137093628D02*
X174380953Y-137093628D01*
X171626190Y-133617438D02*
X171530952Y-133569819D01*
X171530952Y-133569819D02*
X171388095Y-133569819D01*
X171388095Y-133569819D02*
X171245238Y-133617438D01*
X171245238Y-133617438D02*
X171150000Y-133712676D01*
X171150000Y-133712676D02*
X171102381Y-133807914D01*
X171102381Y-133807914D02*
X171054762Y-133998390D01*
X171054762Y-133998390D02*
X171054762Y-134141247D01*
X171054762Y-134141247D02*
X171102381Y-134331723D01*
X171102381Y-134331723D02*
X171150000Y-134426961D01*
X171150000Y-134426961D02*
X171245238Y-134522200D01*
X171245238Y-134522200D02*
X171388095Y-134569819D01*
X171388095Y-134569819D02*
X171483333Y-134569819D01*
X171483333Y-134569819D02*
X171626190Y-134522200D01*
X171626190Y-134522200D02*
X171673809Y-134474580D01*
X171673809Y-134474580D02*
X171673809Y-134141247D01*
X171673809Y-134141247D02*
X171483333Y-134141247D01*
X172102381Y-134569819D02*
X172102381Y-133569819D01*
X172102381Y-133569819D02*
X172673809Y-134569819D01*
X172673809Y-134569819D02*
X172673809Y-133569819D01*
X173150000Y-134569819D02*
X173150000Y-133569819D01*
X173150000Y-133569819D02*
X173388095Y-133569819D01*
X173388095Y-133569819D02*
X173530952Y-133617438D01*
X173530952Y-133617438D02*
X173626190Y-133712676D01*
X173626190Y-133712676D02*
X173673809Y-133807914D01*
X173673809Y-133807914D02*
X173721428Y-133998390D01*
X173721428Y-133998390D02*
X173721428Y-134141247D01*
X173721428Y-134141247D02*
X173673809Y-134331723D01*
X173673809Y-134331723D02*
X173626190Y-134426961D01*
X173626190Y-134426961D02*
X173530952Y-134522200D01*
X173530952Y-134522200D02*
X173388095Y-134569819D01*
X173388095Y-134569819D02*
X173150000Y-134569819D01*
X173911905Y-134665057D02*
X174673809Y-134665057D01*
X174769048Y-133569819D02*
X175340476Y-133569819D01*
X175054762Y-134569819D02*
X175054762Y-133569819D01*
X175673810Y-134569819D02*
X175673810Y-133569819D01*
X175673810Y-133569819D02*
X176054762Y-133569819D01*
X176054762Y-133569819D02*
X176150000Y-133617438D01*
X176150000Y-133617438D02*
X176197619Y-133665057D01*
X176197619Y-133665057D02*
X176245238Y-133760295D01*
X176245238Y-133760295D02*
X176245238Y-133903152D01*
X176245238Y-133903152D02*
X176197619Y-133998390D01*
X176197619Y-133998390D02*
X176150000Y-134046009D01*
X176150000Y-134046009D02*
X176054762Y-134093628D01*
X176054762Y-134093628D02*
X175673810Y-134093628D01*
X168785714Y-114169819D02*
X168214286Y-114169819D01*
X168500000Y-114169819D02*
X168500000Y-113169819D01*
X168500000Y-113169819D02*
X168404762Y-113312676D01*
X168404762Y-113312676D02*
X168309524Y-113407914D01*
X168309524Y-113407914D02*
X168214286Y-113455533D01*
D13*
X176315977Y-96426800D02*
X176530263Y-96498228D01*
X176530263Y-96498228D02*
X176887405Y-96498228D01*
X176887405Y-96498228D02*
X177030263Y-96426800D01*
X177030263Y-96426800D02*
X177101691Y-96355371D01*
X177101691Y-96355371D02*
X177173120Y-96212514D01*
X177173120Y-96212514D02*
X177173120Y-96069657D01*
X177173120Y-96069657D02*
X177101691Y-95926800D01*
X177101691Y-95926800D02*
X177030263Y-95855371D01*
X177030263Y-95855371D02*
X176887405Y-95783942D01*
X176887405Y-95783942D02*
X176601691Y-95712514D01*
X176601691Y-95712514D02*
X176458834Y-95641085D01*
X176458834Y-95641085D02*
X176387405Y-95569657D01*
X176387405Y-95569657D02*
X176315977Y-95426800D01*
X176315977Y-95426800D02*
X176315977Y-95283942D01*
X176315977Y-95283942D02*
X176387405Y-95141085D01*
X176387405Y-95141085D02*
X176458834Y-95069657D01*
X176458834Y-95069657D02*
X176601691Y-94998228D01*
X176601691Y-94998228D02*
X176958834Y-94998228D01*
X176958834Y-94998228D02*
X177173120Y-95069657D01*
X177815976Y-96498228D02*
X177815976Y-94998228D01*
X177815976Y-94998228D02*
X178315976Y-96069657D01*
X178315976Y-96069657D02*
X178815976Y-94998228D01*
X178815976Y-94998228D02*
X178815976Y-96498228D01*
X179458834Y-96069657D02*
X180173120Y-96069657D01*
X179315977Y-96498228D02*
X179815977Y-94998228D01*
X179815977Y-94998228D02*
X180315977Y-96498228D01*
X181673119Y-96498228D02*
X181173119Y-95783942D01*
X180815976Y-96498228D02*
X180815976Y-94998228D01*
X180815976Y-94998228D02*
X181387405Y-94998228D01*
X181387405Y-94998228D02*
X181530262Y-95069657D01*
X181530262Y-95069657D02*
X181601691Y-95141085D01*
X181601691Y-95141085D02*
X181673119Y-95283942D01*
X181673119Y-95283942D02*
X181673119Y-95498228D01*
X181673119Y-95498228D02*
X181601691Y-95641085D01*
X181601691Y-95641085D02*
X181530262Y-95712514D01*
X181530262Y-95712514D02*
X181387405Y-95783942D01*
X181387405Y-95783942D02*
X180815976Y-95783942D01*
X182101691Y-94998228D02*
X182958834Y-94998228D01*
X182530262Y-96498228D02*
X182530262Y-94998228D01*
X183458833Y-96498228D02*
X183458833Y-94998228D01*
X184315976Y-96498228D02*
X183673119Y-95641085D01*
X184315976Y-94998228D02*
X183458833Y-95855371D01*
X184958833Y-96498228D02*
X184958833Y-94998228D01*
X184958833Y-94998228D02*
X185815976Y-96498228D01*
X185815976Y-96498228D02*
X185815976Y-94998228D01*
X186815977Y-94998228D02*
X187101691Y-94998228D01*
X187101691Y-94998228D02*
X187244548Y-95069657D01*
X187244548Y-95069657D02*
X187387405Y-95212514D01*
X187387405Y-95212514D02*
X187458834Y-95498228D01*
X187458834Y-95498228D02*
X187458834Y-95998228D01*
X187458834Y-95998228D02*
X187387405Y-96283942D01*
X187387405Y-96283942D02*
X187244548Y-96426800D01*
X187244548Y-96426800D02*
X187101691Y-96498228D01*
X187101691Y-96498228D02*
X186815977Y-96498228D01*
X186815977Y-96498228D02*
X186673120Y-96426800D01*
X186673120Y-96426800D02*
X186530262Y-96283942D01*
X186530262Y-96283942D02*
X186458834Y-95998228D01*
X186458834Y-95998228D02*
X186458834Y-95498228D01*
X186458834Y-95498228D02*
X186530262Y-95212514D01*
X186530262Y-95212514D02*
X186673120Y-95069657D01*
X186673120Y-95069657D02*
X186815977Y-94998228D01*
X188601691Y-95712514D02*
X188815977Y-95783942D01*
X188815977Y-95783942D02*
X188887406Y-95855371D01*
X188887406Y-95855371D02*
X188958834Y-95998228D01*
X188958834Y-95998228D02*
X188958834Y-96212514D01*
X188958834Y-96212514D02*
X188887406Y-96355371D01*
X188887406Y-96355371D02*
X188815977Y-96426800D01*
X188815977Y-96426800D02*
X188673120Y-96498228D01*
X188673120Y-96498228D02*
X188101691Y-96498228D01*
X188101691Y-96498228D02*
X188101691Y-94998228D01*
X188101691Y-94998228D02*
X188601691Y-94998228D01*
X188601691Y-94998228D02*
X188744549Y-95069657D01*
X188744549Y-95069657D02*
X188815977Y-95141085D01*
X188815977Y-95141085D02*
X188887406Y-95283942D01*
X188887406Y-95283942D02*
X188887406Y-95426800D01*
X188887406Y-95426800D02*
X188815977Y-95569657D01*
X188815977Y-95569657D02*
X188744549Y-95641085D01*
X188744549Y-95641085D02*
X188601691Y-95712514D01*
X188601691Y-95712514D02*
X188101691Y-95712514D01*
X191601691Y-96355371D02*
X191530263Y-96426800D01*
X191530263Y-96426800D02*
X191315977Y-96498228D01*
X191315977Y-96498228D02*
X191173120Y-96498228D01*
X191173120Y-96498228D02*
X190958834Y-96426800D01*
X190958834Y-96426800D02*
X190815977Y-96283942D01*
X190815977Y-96283942D02*
X190744548Y-96141085D01*
X190744548Y-96141085D02*
X190673120Y-95855371D01*
X190673120Y-95855371D02*
X190673120Y-95641085D01*
X190673120Y-95641085D02*
X190744548Y-95355371D01*
X190744548Y-95355371D02*
X190815977Y-95212514D01*
X190815977Y-95212514D02*
X190958834Y-95069657D01*
X190958834Y-95069657D02*
X191173120Y-94998228D01*
X191173120Y-94998228D02*
X191315977Y-94998228D01*
X191315977Y-94998228D02*
X191530263Y-95069657D01*
X191530263Y-95069657D02*
X191601691Y-95141085D01*
X192530263Y-94998228D02*
X192815977Y-94998228D01*
X192815977Y-94998228D02*
X192958834Y-95069657D01*
X192958834Y-95069657D02*
X193101691Y-95212514D01*
X193101691Y-95212514D02*
X193173120Y-95498228D01*
X193173120Y-95498228D02*
X193173120Y-95998228D01*
X193173120Y-95998228D02*
X193101691Y-96283942D01*
X193101691Y-96283942D02*
X192958834Y-96426800D01*
X192958834Y-96426800D02*
X192815977Y-96498228D01*
X192815977Y-96498228D02*
X192530263Y-96498228D01*
X192530263Y-96498228D02*
X192387406Y-96426800D01*
X192387406Y-96426800D02*
X192244548Y-96283942D01*
X192244548Y-96283942D02*
X192173120Y-95998228D01*
X192173120Y-95998228D02*
X192173120Y-95498228D01*
X192173120Y-95498228D02*
X192244548Y-95212514D01*
X192244548Y-95212514D02*
X192387406Y-95069657D01*
X192387406Y-95069657D02*
X192530263Y-94998228D01*
X193815977Y-96498228D02*
X193815977Y-94998228D01*
X193815977Y-94998228D02*
X194673120Y-96498228D01*
X194673120Y-96498228D02*
X194673120Y-94998228D01*
X195173121Y-94998228D02*
X196030264Y-94998228D01*
X195601692Y-96498228D02*
X195601692Y-94998228D01*
X197387406Y-96498228D02*
X196887406Y-95783942D01*
X196530263Y-96498228D02*
X196530263Y-94998228D01*
X196530263Y-94998228D02*
X197101692Y-94998228D01*
X197101692Y-94998228D02*
X197244549Y-95069657D01*
X197244549Y-95069657D02*
X197315978Y-95141085D01*
X197315978Y-95141085D02*
X197387406Y-95283942D01*
X197387406Y-95283942D02*
X197387406Y-95498228D01*
X197387406Y-95498228D02*
X197315978Y-95641085D01*
X197315978Y-95641085D02*
X197244549Y-95712514D01*
X197244549Y-95712514D02*
X197101692Y-95783942D01*
X197101692Y-95783942D02*
X196530263Y-95783942D01*
X198315978Y-94998228D02*
X198601692Y-94998228D01*
X198601692Y-94998228D02*
X198744549Y-95069657D01*
X198744549Y-95069657D02*
X198887406Y-95212514D01*
X198887406Y-95212514D02*
X198958835Y-95498228D01*
X198958835Y-95498228D02*
X198958835Y-95998228D01*
X198958835Y-95998228D02*
X198887406Y-96283942D01*
X198887406Y-96283942D02*
X198744549Y-96426800D01*
X198744549Y-96426800D02*
X198601692Y-96498228D01*
X198601692Y-96498228D02*
X198315978Y-96498228D01*
X198315978Y-96498228D02*
X198173121Y-96426800D01*
X198173121Y-96426800D02*
X198030263Y-96283942D01*
X198030263Y-96283942D02*
X197958835Y-95998228D01*
X197958835Y-95998228D02*
X197958835Y-95498228D01*
X197958835Y-95498228D02*
X198030263Y-95212514D01*
X198030263Y-95212514D02*
X198173121Y-95069657D01*
X198173121Y-95069657D02*
X198315978Y-94998228D01*
X200315978Y-96498228D02*
X199601692Y-96498228D01*
X199601692Y-96498228D02*
X199601692Y-94998228D01*
X201530264Y-96498228D02*
X200815978Y-96498228D01*
X200815978Y-96498228D02*
X200815978Y-94998228D01*
X202030264Y-95712514D02*
X202530264Y-95712514D01*
X202744550Y-96498228D02*
X202030264Y-96498228D01*
X202030264Y-96498228D02*
X202030264Y-94998228D01*
X202030264Y-94998228D02*
X202744550Y-94998228D01*
X204244550Y-96498228D02*
X203744550Y-95783942D01*
X203387407Y-96498228D02*
X203387407Y-94998228D01*
X203387407Y-94998228D02*
X203958836Y-94998228D01*
X203958836Y-94998228D02*
X204101693Y-95069657D01*
X204101693Y-95069657D02*
X204173122Y-95141085D01*
X204173122Y-95141085D02*
X204244550Y-95283942D01*
X204244550Y-95283942D02*
X204244550Y-95498228D01*
X204244550Y-95498228D02*
X204173122Y-95641085D01*
X204173122Y-95641085D02*
X204101693Y-95712514D01*
X204101693Y-95712514D02*
X203958836Y-95783942D01*
X203958836Y-95783942D02*
X203387407Y-95783942D01*
D12*
X125104761Y-132646009D02*
X124771428Y-132646009D01*
X124771428Y-133169819D02*
X124771428Y-132169819D01*
X124771428Y-132169819D02*
X125247618Y-132169819D01*
X125580952Y-133122200D02*
X125723809Y-133169819D01*
X125723809Y-133169819D02*
X125961904Y-133169819D01*
X125961904Y-133169819D02*
X126057142Y-133122200D01*
X126057142Y-133122200D02*
X126104761Y-133074580D01*
X126104761Y-133074580D02*
X126152380Y-132979342D01*
X126152380Y-132979342D02*
X126152380Y-132884104D01*
X126152380Y-132884104D02*
X126104761Y-132788866D01*
X126104761Y-132788866D02*
X126057142Y-132741247D01*
X126057142Y-132741247D02*
X125961904Y-132693628D01*
X125961904Y-132693628D02*
X125771428Y-132646009D01*
X125771428Y-132646009D02*
X125676190Y-132598390D01*
X125676190Y-132598390D02*
X125628571Y-132550771D01*
X125628571Y-132550771D02*
X125580952Y-132455533D01*
X125580952Y-132455533D02*
X125580952Y-132360295D01*
X125580952Y-132360295D02*
X125628571Y-132265057D01*
X125628571Y-132265057D02*
X125676190Y-132217438D01*
X125676190Y-132217438D02*
X125771428Y-132169819D01*
X125771428Y-132169819D02*
X126009523Y-132169819D01*
X126009523Y-132169819D02*
X126152380Y-132217438D01*
X127152380Y-133169819D02*
X126819047Y-132693628D01*
X126580952Y-133169819D02*
X126580952Y-132169819D01*
X126580952Y-132169819D02*
X126961904Y-132169819D01*
X126961904Y-132169819D02*
X127057142Y-132217438D01*
X127057142Y-132217438D02*
X127104761Y-132265057D01*
X127104761Y-132265057D02*
X127152380Y-132360295D01*
X127152380Y-132360295D02*
X127152380Y-132503152D01*
X127152380Y-132503152D02*
X127104761Y-132598390D01*
X127104761Y-132598390D02*
X127057142Y-132646009D01*
X127057142Y-132646009D02*
X126961904Y-132693628D01*
X126961904Y-132693628D02*
X126580952Y-132693628D01*
X127342857Y-133265057D02*
X128104761Y-133265057D01*
X128200000Y-132169819D02*
X128771428Y-132169819D01*
X128485714Y-133169819D02*
X128485714Y-132169819D01*
X129104762Y-133169819D02*
X129104762Y-132169819D01*
X129104762Y-132169819D02*
X129485714Y-132169819D01*
X129485714Y-132169819D02*
X129580952Y-132217438D01*
X129580952Y-132217438D02*
X129628571Y-132265057D01*
X129628571Y-132265057D02*
X129676190Y-132360295D01*
X129676190Y-132360295D02*
X129676190Y-132503152D01*
X129676190Y-132503152D02*
X129628571Y-132598390D01*
X129628571Y-132598390D02*
X129580952Y-132646009D01*
X129580952Y-132646009D02*
X129485714Y-132693628D01*
X129485714Y-132693628D02*
X129104762Y-132693628D01*
D10*
X176242857Y-99265273D02*
X176242857Y-98015273D01*
X176242857Y-98015273D02*
X176540476Y-98015273D01*
X176540476Y-98015273D02*
X176719047Y-98074797D01*
X176719047Y-98074797D02*
X176838095Y-98193845D01*
X176838095Y-98193845D02*
X176897618Y-98312892D01*
X176897618Y-98312892D02*
X176957142Y-98550988D01*
X176957142Y-98550988D02*
X176957142Y-98729559D01*
X176957142Y-98729559D02*
X176897618Y-98967654D01*
X176897618Y-98967654D02*
X176838095Y-99086702D01*
X176838095Y-99086702D02*
X176719047Y-99205750D01*
X176719047Y-99205750D02*
X176540476Y-99265273D01*
X176540476Y-99265273D02*
X176242857Y-99265273D01*
X177969047Y-99205750D02*
X177849999Y-99265273D01*
X177849999Y-99265273D02*
X177611904Y-99265273D01*
X177611904Y-99265273D02*
X177492857Y-99205750D01*
X177492857Y-99205750D02*
X177433333Y-99086702D01*
X177433333Y-99086702D02*
X177433333Y-98610511D01*
X177433333Y-98610511D02*
X177492857Y-98491464D01*
X177492857Y-98491464D02*
X177611904Y-98431940D01*
X177611904Y-98431940D02*
X177849999Y-98431940D01*
X177849999Y-98431940D02*
X177969047Y-98491464D01*
X177969047Y-98491464D02*
X178028571Y-98610511D01*
X178028571Y-98610511D02*
X178028571Y-98729559D01*
X178028571Y-98729559D02*
X177433333Y-98848607D01*
X178504762Y-99205750D02*
X178623809Y-99265273D01*
X178623809Y-99265273D02*
X178861905Y-99265273D01*
X178861905Y-99265273D02*
X178980952Y-99205750D01*
X178980952Y-99205750D02*
X179040476Y-99086702D01*
X179040476Y-99086702D02*
X179040476Y-99027178D01*
X179040476Y-99027178D02*
X178980952Y-98908130D01*
X178980952Y-98908130D02*
X178861905Y-98848607D01*
X178861905Y-98848607D02*
X178683333Y-98848607D01*
X178683333Y-98848607D02*
X178564286Y-98789083D01*
X178564286Y-98789083D02*
X178504762Y-98670035D01*
X178504762Y-98670035D02*
X178504762Y-98610511D01*
X178504762Y-98610511D02*
X178564286Y-98491464D01*
X178564286Y-98491464D02*
X178683333Y-98431940D01*
X178683333Y-98431940D02*
X178861905Y-98431940D01*
X178861905Y-98431940D02*
X178980952Y-98491464D01*
X179576191Y-99265273D02*
X179576191Y-98431940D01*
X179576191Y-98015273D02*
X179516667Y-98074797D01*
X179516667Y-98074797D02*
X179576191Y-98134321D01*
X179576191Y-98134321D02*
X179635714Y-98074797D01*
X179635714Y-98074797D02*
X179576191Y-98015273D01*
X179576191Y-98015273D02*
X179576191Y-98134321D01*
X180707143Y-98431940D02*
X180707143Y-99443845D01*
X180707143Y-99443845D02*
X180647619Y-99562892D01*
X180647619Y-99562892D02*
X180588095Y-99622416D01*
X180588095Y-99622416D02*
X180469048Y-99681940D01*
X180469048Y-99681940D02*
X180290476Y-99681940D01*
X180290476Y-99681940D02*
X180171429Y-99622416D01*
X180707143Y-99205750D02*
X180588095Y-99265273D01*
X180588095Y-99265273D02*
X180350000Y-99265273D01*
X180350000Y-99265273D02*
X180230952Y-99205750D01*
X180230952Y-99205750D02*
X180171429Y-99146226D01*
X180171429Y-99146226D02*
X180111905Y-99027178D01*
X180111905Y-99027178D02*
X180111905Y-98670035D01*
X180111905Y-98670035D02*
X180171429Y-98550988D01*
X180171429Y-98550988D02*
X180230952Y-98491464D01*
X180230952Y-98491464D02*
X180350000Y-98431940D01*
X180350000Y-98431940D02*
X180588095Y-98431940D01*
X180588095Y-98431940D02*
X180707143Y-98491464D01*
X181302381Y-98431940D02*
X181302381Y-99265273D01*
X181302381Y-98550988D02*
X181361904Y-98491464D01*
X181361904Y-98491464D02*
X181480952Y-98431940D01*
X181480952Y-98431940D02*
X181659523Y-98431940D01*
X181659523Y-98431940D02*
X181778571Y-98491464D01*
X181778571Y-98491464D02*
X181838095Y-98610511D01*
X181838095Y-98610511D02*
X181838095Y-99265273D01*
X183385714Y-99265273D02*
X183385714Y-98015273D01*
X183385714Y-98491464D02*
X183504761Y-98431940D01*
X183504761Y-98431940D02*
X183742856Y-98431940D01*
X183742856Y-98431940D02*
X183861904Y-98491464D01*
X183861904Y-98491464D02*
X183921428Y-98550988D01*
X183921428Y-98550988D02*
X183980952Y-98670035D01*
X183980952Y-98670035D02*
X183980952Y-99027178D01*
X183980952Y-99027178D02*
X183921428Y-99146226D01*
X183921428Y-99146226D02*
X183861904Y-99205750D01*
X183861904Y-99205750D02*
X183742856Y-99265273D01*
X183742856Y-99265273D02*
X183504761Y-99265273D01*
X183504761Y-99265273D02*
X183385714Y-99205750D01*
X184397618Y-98431940D02*
X184695237Y-99265273D01*
X184992856Y-98431940D02*
X184695237Y-99265273D01*
X184695237Y-99265273D02*
X184576189Y-99562892D01*
X184576189Y-99562892D02*
X184516666Y-99622416D01*
X184516666Y-99622416D02*
X184397618Y-99681940D01*
X186421428Y-99265273D02*
X186421428Y-98015273D01*
X186421428Y-98015273D02*
X187135713Y-99265273D01*
X187135713Y-99265273D02*
X187135713Y-98015273D01*
X187730952Y-99265273D02*
X187730952Y-98431940D01*
X187730952Y-98015273D02*
X187671428Y-98074797D01*
X187671428Y-98074797D02*
X187730952Y-98134321D01*
X187730952Y-98134321D02*
X187790475Y-98074797D01*
X187790475Y-98074797D02*
X187730952Y-98015273D01*
X187730952Y-98015273D02*
X187730952Y-98134321D01*
X188861904Y-99205750D02*
X188742856Y-99265273D01*
X188742856Y-99265273D02*
X188504761Y-99265273D01*
X188504761Y-99265273D02*
X188385713Y-99205750D01*
X188385713Y-99205750D02*
X188326190Y-99146226D01*
X188326190Y-99146226D02*
X188266666Y-99027178D01*
X188266666Y-99027178D02*
X188266666Y-98670035D01*
X188266666Y-98670035D02*
X188326190Y-98550988D01*
X188326190Y-98550988D02*
X188385713Y-98491464D01*
X188385713Y-98491464D02*
X188504761Y-98431940D01*
X188504761Y-98431940D02*
X188742856Y-98431940D01*
X188742856Y-98431940D02*
X188861904Y-98491464D01*
X189397619Y-99265273D02*
X189397619Y-98015273D01*
X189516666Y-98789083D02*
X189873809Y-99265273D01*
X189873809Y-98431940D02*
X189397619Y-98908130D01*
X191957143Y-99265273D02*
X191361905Y-99265273D01*
X191361905Y-99265273D02*
X191361905Y-98015273D01*
X192909524Y-99265273D02*
X192909524Y-98610511D01*
X192909524Y-98610511D02*
X192850000Y-98491464D01*
X192850000Y-98491464D02*
X192730952Y-98431940D01*
X192730952Y-98431940D02*
X192492857Y-98431940D01*
X192492857Y-98431940D02*
X192373810Y-98491464D01*
X192909524Y-99205750D02*
X192790476Y-99265273D01*
X192790476Y-99265273D02*
X192492857Y-99265273D01*
X192492857Y-99265273D02*
X192373810Y-99205750D01*
X192373810Y-99205750D02*
X192314286Y-99086702D01*
X192314286Y-99086702D02*
X192314286Y-98967654D01*
X192314286Y-98967654D02*
X192373810Y-98848607D01*
X192373810Y-98848607D02*
X192492857Y-98789083D01*
X192492857Y-98789083D02*
X192790476Y-98789083D01*
X192790476Y-98789083D02*
X192909524Y-98729559D01*
X193504762Y-99265273D02*
X193504762Y-98431940D01*
X193504762Y-98670035D02*
X193564285Y-98550988D01*
X193564285Y-98550988D02*
X193623809Y-98491464D01*
X193623809Y-98491464D02*
X193742857Y-98431940D01*
X193742857Y-98431940D02*
X193861904Y-98431940D01*
X194219048Y-99205750D02*
X194338095Y-99265273D01*
X194338095Y-99265273D02*
X194576191Y-99265273D01*
X194576191Y-99265273D02*
X194695238Y-99205750D01*
X194695238Y-99205750D02*
X194754762Y-99086702D01*
X194754762Y-99086702D02*
X194754762Y-99027178D01*
X194754762Y-99027178D02*
X194695238Y-98908130D01*
X194695238Y-98908130D02*
X194576191Y-98848607D01*
X194576191Y-98848607D02*
X194397619Y-98848607D01*
X194397619Y-98848607D02*
X194278572Y-98789083D01*
X194278572Y-98789083D02*
X194219048Y-98670035D01*
X194219048Y-98670035D02*
X194219048Y-98610511D01*
X194219048Y-98610511D02*
X194278572Y-98491464D01*
X194278572Y-98491464D02*
X194397619Y-98431940D01*
X194397619Y-98431940D02*
X194576191Y-98431940D01*
X194576191Y-98431940D02*
X194695238Y-98491464D01*
X195469048Y-99265273D02*
X195350000Y-99205750D01*
X195350000Y-99205750D02*
X195290477Y-99146226D01*
X195290477Y-99146226D02*
X195230953Y-99027178D01*
X195230953Y-99027178D02*
X195230953Y-98670035D01*
X195230953Y-98670035D02*
X195290477Y-98550988D01*
X195290477Y-98550988D02*
X195350000Y-98491464D01*
X195350000Y-98491464D02*
X195469048Y-98431940D01*
X195469048Y-98431940D02*
X195647619Y-98431940D01*
X195647619Y-98431940D02*
X195766667Y-98491464D01*
X195766667Y-98491464D02*
X195826191Y-98550988D01*
X195826191Y-98550988D02*
X195885715Y-98670035D01*
X195885715Y-98670035D02*
X195885715Y-99027178D01*
X195885715Y-99027178D02*
X195826191Y-99146226D01*
X195826191Y-99146226D02*
X195766667Y-99205750D01*
X195766667Y-99205750D02*
X195647619Y-99265273D01*
X195647619Y-99265273D02*
X195469048Y-99265273D01*
X196421429Y-98431940D02*
X196421429Y-99265273D01*
X196421429Y-98550988D02*
X196480952Y-98491464D01*
X196480952Y-98491464D02*
X196600000Y-98431940D01*
X196600000Y-98431940D02*
X196778571Y-98431940D01*
X196778571Y-98431940D02*
X196897619Y-98491464D01*
X196897619Y-98491464D02*
X196957143Y-98610511D01*
X196957143Y-98610511D02*
X196957143Y-99265273D01*
D12*
X134438095Y-111454819D02*
X134438095Y-112264342D01*
X134438095Y-112264342D02*
X134485714Y-112359580D01*
X134485714Y-112359580D02*
X134533333Y-112407200D01*
X134533333Y-112407200D02*
X134628571Y-112454819D01*
X134628571Y-112454819D02*
X134819047Y-112454819D01*
X134819047Y-112454819D02*
X134914285Y-112407200D01*
X134914285Y-112407200D02*
X134961904Y-112359580D01*
X134961904Y-112359580D02*
X135009523Y-112264342D01*
X135009523Y-112264342D02*
X135009523Y-111454819D01*
X135914285Y-111788152D02*
X135914285Y-112454819D01*
X135676190Y-111407200D02*
X135438095Y-112121485D01*
X135438095Y-112121485D02*
X136057142Y-112121485D01*
X158357142Y-133459580D02*
X158309523Y-133507200D01*
X158309523Y-133507200D02*
X158166666Y-133554819D01*
X158166666Y-133554819D02*
X158071428Y-133554819D01*
X158071428Y-133554819D02*
X157928571Y-133507200D01*
X157928571Y-133507200D02*
X157833333Y-133411961D01*
X157833333Y-133411961D02*
X157785714Y-133316723D01*
X157785714Y-133316723D02*
X157738095Y-133126247D01*
X157738095Y-133126247D02*
X157738095Y-132983390D01*
X157738095Y-132983390D02*
X157785714Y-132792914D01*
X157785714Y-132792914D02*
X157833333Y-132697676D01*
X157833333Y-132697676D02*
X157928571Y-132602438D01*
X157928571Y-132602438D02*
X158071428Y-132554819D01*
X158071428Y-132554819D02*
X158166666Y-132554819D01*
X158166666Y-132554819D02*
X158309523Y-132602438D01*
X158309523Y-132602438D02*
X158357142Y-132650057D01*
X159309523Y-133554819D02*
X158738095Y-133554819D01*
X159023809Y-133554819D02*
X159023809Y-132554819D01*
X159023809Y-132554819D02*
X158928571Y-132697676D01*
X158928571Y-132697676D02*
X158833333Y-132792914D01*
X158833333Y-132792914D02*
X158738095Y-132840533D01*
X159785714Y-133554819D02*
X159976190Y-133554819D01*
X159976190Y-133554819D02*
X160071428Y-133507200D01*
X160071428Y-133507200D02*
X160119047Y-133459580D01*
X160119047Y-133459580D02*
X160214285Y-133316723D01*
X160214285Y-133316723D02*
X160261904Y-133126247D01*
X160261904Y-133126247D02*
X160261904Y-132745295D01*
X160261904Y-132745295D02*
X160214285Y-132650057D01*
X160214285Y-132650057D02*
X160166666Y-132602438D01*
X160166666Y-132602438D02*
X160071428Y-132554819D01*
X160071428Y-132554819D02*
X159880952Y-132554819D01*
X159880952Y-132554819D02*
X159785714Y-132602438D01*
X159785714Y-132602438D02*
X159738095Y-132650057D01*
X159738095Y-132650057D02*
X159690476Y-132745295D01*
X159690476Y-132745295D02*
X159690476Y-132983390D01*
X159690476Y-132983390D02*
X159738095Y-133078628D01*
X159738095Y-133078628D02*
X159785714Y-133126247D01*
X159785714Y-133126247D02*
X159880952Y-133173866D01*
X159880952Y-133173866D02*
X160071428Y-133173866D01*
X160071428Y-133173866D02*
X160166666Y-133126247D01*
X160166666Y-133126247D02*
X160214285Y-133078628D01*
X160214285Y-133078628D02*
X160261904Y-132983390D01*
X165933333Y-119254819D02*
X165600000Y-118778628D01*
X165361905Y-119254819D02*
X165361905Y-118254819D01*
X165361905Y-118254819D02*
X165742857Y-118254819D01*
X165742857Y-118254819D02*
X165838095Y-118302438D01*
X165838095Y-118302438D02*
X165885714Y-118350057D01*
X165885714Y-118350057D02*
X165933333Y-118445295D01*
X165933333Y-118445295D02*
X165933333Y-118588152D01*
X165933333Y-118588152D02*
X165885714Y-118683390D01*
X165885714Y-118683390D02*
X165838095Y-118731009D01*
X165838095Y-118731009D02*
X165742857Y-118778628D01*
X165742857Y-118778628D02*
X165361905Y-118778628D01*
X166409524Y-119254819D02*
X166600000Y-119254819D01*
X166600000Y-119254819D02*
X166695238Y-119207200D01*
X166695238Y-119207200D02*
X166742857Y-119159580D01*
X166742857Y-119159580D02*
X166838095Y-119016723D01*
X166838095Y-119016723D02*
X166885714Y-118826247D01*
X166885714Y-118826247D02*
X166885714Y-118445295D01*
X166885714Y-118445295D02*
X166838095Y-118350057D01*
X166838095Y-118350057D02*
X166790476Y-118302438D01*
X166790476Y-118302438D02*
X166695238Y-118254819D01*
X166695238Y-118254819D02*
X166504762Y-118254819D01*
X166504762Y-118254819D02*
X166409524Y-118302438D01*
X166409524Y-118302438D02*
X166361905Y-118350057D01*
X166361905Y-118350057D02*
X166314286Y-118445295D01*
X166314286Y-118445295D02*
X166314286Y-118683390D01*
X166314286Y-118683390D02*
X166361905Y-118778628D01*
X166361905Y-118778628D02*
X166409524Y-118826247D01*
X166409524Y-118826247D02*
X166504762Y-118873866D01*
X166504762Y-118873866D02*
X166695238Y-118873866D01*
X166695238Y-118873866D02*
X166790476Y-118826247D01*
X166790476Y-118826247D02*
X166838095Y-118778628D01*
X166838095Y-118778628D02*
X166885714Y-118683390D01*
X130558458Y-124554819D02*
X130225125Y-124078628D01*
X129987030Y-124554819D02*
X129987030Y-123554819D01*
X129987030Y-123554819D02*
X130367982Y-123554819D01*
X130367982Y-123554819D02*
X130463220Y-123602438D01*
X130463220Y-123602438D02*
X130510839Y-123650057D01*
X130510839Y-123650057D02*
X130558458Y-123745295D01*
X130558458Y-123745295D02*
X130558458Y-123888152D01*
X130558458Y-123888152D02*
X130510839Y-123983390D01*
X130510839Y-123983390D02*
X130463220Y-124031009D01*
X130463220Y-124031009D02*
X130367982Y-124078628D01*
X130367982Y-124078628D02*
X129987030Y-124078628D01*
X131510839Y-124554819D02*
X130939411Y-124554819D01*
X131225125Y-124554819D02*
X131225125Y-123554819D01*
X131225125Y-123554819D02*
X131129887Y-123697676D01*
X131129887Y-123697676D02*
X131034649Y-123792914D01*
X131034649Y-123792914D02*
X130939411Y-123840533D01*
X134833333Y-106659580D02*
X134785714Y-106707200D01*
X134785714Y-106707200D02*
X134642857Y-106754819D01*
X134642857Y-106754819D02*
X134547619Y-106754819D01*
X134547619Y-106754819D02*
X134404762Y-106707200D01*
X134404762Y-106707200D02*
X134309524Y-106611961D01*
X134309524Y-106611961D02*
X134261905Y-106516723D01*
X134261905Y-106516723D02*
X134214286Y-106326247D01*
X134214286Y-106326247D02*
X134214286Y-106183390D01*
X134214286Y-106183390D02*
X134261905Y-105992914D01*
X134261905Y-105992914D02*
X134309524Y-105897676D01*
X134309524Y-105897676D02*
X134404762Y-105802438D01*
X134404762Y-105802438D02*
X134547619Y-105754819D01*
X134547619Y-105754819D02*
X134642857Y-105754819D01*
X134642857Y-105754819D02*
X134785714Y-105802438D01*
X134785714Y-105802438D02*
X134833333Y-105850057D01*
X135690476Y-106088152D02*
X135690476Y-106754819D01*
X135452381Y-105707200D02*
X135214286Y-106421485D01*
X135214286Y-106421485D02*
X135833333Y-106421485D01*
X180157142Y-106359580D02*
X180109523Y-106407200D01*
X180109523Y-106407200D02*
X179966666Y-106454819D01*
X179966666Y-106454819D02*
X179871428Y-106454819D01*
X179871428Y-106454819D02*
X179728571Y-106407200D01*
X179728571Y-106407200D02*
X179633333Y-106311961D01*
X179633333Y-106311961D02*
X179585714Y-106216723D01*
X179585714Y-106216723D02*
X179538095Y-106026247D01*
X179538095Y-106026247D02*
X179538095Y-105883390D01*
X179538095Y-105883390D02*
X179585714Y-105692914D01*
X179585714Y-105692914D02*
X179633333Y-105597676D01*
X179633333Y-105597676D02*
X179728571Y-105502438D01*
X179728571Y-105502438D02*
X179871428Y-105454819D01*
X179871428Y-105454819D02*
X179966666Y-105454819D01*
X179966666Y-105454819D02*
X180109523Y-105502438D01*
X180109523Y-105502438D02*
X180157142Y-105550057D01*
X180490476Y-105454819D02*
X181109523Y-105454819D01*
X181109523Y-105454819D02*
X180776190Y-105835771D01*
X180776190Y-105835771D02*
X180919047Y-105835771D01*
X180919047Y-105835771D02*
X181014285Y-105883390D01*
X181014285Y-105883390D02*
X181061904Y-105931009D01*
X181061904Y-105931009D02*
X181109523Y-106026247D01*
X181109523Y-106026247D02*
X181109523Y-106264342D01*
X181109523Y-106264342D02*
X181061904Y-106359580D01*
X181061904Y-106359580D02*
X181014285Y-106407200D01*
X181014285Y-106407200D02*
X180919047Y-106454819D01*
X180919047Y-106454819D02*
X180633333Y-106454819D01*
X180633333Y-106454819D02*
X180538095Y-106407200D01*
X180538095Y-106407200D02*
X180490476Y-106359580D01*
X182061904Y-106454819D02*
X181490476Y-106454819D01*
X181776190Y-106454819D02*
X181776190Y-105454819D01*
X181776190Y-105454819D02*
X181680952Y-105597676D01*
X181680952Y-105597676D02*
X181585714Y-105692914D01*
X181585714Y-105692914D02*
X181490476Y-105740533D01*
X135588095Y-134954819D02*
X135588095Y-135764342D01*
X135588095Y-135764342D02*
X135635714Y-135859580D01*
X135635714Y-135859580D02*
X135683333Y-135907200D01*
X135683333Y-135907200D02*
X135778571Y-135954819D01*
X135778571Y-135954819D02*
X135969047Y-135954819D01*
X135969047Y-135954819D02*
X136064285Y-135907200D01*
X136064285Y-135907200D02*
X136111904Y-135859580D01*
X136111904Y-135859580D02*
X136159523Y-135764342D01*
X136159523Y-135764342D02*
X136159523Y-134954819D01*
X136540476Y-134954819D02*
X137159523Y-134954819D01*
X137159523Y-134954819D02*
X136826190Y-135335771D01*
X136826190Y-135335771D02*
X136969047Y-135335771D01*
X136969047Y-135335771D02*
X137064285Y-135383390D01*
X137064285Y-135383390D02*
X137111904Y-135431009D01*
X137111904Y-135431009D02*
X137159523Y-135526247D01*
X137159523Y-135526247D02*
X137159523Y-135764342D01*
X137159523Y-135764342D02*
X137111904Y-135859580D01*
X137111904Y-135859580D02*
X137064285Y-135907200D01*
X137064285Y-135907200D02*
X136969047Y-135954819D01*
X136969047Y-135954819D02*
X136683333Y-135954819D01*
X136683333Y-135954819D02*
X136588095Y-135907200D01*
X136588095Y-135907200D02*
X136540476Y-135859580D01*
X127557142Y-123359580D02*
X127509523Y-123407200D01*
X127509523Y-123407200D02*
X127366666Y-123454819D01*
X127366666Y-123454819D02*
X127271428Y-123454819D01*
X127271428Y-123454819D02*
X127128571Y-123407200D01*
X127128571Y-123407200D02*
X127033333Y-123311961D01*
X127033333Y-123311961D02*
X126985714Y-123216723D01*
X126985714Y-123216723D02*
X126938095Y-123026247D01*
X126938095Y-123026247D02*
X126938095Y-122883390D01*
X126938095Y-122883390D02*
X126985714Y-122692914D01*
X126985714Y-122692914D02*
X127033333Y-122597676D01*
X127033333Y-122597676D02*
X127128571Y-122502438D01*
X127128571Y-122502438D02*
X127271428Y-122454819D01*
X127271428Y-122454819D02*
X127366666Y-122454819D01*
X127366666Y-122454819D02*
X127509523Y-122502438D01*
X127509523Y-122502438D02*
X127557142Y-122550057D01*
X128509523Y-123454819D02*
X127938095Y-123454819D01*
X128223809Y-123454819D02*
X128223809Y-122454819D01*
X128223809Y-122454819D02*
X128128571Y-122597676D01*
X128128571Y-122597676D02*
X128033333Y-122692914D01*
X128033333Y-122692914D02*
X127938095Y-122740533D01*
X128842857Y-122454819D02*
X129461904Y-122454819D01*
X129461904Y-122454819D02*
X129128571Y-122835771D01*
X129128571Y-122835771D02*
X129271428Y-122835771D01*
X129271428Y-122835771D02*
X129366666Y-122883390D01*
X129366666Y-122883390D02*
X129414285Y-122931009D01*
X129414285Y-122931009D02*
X129461904Y-123026247D01*
X129461904Y-123026247D02*
X129461904Y-123264342D01*
X129461904Y-123264342D02*
X129414285Y-123359580D01*
X129414285Y-123359580D02*
X129366666Y-123407200D01*
X129366666Y-123407200D02*
X129271428Y-123454819D01*
X129271428Y-123454819D02*
X128985714Y-123454819D01*
X128985714Y-123454819D02*
X128890476Y-123407200D01*
X128890476Y-123407200D02*
X128842857Y-123359580D01*
X119406077Y-107854819D02*
X119072744Y-107378628D01*
X118834649Y-107854819D02*
X118834649Y-106854819D01*
X118834649Y-106854819D02*
X119215601Y-106854819D01*
X119215601Y-106854819D02*
X119310839Y-106902438D01*
X119310839Y-106902438D02*
X119358458Y-106950057D01*
X119358458Y-106950057D02*
X119406077Y-107045295D01*
X119406077Y-107045295D02*
X119406077Y-107188152D01*
X119406077Y-107188152D02*
X119358458Y-107283390D01*
X119358458Y-107283390D02*
X119310839Y-107331009D01*
X119310839Y-107331009D02*
X119215601Y-107378628D01*
X119215601Y-107378628D02*
X118834649Y-107378628D01*
X119787030Y-106950057D02*
X119834649Y-106902438D01*
X119834649Y-106902438D02*
X119929887Y-106854819D01*
X119929887Y-106854819D02*
X120167982Y-106854819D01*
X120167982Y-106854819D02*
X120263220Y-106902438D01*
X120263220Y-106902438D02*
X120310839Y-106950057D01*
X120310839Y-106950057D02*
X120358458Y-107045295D01*
X120358458Y-107045295D02*
X120358458Y-107140533D01*
X120358458Y-107140533D02*
X120310839Y-107283390D01*
X120310839Y-107283390D02*
X119739411Y-107854819D01*
X119739411Y-107854819D02*
X120358458Y-107854819D01*
X120739411Y-106950057D02*
X120787030Y-106902438D01*
X120787030Y-106902438D02*
X120882268Y-106854819D01*
X120882268Y-106854819D02*
X121120363Y-106854819D01*
X121120363Y-106854819D02*
X121215601Y-106902438D01*
X121215601Y-106902438D02*
X121263220Y-106950057D01*
X121263220Y-106950057D02*
X121310839Y-107045295D01*
X121310839Y-107045295D02*
X121310839Y-107140533D01*
X121310839Y-107140533D02*
X121263220Y-107283390D01*
X121263220Y-107283390D02*
X120691792Y-107854819D01*
X120691792Y-107854819D02*
X121310839Y-107854819D01*
X159457142Y-141859580D02*
X159409523Y-141907200D01*
X159409523Y-141907200D02*
X159266666Y-141954819D01*
X159266666Y-141954819D02*
X159171428Y-141954819D01*
X159171428Y-141954819D02*
X159028571Y-141907200D01*
X159028571Y-141907200D02*
X158933333Y-141811961D01*
X158933333Y-141811961D02*
X158885714Y-141716723D01*
X158885714Y-141716723D02*
X158838095Y-141526247D01*
X158838095Y-141526247D02*
X158838095Y-141383390D01*
X158838095Y-141383390D02*
X158885714Y-141192914D01*
X158885714Y-141192914D02*
X158933333Y-141097676D01*
X158933333Y-141097676D02*
X159028571Y-141002438D01*
X159028571Y-141002438D02*
X159171428Y-140954819D01*
X159171428Y-140954819D02*
X159266666Y-140954819D01*
X159266666Y-140954819D02*
X159409523Y-141002438D01*
X159409523Y-141002438D02*
X159457142Y-141050057D01*
X159838095Y-141050057D02*
X159885714Y-141002438D01*
X159885714Y-141002438D02*
X159980952Y-140954819D01*
X159980952Y-140954819D02*
X160219047Y-140954819D01*
X160219047Y-140954819D02*
X160314285Y-141002438D01*
X160314285Y-141002438D02*
X160361904Y-141050057D01*
X160361904Y-141050057D02*
X160409523Y-141145295D01*
X160409523Y-141145295D02*
X160409523Y-141240533D01*
X160409523Y-141240533D02*
X160361904Y-141383390D01*
X160361904Y-141383390D02*
X159790476Y-141954819D01*
X159790476Y-141954819D02*
X160409523Y-141954819D01*
X160790476Y-141050057D02*
X160838095Y-141002438D01*
X160838095Y-141002438D02*
X160933333Y-140954819D01*
X160933333Y-140954819D02*
X161171428Y-140954819D01*
X161171428Y-140954819D02*
X161266666Y-141002438D01*
X161266666Y-141002438D02*
X161314285Y-141050057D01*
X161314285Y-141050057D02*
X161361904Y-141145295D01*
X161361904Y-141145295D02*
X161361904Y-141240533D01*
X161361904Y-141240533D02*
X161314285Y-141383390D01*
X161314285Y-141383390D02*
X160742857Y-141954819D01*
X160742857Y-141954819D02*
X161361904Y-141954819D01*
X131433333Y-116559580D02*
X131385714Y-116607200D01*
X131385714Y-116607200D02*
X131242857Y-116654819D01*
X131242857Y-116654819D02*
X131147619Y-116654819D01*
X131147619Y-116654819D02*
X131004762Y-116607200D01*
X131004762Y-116607200D02*
X130909524Y-116511961D01*
X130909524Y-116511961D02*
X130861905Y-116416723D01*
X130861905Y-116416723D02*
X130814286Y-116226247D01*
X130814286Y-116226247D02*
X130814286Y-116083390D01*
X130814286Y-116083390D02*
X130861905Y-115892914D01*
X130861905Y-115892914D02*
X130909524Y-115797676D01*
X130909524Y-115797676D02*
X131004762Y-115702438D01*
X131004762Y-115702438D02*
X131147619Y-115654819D01*
X131147619Y-115654819D02*
X131242857Y-115654819D01*
X131242857Y-115654819D02*
X131385714Y-115702438D01*
X131385714Y-115702438D02*
X131433333Y-115750057D01*
X131766667Y-115654819D02*
X132433333Y-115654819D01*
X132433333Y-115654819D02*
X132004762Y-116654819D01*
X149661905Y-139554819D02*
X149661905Y-138554819D01*
X149661905Y-138554819D02*
X149900000Y-138554819D01*
X149900000Y-138554819D02*
X150042857Y-138602438D01*
X150042857Y-138602438D02*
X150138095Y-138697676D01*
X150138095Y-138697676D02*
X150185714Y-138792914D01*
X150185714Y-138792914D02*
X150233333Y-138983390D01*
X150233333Y-138983390D02*
X150233333Y-139126247D01*
X150233333Y-139126247D02*
X150185714Y-139316723D01*
X150185714Y-139316723D02*
X150138095Y-139411961D01*
X150138095Y-139411961D02*
X150042857Y-139507200D01*
X150042857Y-139507200D02*
X149900000Y-139554819D01*
X149900000Y-139554819D02*
X149661905Y-139554819D01*
X150566667Y-138554819D02*
X151185714Y-138554819D01*
X151185714Y-138554819D02*
X150852381Y-138935771D01*
X150852381Y-138935771D02*
X150995238Y-138935771D01*
X150995238Y-138935771D02*
X151090476Y-138983390D01*
X151090476Y-138983390D02*
X151138095Y-139031009D01*
X151138095Y-139031009D02*
X151185714Y-139126247D01*
X151185714Y-139126247D02*
X151185714Y-139364342D01*
X151185714Y-139364342D02*
X151138095Y-139459580D01*
X151138095Y-139459580D02*
X151090476Y-139507200D01*
X151090476Y-139507200D02*
X150995238Y-139554819D01*
X150995238Y-139554819D02*
X150709524Y-139554819D01*
X150709524Y-139554819D02*
X150614286Y-139507200D01*
X150614286Y-139507200D02*
X150566667Y-139459580D01*
X161557142Y-121554819D02*
X161223809Y-121078628D01*
X160985714Y-121554819D02*
X160985714Y-120554819D01*
X160985714Y-120554819D02*
X161366666Y-120554819D01*
X161366666Y-120554819D02*
X161461904Y-120602438D01*
X161461904Y-120602438D02*
X161509523Y-120650057D01*
X161509523Y-120650057D02*
X161557142Y-120745295D01*
X161557142Y-120745295D02*
X161557142Y-120888152D01*
X161557142Y-120888152D02*
X161509523Y-120983390D01*
X161509523Y-120983390D02*
X161461904Y-121031009D01*
X161461904Y-121031009D02*
X161366666Y-121078628D01*
X161366666Y-121078628D02*
X160985714Y-121078628D01*
X162509523Y-121554819D02*
X161938095Y-121554819D01*
X162223809Y-121554819D02*
X162223809Y-120554819D01*
X162223809Y-120554819D02*
X162128571Y-120697676D01*
X162128571Y-120697676D02*
X162033333Y-120792914D01*
X162033333Y-120792914D02*
X161938095Y-120840533D01*
X163128571Y-120554819D02*
X163223809Y-120554819D01*
X163223809Y-120554819D02*
X163319047Y-120602438D01*
X163319047Y-120602438D02*
X163366666Y-120650057D01*
X163366666Y-120650057D02*
X163414285Y-120745295D01*
X163414285Y-120745295D02*
X163461904Y-120935771D01*
X163461904Y-120935771D02*
X163461904Y-121173866D01*
X163461904Y-121173866D02*
X163414285Y-121364342D01*
X163414285Y-121364342D02*
X163366666Y-121459580D01*
X163366666Y-121459580D02*
X163319047Y-121507200D01*
X163319047Y-121507200D02*
X163223809Y-121554819D01*
X163223809Y-121554819D02*
X163128571Y-121554819D01*
X163128571Y-121554819D02*
X163033333Y-121507200D01*
X163033333Y-121507200D02*
X162985714Y-121459580D01*
X162985714Y-121459580D02*
X162938095Y-121364342D01*
X162938095Y-121364342D02*
X162890476Y-121173866D01*
X162890476Y-121173866D02*
X162890476Y-120935771D01*
X162890476Y-120935771D02*
X162938095Y-120745295D01*
X162938095Y-120745295D02*
X162985714Y-120650057D01*
X162985714Y-120650057D02*
X163033333Y-120602438D01*
X163033333Y-120602438D02*
X163128571Y-120554819D01*
X158438095Y-130054819D02*
X158438095Y-130864342D01*
X158438095Y-130864342D02*
X158485714Y-130959580D01*
X158485714Y-130959580D02*
X158533333Y-131007200D01*
X158533333Y-131007200D02*
X158628571Y-131054819D01*
X158628571Y-131054819D02*
X158819047Y-131054819D01*
X158819047Y-131054819D02*
X158914285Y-131007200D01*
X158914285Y-131007200D02*
X158961904Y-130959580D01*
X158961904Y-130959580D02*
X159009523Y-130864342D01*
X159009523Y-130864342D02*
X159009523Y-130054819D01*
X160009523Y-131054819D02*
X159438095Y-131054819D01*
X159723809Y-131054819D02*
X159723809Y-130054819D01*
X159723809Y-130054819D02*
X159628571Y-130197676D01*
X159628571Y-130197676D02*
X159533333Y-130292914D01*
X159533333Y-130292914D02*
X159438095Y-130340533D01*
X136233333Y-109359580D02*
X136185714Y-109407200D01*
X136185714Y-109407200D02*
X136042857Y-109454819D01*
X136042857Y-109454819D02*
X135947619Y-109454819D01*
X135947619Y-109454819D02*
X135804762Y-109407200D01*
X135804762Y-109407200D02*
X135709524Y-109311961D01*
X135709524Y-109311961D02*
X135661905Y-109216723D01*
X135661905Y-109216723D02*
X135614286Y-109026247D01*
X135614286Y-109026247D02*
X135614286Y-108883390D01*
X135614286Y-108883390D02*
X135661905Y-108692914D01*
X135661905Y-108692914D02*
X135709524Y-108597676D01*
X135709524Y-108597676D02*
X135804762Y-108502438D01*
X135804762Y-108502438D02*
X135947619Y-108454819D01*
X135947619Y-108454819D02*
X136042857Y-108454819D01*
X136042857Y-108454819D02*
X136185714Y-108502438D01*
X136185714Y-108502438D02*
X136233333Y-108550057D01*
X137185714Y-109454819D02*
X136614286Y-109454819D01*
X136900000Y-109454819D02*
X136900000Y-108454819D01*
X136900000Y-108454819D02*
X136804762Y-108597676D01*
X136804762Y-108597676D02*
X136709524Y-108692914D01*
X136709524Y-108692914D02*
X136614286Y-108740533D01*
X121206077Y-112354819D02*
X120872744Y-111878628D01*
X120634649Y-112354819D02*
X120634649Y-111354819D01*
X120634649Y-111354819D02*
X121015601Y-111354819D01*
X121015601Y-111354819D02*
X121110839Y-111402438D01*
X121110839Y-111402438D02*
X121158458Y-111450057D01*
X121158458Y-111450057D02*
X121206077Y-111545295D01*
X121206077Y-111545295D02*
X121206077Y-111688152D01*
X121206077Y-111688152D02*
X121158458Y-111783390D01*
X121158458Y-111783390D02*
X121110839Y-111831009D01*
X121110839Y-111831009D02*
X121015601Y-111878628D01*
X121015601Y-111878628D02*
X120634649Y-111878628D01*
X121587030Y-111450057D02*
X121634649Y-111402438D01*
X121634649Y-111402438D02*
X121729887Y-111354819D01*
X121729887Y-111354819D02*
X121967982Y-111354819D01*
X121967982Y-111354819D02*
X122063220Y-111402438D01*
X122063220Y-111402438D02*
X122110839Y-111450057D01*
X122110839Y-111450057D02*
X122158458Y-111545295D01*
X122158458Y-111545295D02*
X122158458Y-111640533D01*
X122158458Y-111640533D02*
X122110839Y-111783390D01*
X122110839Y-111783390D02*
X121539411Y-112354819D01*
X121539411Y-112354819D02*
X122158458Y-112354819D01*
X122491792Y-111354819D02*
X123110839Y-111354819D01*
X123110839Y-111354819D02*
X122777506Y-111735771D01*
X122777506Y-111735771D02*
X122920363Y-111735771D01*
X122920363Y-111735771D02*
X123015601Y-111783390D01*
X123015601Y-111783390D02*
X123063220Y-111831009D01*
X123063220Y-111831009D02*
X123110839Y-111926247D01*
X123110839Y-111926247D02*
X123110839Y-112164342D01*
X123110839Y-112164342D02*
X123063220Y-112259580D01*
X123063220Y-112259580D02*
X123015601Y-112307200D01*
X123015601Y-112307200D02*
X122920363Y-112354819D01*
X122920363Y-112354819D02*
X122634649Y-112354819D01*
X122634649Y-112354819D02*
X122539411Y-112307200D01*
X122539411Y-112307200D02*
X122491792Y-112259580D01*
X141794761Y-127530056D02*
X141699523Y-127482437D01*
X141699523Y-127482437D02*
X141604285Y-127387199D01*
X141604285Y-127387199D02*
X141461428Y-127244341D01*
X141461428Y-127244341D02*
X141366190Y-127196722D01*
X141366190Y-127196722D02*
X141270952Y-127196722D01*
X141318571Y-127434818D02*
X141223333Y-127387199D01*
X141223333Y-127387199D02*
X141128095Y-127291960D01*
X141128095Y-127291960D02*
X141080476Y-127101484D01*
X141080476Y-127101484D02*
X141080476Y-126768151D01*
X141080476Y-126768151D02*
X141128095Y-126577675D01*
X141128095Y-126577675D02*
X141223333Y-126482437D01*
X141223333Y-126482437D02*
X141318571Y-126434818D01*
X141318571Y-126434818D02*
X141509047Y-126434818D01*
X141509047Y-126434818D02*
X141604285Y-126482437D01*
X141604285Y-126482437D02*
X141699523Y-126577675D01*
X141699523Y-126577675D02*
X141747142Y-126768151D01*
X141747142Y-126768151D02*
X141747142Y-127101484D01*
X141747142Y-127101484D02*
X141699523Y-127291960D01*
X141699523Y-127291960D02*
X141604285Y-127387199D01*
X141604285Y-127387199D02*
X141509047Y-127434818D01*
X141509047Y-127434818D02*
X141318571Y-127434818D01*
X142699523Y-127434818D02*
X142128095Y-127434818D01*
X142413809Y-127434818D02*
X142413809Y-126434818D01*
X142413809Y-126434818D02*
X142318571Y-126577675D01*
X142318571Y-126577675D02*
X142223333Y-126672913D01*
X142223333Y-126672913D02*
X142128095Y-126720532D01*
X144607142Y-127454819D02*
X144273809Y-126978628D01*
X144035714Y-127454819D02*
X144035714Y-126454819D01*
X144035714Y-126454819D02*
X144416666Y-126454819D01*
X144416666Y-126454819D02*
X144511904Y-126502438D01*
X144511904Y-126502438D02*
X144559523Y-126550057D01*
X144559523Y-126550057D02*
X144607142Y-126645295D01*
X144607142Y-126645295D02*
X144607142Y-126788152D01*
X144607142Y-126788152D02*
X144559523Y-126883390D01*
X144559523Y-126883390D02*
X144511904Y-126931009D01*
X144511904Y-126931009D02*
X144416666Y-126978628D01*
X144416666Y-126978628D02*
X144035714Y-126978628D01*
X144988095Y-126550057D02*
X145035714Y-126502438D01*
X145035714Y-126502438D02*
X145130952Y-126454819D01*
X145130952Y-126454819D02*
X145369047Y-126454819D01*
X145369047Y-126454819D02*
X145464285Y-126502438D01*
X145464285Y-126502438D02*
X145511904Y-126550057D01*
X145511904Y-126550057D02*
X145559523Y-126645295D01*
X145559523Y-126645295D02*
X145559523Y-126740533D01*
X145559523Y-126740533D02*
X145511904Y-126883390D01*
X145511904Y-126883390D02*
X144940476Y-127454819D01*
X144940476Y-127454819D02*
X145559523Y-127454819D01*
X146178571Y-126454819D02*
X146273809Y-126454819D01*
X146273809Y-126454819D02*
X146369047Y-126502438D01*
X146369047Y-126502438D02*
X146416666Y-126550057D01*
X146416666Y-126550057D02*
X146464285Y-126645295D01*
X146464285Y-126645295D02*
X146511904Y-126835771D01*
X146511904Y-126835771D02*
X146511904Y-127073866D01*
X146511904Y-127073866D02*
X146464285Y-127264342D01*
X146464285Y-127264342D02*
X146416666Y-127359580D01*
X146416666Y-127359580D02*
X146369047Y-127407200D01*
X146369047Y-127407200D02*
X146273809Y-127454819D01*
X146273809Y-127454819D02*
X146178571Y-127454819D01*
X146178571Y-127454819D02*
X146083333Y-127407200D01*
X146083333Y-127407200D02*
X146035714Y-127359580D01*
X146035714Y-127359580D02*
X145988095Y-127264342D01*
X145988095Y-127264342D02*
X145940476Y-127073866D01*
X145940476Y-127073866D02*
X145940476Y-126835771D01*
X145940476Y-126835771D02*
X145988095Y-126645295D01*
X145988095Y-126645295D02*
X146035714Y-126550057D01*
X146035714Y-126550057D02*
X146083333Y-126502438D01*
X146083333Y-126502438D02*
X146178571Y-126454819D01*
X163657142Y-134659580D02*
X163609523Y-134707200D01*
X163609523Y-134707200D02*
X163466666Y-134754819D01*
X163466666Y-134754819D02*
X163371428Y-134754819D01*
X163371428Y-134754819D02*
X163228571Y-134707200D01*
X163228571Y-134707200D02*
X163133333Y-134611961D01*
X163133333Y-134611961D02*
X163085714Y-134516723D01*
X163085714Y-134516723D02*
X163038095Y-134326247D01*
X163038095Y-134326247D02*
X163038095Y-134183390D01*
X163038095Y-134183390D02*
X163085714Y-133992914D01*
X163085714Y-133992914D02*
X163133333Y-133897676D01*
X163133333Y-133897676D02*
X163228571Y-133802438D01*
X163228571Y-133802438D02*
X163371428Y-133754819D01*
X163371428Y-133754819D02*
X163466666Y-133754819D01*
X163466666Y-133754819D02*
X163609523Y-133802438D01*
X163609523Y-133802438D02*
X163657142Y-133850057D01*
X164038095Y-133850057D02*
X164085714Y-133802438D01*
X164085714Y-133802438D02*
X164180952Y-133754819D01*
X164180952Y-133754819D02*
X164419047Y-133754819D01*
X164419047Y-133754819D02*
X164514285Y-133802438D01*
X164514285Y-133802438D02*
X164561904Y-133850057D01*
X164561904Y-133850057D02*
X164609523Y-133945295D01*
X164609523Y-133945295D02*
X164609523Y-134040533D01*
X164609523Y-134040533D02*
X164561904Y-134183390D01*
X164561904Y-134183390D02*
X163990476Y-134754819D01*
X163990476Y-134754819D02*
X164609523Y-134754819D01*
X165228571Y-133754819D02*
X165323809Y-133754819D01*
X165323809Y-133754819D02*
X165419047Y-133802438D01*
X165419047Y-133802438D02*
X165466666Y-133850057D01*
X165466666Y-133850057D02*
X165514285Y-133945295D01*
X165514285Y-133945295D02*
X165561904Y-134135771D01*
X165561904Y-134135771D02*
X165561904Y-134373866D01*
X165561904Y-134373866D02*
X165514285Y-134564342D01*
X165514285Y-134564342D02*
X165466666Y-134659580D01*
X165466666Y-134659580D02*
X165419047Y-134707200D01*
X165419047Y-134707200D02*
X165323809Y-134754819D01*
X165323809Y-134754819D02*
X165228571Y-134754819D01*
X165228571Y-134754819D02*
X165133333Y-134707200D01*
X165133333Y-134707200D02*
X165085714Y-134659580D01*
X165085714Y-134659580D02*
X165038095Y-134564342D01*
X165038095Y-134564342D02*
X164990476Y-134373866D01*
X164990476Y-134373866D02*
X164990476Y-134135771D01*
X164990476Y-134135771D02*
X165038095Y-133945295D01*
X165038095Y-133945295D02*
X165085714Y-133850057D01*
X165085714Y-133850057D02*
X165133333Y-133802438D01*
X165133333Y-133802438D02*
X165228571Y-133754819D01*
X168057142Y-129059580D02*
X168009523Y-129107200D01*
X168009523Y-129107200D02*
X167866666Y-129154819D01*
X167866666Y-129154819D02*
X167771428Y-129154819D01*
X167771428Y-129154819D02*
X167628571Y-129107200D01*
X167628571Y-129107200D02*
X167533333Y-129011961D01*
X167533333Y-129011961D02*
X167485714Y-128916723D01*
X167485714Y-128916723D02*
X167438095Y-128726247D01*
X167438095Y-128726247D02*
X167438095Y-128583390D01*
X167438095Y-128583390D02*
X167485714Y-128392914D01*
X167485714Y-128392914D02*
X167533333Y-128297676D01*
X167533333Y-128297676D02*
X167628571Y-128202438D01*
X167628571Y-128202438D02*
X167771428Y-128154819D01*
X167771428Y-128154819D02*
X167866666Y-128154819D01*
X167866666Y-128154819D02*
X168009523Y-128202438D01*
X168009523Y-128202438D02*
X168057142Y-128250057D01*
X169009523Y-129154819D02*
X168438095Y-129154819D01*
X168723809Y-129154819D02*
X168723809Y-128154819D01*
X168723809Y-128154819D02*
X168628571Y-128297676D01*
X168628571Y-128297676D02*
X168533333Y-128392914D01*
X168533333Y-128392914D02*
X168438095Y-128440533D01*
X169580952Y-128583390D02*
X169485714Y-128535771D01*
X169485714Y-128535771D02*
X169438095Y-128488152D01*
X169438095Y-128488152D02*
X169390476Y-128392914D01*
X169390476Y-128392914D02*
X169390476Y-128345295D01*
X169390476Y-128345295D02*
X169438095Y-128250057D01*
X169438095Y-128250057D02*
X169485714Y-128202438D01*
X169485714Y-128202438D02*
X169580952Y-128154819D01*
X169580952Y-128154819D02*
X169771428Y-128154819D01*
X169771428Y-128154819D02*
X169866666Y-128202438D01*
X169866666Y-128202438D02*
X169914285Y-128250057D01*
X169914285Y-128250057D02*
X169961904Y-128345295D01*
X169961904Y-128345295D02*
X169961904Y-128392914D01*
X169961904Y-128392914D02*
X169914285Y-128488152D01*
X169914285Y-128488152D02*
X169866666Y-128535771D01*
X169866666Y-128535771D02*
X169771428Y-128583390D01*
X169771428Y-128583390D02*
X169580952Y-128583390D01*
X169580952Y-128583390D02*
X169485714Y-128631009D01*
X169485714Y-128631009D02*
X169438095Y-128678628D01*
X169438095Y-128678628D02*
X169390476Y-128773866D01*
X169390476Y-128773866D02*
X169390476Y-128964342D01*
X169390476Y-128964342D02*
X169438095Y-129059580D01*
X169438095Y-129059580D02*
X169485714Y-129107200D01*
X169485714Y-129107200D02*
X169580952Y-129154819D01*
X169580952Y-129154819D02*
X169771428Y-129154819D01*
X169771428Y-129154819D02*
X169866666Y-129107200D01*
X169866666Y-129107200D02*
X169914285Y-129059580D01*
X169914285Y-129059580D02*
X169961904Y-128964342D01*
X169961904Y-128964342D02*
X169961904Y-128773866D01*
X169961904Y-128773866D02*
X169914285Y-128678628D01*
X169914285Y-128678628D02*
X169866666Y-128631009D01*
X169866666Y-128631009D02*
X169771428Y-128583390D01*
X172533333Y-124354819D02*
X172200000Y-123878628D01*
X171961905Y-124354819D02*
X171961905Y-123354819D01*
X171961905Y-123354819D02*
X172342857Y-123354819D01*
X172342857Y-123354819D02*
X172438095Y-123402438D01*
X172438095Y-123402438D02*
X172485714Y-123450057D01*
X172485714Y-123450057D02*
X172533333Y-123545295D01*
X172533333Y-123545295D02*
X172533333Y-123688152D01*
X172533333Y-123688152D02*
X172485714Y-123783390D01*
X172485714Y-123783390D02*
X172438095Y-123831009D01*
X172438095Y-123831009D02*
X172342857Y-123878628D01*
X172342857Y-123878628D02*
X171961905Y-123878628D01*
X173438095Y-123354819D02*
X172961905Y-123354819D01*
X172961905Y-123354819D02*
X172914286Y-123831009D01*
X172914286Y-123831009D02*
X172961905Y-123783390D01*
X172961905Y-123783390D02*
X173057143Y-123735771D01*
X173057143Y-123735771D02*
X173295238Y-123735771D01*
X173295238Y-123735771D02*
X173390476Y-123783390D01*
X173390476Y-123783390D02*
X173438095Y-123831009D01*
X173438095Y-123831009D02*
X173485714Y-123926247D01*
X173485714Y-123926247D02*
X173485714Y-124164342D01*
X173485714Y-124164342D02*
X173438095Y-124259580D01*
X173438095Y-124259580D02*
X173390476Y-124307200D01*
X173390476Y-124307200D02*
X173295238Y-124354819D01*
X173295238Y-124354819D02*
X173057143Y-124354819D01*
X173057143Y-124354819D02*
X172961905Y-124307200D01*
X172961905Y-124307200D02*
X172914286Y-124259580D01*
X166457142Y-138559580D02*
X166409523Y-138607200D01*
X166409523Y-138607200D02*
X166266666Y-138654819D01*
X166266666Y-138654819D02*
X166171428Y-138654819D01*
X166171428Y-138654819D02*
X166028571Y-138607200D01*
X166028571Y-138607200D02*
X165933333Y-138511961D01*
X165933333Y-138511961D02*
X165885714Y-138416723D01*
X165885714Y-138416723D02*
X165838095Y-138226247D01*
X165838095Y-138226247D02*
X165838095Y-138083390D01*
X165838095Y-138083390D02*
X165885714Y-137892914D01*
X165885714Y-137892914D02*
X165933333Y-137797676D01*
X165933333Y-137797676D02*
X166028571Y-137702438D01*
X166028571Y-137702438D02*
X166171428Y-137654819D01*
X166171428Y-137654819D02*
X166266666Y-137654819D01*
X166266666Y-137654819D02*
X166409523Y-137702438D01*
X166409523Y-137702438D02*
X166457142Y-137750057D01*
X166838095Y-137750057D02*
X166885714Y-137702438D01*
X166885714Y-137702438D02*
X166980952Y-137654819D01*
X166980952Y-137654819D02*
X167219047Y-137654819D01*
X167219047Y-137654819D02*
X167314285Y-137702438D01*
X167314285Y-137702438D02*
X167361904Y-137750057D01*
X167361904Y-137750057D02*
X167409523Y-137845295D01*
X167409523Y-137845295D02*
X167409523Y-137940533D01*
X167409523Y-137940533D02*
X167361904Y-138083390D01*
X167361904Y-138083390D02*
X166790476Y-138654819D01*
X166790476Y-138654819D02*
X167409523Y-138654819D01*
X168361904Y-138654819D02*
X167790476Y-138654819D01*
X168076190Y-138654819D02*
X168076190Y-137654819D01*
X168076190Y-137654819D02*
X167980952Y-137797676D01*
X167980952Y-137797676D02*
X167885714Y-137892914D01*
X167885714Y-137892914D02*
X167790476Y-137940533D01*
X173433333Y-122854819D02*
X173100000Y-122378628D01*
X172861905Y-122854819D02*
X172861905Y-121854819D01*
X172861905Y-121854819D02*
X173242857Y-121854819D01*
X173242857Y-121854819D02*
X173338095Y-121902438D01*
X173338095Y-121902438D02*
X173385714Y-121950057D01*
X173385714Y-121950057D02*
X173433333Y-122045295D01*
X173433333Y-122045295D02*
X173433333Y-122188152D01*
X173433333Y-122188152D02*
X173385714Y-122283390D01*
X173385714Y-122283390D02*
X173338095Y-122331009D01*
X173338095Y-122331009D02*
X173242857Y-122378628D01*
X173242857Y-122378628D02*
X172861905Y-122378628D01*
X174290476Y-122188152D02*
X174290476Y-122854819D01*
X174052381Y-121807200D02*
X173814286Y-122521485D01*
X173814286Y-122521485D02*
X174433333Y-122521485D01*
X147057142Y-133459580D02*
X147009523Y-133507200D01*
X147009523Y-133507200D02*
X146866666Y-133554819D01*
X146866666Y-133554819D02*
X146771428Y-133554819D01*
X146771428Y-133554819D02*
X146628571Y-133507200D01*
X146628571Y-133507200D02*
X146533333Y-133411961D01*
X146533333Y-133411961D02*
X146485714Y-133316723D01*
X146485714Y-133316723D02*
X146438095Y-133126247D01*
X146438095Y-133126247D02*
X146438095Y-132983390D01*
X146438095Y-132983390D02*
X146485714Y-132792914D01*
X146485714Y-132792914D02*
X146533333Y-132697676D01*
X146533333Y-132697676D02*
X146628571Y-132602438D01*
X146628571Y-132602438D02*
X146771428Y-132554819D01*
X146771428Y-132554819D02*
X146866666Y-132554819D01*
X146866666Y-132554819D02*
X147009523Y-132602438D01*
X147009523Y-132602438D02*
X147057142Y-132650057D01*
X147438095Y-132650057D02*
X147485714Y-132602438D01*
X147485714Y-132602438D02*
X147580952Y-132554819D01*
X147580952Y-132554819D02*
X147819047Y-132554819D01*
X147819047Y-132554819D02*
X147914285Y-132602438D01*
X147914285Y-132602438D02*
X147961904Y-132650057D01*
X147961904Y-132650057D02*
X148009523Y-132745295D01*
X148009523Y-132745295D02*
X148009523Y-132840533D01*
X148009523Y-132840533D02*
X147961904Y-132983390D01*
X147961904Y-132983390D02*
X147390476Y-133554819D01*
X147390476Y-133554819D02*
X148009523Y-133554819D01*
X148914285Y-132554819D02*
X148438095Y-132554819D01*
X148438095Y-132554819D02*
X148390476Y-133031009D01*
X148390476Y-133031009D02*
X148438095Y-132983390D01*
X148438095Y-132983390D02*
X148533333Y-132935771D01*
X148533333Y-132935771D02*
X148771428Y-132935771D01*
X148771428Y-132935771D02*
X148866666Y-132983390D01*
X148866666Y-132983390D02*
X148914285Y-133031009D01*
X148914285Y-133031009D02*
X148961904Y-133126247D01*
X148961904Y-133126247D02*
X148961904Y-133364342D01*
X148961904Y-133364342D02*
X148914285Y-133459580D01*
X148914285Y-133459580D02*
X148866666Y-133507200D01*
X148866666Y-133507200D02*
X148771428Y-133554819D01*
X148771428Y-133554819D02*
X148533333Y-133554819D01*
X148533333Y-133554819D02*
X148438095Y-133507200D01*
X148438095Y-133507200D02*
X148390476Y-133459580D01*
X129433333Y-117359580D02*
X129385714Y-117407200D01*
X129385714Y-117407200D02*
X129242857Y-117454819D01*
X129242857Y-117454819D02*
X129147619Y-117454819D01*
X129147619Y-117454819D02*
X129004762Y-117407200D01*
X129004762Y-117407200D02*
X128909524Y-117311961D01*
X128909524Y-117311961D02*
X128861905Y-117216723D01*
X128861905Y-117216723D02*
X128814286Y-117026247D01*
X128814286Y-117026247D02*
X128814286Y-116883390D01*
X128814286Y-116883390D02*
X128861905Y-116692914D01*
X128861905Y-116692914D02*
X128909524Y-116597676D01*
X128909524Y-116597676D02*
X129004762Y-116502438D01*
X129004762Y-116502438D02*
X129147619Y-116454819D01*
X129147619Y-116454819D02*
X129242857Y-116454819D01*
X129242857Y-116454819D02*
X129385714Y-116502438D01*
X129385714Y-116502438D02*
X129433333Y-116550057D01*
X130338095Y-116454819D02*
X129861905Y-116454819D01*
X129861905Y-116454819D02*
X129814286Y-116931009D01*
X129814286Y-116931009D02*
X129861905Y-116883390D01*
X129861905Y-116883390D02*
X129957143Y-116835771D01*
X129957143Y-116835771D02*
X130195238Y-116835771D01*
X130195238Y-116835771D02*
X130290476Y-116883390D01*
X130290476Y-116883390D02*
X130338095Y-116931009D01*
X130338095Y-116931009D02*
X130385714Y-117026247D01*
X130385714Y-117026247D02*
X130385714Y-117264342D01*
X130385714Y-117264342D02*
X130338095Y-117359580D01*
X130338095Y-117359580D02*
X130290476Y-117407200D01*
X130290476Y-117407200D02*
X130195238Y-117454819D01*
X130195238Y-117454819D02*
X129957143Y-117454819D01*
X129957143Y-117454819D02*
X129861905Y-117407200D01*
X129861905Y-117407200D02*
X129814286Y-117359580D01*
X168357142Y-130459580D02*
X168309523Y-130507200D01*
X168309523Y-130507200D02*
X168166666Y-130554819D01*
X168166666Y-130554819D02*
X168071428Y-130554819D01*
X168071428Y-130554819D02*
X167928571Y-130507200D01*
X167928571Y-130507200D02*
X167833333Y-130411961D01*
X167833333Y-130411961D02*
X167785714Y-130316723D01*
X167785714Y-130316723D02*
X167738095Y-130126247D01*
X167738095Y-130126247D02*
X167738095Y-129983390D01*
X167738095Y-129983390D02*
X167785714Y-129792914D01*
X167785714Y-129792914D02*
X167833333Y-129697676D01*
X167833333Y-129697676D02*
X167928571Y-129602438D01*
X167928571Y-129602438D02*
X168071428Y-129554819D01*
X168071428Y-129554819D02*
X168166666Y-129554819D01*
X168166666Y-129554819D02*
X168309523Y-129602438D01*
X168309523Y-129602438D02*
X168357142Y-129650057D01*
X169309523Y-130554819D02*
X168738095Y-130554819D01*
X169023809Y-130554819D02*
X169023809Y-129554819D01*
X169023809Y-129554819D02*
X168928571Y-129697676D01*
X168928571Y-129697676D02*
X168833333Y-129792914D01*
X168833333Y-129792914D02*
X168738095Y-129840533D01*
X170214285Y-129554819D02*
X169738095Y-129554819D01*
X169738095Y-129554819D02*
X169690476Y-130031009D01*
X169690476Y-130031009D02*
X169738095Y-129983390D01*
X169738095Y-129983390D02*
X169833333Y-129935771D01*
X169833333Y-129935771D02*
X170071428Y-129935771D01*
X170071428Y-129935771D02*
X170166666Y-129983390D01*
X170166666Y-129983390D02*
X170214285Y-130031009D01*
X170214285Y-130031009D02*
X170261904Y-130126247D01*
X170261904Y-130126247D02*
X170261904Y-130364342D01*
X170261904Y-130364342D02*
X170214285Y-130459580D01*
X170214285Y-130459580D02*
X170166666Y-130507200D01*
X170166666Y-130507200D02*
X170071428Y-130554819D01*
X170071428Y-130554819D02*
X169833333Y-130554819D01*
X169833333Y-130554819D02*
X169738095Y-130507200D01*
X169738095Y-130507200D02*
X169690476Y-130459580D01*
X132233333Y-123259580D02*
X132185714Y-123307200D01*
X132185714Y-123307200D02*
X132042857Y-123354819D01*
X132042857Y-123354819D02*
X131947619Y-123354819D01*
X131947619Y-123354819D02*
X131804762Y-123307200D01*
X131804762Y-123307200D02*
X131709524Y-123211961D01*
X131709524Y-123211961D02*
X131661905Y-123116723D01*
X131661905Y-123116723D02*
X131614286Y-122926247D01*
X131614286Y-122926247D02*
X131614286Y-122783390D01*
X131614286Y-122783390D02*
X131661905Y-122592914D01*
X131661905Y-122592914D02*
X131709524Y-122497676D01*
X131709524Y-122497676D02*
X131804762Y-122402438D01*
X131804762Y-122402438D02*
X131947619Y-122354819D01*
X131947619Y-122354819D02*
X132042857Y-122354819D01*
X132042857Y-122354819D02*
X132185714Y-122402438D01*
X132185714Y-122402438D02*
X132233333Y-122450057D01*
X132709524Y-123354819D02*
X132900000Y-123354819D01*
X132900000Y-123354819D02*
X132995238Y-123307200D01*
X132995238Y-123307200D02*
X133042857Y-123259580D01*
X133042857Y-123259580D02*
X133138095Y-123116723D01*
X133138095Y-123116723D02*
X133185714Y-122926247D01*
X133185714Y-122926247D02*
X133185714Y-122545295D01*
X133185714Y-122545295D02*
X133138095Y-122450057D01*
X133138095Y-122450057D02*
X133090476Y-122402438D01*
X133090476Y-122402438D02*
X132995238Y-122354819D01*
X132995238Y-122354819D02*
X132804762Y-122354819D01*
X132804762Y-122354819D02*
X132709524Y-122402438D01*
X132709524Y-122402438D02*
X132661905Y-122450057D01*
X132661905Y-122450057D02*
X132614286Y-122545295D01*
X132614286Y-122545295D02*
X132614286Y-122783390D01*
X132614286Y-122783390D02*
X132661905Y-122878628D01*
X132661905Y-122878628D02*
X132709524Y-122926247D01*
X132709524Y-122926247D02*
X132804762Y-122973866D01*
X132804762Y-122973866D02*
X132995238Y-122973866D01*
X132995238Y-122973866D02*
X133090476Y-122926247D01*
X133090476Y-122926247D02*
X133138095Y-122878628D01*
X133138095Y-122878628D02*
X133185714Y-122783390D01*
X123290476Y-119254819D02*
X123957142Y-120254819D01*
X123957142Y-119254819D02*
X123290476Y-120254819D01*
X124290476Y-119350057D02*
X124338095Y-119302438D01*
X124338095Y-119302438D02*
X124433333Y-119254819D01*
X124433333Y-119254819D02*
X124671428Y-119254819D01*
X124671428Y-119254819D02*
X124766666Y-119302438D01*
X124766666Y-119302438D02*
X124814285Y-119350057D01*
X124814285Y-119350057D02*
X124861904Y-119445295D01*
X124861904Y-119445295D02*
X124861904Y-119540533D01*
X124861904Y-119540533D02*
X124814285Y-119683390D01*
X124814285Y-119683390D02*
X124242857Y-120254819D01*
X124242857Y-120254819D02*
X124861904Y-120254819D01*
X167257142Y-131959580D02*
X167209523Y-132007200D01*
X167209523Y-132007200D02*
X167066666Y-132054819D01*
X167066666Y-132054819D02*
X166971428Y-132054819D01*
X166971428Y-132054819D02*
X166828571Y-132007200D01*
X166828571Y-132007200D02*
X166733333Y-131911961D01*
X166733333Y-131911961D02*
X166685714Y-131816723D01*
X166685714Y-131816723D02*
X166638095Y-131626247D01*
X166638095Y-131626247D02*
X166638095Y-131483390D01*
X166638095Y-131483390D02*
X166685714Y-131292914D01*
X166685714Y-131292914D02*
X166733333Y-131197676D01*
X166733333Y-131197676D02*
X166828571Y-131102438D01*
X166828571Y-131102438D02*
X166971428Y-131054819D01*
X166971428Y-131054819D02*
X167066666Y-131054819D01*
X167066666Y-131054819D02*
X167209523Y-131102438D01*
X167209523Y-131102438D02*
X167257142Y-131150057D01*
X168209523Y-132054819D02*
X167638095Y-132054819D01*
X167923809Y-132054819D02*
X167923809Y-131054819D01*
X167923809Y-131054819D02*
X167828571Y-131197676D01*
X167828571Y-131197676D02*
X167733333Y-131292914D01*
X167733333Y-131292914D02*
X167638095Y-131340533D01*
X168542857Y-131054819D02*
X169209523Y-131054819D01*
X169209523Y-131054819D02*
X168780952Y-132054819D01*
X123108207Y-107854819D02*
X122774874Y-107378628D01*
X122536779Y-107854819D02*
X122536779Y-106854819D01*
X122536779Y-106854819D02*
X122917731Y-106854819D01*
X122917731Y-106854819D02*
X123012969Y-106902438D01*
X123012969Y-106902438D02*
X123060588Y-106950057D01*
X123060588Y-106950057D02*
X123108207Y-107045295D01*
X123108207Y-107045295D02*
X123108207Y-107188152D01*
X123108207Y-107188152D02*
X123060588Y-107283390D01*
X123060588Y-107283390D02*
X123012969Y-107331009D01*
X123012969Y-107331009D02*
X122917731Y-107378628D01*
X122917731Y-107378628D02*
X122536779Y-107378628D01*
X123489160Y-106950057D02*
X123536779Y-106902438D01*
X123536779Y-106902438D02*
X123632017Y-106854819D01*
X123632017Y-106854819D02*
X123870112Y-106854819D01*
X123870112Y-106854819D02*
X123965350Y-106902438D01*
X123965350Y-106902438D02*
X124012969Y-106950057D01*
X124012969Y-106950057D02*
X124060588Y-107045295D01*
X124060588Y-107045295D02*
X124060588Y-107140533D01*
X124060588Y-107140533D02*
X124012969Y-107283390D01*
X124012969Y-107283390D02*
X123441541Y-107854819D01*
X123441541Y-107854819D02*
X124060588Y-107854819D01*
X124917731Y-107188152D02*
X124917731Y-107854819D01*
X124679636Y-106807200D02*
X124441541Y-107521485D01*
X124441541Y-107521485D02*
X125060588Y-107521485D01*
X170433333Y-127654819D02*
X170100000Y-127178628D01*
X169861905Y-127654819D02*
X169861905Y-126654819D01*
X169861905Y-126654819D02*
X170242857Y-126654819D01*
X170242857Y-126654819D02*
X170338095Y-126702438D01*
X170338095Y-126702438D02*
X170385714Y-126750057D01*
X170385714Y-126750057D02*
X170433333Y-126845295D01*
X170433333Y-126845295D02*
X170433333Y-126988152D01*
X170433333Y-126988152D02*
X170385714Y-127083390D01*
X170385714Y-127083390D02*
X170338095Y-127131009D01*
X170338095Y-127131009D02*
X170242857Y-127178628D01*
X170242857Y-127178628D02*
X169861905Y-127178628D01*
X170766667Y-126654819D02*
X171433333Y-126654819D01*
X171433333Y-126654819D02*
X171004762Y-127654819D01*
X149157142Y-131659580D02*
X149109523Y-131707200D01*
X149109523Y-131707200D02*
X148966666Y-131754819D01*
X148966666Y-131754819D02*
X148871428Y-131754819D01*
X148871428Y-131754819D02*
X148728571Y-131707200D01*
X148728571Y-131707200D02*
X148633333Y-131611961D01*
X148633333Y-131611961D02*
X148585714Y-131516723D01*
X148585714Y-131516723D02*
X148538095Y-131326247D01*
X148538095Y-131326247D02*
X148538095Y-131183390D01*
X148538095Y-131183390D02*
X148585714Y-130992914D01*
X148585714Y-130992914D02*
X148633333Y-130897676D01*
X148633333Y-130897676D02*
X148728571Y-130802438D01*
X148728571Y-130802438D02*
X148871428Y-130754819D01*
X148871428Y-130754819D02*
X148966666Y-130754819D01*
X148966666Y-130754819D02*
X149109523Y-130802438D01*
X149109523Y-130802438D02*
X149157142Y-130850057D01*
X150109523Y-131754819D02*
X149538095Y-131754819D01*
X149823809Y-131754819D02*
X149823809Y-130754819D01*
X149823809Y-130754819D02*
X149728571Y-130897676D01*
X149728571Y-130897676D02*
X149633333Y-130992914D01*
X149633333Y-130992914D02*
X149538095Y-131040533D01*
X150490476Y-130850057D02*
X150538095Y-130802438D01*
X150538095Y-130802438D02*
X150633333Y-130754819D01*
X150633333Y-130754819D02*
X150871428Y-130754819D01*
X150871428Y-130754819D02*
X150966666Y-130802438D01*
X150966666Y-130802438D02*
X151014285Y-130850057D01*
X151014285Y-130850057D02*
X151061904Y-130945295D01*
X151061904Y-130945295D02*
X151061904Y-131040533D01*
X151061904Y-131040533D02*
X151014285Y-131183390D01*
X151014285Y-131183390D02*
X150442857Y-131754819D01*
X150442857Y-131754819D02*
X151061904Y-131754819D01*
X136761905Y-132754819D02*
X136761905Y-131754819D01*
X136761905Y-131754819D02*
X137000000Y-131754819D01*
X137000000Y-131754819D02*
X137142857Y-131802438D01*
X137142857Y-131802438D02*
X137238095Y-131897676D01*
X137238095Y-131897676D02*
X137285714Y-131992914D01*
X137285714Y-131992914D02*
X137333333Y-132183390D01*
X137333333Y-132183390D02*
X137333333Y-132326247D01*
X137333333Y-132326247D02*
X137285714Y-132516723D01*
X137285714Y-132516723D02*
X137238095Y-132611961D01*
X137238095Y-132611961D02*
X137142857Y-132707200D01*
X137142857Y-132707200D02*
X137000000Y-132754819D01*
X137000000Y-132754819D02*
X136761905Y-132754819D01*
X138285714Y-132754819D02*
X137714286Y-132754819D01*
X138000000Y-132754819D02*
X138000000Y-131754819D01*
X138000000Y-131754819D02*
X137904762Y-131897676D01*
X137904762Y-131897676D02*
X137809524Y-131992914D01*
X137809524Y-131992914D02*
X137714286Y-132040533D01*
X124933333Y-113059580D02*
X124885714Y-113107200D01*
X124885714Y-113107200D02*
X124742857Y-113154819D01*
X124742857Y-113154819D02*
X124647619Y-113154819D01*
X124647619Y-113154819D02*
X124504762Y-113107200D01*
X124504762Y-113107200D02*
X124409524Y-113011961D01*
X124409524Y-113011961D02*
X124361905Y-112916723D01*
X124361905Y-112916723D02*
X124314286Y-112726247D01*
X124314286Y-112726247D02*
X124314286Y-112583390D01*
X124314286Y-112583390D02*
X124361905Y-112392914D01*
X124361905Y-112392914D02*
X124409524Y-112297676D01*
X124409524Y-112297676D02*
X124504762Y-112202438D01*
X124504762Y-112202438D02*
X124647619Y-112154819D01*
X124647619Y-112154819D02*
X124742857Y-112154819D01*
X124742857Y-112154819D02*
X124885714Y-112202438D01*
X124885714Y-112202438D02*
X124933333Y-112250057D01*
X125314286Y-112250057D02*
X125361905Y-112202438D01*
X125361905Y-112202438D02*
X125457143Y-112154819D01*
X125457143Y-112154819D02*
X125695238Y-112154819D01*
X125695238Y-112154819D02*
X125790476Y-112202438D01*
X125790476Y-112202438D02*
X125838095Y-112250057D01*
X125838095Y-112250057D02*
X125885714Y-112345295D01*
X125885714Y-112345295D02*
X125885714Y-112440533D01*
X125885714Y-112440533D02*
X125838095Y-112583390D01*
X125838095Y-112583390D02*
X125266667Y-113154819D01*
X125266667Y-113154819D02*
X125885714Y-113154819D01*
X181538095Y-108154819D02*
X181538095Y-108964342D01*
X181538095Y-108964342D02*
X181585714Y-109059580D01*
X181585714Y-109059580D02*
X181633333Y-109107200D01*
X181633333Y-109107200D02*
X181728571Y-109154819D01*
X181728571Y-109154819D02*
X181919047Y-109154819D01*
X181919047Y-109154819D02*
X182014285Y-109107200D01*
X182014285Y-109107200D02*
X182061904Y-109059580D01*
X182061904Y-109059580D02*
X182109523Y-108964342D01*
X182109523Y-108964342D02*
X182109523Y-108154819D01*
X182538095Y-108250057D02*
X182585714Y-108202438D01*
X182585714Y-108202438D02*
X182680952Y-108154819D01*
X182680952Y-108154819D02*
X182919047Y-108154819D01*
X182919047Y-108154819D02*
X183014285Y-108202438D01*
X183014285Y-108202438D02*
X183061904Y-108250057D01*
X183061904Y-108250057D02*
X183109523Y-108345295D01*
X183109523Y-108345295D02*
X183109523Y-108440533D01*
X183109523Y-108440533D02*
X183061904Y-108583390D01*
X183061904Y-108583390D02*
X182490476Y-109154819D01*
X182490476Y-109154819D02*
X183109523Y-109154819D01*
X183057142Y-120159580D02*
X183009523Y-120207200D01*
X183009523Y-120207200D02*
X182866666Y-120254819D01*
X182866666Y-120254819D02*
X182771428Y-120254819D01*
X182771428Y-120254819D02*
X182628571Y-120207200D01*
X182628571Y-120207200D02*
X182533333Y-120111961D01*
X182533333Y-120111961D02*
X182485714Y-120016723D01*
X182485714Y-120016723D02*
X182438095Y-119826247D01*
X182438095Y-119826247D02*
X182438095Y-119683390D01*
X182438095Y-119683390D02*
X182485714Y-119492914D01*
X182485714Y-119492914D02*
X182533333Y-119397676D01*
X182533333Y-119397676D02*
X182628571Y-119302438D01*
X182628571Y-119302438D02*
X182771428Y-119254819D01*
X182771428Y-119254819D02*
X182866666Y-119254819D01*
X182866666Y-119254819D02*
X183009523Y-119302438D01*
X183009523Y-119302438D02*
X183057142Y-119350057D01*
X183390476Y-119254819D02*
X184009523Y-119254819D01*
X184009523Y-119254819D02*
X183676190Y-119635771D01*
X183676190Y-119635771D02*
X183819047Y-119635771D01*
X183819047Y-119635771D02*
X183914285Y-119683390D01*
X183914285Y-119683390D02*
X183961904Y-119731009D01*
X183961904Y-119731009D02*
X184009523Y-119826247D01*
X184009523Y-119826247D02*
X184009523Y-120064342D01*
X184009523Y-120064342D02*
X183961904Y-120159580D01*
X183961904Y-120159580D02*
X183914285Y-120207200D01*
X183914285Y-120207200D02*
X183819047Y-120254819D01*
X183819047Y-120254819D02*
X183533333Y-120254819D01*
X183533333Y-120254819D02*
X183438095Y-120207200D01*
X183438095Y-120207200D02*
X183390476Y-120159580D01*
X184342857Y-119254819D02*
X184961904Y-119254819D01*
X184961904Y-119254819D02*
X184628571Y-119635771D01*
X184628571Y-119635771D02*
X184771428Y-119635771D01*
X184771428Y-119635771D02*
X184866666Y-119683390D01*
X184866666Y-119683390D02*
X184914285Y-119731009D01*
X184914285Y-119731009D02*
X184961904Y-119826247D01*
X184961904Y-119826247D02*
X184961904Y-120064342D01*
X184961904Y-120064342D02*
X184914285Y-120159580D01*
X184914285Y-120159580D02*
X184866666Y-120207200D01*
X184866666Y-120207200D02*
X184771428Y-120254819D01*
X184771428Y-120254819D02*
X184485714Y-120254819D01*
X184485714Y-120254819D02*
X184390476Y-120207200D01*
X184390476Y-120207200D02*
X184342857Y-120159580D01*
X126883332Y-106059580D02*
X126835713Y-106107200D01*
X126835713Y-106107200D02*
X126692856Y-106154819D01*
X126692856Y-106154819D02*
X126597618Y-106154819D01*
X126597618Y-106154819D02*
X126454761Y-106107200D01*
X126454761Y-106107200D02*
X126359523Y-106011961D01*
X126359523Y-106011961D02*
X126311904Y-105916723D01*
X126311904Y-105916723D02*
X126264285Y-105726247D01*
X126264285Y-105726247D02*
X126264285Y-105583390D01*
X126264285Y-105583390D02*
X126311904Y-105392914D01*
X126311904Y-105392914D02*
X126359523Y-105297676D01*
X126359523Y-105297676D02*
X126454761Y-105202438D01*
X126454761Y-105202438D02*
X126597618Y-105154819D01*
X126597618Y-105154819D02*
X126692856Y-105154819D01*
X126692856Y-105154819D02*
X126835713Y-105202438D01*
X126835713Y-105202438D02*
X126883332Y-105250057D01*
X127216666Y-105154819D02*
X127835713Y-105154819D01*
X127835713Y-105154819D02*
X127502380Y-105535771D01*
X127502380Y-105535771D02*
X127645237Y-105535771D01*
X127645237Y-105535771D02*
X127740475Y-105583390D01*
X127740475Y-105583390D02*
X127788094Y-105631009D01*
X127788094Y-105631009D02*
X127835713Y-105726247D01*
X127835713Y-105726247D02*
X127835713Y-105964342D01*
X127835713Y-105964342D02*
X127788094Y-106059580D01*
X127788094Y-106059580D02*
X127740475Y-106107200D01*
X127740475Y-106107200D02*
X127645237Y-106154819D01*
X127645237Y-106154819D02*
X127359523Y-106154819D01*
X127359523Y-106154819D02*
X127264285Y-106107200D01*
X127264285Y-106107200D02*
X127216666Y-106059580D01*
X117658458Y-114354819D02*
X117325125Y-113878628D01*
X117087030Y-114354819D02*
X117087030Y-113354819D01*
X117087030Y-113354819D02*
X117467982Y-113354819D01*
X117467982Y-113354819D02*
X117563220Y-113402438D01*
X117563220Y-113402438D02*
X117610839Y-113450057D01*
X117610839Y-113450057D02*
X117658458Y-113545295D01*
X117658458Y-113545295D02*
X117658458Y-113688152D01*
X117658458Y-113688152D02*
X117610839Y-113783390D01*
X117610839Y-113783390D02*
X117563220Y-113831009D01*
X117563220Y-113831009D02*
X117467982Y-113878628D01*
X117467982Y-113878628D02*
X117087030Y-113878628D01*
X118039411Y-113450057D02*
X118087030Y-113402438D01*
X118087030Y-113402438D02*
X118182268Y-113354819D01*
X118182268Y-113354819D02*
X118420363Y-113354819D01*
X118420363Y-113354819D02*
X118515601Y-113402438D01*
X118515601Y-113402438D02*
X118563220Y-113450057D01*
X118563220Y-113450057D02*
X118610839Y-113545295D01*
X118610839Y-113545295D02*
X118610839Y-113640533D01*
X118610839Y-113640533D02*
X118563220Y-113783390D01*
X118563220Y-113783390D02*
X117991792Y-114354819D01*
X117991792Y-114354819D02*
X118610839Y-114354819D01*
X165004761Y-136550057D02*
X164909523Y-136502438D01*
X164909523Y-136502438D02*
X164814285Y-136407200D01*
X164814285Y-136407200D02*
X164671428Y-136264342D01*
X164671428Y-136264342D02*
X164576190Y-136216723D01*
X164576190Y-136216723D02*
X164480952Y-136216723D01*
X164528571Y-136454819D02*
X164433333Y-136407200D01*
X164433333Y-136407200D02*
X164338095Y-136311961D01*
X164338095Y-136311961D02*
X164290476Y-136121485D01*
X164290476Y-136121485D02*
X164290476Y-135788152D01*
X164290476Y-135788152D02*
X164338095Y-135597676D01*
X164338095Y-135597676D02*
X164433333Y-135502438D01*
X164433333Y-135502438D02*
X164528571Y-135454819D01*
X164528571Y-135454819D02*
X164719047Y-135454819D01*
X164719047Y-135454819D02*
X164814285Y-135502438D01*
X164814285Y-135502438D02*
X164909523Y-135597676D01*
X164909523Y-135597676D02*
X164957142Y-135788152D01*
X164957142Y-135788152D02*
X164957142Y-136121485D01*
X164957142Y-136121485D02*
X164909523Y-136311961D01*
X164909523Y-136311961D02*
X164814285Y-136407200D01*
X164814285Y-136407200D02*
X164719047Y-136454819D01*
X164719047Y-136454819D02*
X164528571Y-136454819D01*
X165290476Y-135454819D02*
X165909523Y-135454819D01*
X165909523Y-135454819D02*
X165576190Y-135835771D01*
X165576190Y-135835771D02*
X165719047Y-135835771D01*
X165719047Y-135835771D02*
X165814285Y-135883390D01*
X165814285Y-135883390D02*
X165861904Y-135931009D01*
X165861904Y-135931009D02*
X165909523Y-136026247D01*
X165909523Y-136026247D02*
X165909523Y-136264342D01*
X165909523Y-136264342D02*
X165861904Y-136359580D01*
X165861904Y-136359580D02*
X165814285Y-136407200D01*
X165814285Y-136407200D02*
X165719047Y-136454819D01*
X165719047Y-136454819D02*
X165433333Y-136454819D01*
X165433333Y-136454819D02*
X165338095Y-136407200D01*
X165338095Y-136407200D02*
X165290476Y-136359580D01*
X166357141Y-133459580D02*
X166309522Y-133507200D01*
X166309522Y-133507200D02*
X166166665Y-133554819D01*
X166166665Y-133554819D02*
X166071427Y-133554819D01*
X166071427Y-133554819D02*
X165928570Y-133507200D01*
X165928570Y-133507200D02*
X165833332Y-133411961D01*
X165833332Y-133411961D02*
X165785713Y-133316723D01*
X165785713Y-133316723D02*
X165738094Y-133126247D01*
X165738094Y-133126247D02*
X165738094Y-132983390D01*
X165738094Y-132983390D02*
X165785713Y-132792914D01*
X165785713Y-132792914D02*
X165833332Y-132697676D01*
X165833332Y-132697676D02*
X165928570Y-132602438D01*
X165928570Y-132602438D02*
X166071427Y-132554819D01*
X166071427Y-132554819D02*
X166166665Y-132554819D01*
X166166665Y-132554819D02*
X166309522Y-132602438D01*
X166309522Y-132602438D02*
X166357141Y-132650057D01*
X167309522Y-133554819D02*
X166738094Y-133554819D01*
X167023808Y-133554819D02*
X167023808Y-132554819D01*
X167023808Y-132554819D02*
X166928570Y-132697676D01*
X166928570Y-132697676D02*
X166833332Y-132792914D01*
X166833332Y-132792914D02*
X166738094Y-132840533D01*
X168166665Y-132554819D02*
X167976189Y-132554819D01*
X167976189Y-132554819D02*
X167880951Y-132602438D01*
X167880951Y-132602438D02*
X167833332Y-132650057D01*
X167833332Y-132650057D02*
X167738094Y-132792914D01*
X167738094Y-132792914D02*
X167690475Y-132983390D01*
X167690475Y-132983390D02*
X167690475Y-133364342D01*
X167690475Y-133364342D02*
X167738094Y-133459580D01*
X167738094Y-133459580D02*
X167785713Y-133507200D01*
X167785713Y-133507200D02*
X167880951Y-133554819D01*
X167880951Y-133554819D02*
X168071427Y-133554819D01*
X168071427Y-133554819D02*
X168166665Y-133507200D01*
X168166665Y-133507200D02*
X168214284Y-133459580D01*
X168214284Y-133459580D02*
X168261903Y-133364342D01*
X168261903Y-133364342D02*
X168261903Y-133126247D01*
X168261903Y-133126247D02*
X168214284Y-133031009D01*
X168214284Y-133031009D02*
X168166665Y-132983390D01*
X168166665Y-132983390D02*
X168071427Y-132935771D01*
X168071427Y-132935771D02*
X167880951Y-132935771D01*
X167880951Y-132935771D02*
X167785713Y-132983390D01*
X167785713Y-132983390D02*
X167738094Y-133031009D01*
X167738094Y-133031009D02*
X167690475Y-133126247D01*
X137808207Y-119054819D02*
X137474874Y-118578628D01*
X137236779Y-119054819D02*
X137236779Y-118054819D01*
X137236779Y-118054819D02*
X137617731Y-118054819D01*
X137617731Y-118054819D02*
X137712969Y-118102438D01*
X137712969Y-118102438D02*
X137760588Y-118150057D01*
X137760588Y-118150057D02*
X137808207Y-118245295D01*
X137808207Y-118245295D02*
X137808207Y-118388152D01*
X137808207Y-118388152D02*
X137760588Y-118483390D01*
X137760588Y-118483390D02*
X137712969Y-118531009D01*
X137712969Y-118531009D02*
X137617731Y-118578628D01*
X137617731Y-118578628D02*
X137236779Y-118578628D01*
X138189160Y-118150057D02*
X138236779Y-118102438D01*
X138236779Y-118102438D02*
X138332017Y-118054819D01*
X138332017Y-118054819D02*
X138570112Y-118054819D01*
X138570112Y-118054819D02*
X138665350Y-118102438D01*
X138665350Y-118102438D02*
X138712969Y-118150057D01*
X138712969Y-118150057D02*
X138760588Y-118245295D01*
X138760588Y-118245295D02*
X138760588Y-118340533D01*
X138760588Y-118340533D02*
X138712969Y-118483390D01*
X138712969Y-118483390D02*
X138141541Y-119054819D01*
X138141541Y-119054819D02*
X138760588Y-119054819D01*
X139665350Y-118054819D02*
X139189160Y-118054819D01*
X139189160Y-118054819D02*
X139141541Y-118531009D01*
X139141541Y-118531009D02*
X139189160Y-118483390D01*
X139189160Y-118483390D02*
X139284398Y-118435771D01*
X139284398Y-118435771D02*
X139522493Y-118435771D01*
X139522493Y-118435771D02*
X139617731Y-118483390D01*
X139617731Y-118483390D02*
X139665350Y-118531009D01*
X139665350Y-118531009D02*
X139712969Y-118626247D01*
X139712969Y-118626247D02*
X139712969Y-118864342D01*
X139712969Y-118864342D02*
X139665350Y-118959580D01*
X139665350Y-118959580D02*
X139617731Y-119007200D01*
X139617731Y-119007200D02*
X139522493Y-119054819D01*
X139522493Y-119054819D02*
X139284398Y-119054819D01*
X139284398Y-119054819D02*
X139189160Y-119007200D01*
X139189160Y-119007200D02*
X139141541Y-118959580D01*
X144257142Y-139859580D02*
X144209523Y-139907200D01*
X144209523Y-139907200D02*
X144066666Y-139954819D01*
X144066666Y-139954819D02*
X143971428Y-139954819D01*
X143971428Y-139954819D02*
X143828571Y-139907200D01*
X143828571Y-139907200D02*
X143733333Y-139811961D01*
X143733333Y-139811961D02*
X143685714Y-139716723D01*
X143685714Y-139716723D02*
X143638095Y-139526247D01*
X143638095Y-139526247D02*
X143638095Y-139383390D01*
X143638095Y-139383390D02*
X143685714Y-139192914D01*
X143685714Y-139192914D02*
X143733333Y-139097676D01*
X143733333Y-139097676D02*
X143828571Y-139002438D01*
X143828571Y-139002438D02*
X143971428Y-138954819D01*
X143971428Y-138954819D02*
X144066666Y-138954819D01*
X144066666Y-138954819D02*
X144209523Y-139002438D01*
X144209523Y-139002438D02*
X144257142Y-139050057D01*
X144638095Y-139050057D02*
X144685714Y-139002438D01*
X144685714Y-139002438D02*
X144780952Y-138954819D01*
X144780952Y-138954819D02*
X145019047Y-138954819D01*
X145019047Y-138954819D02*
X145114285Y-139002438D01*
X145114285Y-139002438D02*
X145161904Y-139050057D01*
X145161904Y-139050057D02*
X145209523Y-139145295D01*
X145209523Y-139145295D02*
X145209523Y-139240533D01*
X145209523Y-139240533D02*
X145161904Y-139383390D01*
X145161904Y-139383390D02*
X144590476Y-139954819D01*
X144590476Y-139954819D02*
X145209523Y-139954819D01*
X146066666Y-138954819D02*
X145876190Y-138954819D01*
X145876190Y-138954819D02*
X145780952Y-139002438D01*
X145780952Y-139002438D02*
X145733333Y-139050057D01*
X145733333Y-139050057D02*
X145638095Y-139192914D01*
X145638095Y-139192914D02*
X145590476Y-139383390D01*
X145590476Y-139383390D02*
X145590476Y-139764342D01*
X145590476Y-139764342D02*
X145638095Y-139859580D01*
X145638095Y-139859580D02*
X145685714Y-139907200D01*
X145685714Y-139907200D02*
X145780952Y-139954819D01*
X145780952Y-139954819D02*
X145971428Y-139954819D01*
X145971428Y-139954819D02*
X146066666Y-139907200D01*
X146066666Y-139907200D02*
X146114285Y-139859580D01*
X146114285Y-139859580D02*
X146161904Y-139764342D01*
X146161904Y-139764342D02*
X146161904Y-139526247D01*
X146161904Y-139526247D02*
X146114285Y-139431009D01*
X146114285Y-139431009D02*
X146066666Y-139383390D01*
X146066666Y-139383390D02*
X145971428Y-139335771D01*
X145971428Y-139335771D02*
X145780952Y-139335771D01*
X145780952Y-139335771D02*
X145685714Y-139383390D01*
X145685714Y-139383390D02*
X145638095Y-139431009D01*
X145638095Y-139431009D02*
X145590476Y-139526247D01*
X133333333Y-117859580D02*
X133285714Y-117907200D01*
X133285714Y-117907200D02*
X133142857Y-117954819D01*
X133142857Y-117954819D02*
X133047619Y-117954819D01*
X133047619Y-117954819D02*
X132904762Y-117907200D01*
X132904762Y-117907200D02*
X132809524Y-117811961D01*
X132809524Y-117811961D02*
X132761905Y-117716723D01*
X132761905Y-117716723D02*
X132714286Y-117526247D01*
X132714286Y-117526247D02*
X132714286Y-117383390D01*
X132714286Y-117383390D02*
X132761905Y-117192914D01*
X132761905Y-117192914D02*
X132809524Y-117097676D01*
X132809524Y-117097676D02*
X132904762Y-117002438D01*
X132904762Y-117002438D02*
X133047619Y-116954819D01*
X133047619Y-116954819D02*
X133142857Y-116954819D01*
X133142857Y-116954819D02*
X133285714Y-117002438D01*
X133285714Y-117002438D02*
X133333333Y-117050057D01*
X133904762Y-117383390D02*
X133809524Y-117335771D01*
X133809524Y-117335771D02*
X133761905Y-117288152D01*
X133761905Y-117288152D02*
X133714286Y-117192914D01*
X133714286Y-117192914D02*
X133714286Y-117145295D01*
X133714286Y-117145295D02*
X133761905Y-117050057D01*
X133761905Y-117050057D02*
X133809524Y-117002438D01*
X133809524Y-117002438D02*
X133904762Y-116954819D01*
X133904762Y-116954819D02*
X134095238Y-116954819D01*
X134095238Y-116954819D02*
X134190476Y-117002438D01*
X134190476Y-117002438D02*
X134238095Y-117050057D01*
X134238095Y-117050057D02*
X134285714Y-117145295D01*
X134285714Y-117145295D02*
X134285714Y-117192914D01*
X134285714Y-117192914D02*
X134238095Y-117288152D01*
X134238095Y-117288152D02*
X134190476Y-117335771D01*
X134190476Y-117335771D02*
X134095238Y-117383390D01*
X134095238Y-117383390D02*
X133904762Y-117383390D01*
X133904762Y-117383390D02*
X133809524Y-117431009D01*
X133809524Y-117431009D02*
X133761905Y-117478628D01*
X133761905Y-117478628D02*
X133714286Y-117573866D01*
X133714286Y-117573866D02*
X133714286Y-117764342D01*
X133714286Y-117764342D02*
X133761905Y-117859580D01*
X133761905Y-117859580D02*
X133809524Y-117907200D01*
X133809524Y-117907200D02*
X133904762Y-117954819D01*
X133904762Y-117954819D02*
X134095238Y-117954819D01*
X134095238Y-117954819D02*
X134190476Y-117907200D01*
X134190476Y-117907200D02*
X134238095Y-117859580D01*
X134238095Y-117859580D02*
X134285714Y-117764342D01*
X134285714Y-117764342D02*
X134285714Y-117573866D01*
X134285714Y-117573866D02*
X134238095Y-117478628D01*
X134238095Y-117478628D02*
X134190476Y-117431009D01*
X134190476Y-117431009D02*
X134095238Y-117383390D01*
X180857142Y-122459580D02*
X180809523Y-122507200D01*
X180809523Y-122507200D02*
X180666666Y-122554819D01*
X180666666Y-122554819D02*
X180571428Y-122554819D01*
X180571428Y-122554819D02*
X180428571Y-122507200D01*
X180428571Y-122507200D02*
X180333333Y-122411961D01*
X180333333Y-122411961D02*
X180285714Y-122316723D01*
X180285714Y-122316723D02*
X180238095Y-122126247D01*
X180238095Y-122126247D02*
X180238095Y-121983390D01*
X180238095Y-121983390D02*
X180285714Y-121792914D01*
X180285714Y-121792914D02*
X180333333Y-121697676D01*
X180333333Y-121697676D02*
X180428571Y-121602438D01*
X180428571Y-121602438D02*
X180571428Y-121554819D01*
X180571428Y-121554819D02*
X180666666Y-121554819D01*
X180666666Y-121554819D02*
X180809523Y-121602438D01*
X180809523Y-121602438D02*
X180857142Y-121650057D01*
X181190476Y-121554819D02*
X181809523Y-121554819D01*
X181809523Y-121554819D02*
X181476190Y-121935771D01*
X181476190Y-121935771D02*
X181619047Y-121935771D01*
X181619047Y-121935771D02*
X181714285Y-121983390D01*
X181714285Y-121983390D02*
X181761904Y-122031009D01*
X181761904Y-122031009D02*
X181809523Y-122126247D01*
X181809523Y-122126247D02*
X181809523Y-122364342D01*
X181809523Y-122364342D02*
X181761904Y-122459580D01*
X181761904Y-122459580D02*
X181714285Y-122507200D01*
X181714285Y-122507200D02*
X181619047Y-122554819D01*
X181619047Y-122554819D02*
X181333333Y-122554819D01*
X181333333Y-122554819D02*
X181238095Y-122507200D01*
X181238095Y-122507200D02*
X181190476Y-122459580D01*
X182714285Y-121554819D02*
X182238095Y-121554819D01*
X182238095Y-121554819D02*
X182190476Y-122031009D01*
X182190476Y-122031009D02*
X182238095Y-121983390D01*
X182238095Y-121983390D02*
X182333333Y-121935771D01*
X182333333Y-121935771D02*
X182571428Y-121935771D01*
X182571428Y-121935771D02*
X182666666Y-121983390D01*
X182666666Y-121983390D02*
X182714285Y-122031009D01*
X182714285Y-122031009D02*
X182761904Y-122126247D01*
X182761904Y-122126247D02*
X182761904Y-122364342D01*
X182761904Y-122364342D02*
X182714285Y-122459580D01*
X182714285Y-122459580D02*
X182666666Y-122507200D01*
X182666666Y-122507200D02*
X182571428Y-122554819D01*
X182571428Y-122554819D02*
X182333333Y-122554819D01*
X182333333Y-122554819D02*
X182238095Y-122507200D01*
X182238095Y-122507200D02*
X182190476Y-122459580D01*
X175257142Y-120759580D02*
X175209523Y-120807200D01*
X175209523Y-120807200D02*
X175066666Y-120854819D01*
X175066666Y-120854819D02*
X174971428Y-120854819D01*
X174971428Y-120854819D02*
X174828571Y-120807200D01*
X174828571Y-120807200D02*
X174733333Y-120711961D01*
X174733333Y-120711961D02*
X174685714Y-120616723D01*
X174685714Y-120616723D02*
X174638095Y-120426247D01*
X174638095Y-120426247D02*
X174638095Y-120283390D01*
X174638095Y-120283390D02*
X174685714Y-120092914D01*
X174685714Y-120092914D02*
X174733333Y-119997676D01*
X174733333Y-119997676D02*
X174828571Y-119902438D01*
X174828571Y-119902438D02*
X174971428Y-119854819D01*
X174971428Y-119854819D02*
X175066666Y-119854819D01*
X175066666Y-119854819D02*
X175209523Y-119902438D01*
X175209523Y-119902438D02*
X175257142Y-119950057D01*
X175590476Y-119854819D02*
X176209523Y-119854819D01*
X176209523Y-119854819D02*
X175876190Y-120235771D01*
X175876190Y-120235771D02*
X176019047Y-120235771D01*
X176019047Y-120235771D02*
X176114285Y-120283390D01*
X176114285Y-120283390D02*
X176161904Y-120331009D01*
X176161904Y-120331009D02*
X176209523Y-120426247D01*
X176209523Y-120426247D02*
X176209523Y-120664342D01*
X176209523Y-120664342D02*
X176161904Y-120759580D01*
X176161904Y-120759580D02*
X176114285Y-120807200D01*
X176114285Y-120807200D02*
X176019047Y-120854819D01*
X176019047Y-120854819D02*
X175733333Y-120854819D01*
X175733333Y-120854819D02*
X175638095Y-120807200D01*
X175638095Y-120807200D02*
X175590476Y-120759580D01*
X176590476Y-119950057D02*
X176638095Y-119902438D01*
X176638095Y-119902438D02*
X176733333Y-119854819D01*
X176733333Y-119854819D02*
X176971428Y-119854819D01*
X176971428Y-119854819D02*
X177066666Y-119902438D01*
X177066666Y-119902438D02*
X177114285Y-119950057D01*
X177114285Y-119950057D02*
X177161904Y-120045295D01*
X177161904Y-120045295D02*
X177161904Y-120140533D01*
X177161904Y-120140533D02*
X177114285Y-120283390D01*
X177114285Y-120283390D02*
X176542857Y-120854819D01*
X176542857Y-120854819D02*
X177161904Y-120854819D01*
X167233334Y-117854819D02*
X166900001Y-117378628D01*
X166661906Y-117854819D02*
X166661906Y-116854819D01*
X166661906Y-116854819D02*
X167042858Y-116854819D01*
X167042858Y-116854819D02*
X167138096Y-116902438D01*
X167138096Y-116902438D02*
X167185715Y-116950057D01*
X167185715Y-116950057D02*
X167233334Y-117045295D01*
X167233334Y-117045295D02*
X167233334Y-117188152D01*
X167233334Y-117188152D02*
X167185715Y-117283390D01*
X167185715Y-117283390D02*
X167138096Y-117331009D01*
X167138096Y-117331009D02*
X167042858Y-117378628D01*
X167042858Y-117378628D02*
X166661906Y-117378628D01*
X167804763Y-117283390D02*
X167709525Y-117235771D01*
X167709525Y-117235771D02*
X167661906Y-117188152D01*
X167661906Y-117188152D02*
X167614287Y-117092914D01*
X167614287Y-117092914D02*
X167614287Y-117045295D01*
X167614287Y-117045295D02*
X167661906Y-116950057D01*
X167661906Y-116950057D02*
X167709525Y-116902438D01*
X167709525Y-116902438D02*
X167804763Y-116854819D01*
X167804763Y-116854819D02*
X167995239Y-116854819D01*
X167995239Y-116854819D02*
X168090477Y-116902438D01*
X168090477Y-116902438D02*
X168138096Y-116950057D01*
X168138096Y-116950057D02*
X168185715Y-117045295D01*
X168185715Y-117045295D02*
X168185715Y-117092914D01*
X168185715Y-117092914D02*
X168138096Y-117188152D01*
X168138096Y-117188152D02*
X168090477Y-117235771D01*
X168090477Y-117235771D02*
X167995239Y-117283390D01*
X167995239Y-117283390D02*
X167804763Y-117283390D01*
X167804763Y-117283390D02*
X167709525Y-117331009D01*
X167709525Y-117331009D02*
X167661906Y-117378628D01*
X167661906Y-117378628D02*
X167614287Y-117473866D01*
X167614287Y-117473866D02*
X167614287Y-117664342D01*
X167614287Y-117664342D02*
X167661906Y-117759580D01*
X167661906Y-117759580D02*
X167709525Y-117807200D01*
X167709525Y-117807200D02*
X167804763Y-117854819D01*
X167804763Y-117854819D02*
X167995239Y-117854819D01*
X167995239Y-117854819D02*
X168090477Y-117807200D01*
X168090477Y-117807200D02*
X168138096Y-117759580D01*
X168138096Y-117759580D02*
X168185715Y-117664342D01*
X168185715Y-117664342D02*
X168185715Y-117473866D01*
X168185715Y-117473866D02*
X168138096Y-117378628D01*
X168138096Y-117378628D02*
X168090477Y-117331009D01*
X168090477Y-117331009D02*
X167995239Y-117283390D01*
X151707142Y-83009580D02*
X151659523Y-83057200D01*
X151659523Y-83057200D02*
X151516666Y-83104819D01*
X151516666Y-83104819D02*
X151421428Y-83104819D01*
X151421428Y-83104819D02*
X151278571Y-83057200D01*
X151278571Y-83057200D02*
X151183333Y-82961961D01*
X151183333Y-82961961D02*
X151135714Y-82866723D01*
X151135714Y-82866723D02*
X151088095Y-82676247D01*
X151088095Y-82676247D02*
X151088095Y-82533390D01*
X151088095Y-82533390D02*
X151135714Y-82342914D01*
X151135714Y-82342914D02*
X151183333Y-82247676D01*
X151183333Y-82247676D02*
X151278571Y-82152438D01*
X151278571Y-82152438D02*
X151421428Y-82104819D01*
X151421428Y-82104819D02*
X151516666Y-82104819D01*
X151516666Y-82104819D02*
X151659523Y-82152438D01*
X151659523Y-82152438D02*
X151707142Y-82200057D01*
X152088095Y-82200057D02*
X152135714Y-82152438D01*
X152135714Y-82152438D02*
X152230952Y-82104819D01*
X152230952Y-82104819D02*
X152469047Y-82104819D01*
X152469047Y-82104819D02*
X152564285Y-82152438D01*
X152564285Y-82152438D02*
X152611904Y-82200057D01*
X152611904Y-82200057D02*
X152659523Y-82295295D01*
X152659523Y-82295295D02*
X152659523Y-82390533D01*
X152659523Y-82390533D02*
X152611904Y-82533390D01*
X152611904Y-82533390D02*
X152040476Y-83104819D01*
X152040476Y-83104819D02*
X152659523Y-83104819D01*
X153230952Y-82533390D02*
X153135714Y-82485771D01*
X153135714Y-82485771D02*
X153088095Y-82438152D01*
X153088095Y-82438152D02*
X153040476Y-82342914D01*
X153040476Y-82342914D02*
X153040476Y-82295295D01*
X153040476Y-82295295D02*
X153088095Y-82200057D01*
X153088095Y-82200057D02*
X153135714Y-82152438D01*
X153135714Y-82152438D02*
X153230952Y-82104819D01*
X153230952Y-82104819D02*
X153421428Y-82104819D01*
X153421428Y-82104819D02*
X153516666Y-82152438D01*
X153516666Y-82152438D02*
X153564285Y-82200057D01*
X153564285Y-82200057D02*
X153611904Y-82295295D01*
X153611904Y-82295295D02*
X153611904Y-82342914D01*
X153611904Y-82342914D02*
X153564285Y-82438152D01*
X153564285Y-82438152D02*
X153516666Y-82485771D01*
X153516666Y-82485771D02*
X153421428Y-82533390D01*
X153421428Y-82533390D02*
X153230952Y-82533390D01*
X153230952Y-82533390D02*
X153135714Y-82581009D01*
X153135714Y-82581009D02*
X153088095Y-82628628D01*
X153088095Y-82628628D02*
X153040476Y-82723866D01*
X153040476Y-82723866D02*
X153040476Y-82914342D01*
X153040476Y-82914342D02*
X153088095Y-83009580D01*
X153088095Y-83009580D02*
X153135714Y-83057200D01*
X153135714Y-83057200D02*
X153230952Y-83104819D01*
X153230952Y-83104819D02*
X153421428Y-83104819D01*
X153421428Y-83104819D02*
X153516666Y-83057200D01*
X153516666Y-83057200D02*
X153564285Y-83009580D01*
X153564285Y-83009580D02*
X153611904Y-82914342D01*
X153611904Y-82914342D02*
X153611904Y-82723866D01*
X153611904Y-82723866D02*
X153564285Y-82628628D01*
X153564285Y-82628628D02*
X153516666Y-82581009D01*
X153516666Y-82581009D02*
X153421428Y-82533390D01*
X123007142Y-126059580D02*
X122959523Y-126107200D01*
X122959523Y-126107200D02*
X122816666Y-126154819D01*
X122816666Y-126154819D02*
X122721428Y-126154819D01*
X122721428Y-126154819D02*
X122578571Y-126107200D01*
X122578571Y-126107200D02*
X122483333Y-126011961D01*
X122483333Y-126011961D02*
X122435714Y-125916723D01*
X122435714Y-125916723D02*
X122388095Y-125726247D01*
X122388095Y-125726247D02*
X122388095Y-125583390D01*
X122388095Y-125583390D02*
X122435714Y-125392914D01*
X122435714Y-125392914D02*
X122483333Y-125297676D01*
X122483333Y-125297676D02*
X122578571Y-125202438D01*
X122578571Y-125202438D02*
X122721428Y-125154819D01*
X122721428Y-125154819D02*
X122816666Y-125154819D01*
X122816666Y-125154819D02*
X122959523Y-125202438D01*
X122959523Y-125202438D02*
X123007142Y-125250057D01*
X123959523Y-126154819D02*
X123388095Y-126154819D01*
X123673809Y-126154819D02*
X123673809Y-125154819D01*
X123673809Y-125154819D02*
X123578571Y-125297676D01*
X123578571Y-125297676D02*
X123483333Y-125392914D01*
X123483333Y-125392914D02*
X123388095Y-125440533D01*
X124578571Y-125154819D02*
X124673809Y-125154819D01*
X124673809Y-125154819D02*
X124769047Y-125202438D01*
X124769047Y-125202438D02*
X124816666Y-125250057D01*
X124816666Y-125250057D02*
X124864285Y-125345295D01*
X124864285Y-125345295D02*
X124911904Y-125535771D01*
X124911904Y-125535771D02*
X124911904Y-125773866D01*
X124911904Y-125773866D02*
X124864285Y-125964342D01*
X124864285Y-125964342D02*
X124816666Y-126059580D01*
X124816666Y-126059580D02*
X124769047Y-126107200D01*
X124769047Y-126107200D02*
X124673809Y-126154819D01*
X124673809Y-126154819D02*
X124578571Y-126154819D01*
X124578571Y-126154819D02*
X124483333Y-126107200D01*
X124483333Y-126107200D02*
X124435714Y-126059580D01*
X124435714Y-126059580D02*
X124388095Y-125964342D01*
X124388095Y-125964342D02*
X124340476Y-125773866D01*
X124340476Y-125773866D02*
X124340476Y-125535771D01*
X124340476Y-125535771D02*
X124388095Y-125345295D01*
X124388095Y-125345295D02*
X124435714Y-125250057D01*
X124435714Y-125250057D02*
X124483333Y-125202438D01*
X124483333Y-125202438D02*
X124578571Y-125154819D01*
X152666667Y-131407200D02*
X152809524Y-131454819D01*
X152809524Y-131454819D02*
X153047619Y-131454819D01*
X153047619Y-131454819D02*
X153142857Y-131407200D01*
X153142857Y-131407200D02*
X153190476Y-131359580D01*
X153190476Y-131359580D02*
X153238095Y-131264342D01*
X153238095Y-131264342D02*
X153238095Y-131169104D01*
X153238095Y-131169104D02*
X153190476Y-131073866D01*
X153190476Y-131073866D02*
X153142857Y-131026247D01*
X153142857Y-131026247D02*
X153047619Y-130978628D01*
X153047619Y-130978628D02*
X152857143Y-130931009D01*
X152857143Y-130931009D02*
X152761905Y-130883390D01*
X152761905Y-130883390D02*
X152714286Y-130835771D01*
X152714286Y-130835771D02*
X152666667Y-130740533D01*
X152666667Y-130740533D02*
X152666667Y-130645295D01*
X152666667Y-130645295D02*
X152714286Y-130550057D01*
X152714286Y-130550057D02*
X152761905Y-130502438D01*
X152761905Y-130502438D02*
X152857143Y-130454819D01*
X152857143Y-130454819D02*
X153095238Y-130454819D01*
X153095238Y-130454819D02*
X153238095Y-130502438D01*
X153571429Y-130454819D02*
X153809524Y-131454819D01*
X153809524Y-131454819D02*
X154000000Y-130740533D01*
X154000000Y-130740533D02*
X154190476Y-131454819D01*
X154190476Y-131454819D02*
X154428572Y-130454819D01*
X154761905Y-130550057D02*
X154809524Y-130502438D01*
X154809524Y-130502438D02*
X154904762Y-130454819D01*
X154904762Y-130454819D02*
X155142857Y-130454819D01*
X155142857Y-130454819D02*
X155238095Y-130502438D01*
X155238095Y-130502438D02*
X155285714Y-130550057D01*
X155285714Y-130550057D02*
X155333333Y-130645295D01*
X155333333Y-130645295D02*
X155333333Y-130740533D01*
X155333333Y-130740533D02*
X155285714Y-130883390D01*
X155285714Y-130883390D02*
X154714286Y-131454819D01*
X154714286Y-131454819D02*
X155333333Y-131454819D01*
X176057142Y-131559580D02*
X176009523Y-131607200D01*
X176009523Y-131607200D02*
X175866666Y-131654819D01*
X175866666Y-131654819D02*
X175771428Y-131654819D01*
X175771428Y-131654819D02*
X175628571Y-131607200D01*
X175628571Y-131607200D02*
X175533333Y-131511961D01*
X175533333Y-131511961D02*
X175485714Y-131416723D01*
X175485714Y-131416723D02*
X175438095Y-131226247D01*
X175438095Y-131226247D02*
X175438095Y-131083390D01*
X175438095Y-131083390D02*
X175485714Y-130892914D01*
X175485714Y-130892914D02*
X175533333Y-130797676D01*
X175533333Y-130797676D02*
X175628571Y-130702438D01*
X175628571Y-130702438D02*
X175771428Y-130654819D01*
X175771428Y-130654819D02*
X175866666Y-130654819D01*
X175866666Y-130654819D02*
X176009523Y-130702438D01*
X176009523Y-130702438D02*
X176057142Y-130750057D01*
X177009523Y-131654819D02*
X176438095Y-131654819D01*
X176723809Y-131654819D02*
X176723809Y-130654819D01*
X176723809Y-130654819D02*
X176628571Y-130797676D01*
X176628571Y-130797676D02*
X176533333Y-130892914D01*
X176533333Y-130892914D02*
X176438095Y-130940533D01*
X177866666Y-130988152D02*
X177866666Y-131654819D01*
X177628571Y-130607200D02*
X177390476Y-131321485D01*
X177390476Y-131321485D02*
X178009523Y-131321485D01*
X165808207Y-140254819D02*
X165474874Y-139778628D01*
X165236779Y-140254819D02*
X165236779Y-139254819D01*
X165236779Y-139254819D02*
X165617731Y-139254819D01*
X165617731Y-139254819D02*
X165712969Y-139302438D01*
X165712969Y-139302438D02*
X165760588Y-139350057D01*
X165760588Y-139350057D02*
X165808207Y-139445295D01*
X165808207Y-139445295D02*
X165808207Y-139588152D01*
X165808207Y-139588152D02*
X165760588Y-139683390D01*
X165760588Y-139683390D02*
X165712969Y-139731009D01*
X165712969Y-139731009D02*
X165617731Y-139778628D01*
X165617731Y-139778628D02*
X165236779Y-139778628D01*
X166760588Y-140254819D02*
X166189160Y-140254819D01*
X166474874Y-140254819D02*
X166474874Y-139254819D01*
X166474874Y-139254819D02*
X166379636Y-139397676D01*
X166379636Y-139397676D02*
X166284398Y-139492914D01*
X166284398Y-139492914D02*
X166189160Y-139540533D01*
X167093922Y-139254819D02*
X167712969Y-139254819D01*
X167712969Y-139254819D02*
X167379636Y-139635771D01*
X167379636Y-139635771D02*
X167522493Y-139635771D01*
X167522493Y-139635771D02*
X167617731Y-139683390D01*
X167617731Y-139683390D02*
X167665350Y-139731009D01*
X167665350Y-139731009D02*
X167712969Y-139826247D01*
X167712969Y-139826247D02*
X167712969Y-140064342D01*
X167712969Y-140064342D02*
X167665350Y-140159580D01*
X167665350Y-140159580D02*
X167617731Y-140207200D01*
X167617731Y-140207200D02*
X167522493Y-140254819D01*
X167522493Y-140254819D02*
X167236779Y-140254819D01*
X167236779Y-140254819D02*
X167141541Y-140207200D01*
X167141541Y-140207200D02*
X167093922Y-140159580D01*
X171233333Y-126154819D02*
X170900000Y-125678628D01*
X170661905Y-126154819D02*
X170661905Y-125154819D01*
X170661905Y-125154819D02*
X171042857Y-125154819D01*
X171042857Y-125154819D02*
X171138095Y-125202438D01*
X171138095Y-125202438D02*
X171185714Y-125250057D01*
X171185714Y-125250057D02*
X171233333Y-125345295D01*
X171233333Y-125345295D02*
X171233333Y-125488152D01*
X171233333Y-125488152D02*
X171185714Y-125583390D01*
X171185714Y-125583390D02*
X171138095Y-125631009D01*
X171138095Y-125631009D02*
X171042857Y-125678628D01*
X171042857Y-125678628D02*
X170661905Y-125678628D01*
X172090476Y-125154819D02*
X171900000Y-125154819D01*
X171900000Y-125154819D02*
X171804762Y-125202438D01*
X171804762Y-125202438D02*
X171757143Y-125250057D01*
X171757143Y-125250057D02*
X171661905Y-125392914D01*
X171661905Y-125392914D02*
X171614286Y-125583390D01*
X171614286Y-125583390D02*
X171614286Y-125964342D01*
X171614286Y-125964342D02*
X171661905Y-126059580D01*
X171661905Y-126059580D02*
X171709524Y-126107200D01*
X171709524Y-126107200D02*
X171804762Y-126154819D01*
X171804762Y-126154819D02*
X171995238Y-126154819D01*
X171995238Y-126154819D02*
X172090476Y-126107200D01*
X172090476Y-126107200D02*
X172138095Y-126059580D01*
X172138095Y-126059580D02*
X172185714Y-125964342D01*
X172185714Y-125964342D02*
X172185714Y-125726247D01*
X172185714Y-125726247D02*
X172138095Y-125631009D01*
X172138095Y-125631009D02*
X172090476Y-125583390D01*
X172090476Y-125583390D02*
X171995238Y-125535771D01*
X171995238Y-125535771D02*
X171804762Y-125535771D01*
X171804762Y-125535771D02*
X171709524Y-125583390D01*
X171709524Y-125583390D02*
X171661905Y-125631009D01*
X171661905Y-125631009D02*
X171614286Y-125726247D01*
X134766666Y-116131009D02*
X134433333Y-116131009D01*
X134433333Y-116654819D02*
X134433333Y-115654819D01*
X134433333Y-115654819D02*
X134909523Y-115654819D01*
X135623809Y-116131009D02*
X135766666Y-116178628D01*
X135766666Y-116178628D02*
X135814285Y-116226247D01*
X135814285Y-116226247D02*
X135861904Y-116321485D01*
X135861904Y-116321485D02*
X135861904Y-116464342D01*
X135861904Y-116464342D02*
X135814285Y-116559580D01*
X135814285Y-116559580D02*
X135766666Y-116607200D01*
X135766666Y-116607200D02*
X135671428Y-116654819D01*
X135671428Y-116654819D02*
X135290476Y-116654819D01*
X135290476Y-116654819D02*
X135290476Y-115654819D01*
X135290476Y-115654819D02*
X135623809Y-115654819D01*
X135623809Y-115654819D02*
X135719047Y-115702438D01*
X135719047Y-115702438D02*
X135766666Y-115750057D01*
X135766666Y-115750057D02*
X135814285Y-115845295D01*
X135814285Y-115845295D02*
X135814285Y-115940533D01*
X135814285Y-115940533D02*
X135766666Y-116035771D01*
X135766666Y-116035771D02*
X135719047Y-116083390D01*
X135719047Y-116083390D02*
X135623809Y-116131009D01*
X135623809Y-116131009D02*
X135290476Y-116131009D01*
X136814285Y-116654819D02*
X136242857Y-116654819D01*
X136528571Y-116654819D02*
X136528571Y-115654819D01*
X136528571Y-115654819D02*
X136433333Y-115797676D01*
X136433333Y-115797676D02*
X136338095Y-115892914D01*
X136338095Y-115892914D02*
X136242857Y-115940533D01*
X148288095Y-87854819D02*
X148288095Y-88664342D01*
X148288095Y-88664342D02*
X148335714Y-88759580D01*
X148335714Y-88759580D02*
X148383333Y-88807200D01*
X148383333Y-88807200D02*
X148478571Y-88854819D01*
X148478571Y-88854819D02*
X148669047Y-88854819D01*
X148669047Y-88854819D02*
X148764285Y-88807200D01*
X148764285Y-88807200D02*
X148811904Y-88759580D01*
X148811904Y-88759580D02*
X148859523Y-88664342D01*
X148859523Y-88664342D02*
X148859523Y-87854819D01*
X149811904Y-87854819D02*
X149335714Y-87854819D01*
X149335714Y-87854819D02*
X149288095Y-88331009D01*
X149288095Y-88331009D02*
X149335714Y-88283390D01*
X149335714Y-88283390D02*
X149430952Y-88235771D01*
X149430952Y-88235771D02*
X149669047Y-88235771D01*
X149669047Y-88235771D02*
X149764285Y-88283390D01*
X149764285Y-88283390D02*
X149811904Y-88331009D01*
X149811904Y-88331009D02*
X149859523Y-88426247D01*
X149859523Y-88426247D02*
X149859523Y-88664342D01*
X149859523Y-88664342D02*
X149811904Y-88759580D01*
X149811904Y-88759580D02*
X149764285Y-88807200D01*
X149764285Y-88807200D02*
X149669047Y-88854819D01*
X149669047Y-88854819D02*
X149430952Y-88854819D01*
X149430952Y-88854819D02*
X149335714Y-88807200D01*
X149335714Y-88807200D02*
X149288095Y-88759580D01*
X123557142Y-117959580D02*
X123509523Y-118007200D01*
X123509523Y-118007200D02*
X123366666Y-118054819D01*
X123366666Y-118054819D02*
X123271428Y-118054819D01*
X123271428Y-118054819D02*
X123128571Y-118007200D01*
X123128571Y-118007200D02*
X123033333Y-117911961D01*
X123033333Y-117911961D02*
X122985714Y-117816723D01*
X122985714Y-117816723D02*
X122938095Y-117626247D01*
X122938095Y-117626247D02*
X122938095Y-117483390D01*
X122938095Y-117483390D02*
X122985714Y-117292914D01*
X122985714Y-117292914D02*
X123033333Y-117197676D01*
X123033333Y-117197676D02*
X123128571Y-117102438D01*
X123128571Y-117102438D02*
X123271428Y-117054819D01*
X123271428Y-117054819D02*
X123366666Y-117054819D01*
X123366666Y-117054819D02*
X123509523Y-117102438D01*
X123509523Y-117102438D02*
X123557142Y-117150057D01*
X124509523Y-118054819D02*
X123938095Y-118054819D01*
X124223809Y-118054819D02*
X124223809Y-117054819D01*
X124223809Y-117054819D02*
X124128571Y-117197676D01*
X124128571Y-117197676D02*
X124033333Y-117292914D01*
X124033333Y-117292914D02*
X123938095Y-117340533D01*
X125461904Y-118054819D02*
X124890476Y-118054819D01*
X125176190Y-118054819D02*
X125176190Y-117054819D01*
X125176190Y-117054819D02*
X125080952Y-117197676D01*
X125080952Y-117197676D02*
X124985714Y-117292914D01*
X124985714Y-117292914D02*
X124890476Y-117340533D01*
X122466667Y-128557200D02*
X122609524Y-128604819D01*
X122609524Y-128604819D02*
X122847619Y-128604819D01*
X122847619Y-128604819D02*
X122942857Y-128557200D01*
X122942857Y-128557200D02*
X122990476Y-128509580D01*
X122990476Y-128509580D02*
X123038095Y-128414342D01*
X123038095Y-128414342D02*
X123038095Y-128319104D01*
X123038095Y-128319104D02*
X122990476Y-128223866D01*
X122990476Y-128223866D02*
X122942857Y-128176247D01*
X122942857Y-128176247D02*
X122847619Y-128128628D01*
X122847619Y-128128628D02*
X122657143Y-128081009D01*
X122657143Y-128081009D02*
X122561905Y-128033390D01*
X122561905Y-128033390D02*
X122514286Y-127985771D01*
X122514286Y-127985771D02*
X122466667Y-127890533D01*
X122466667Y-127890533D02*
X122466667Y-127795295D01*
X122466667Y-127795295D02*
X122514286Y-127700057D01*
X122514286Y-127700057D02*
X122561905Y-127652438D01*
X122561905Y-127652438D02*
X122657143Y-127604819D01*
X122657143Y-127604819D02*
X122895238Y-127604819D01*
X122895238Y-127604819D02*
X123038095Y-127652438D01*
X123371429Y-127604819D02*
X123609524Y-128604819D01*
X123609524Y-128604819D02*
X123800000Y-127890533D01*
X123800000Y-127890533D02*
X123990476Y-128604819D01*
X123990476Y-128604819D02*
X124228572Y-127604819D01*
X125133333Y-128604819D02*
X124561905Y-128604819D01*
X124847619Y-128604819D02*
X124847619Y-127604819D01*
X124847619Y-127604819D02*
X124752381Y-127747676D01*
X124752381Y-127747676D02*
X124657143Y-127842914D01*
X124657143Y-127842914D02*
X124561905Y-127890533D01*
X185857142Y-117359580D02*
X185809523Y-117407200D01*
X185809523Y-117407200D02*
X185666666Y-117454819D01*
X185666666Y-117454819D02*
X185571428Y-117454819D01*
X185571428Y-117454819D02*
X185428571Y-117407200D01*
X185428571Y-117407200D02*
X185333333Y-117311961D01*
X185333333Y-117311961D02*
X185285714Y-117216723D01*
X185285714Y-117216723D02*
X185238095Y-117026247D01*
X185238095Y-117026247D02*
X185238095Y-116883390D01*
X185238095Y-116883390D02*
X185285714Y-116692914D01*
X185285714Y-116692914D02*
X185333333Y-116597676D01*
X185333333Y-116597676D02*
X185428571Y-116502438D01*
X185428571Y-116502438D02*
X185571428Y-116454819D01*
X185571428Y-116454819D02*
X185666666Y-116454819D01*
X185666666Y-116454819D02*
X185809523Y-116502438D01*
X185809523Y-116502438D02*
X185857142Y-116550057D01*
X186190476Y-116454819D02*
X186809523Y-116454819D01*
X186809523Y-116454819D02*
X186476190Y-116835771D01*
X186476190Y-116835771D02*
X186619047Y-116835771D01*
X186619047Y-116835771D02*
X186714285Y-116883390D01*
X186714285Y-116883390D02*
X186761904Y-116931009D01*
X186761904Y-116931009D02*
X186809523Y-117026247D01*
X186809523Y-117026247D02*
X186809523Y-117264342D01*
X186809523Y-117264342D02*
X186761904Y-117359580D01*
X186761904Y-117359580D02*
X186714285Y-117407200D01*
X186714285Y-117407200D02*
X186619047Y-117454819D01*
X186619047Y-117454819D02*
X186333333Y-117454819D01*
X186333333Y-117454819D02*
X186238095Y-117407200D01*
X186238095Y-117407200D02*
X186190476Y-117359580D01*
X187666666Y-116788152D02*
X187666666Y-117454819D01*
X187428571Y-116407200D02*
X187190476Y-117121485D01*
X187190476Y-117121485D02*
X187809523Y-117121485D01*
X160256077Y-140454818D02*
X159922744Y-139978627D01*
X159684649Y-140454818D02*
X159684649Y-139454818D01*
X159684649Y-139454818D02*
X160065601Y-139454818D01*
X160065601Y-139454818D02*
X160160839Y-139502437D01*
X160160839Y-139502437D02*
X160208458Y-139550056D01*
X160208458Y-139550056D02*
X160256077Y-139645294D01*
X160256077Y-139645294D02*
X160256077Y-139788151D01*
X160256077Y-139788151D02*
X160208458Y-139883389D01*
X160208458Y-139883389D02*
X160160839Y-139931008D01*
X160160839Y-139931008D02*
X160065601Y-139978627D01*
X160065601Y-139978627D02*
X159684649Y-139978627D01*
X161208458Y-140454818D02*
X160637030Y-140454818D01*
X160922744Y-140454818D02*
X160922744Y-139454818D01*
X160922744Y-139454818D02*
X160827506Y-139597675D01*
X160827506Y-139597675D02*
X160732268Y-139692913D01*
X160732268Y-139692913D02*
X160637030Y-139740532D01*
X161589411Y-139550056D02*
X161637030Y-139502437D01*
X161637030Y-139502437D02*
X161732268Y-139454818D01*
X161732268Y-139454818D02*
X161970363Y-139454818D01*
X161970363Y-139454818D02*
X162065601Y-139502437D01*
X162065601Y-139502437D02*
X162113220Y-139550056D01*
X162113220Y-139550056D02*
X162160839Y-139645294D01*
X162160839Y-139645294D02*
X162160839Y-139740532D01*
X162160839Y-139740532D02*
X162113220Y-139883389D01*
X162113220Y-139883389D02*
X161541792Y-140454818D01*
X161541792Y-140454818D02*
X162160839Y-140454818D01*
X157258207Y-139954819D02*
X156924874Y-139478628D01*
X156686779Y-139954819D02*
X156686779Y-138954819D01*
X156686779Y-138954819D02*
X157067731Y-138954819D01*
X157067731Y-138954819D02*
X157162969Y-139002438D01*
X157162969Y-139002438D02*
X157210588Y-139050057D01*
X157210588Y-139050057D02*
X157258207Y-139145295D01*
X157258207Y-139145295D02*
X157258207Y-139288152D01*
X157258207Y-139288152D02*
X157210588Y-139383390D01*
X157210588Y-139383390D02*
X157162969Y-139431009D01*
X157162969Y-139431009D02*
X157067731Y-139478628D01*
X157067731Y-139478628D02*
X156686779Y-139478628D01*
X157639160Y-139050057D02*
X157686779Y-139002438D01*
X157686779Y-139002438D02*
X157782017Y-138954819D01*
X157782017Y-138954819D02*
X158020112Y-138954819D01*
X158020112Y-138954819D02*
X158115350Y-139002438D01*
X158115350Y-139002438D02*
X158162969Y-139050057D01*
X158162969Y-139050057D02*
X158210588Y-139145295D01*
X158210588Y-139145295D02*
X158210588Y-139240533D01*
X158210588Y-139240533D02*
X158162969Y-139383390D01*
X158162969Y-139383390D02*
X157591541Y-139954819D01*
X157591541Y-139954819D02*
X158210588Y-139954819D01*
X159162969Y-139954819D02*
X158591541Y-139954819D01*
X158877255Y-139954819D02*
X158877255Y-138954819D01*
X158877255Y-138954819D02*
X158782017Y-139097676D01*
X158782017Y-139097676D02*
X158686779Y-139192914D01*
X158686779Y-139192914D02*
X158591541Y-139240533D01*
X136757142Y-122554819D02*
X136423809Y-122078628D01*
X136185714Y-122554819D02*
X136185714Y-121554819D01*
X136185714Y-121554819D02*
X136566666Y-121554819D01*
X136566666Y-121554819D02*
X136661904Y-121602438D01*
X136661904Y-121602438D02*
X136709523Y-121650057D01*
X136709523Y-121650057D02*
X136757142Y-121745295D01*
X136757142Y-121745295D02*
X136757142Y-121888152D01*
X136757142Y-121888152D02*
X136709523Y-121983390D01*
X136709523Y-121983390D02*
X136661904Y-122031009D01*
X136661904Y-122031009D02*
X136566666Y-122078628D01*
X136566666Y-122078628D02*
X136185714Y-122078628D01*
X137709523Y-122554819D02*
X137138095Y-122554819D01*
X137423809Y-122554819D02*
X137423809Y-121554819D01*
X137423809Y-121554819D02*
X137328571Y-121697676D01*
X137328571Y-121697676D02*
X137233333Y-121792914D01*
X137233333Y-121792914D02*
X137138095Y-121840533D01*
X138280952Y-121983390D02*
X138185714Y-121935771D01*
X138185714Y-121935771D02*
X138138095Y-121888152D01*
X138138095Y-121888152D02*
X138090476Y-121792914D01*
X138090476Y-121792914D02*
X138090476Y-121745295D01*
X138090476Y-121745295D02*
X138138095Y-121650057D01*
X138138095Y-121650057D02*
X138185714Y-121602438D01*
X138185714Y-121602438D02*
X138280952Y-121554819D01*
X138280952Y-121554819D02*
X138471428Y-121554819D01*
X138471428Y-121554819D02*
X138566666Y-121602438D01*
X138566666Y-121602438D02*
X138614285Y-121650057D01*
X138614285Y-121650057D02*
X138661904Y-121745295D01*
X138661904Y-121745295D02*
X138661904Y-121792914D01*
X138661904Y-121792914D02*
X138614285Y-121888152D01*
X138614285Y-121888152D02*
X138566666Y-121935771D01*
X138566666Y-121935771D02*
X138471428Y-121983390D01*
X138471428Y-121983390D02*
X138280952Y-121983390D01*
X138280952Y-121983390D02*
X138185714Y-122031009D01*
X138185714Y-122031009D02*
X138138095Y-122078628D01*
X138138095Y-122078628D02*
X138090476Y-122173866D01*
X138090476Y-122173866D02*
X138090476Y-122364342D01*
X138090476Y-122364342D02*
X138138095Y-122459580D01*
X138138095Y-122459580D02*
X138185714Y-122507200D01*
X138185714Y-122507200D02*
X138280952Y-122554819D01*
X138280952Y-122554819D02*
X138471428Y-122554819D01*
X138471428Y-122554819D02*
X138566666Y-122507200D01*
X138566666Y-122507200D02*
X138614285Y-122459580D01*
X138614285Y-122459580D02*
X138661904Y-122364342D01*
X138661904Y-122364342D02*
X138661904Y-122173866D01*
X138661904Y-122173866D02*
X138614285Y-122078628D01*
X138614285Y-122078628D02*
X138566666Y-122031009D01*
X138566666Y-122031009D02*
X138471428Y-121983390D01*
X162857142Y-120054819D02*
X162523809Y-119578628D01*
X162285714Y-120054819D02*
X162285714Y-119054819D01*
X162285714Y-119054819D02*
X162666666Y-119054819D01*
X162666666Y-119054819D02*
X162761904Y-119102438D01*
X162761904Y-119102438D02*
X162809523Y-119150057D01*
X162809523Y-119150057D02*
X162857142Y-119245295D01*
X162857142Y-119245295D02*
X162857142Y-119388152D01*
X162857142Y-119388152D02*
X162809523Y-119483390D01*
X162809523Y-119483390D02*
X162761904Y-119531009D01*
X162761904Y-119531009D02*
X162666666Y-119578628D01*
X162666666Y-119578628D02*
X162285714Y-119578628D01*
X163809523Y-120054819D02*
X163238095Y-120054819D01*
X163523809Y-120054819D02*
X163523809Y-119054819D01*
X163523809Y-119054819D02*
X163428571Y-119197676D01*
X163428571Y-119197676D02*
X163333333Y-119292914D01*
X163333333Y-119292914D02*
X163238095Y-119340533D01*
X164761904Y-120054819D02*
X164190476Y-120054819D01*
X164476190Y-120054819D02*
X164476190Y-119054819D01*
X164476190Y-119054819D02*
X164380952Y-119197676D01*
X164380952Y-119197676D02*
X164285714Y-119292914D01*
X164285714Y-119292914D02*
X164190476Y-119340533D01*
X122433333Y-115559580D02*
X122385714Y-115607200D01*
X122385714Y-115607200D02*
X122242857Y-115654819D01*
X122242857Y-115654819D02*
X122147619Y-115654819D01*
X122147619Y-115654819D02*
X122004762Y-115607200D01*
X122004762Y-115607200D02*
X121909524Y-115511961D01*
X121909524Y-115511961D02*
X121861905Y-115416723D01*
X121861905Y-115416723D02*
X121814286Y-115226247D01*
X121814286Y-115226247D02*
X121814286Y-115083390D01*
X121814286Y-115083390D02*
X121861905Y-114892914D01*
X121861905Y-114892914D02*
X121909524Y-114797676D01*
X121909524Y-114797676D02*
X122004762Y-114702438D01*
X122004762Y-114702438D02*
X122147619Y-114654819D01*
X122147619Y-114654819D02*
X122242857Y-114654819D01*
X122242857Y-114654819D02*
X122385714Y-114702438D01*
X122385714Y-114702438D02*
X122433333Y-114750057D01*
X123290476Y-114654819D02*
X123100000Y-114654819D01*
X123100000Y-114654819D02*
X123004762Y-114702438D01*
X123004762Y-114702438D02*
X122957143Y-114750057D01*
X122957143Y-114750057D02*
X122861905Y-114892914D01*
X122861905Y-114892914D02*
X122814286Y-115083390D01*
X122814286Y-115083390D02*
X122814286Y-115464342D01*
X122814286Y-115464342D02*
X122861905Y-115559580D01*
X122861905Y-115559580D02*
X122909524Y-115607200D01*
X122909524Y-115607200D02*
X123004762Y-115654819D01*
X123004762Y-115654819D02*
X123195238Y-115654819D01*
X123195238Y-115654819D02*
X123290476Y-115607200D01*
X123290476Y-115607200D02*
X123338095Y-115559580D01*
X123338095Y-115559580D02*
X123385714Y-115464342D01*
X123385714Y-115464342D02*
X123385714Y-115226247D01*
X123385714Y-115226247D02*
X123338095Y-115131009D01*
X123338095Y-115131009D02*
X123290476Y-115083390D01*
X123290476Y-115083390D02*
X123195238Y-115035771D01*
X123195238Y-115035771D02*
X123004762Y-115035771D01*
X123004762Y-115035771D02*
X122909524Y-115083390D01*
X122909524Y-115083390D02*
X122861905Y-115131009D01*
X122861905Y-115131009D02*
X122814286Y-115226247D01*
X173808207Y-109954819D02*
X173474874Y-109478628D01*
X173236779Y-109954819D02*
X173236779Y-108954819D01*
X173236779Y-108954819D02*
X173617731Y-108954819D01*
X173617731Y-108954819D02*
X173712969Y-109002438D01*
X173712969Y-109002438D02*
X173760588Y-109050057D01*
X173760588Y-109050057D02*
X173808207Y-109145295D01*
X173808207Y-109145295D02*
X173808207Y-109288152D01*
X173808207Y-109288152D02*
X173760588Y-109383390D01*
X173760588Y-109383390D02*
X173712969Y-109431009D01*
X173712969Y-109431009D02*
X173617731Y-109478628D01*
X173617731Y-109478628D02*
X173236779Y-109478628D01*
X174760588Y-109954819D02*
X174189160Y-109954819D01*
X174474874Y-109954819D02*
X174474874Y-108954819D01*
X174474874Y-108954819D02*
X174379636Y-109097676D01*
X174379636Y-109097676D02*
X174284398Y-109192914D01*
X174284398Y-109192914D02*
X174189160Y-109240533D01*
X175236779Y-109954819D02*
X175427255Y-109954819D01*
X175427255Y-109954819D02*
X175522493Y-109907200D01*
X175522493Y-109907200D02*
X175570112Y-109859580D01*
X175570112Y-109859580D02*
X175665350Y-109716723D01*
X175665350Y-109716723D02*
X175712969Y-109526247D01*
X175712969Y-109526247D02*
X175712969Y-109145295D01*
X175712969Y-109145295D02*
X175665350Y-109050057D01*
X175665350Y-109050057D02*
X175617731Y-109002438D01*
X175617731Y-109002438D02*
X175522493Y-108954819D01*
X175522493Y-108954819D02*
X175332017Y-108954819D01*
X175332017Y-108954819D02*
X175236779Y-109002438D01*
X175236779Y-109002438D02*
X175189160Y-109050057D01*
X175189160Y-109050057D02*
X175141541Y-109145295D01*
X175141541Y-109145295D02*
X175141541Y-109383390D01*
X175141541Y-109383390D02*
X175189160Y-109478628D01*
X175189160Y-109478628D02*
X175236779Y-109526247D01*
X175236779Y-109526247D02*
X175332017Y-109573866D01*
X175332017Y-109573866D02*
X175522493Y-109573866D01*
X175522493Y-109573866D02*
X175617731Y-109526247D01*
X175617731Y-109526247D02*
X175665350Y-109478628D01*
X175665350Y-109478628D02*
X175712969Y-109383390D01*
X162806077Y-124854819D02*
X162472744Y-124378628D01*
X162234649Y-124854819D02*
X162234649Y-123854819D01*
X162234649Y-123854819D02*
X162615601Y-123854819D01*
X162615601Y-123854819D02*
X162710839Y-123902438D01*
X162710839Y-123902438D02*
X162758458Y-123950057D01*
X162758458Y-123950057D02*
X162806077Y-124045295D01*
X162806077Y-124045295D02*
X162806077Y-124188152D01*
X162806077Y-124188152D02*
X162758458Y-124283390D01*
X162758458Y-124283390D02*
X162710839Y-124331009D01*
X162710839Y-124331009D02*
X162615601Y-124378628D01*
X162615601Y-124378628D02*
X162234649Y-124378628D01*
X163758458Y-124854819D02*
X163187030Y-124854819D01*
X163472744Y-124854819D02*
X163472744Y-123854819D01*
X163472744Y-123854819D02*
X163377506Y-123997676D01*
X163377506Y-123997676D02*
X163282268Y-124092914D01*
X163282268Y-124092914D02*
X163187030Y-124140533D01*
X164615601Y-124188152D02*
X164615601Y-124854819D01*
X164377506Y-123807200D02*
X164139411Y-124521485D01*
X164139411Y-124521485D02*
X164758458Y-124521485D01*
X120566666Y-96954819D02*
X120566666Y-97669104D01*
X120566666Y-97669104D02*
X120519047Y-97811961D01*
X120519047Y-97811961D02*
X120423809Y-97907200D01*
X120423809Y-97907200D02*
X120280952Y-97954819D01*
X120280952Y-97954819D02*
X120185714Y-97954819D01*
X121471428Y-97288152D02*
X121471428Y-97954819D01*
X121233333Y-96907200D02*
X120995238Y-97621485D01*
X120995238Y-97621485D02*
X121614285Y-97621485D01*
X113066666Y-111054819D02*
X113066666Y-111769104D01*
X113066666Y-111769104D02*
X113019047Y-111911961D01*
X113019047Y-111911961D02*
X112923809Y-112007200D01*
X112923809Y-112007200D02*
X112780952Y-112054819D01*
X112780952Y-112054819D02*
X112685714Y-112054819D01*
X113495238Y-111150057D02*
X113542857Y-111102438D01*
X113542857Y-111102438D02*
X113638095Y-111054819D01*
X113638095Y-111054819D02*
X113876190Y-111054819D01*
X113876190Y-111054819D02*
X113971428Y-111102438D01*
X113971428Y-111102438D02*
X114019047Y-111150057D01*
X114019047Y-111150057D02*
X114066666Y-111245295D01*
X114066666Y-111245295D02*
X114066666Y-111340533D01*
X114066666Y-111340533D02*
X114019047Y-111483390D01*
X114019047Y-111483390D02*
X113447619Y-112054819D01*
X113447619Y-112054819D02*
X114066666Y-112054819D01*
X188466666Y-123554818D02*
X188466666Y-124269103D01*
X188466666Y-124269103D02*
X188419047Y-124411960D01*
X188419047Y-124411960D02*
X188323809Y-124507199D01*
X188323809Y-124507199D02*
X188180952Y-124554818D01*
X188180952Y-124554818D02*
X188085714Y-124554818D01*
X188847619Y-123554818D02*
X189466666Y-123554818D01*
X189466666Y-123554818D02*
X189133333Y-123935770D01*
X189133333Y-123935770D02*
X189276190Y-123935770D01*
X189276190Y-123935770D02*
X189371428Y-123983389D01*
X189371428Y-123983389D02*
X189419047Y-124031008D01*
X189419047Y-124031008D02*
X189466666Y-124126246D01*
X189466666Y-124126246D02*
X189466666Y-124364341D01*
X189466666Y-124364341D02*
X189419047Y-124459579D01*
X189419047Y-124459579D02*
X189371428Y-124507199D01*
X189371428Y-124507199D02*
X189276190Y-124554818D01*
X189276190Y-124554818D02*
X188990476Y-124554818D01*
X188990476Y-124554818D02*
X188895238Y-124507199D01*
X188895238Y-124507199D02*
X188847619Y-124459579D01*
%TO.C,U4*%
X126450000Y-107900000D02*
X126950000Y-107900001D01*
X126450001Y-108400000D02*
X126450000Y-107900000D01*
X126950000Y-115099999D02*
X126450000Y-114700000D01*
X133150000Y-115099999D02*
X133650000Y-115100000D01*
X133649999Y-108400000D02*
X133650000Y-107900000D01*
X133650000Y-107900000D02*
X133150000Y-107900001D01*
X133650000Y-115100000D02*
X133649999Y-114600000D01*
%TO.C,U3*%
X140530000Y-132170000D02*
X143270000Y-132170000D01*
X140530000Y-138830000D02*
X140530000Y-132170000D01*
X143270000Y-132170000D02*
X143270000Y-138830000D01*
X143270000Y-138830000D02*
X140530000Y-138830000D01*
%TO.C,D3*%
X152150000Y-139960000D02*
X154840000Y-139960000D01*
X154840000Y-138040000D02*
X152150000Y-138040000D01*
X154840000Y-139960000D02*
X154840000Y-138040000D01*
D14*
%TO.C,U1*%
X159266399Y-128319359D02*
X159557133Y-128610093D01*
X159557133Y-128028625D02*
X159266399Y-128319359D01*
X161975071Y-131028031D02*
X162265805Y-131318765D01*
X162265805Y-125319953D02*
X161975071Y-125610687D01*
X162265805Y-131318765D02*
X162556539Y-131028031D01*
X162556539Y-125610687D02*
X162265805Y-125319953D01*
X164974477Y-128610093D02*
X165265211Y-128319359D01*
X165265211Y-128319359D02*
X164974477Y-128028625D01*
D15*
G36*
X160418701Y-126556400D02*
G01*
X160149293Y-126825808D01*
X159969688Y-126646203D01*
X160239096Y-126376795D01*
X160418701Y-126556400D01*
G37*
G36*
X163854815Y-130699623D02*
G01*
X163585407Y-130969030D01*
X163405802Y-130789425D01*
X163675210Y-130520017D01*
X163854815Y-130699623D01*
G37*
D12*
%TO.C,Q1*%
X141890000Y-128119998D02*
X141240000Y-128119999D01*
X141890000Y-128119998D02*
X142540000Y-128119999D01*
X141890000Y-131240000D02*
X141240000Y-131239999D01*
X141890000Y-131240000D02*
X142540000Y-131239999D01*
D16*
X143292500Y-131519999D02*
X142812500Y-131519998D01*
X143052500Y-131189999D01*
X143292500Y-131519999D01*
G36*
X143292500Y-131519999D02*
G01*
X142812500Y-131519998D01*
X143052500Y-131189999D01*
X143292500Y-131519999D01*
G37*
D12*
%TO.C,X2*%
X127070000Y-122200001D02*
X128420000Y-122200001D01*
X128420000Y-122200001D02*
X128420000Y-120600001D01*
%TO.C,D1*%
X136620000Y-128210000D02*
X136620000Y-130499999D01*
X138080000Y-128210000D02*
X136620000Y-128210000D01*
X138080000Y-130499999D02*
X138080000Y-128210000D01*
%TO.C,U2*%
X173112385Y-115434457D02*
X180084457Y-108462385D01*
X175615543Y-117937615D02*
X173112385Y-115434457D01*
X180084457Y-108462385D02*
X182587615Y-110965543D01*
X182587615Y-110965543D02*
X175615543Y-117937615D01*
D17*
X175730187Y-116912311D02*
G75*
G02*
X175430187Y-116912311I-150000J0D01*
G01*
X175430187Y-116912311D02*
G75*
G02*
X175730187Y-116912311I150000J0D01*
G01*
X176599929Y-118658864D02*
G75*
G02*
X176299929Y-118658864I-150000J0D01*
G01*
X176299929Y-118658864D02*
G75*
G02*
X176599929Y-118658864I150000J0D01*
G01*
D10*
%TO.C,Q3*%
X160650000Y-136199999D02*
X160650000Y-138000001D01*
X163750000Y-136199999D02*
X163750000Y-138000001D01*
X160680000Y-138500000D02*
G75*
G02*
X160420000Y-138500000I-130000J0D01*
G01*
X160420000Y-138500000D02*
G75*
G02*
X160680000Y-138500000I130000J0D01*
G01*
%TO.C,SW2*%
X150950000Y-133335000D02*
X150950000Y-133475000D01*
X151660000Y-131904999D02*
X154640000Y-131904999D01*
X152070000Y-134905000D02*
X151660000Y-134905000D01*
X154640000Y-134905000D02*
X154230000Y-134905000D01*
X155349999Y-133405000D02*
X155350000Y-133335000D01*
X155350000Y-133335000D02*
X155350000Y-133475000D01*
D12*
X151060000Y-135055000D02*
G75*
G02*
X150740000Y-135055000I-160000J0D01*
G01*
X150740000Y-135055000D02*
G75*
G02*
X151060000Y-135055000I160000J0D01*
G01*
D10*
%TO.C,C14*%
X175606750Y-127620101D02*
X175762313Y-127464538D01*
X176752263Y-128765614D02*
X176978537Y-128539340D01*
X176858329Y-128419132D02*
X176632055Y-128645406D01*
X177084603Y-128645406D02*
X176858329Y-128871680D01*
X179764538Y-123462313D02*
X179920101Y-123306750D01*
X179920101Y-123306750D02*
X185081981Y-128468629D01*
X180768629Y-132781981D02*
X175606750Y-127620101D01*
X180839340Y-124678537D02*
X181065614Y-124452263D01*
X180924193Y-132626417D02*
X180768629Y-132781981D01*
X180945406Y-124332055D02*
X180719132Y-124558329D01*
X181171680Y-124558329D02*
X180945406Y-124784603D01*
X185081981Y-128468629D02*
X184926417Y-128624193D01*
D12*
%TO.C,FB1*%
X132840000Y-119639999D02*
X132840000Y-119960001D01*
X133860000Y-119639999D02*
X133860000Y-119960001D01*
D10*
%TO.C,U5*%
X150630000Y-86660000D02*
X155650000Y-86660000D01*
X150630000Y-87710000D02*
X150630000Y-86660000D01*
X150630000Y-90000000D02*
X150630000Y-89080001D01*
X150630000Y-90140000D02*
X155650000Y-90140000D01*
X155650000Y-86660000D02*
X155650000Y-90140000D01*
X150634512Y-87720546D02*
G75*
G02*
X150630000Y-89080000I-84513J-679454D01*
G01*
D18*
X151720000Y-89510000D02*
G75*
G02*
X151319998Y-89510000I-200001J0D01*
G01*
X151319998Y-89510000D02*
G75*
G02*
X151720000Y-89510000I200001J0D01*
G01*
D10*
%TO.C,SW1*%
X126995002Y-126430000D02*
X126995001Y-126569999D01*
X127705001Y-125000000D02*
X130685001Y-125000000D01*
X128115001Y-128000000D02*
X127705001Y-128000000D01*
X130685001Y-128000000D02*
X130275001Y-128000000D01*
X131395000Y-126430000D02*
X131395001Y-126569999D01*
X131395001Y-126500000D02*
X131395000Y-126430000D01*
D12*
X127105001Y-128150000D02*
G75*
G02*
X126785001Y-128150000I-160000J0D01*
G01*
X126785001Y-128150000D02*
G75*
G02*
X127105001Y-128150000I160000J0D01*
G01*
%TD*%
M02*
