%TF.GenerationSoftware,KiCad,Pcbnew,9.0.1*%
%TF.CreationDate,2025-05-12T15:51:15-07:00*%
%TF.ProjectId,SmartKnobController_ME507,536d6172-744b-46e6-9f62-436f6e74726f,rev?*%
%TF.SameCoordinates,Original*%
%TF.FileFunction,Copper,L2,Bot*%
%TF.FilePolarity,Positive*%
%FSLAX46Y46*%
G04 Gerber Fmt 4.6, Leading zero omitted, Abs format (unit mm)*
G04 Created by KiCad (PCBNEW 9.0.1) date 2025-05-12 15:51:15*
%MOMM*%
%LPD*%
G01*
G04 APERTURE LIST*
G04 Aperture macros list*
%AMRoundRect*
0 Rectangle with rounded corners*
0 $1 Rounding radius*
0 $2 $3 $4 $5 $6 $7 $8 $9 X,Y pos of 4 corners*
0 Add a 4 corners polygon primitive as box body*
4,1,4,$2,$3,$4,$5,$6,$7,$8,$9,$2,$3,0*
0 Add four circle primitives for the rounded corners*
1,1,$1+$1,$2,$3*
1,1,$1+$1,$4,$5*
1,1,$1+$1,$6,$7*
1,1,$1+$1,$8,$9*
0 Add four rect primitives between the rounded corners*
20,1,$1+$1,$2,$3,$4,$5,0*
20,1,$1+$1,$4,$5,$6,$7,0*
20,1,$1+$1,$6,$7,$8,$9,0*
20,1,$1+$1,$8,$9,$2,$3,0*%
%AMHorizOval*
0 Thick line with rounded ends*
0 $1 width*
0 $2 $3 position (X,Y) of the first rounded end (center of the circle)*
0 $4 $5 position (X,Y) of the second rounded end (center of the circle)*
0 Add line between two ends*
20,1,$1,$2,$3,$4,$5,0*
0 Add two circle primitives to create the rounded ends*
1,1,$1,$2,$3*
1,1,$1,$4,$5*%
%AMRotRect*
0 Rectangle, with rotation*
0 The origin of the aperture is its center*
0 $1 length*
0 $2 width*
0 $3 Rotation angle, in degrees counterclockwise*
0 Add horizontal line*
21,1,$1,$2,0,0,$3*%
G04 Aperture macros list end*
%TA.AperFunction,SMDPad,CuDef*%
%ADD10RoundRect,0.250000X0.475000X-0.250000X0.475000X0.250000X-0.475000X0.250000X-0.475000X-0.250000X0*%
%TD*%
%TA.AperFunction,ComponentPad*%
%ADD11RoundRect,0.225000X-0.212132X-0.530330X0.530330X0.212132X0.212132X0.530330X-0.530330X-0.212132X0*%
%TD*%
%TA.AperFunction,ComponentPad*%
%ADD12RoundRect,0.225000X-0.530330X0.212132X0.212132X-0.530330X0.530330X-0.212132X-0.212132X0.530330X0*%
%TD*%
%TA.AperFunction,ComponentPad*%
%ADD13RoundRect,0.225000X-0.525000X-0.225000X0.525000X-0.225000X0.525000X0.225000X-0.525000X0.225000X0*%
%TD*%
%TA.AperFunction,ComponentPad*%
%ADD14RoundRect,0.225000X0.525000X0.225000X-0.525000X0.225000X-0.525000X-0.225000X0.525000X-0.225000X0*%
%TD*%
%TA.AperFunction,ComponentPad*%
%ADD15RoundRect,0.225000X0.212132X0.530330X-0.530330X-0.212132X-0.212132X-0.530330X0.530330X0.212132X0*%
%TD*%
%TA.AperFunction,ComponentPad*%
%ADD16R,1.700000X1.700000*%
%TD*%
%TA.AperFunction,ComponentPad*%
%ADD17C,1.700000*%
%TD*%
%TA.AperFunction,ComponentPad*%
%ADD18RotRect,1.700000X1.700000X210.000000*%
%TD*%
%TA.AperFunction,SMDPad,CuDef*%
%ADD19R,0.300000X1.400000*%
%TD*%
%TA.AperFunction,SMDPad,CuDef*%
%ADD20R,0.500000X1.400000*%
%TD*%
%TA.AperFunction,ComponentPad*%
%ADD21O,1.300000X2.100000*%
%TD*%
%TA.AperFunction,ComponentPad*%
%ADD22O,1.300000X2.300000*%
%TD*%
%TA.AperFunction,ComponentPad*%
%ADD23C,0.500000*%
%TD*%
%TA.AperFunction,SMDPad,CuDef*%
%ADD24RoundRect,0.500000X2.000000X1.000000X-2.000000X1.000000X-2.000000X-1.000000X2.000000X-1.000000X0*%
%TD*%
%TA.AperFunction,SMDPad,CuDef*%
%ADD25RoundRect,0.150000X-1.350000X-0.350000X1.350000X-0.350000X1.350000X0.350000X-1.350000X0.350000X0*%
%TD*%
%TA.AperFunction,ComponentPad*%
%ADD26RoundRect,0.250000X0.088388X-0.936916X0.936916X-0.088388X-0.088388X0.936916X-0.936916X0.088388X0*%
%TD*%
%TA.AperFunction,ComponentPad*%
%ADD27HorizOval,1.700000X-0.088388X0.088388X0.088388X-0.088388X0*%
%TD*%
%TA.AperFunction,SMDPad,CuDef*%
%ADD28R,0.530000X1.040000*%
%TD*%
%TA.AperFunction,ViaPad*%
%ADD29C,0.700000*%
%TD*%
%TA.AperFunction,Conductor*%
%ADD30C,0.300000*%
%TD*%
%TA.AperFunction,Conductor*%
%ADD31C,0.600000*%
%TD*%
%TA.AperFunction,Conductor*%
%ADD32C,0.500000*%
%TD*%
%TA.AperFunction,Conductor*%
%ADD33C,0.700000*%
%TD*%
%TA.AperFunction,Conductor*%
%ADD34C,1.000000*%
%TD*%
%TA.AperFunction,Conductor*%
%ADD35C,0.250000*%
%TD*%
%TA.AperFunction,Conductor*%
%ADD36C,0.299000*%
%TD*%
G04 APERTURE END LIST*
D10*
%TO.P,C24,1*%
%TO.N,+3.3V*%
X156600000Y-89499999D03*
%TO.P,C24,2*%
%TO.N,GND*%
X156600000Y-87600001D03*
%TD*%
%TO.P,C23,1*%
%TO.N,/HALL_ADC*%
X149700000Y-89499999D03*
%TO.P,C23,2*%
%TO.N,GND*%
X149700000Y-87600001D03*
%TD*%
D11*
%TO.P,TP3,1,1*%
%TO.N,+12V*%
X168800000Y-136800000D03*
%TD*%
D12*
%TO.P,TP4,1,1*%
%TO.N,/HALL_ADC*%
X145700000Y-114300000D03*
%TD*%
D11*
%TO.P,TP9,1,1*%
%TO.N,/TIM2_CH4*%
X170200000Y-115600000D03*
%TD*%
D13*
%TO.P,TP2,1,1*%
%TO.N,GND*%
X173650000Y-135500000D03*
%TD*%
D11*
%TO.P,TP8,1,1*%
%TO.N,/TIM2_CH3*%
X168600000Y-115500000D03*
%TD*%
D13*
%TO.P,TP10,1,1*%
%TO.N,GND*%
X131900000Y-135500000D03*
%TD*%
%TO.P,TP1,1,1*%
%TO.N,+3.3V*%
X136800000Y-139200000D03*
%TD*%
D14*
%TO.P,TP5,1,1*%
%TO.N,/FSR_ADC*%
X127200000Y-131400000D03*
%TD*%
D15*
%TO.P,TP7,1,1*%
%TO.N,/TIM2_CH1*%
X171800000Y-115700000D03*
%TD*%
D16*
%TO.P,J4,1,Pin_1*%
%TO.N,/SWDIO*%
X118479999Y-102400001D03*
D17*
%TO.P,J4,2,Pin_2*%
%TO.N,GND*%
X118479999Y-99860001D03*
%TO.P,J4,3,Pin_3*%
%TO.N,/SWCLK*%
X115939999Y-102400001D03*
%TO.P,J4,4,Pin_4*%
%TO.N,/RX6*%
X115939999Y-99860000D03*
%TO.P,J4,5,Pin_5*%
%TO.N,/SWO*%
X113400000Y-102400000D03*
%TO.P,J4,6,Pin_6*%
%TO.N,/TX6*%
X113399999Y-99860001D03*
%TO.P,J4,7,Pin_7*%
%TO.N,/NRST*%
X110859999Y-102400001D03*
%TO.P,J4,8,Pin_8*%
%TO.N,+3.3V*%
X110859999Y-99860000D03*
%TD*%
D18*
%TO.P,J2,1,Pin_1*%
%TO.N,+3.3V*%
X109360001Y-109300592D03*
D17*
%TO.P,J2,2,Pin_2*%
%TO.N,/TX1*%
X110630001Y-111500297D03*
%TO.P,J2,3,Pin_3*%
%TO.N,/RX1*%
X111900001Y-113700000D03*
%TO.P,J2,4,Pin_4*%
%TO.N,GND*%
X113170001Y-115899706D03*
%TD*%
D19*
%TO.P,J1,A5,CC1*%
%TO.N,Net-(J1-CC1)*%
X154400000Y-136600001D03*
%TO.P,J1,A6,D+*%
%TO.N,unconnected-(J1-D+-PadA6)*%
X153400000Y-136600000D03*
%TO.P,J1,A7,D-*%
%TO.N,unconnected-(J1-D--PadA7)*%
X152900000Y-136600000D03*
%TO.P,J1,A8,SBU1*%
%TO.N,unconnected-(J1-SBU1-PadA8)*%
X151900000Y-136600001D03*
D20*
%TO.P,J1,A9B4,VBUS*%
%TO.N,/V_BUS*%
X150750000Y-136600000D03*
%TO.P,J1,A12B1,GND*%
%TO.N,GND*%
X149950000Y-136600000D03*
D19*
%TO.P,J1,B5,CC2*%
%TO.N,Net-(J1-CC2)*%
X151400000Y-136600000D03*
%TO.P,J1,B6,D+*%
%TO.N,unconnected-(J1-D+-PadB6)*%
X152400000Y-136600000D03*
%TO.P,J1,B7,D-*%
%TO.N,unconnected-(J1-D--PadB7)*%
X153900000Y-136600000D03*
%TO.P,J1,B8,SBU2*%
%TO.N,unconnected-(J1-SBU2-PadB8)*%
X154900000Y-136600000D03*
D20*
%TO.P,J1,B9A4,VBUS*%
%TO.N,/V_BUS*%
X155550000Y-136600000D03*
%TO.P,J1,B12A1,GND*%
%TO.N,GND*%
X156350000Y-136600000D03*
D21*
%TO.P,J1,S1,SHIELD*%
X157480000Y-141480001D03*
D22*
X157480000Y-137280000D03*
D23*
X155150000Y-142100000D03*
X155150000Y-140100000D03*
D24*
X153150000Y-141100001D03*
D23*
X151150000Y-142100000D03*
X151150000Y-140100000D03*
D21*
X148820000Y-141480001D03*
D22*
X148820000Y-137280000D03*
%TD*%
D25*
%TO.P,R15,1*%
%TO.N,/FSR_ADC*%
X103503382Y-89670000D03*
%TO.P,R15,2*%
%TO.N,+3.3V*%
X103503382Y-87130000D03*
%TD*%
D26*
%TO.P,J3,1,Pin_1*%
%TO.N,/MOT_1*%
X185018216Y-123803750D03*
D27*
%TO.P,J3,2,Pin_2*%
%TO.N,/MOT_2*%
X186785983Y-122035983D03*
%TO.P,J3,3,Pin_3*%
%TO.N,/MOT_3*%
X188553750Y-120268216D03*
%TD*%
D28*
%TO.P,U6,1,VCC*%
%TO.N,+3.3V*%
X154100000Y-89500000D03*
%TO.P,U6,2,VOUT*%
%TO.N,/HALL_ADC*%
X152200000Y-89500000D03*
%TO.P,U6,3,GND*%
%TO.N,GND*%
X153150000Y-87300000D03*
%TD*%
D29*
%TO.N,/HALL_ADC*%
X152200000Y-92900000D03*
%TO.N,/PD_SCL*%
X120900000Y-112950000D03*
%TO.N,GND*%
X179596878Y-129896878D03*
X162265805Y-129419359D03*
X166500000Y-120800000D03*
X167700000Y-127400000D03*
X174025000Y-115375000D03*
X178700000Y-106300000D03*
X178550000Y-111800000D03*
X169800000Y-124100000D03*
X137550000Y-120650000D03*
X131649999Y-113100000D03*
X153800000Y-92900000D03*
X181496878Y-131896878D03*
X140950001Y-128579999D03*
X184196878Y-129196878D03*
X163365805Y-128319359D03*
X182196878Y-127196878D03*
X162265805Y-128319359D03*
X177150000Y-113200000D03*
X177150000Y-114600000D03*
X178550000Y-113200000D03*
X179250000Y-112500000D03*
X181900000Y-129600000D03*
X128500000Y-113100000D03*
X162200000Y-132100000D03*
X131600000Y-109950001D03*
X163239531Y-122839531D03*
X119700000Y-114400000D03*
X128500000Y-109950000D03*
X161200000Y-128319359D03*
X128549999Y-116000000D03*
X179950000Y-109500000D03*
X162265805Y-127319359D03*
X151000000Y-83800000D03*
X130050000Y-111500000D03*
X125850000Y-127445000D03*
X177850000Y-113900000D03*
X176450000Y-113900000D03*
X177850000Y-112500000D03*
X128700000Y-117900000D03*
%TO.N,/NRST*%
X118400000Y-110500000D03*
X118375000Y-112450000D03*
X129100000Y-121900000D03*
X129100000Y-125295006D03*
%TO.N,+3.3V*%
X133500000Y-107500000D03*
X117600000Y-108700000D03*
X132800000Y-125100006D03*
X108300000Y-87100000D03*
X132800000Y-121700000D03*
X124300000Y-121200000D03*
X125469975Y-107230025D03*
X134100000Y-130500000D03*
X158050000Y-89500000D03*
X124105025Y-108694975D03*
X132800000Y-129200000D03*
X115600000Y-108700000D03*
X120855025Y-124644975D03*
X119575000Y-88875000D03*
X136600000Y-85600000D03*
%TO.N,/USER*%
X143350765Y-125100006D03*
X140802944Y-122600000D03*
%TO.N,+12V*%
X159565805Y-126719359D03*
X161544975Y-124855025D03*
%TO.N,/3.3V_PD*%
X171444975Y-120144975D03*
X170444556Y-119144556D03*
%TO.N,/V_BUS*%
X156800000Y-134400000D03*
X148000000Y-134400000D03*
X157550000Y-134400000D03*
X157550000Y-135350000D03*
X148750000Y-134400000D03*
X156800000Y-135350000D03*
X158300000Y-135350000D03*
X158300000Y-134400000D03*
X148000000Y-135350000D03*
X148750000Y-135350000D03*
%TO.N,/FET_EN_2*%
X165100000Y-133000000D03*
X165100000Y-138300000D03*
%TO.N,Net-(J1-CC1)*%
X156400000Y-133400003D03*
%TO.N,Net-(J1-CC2)*%
X156400000Y-132500000D03*
%TO.N,/MOT_2*%
X181549927Y-116599927D03*
X181050000Y-116100000D03*
%TO.N,/MOT_1*%
X180250000Y-117900000D03*
X179774293Y-117425707D03*
%TO.N,/FAULT*%
X146171505Y-128578495D03*
X147819975Y-126830025D03*
%TO.N,/FSR_ADC*%
X106300000Y-89700000D03*
%TO.N,/PD_SCL*%
X120900000Y-110400000D03*
X135200000Y-124400006D03*
X133800000Y-124400006D03*
%TO.N,/PD_SDA*%
X135200000Y-123500003D03*
X133800000Y-123500003D03*
X121950000Y-113454673D03*
X121950000Y-110400000D03*
%TO.N,/PD_nINT*%
X133800000Y-122600000D03*
X123000000Y-113949999D03*
X122999999Y-110399999D03*
X135200000Y-122600000D03*
%TO.N,/DRV_nRST*%
X139700000Y-110550000D03*
X177500000Y-107600000D03*
X139700000Y-111950000D03*
X176000000Y-106200000D03*
%TO.N,/MOT_3*%
X182200000Y-115950000D03*
X181700000Y-115450000D03*
%TO.N,/MOT_EN1*%
X172500000Y-108300000D03*
X172500001Y-112200118D03*
%TO.N,/DRV_nSLP*%
X138799997Y-111950000D03*
X175400000Y-106900000D03*
X176800000Y-108300000D03*
X138799997Y-110550000D03*
%TO.N,/TIM2_CH4*%
X170900000Y-112200500D03*
%TO.N,/TIM2_CH1*%
X171700000Y-110200000D03*
%TD*%
D30*
%TO.N,/HALL_ADC*%
X152199998Y-89499998D02*
X152200000Y-89500000D01*
X149700001Y-89499998D02*
X152199998Y-89499998D01*
X149700000Y-89499999D02*
X149700001Y-89499998D01*
D31*
%TO.N,+3.3V*%
X158050000Y-89500000D02*
X158049999Y-89499999D01*
X158049999Y-89499999D02*
X154100000Y-89500000D01*
D32*
%TO.N,/V_BUS*%
X150750000Y-136600000D02*
X150750000Y-135400000D01*
D30*
%TO.N,/PD_nINT*%
X123000000Y-110400000D02*
X122999999Y-110399999D01*
X123000000Y-113949999D02*
X123000000Y-110400000D01*
%TO.N,/PD_SDA*%
X121950000Y-113454673D02*
X121950000Y-110400000D01*
D33*
%TO.N,/MOT_1*%
X180250000Y-117901414D02*
X179774293Y-117425707D01*
X180250000Y-119035534D02*
X180250000Y-117901414D01*
X185018216Y-123803750D02*
X180250000Y-119035534D01*
%TO.N,/MOT_2*%
X181050012Y-116100000D02*
X186785983Y-121835971D01*
X186785983Y-121835971D02*
X186785983Y-122035983D01*
X181050000Y-116100000D02*
X181050012Y-116100000D01*
X181549927Y-116599927D02*
X181050000Y-116100000D01*
%TO.N,/MOT_3*%
X184435534Y-116150000D02*
X188553750Y-120268216D01*
X182400000Y-116150000D02*
X184435534Y-116150000D01*
X181700000Y-115450000D02*
X182400000Y-116150000D01*
D30*
%TO.N,GND*%
X157480000Y-137280000D02*
X157030000Y-137280000D01*
X148820000Y-137280000D02*
X149270000Y-137280000D01*
X149200000Y-141100001D02*
X148820000Y-141480001D01*
%TO.N,/NRST*%
X129100000Y-121900000D02*
X129100000Y-125100006D01*
X118400000Y-110500000D02*
X118400000Y-112300000D01*
X118400000Y-112300000D02*
X118375000Y-112325000D01*
X118375000Y-112325000D02*
X118375000Y-112450000D01*
D34*
%TO.N,+3.3V*%
X103503382Y-87130000D02*
X108270000Y-87130000D01*
D31*
X133169975Y-107230025D02*
X125469975Y-107230025D01*
X117600000Y-108700000D02*
X115600000Y-108700000D01*
D34*
X108270000Y-87130000D02*
X108300000Y-87100000D01*
D33*
X135100000Y-87100000D02*
X136600000Y-85600000D01*
X119575000Y-88875000D02*
X121350000Y-87100000D01*
D31*
X124105025Y-108694975D02*
X124105025Y-108594975D01*
D33*
X124300000Y-121200000D02*
X120855025Y-124644975D01*
D31*
X124105025Y-108594975D02*
X125469975Y-107230025D01*
D33*
X132800000Y-121700000D02*
X132800000Y-125100006D01*
D31*
X133439950Y-107500000D02*
X133169975Y-107230025D01*
X133500000Y-107500000D02*
X133439950Y-107500000D01*
D33*
X121350000Y-87100000D02*
X135100000Y-87100000D01*
D34*
X134100000Y-130500000D02*
X132800000Y-129200000D01*
D30*
%TO.N,/USER*%
X140850759Y-122600000D02*
X143350765Y-125100006D01*
X140802944Y-122600000D02*
X140850759Y-122600000D01*
D35*
%TO.N,+12V*%
X159565805Y-126719359D02*
X161430139Y-124855025D01*
X161430139Y-124855025D02*
X161544975Y-124855025D01*
D31*
%TO.N,/3.3V_PD*%
X171444975Y-120144975D02*
X170444556Y-119144556D01*
D33*
%TO.N,/V_BUS*%
X157550000Y-132050000D02*
X157550000Y-134400000D01*
X156850000Y-131350000D02*
X157550000Y-132050000D01*
X150350000Y-134400000D02*
X151200000Y-134400000D01*
D32*
X155550000Y-136600000D02*
X155550000Y-135500000D01*
D33*
X154250000Y-131350000D02*
X156850000Y-131350000D01*
X151200000Y-134400000D02*
X154250000Y-131350000D01*
D30*
%TO.N,/FET_EN_2*%
X165100000Y-133000000D02*
X165100000Y-138300000D01*
%TO.N,/HALL_ADC*%
X152200000Y-89500000D02*
X152200000Y-92900000D01*
%TO.N,Net-(J1-CC1)*%
X156400000Y-133400003D02*
X156399997Y-133400000D01*
X154400000Y-134100000D02*
X154400000Y-136600001D01*
X155100000Y-133400000D02*
X154400000Y-134100000D01*
X156399997Y-133400000D02*
X155100000Y-133400000D01*
%TO.N,Net-(J1-CC2)*%
X156400000Y-132500000D02*
X154591364Y-132500000D01*
X151400000Y-135691364D02*
X151400000Y-136600000D01*
X154591364Y-132500000D02*
X151400000Y-135691364D01*
%TO.N,/FAULT*%
X146179495Y-128578495D02*
X147819975Y-126938015D01*
X146171505Y-128578495D02*
X146179495Y-128578495D01*
X147819975Y-126938015D02*
X147819975Y-126830025D01*
%TO.N,/FSR_ADC*%
X103533382Y-89700000D02*
X103503382Y-89670000D01*
X106300000Y-89700000D02*
X103533382Y-89700000D01*
%TO.N,/PD_SCL*%
X135200000Y-124400006D02*
X133800000Y-124400006D01*
%TO.N,/PD_SDA*%
X135200000Y-123500003D02*
X133800000Y-123500003D01*
%TO.N,/PD_nINT*%
X135200000Y-122600000D02*
X133800000Y-122600000D01*
D36*
%TO.N,/DRV_nRST*%
X177400000Y-107600000D02*
X176000000Y-106200000D01*
X177500000Y-107600000D02*
X177400000Y-107600000D01*
D30*
X139700000Y-110550000D02*
X139700000Y-111950000D01*
D36*
%TO.N,/MOT_EN1*%
X172500000Y-108300000D02*
X172500000Y-112200117D01*
X172500000Y-112200117D02*
X172500001Y-112200118D01*
D30*
%TO.N,/DRV_nSLP*%
X138799997Y-110550000D02*
X138799997Y-111950000D01*
D36*
X176800000Y-108300000D02*
X175400000Y-106900000D01*
D30*
%TO.N,/TIM2_CH4*%
X170900000Y-114900000D02*
X170200000Y-115600000D01*
X170900000Y-112200500D02*
X170900000Y-114900000D01*
D36*
%TO.N,/TIM2_CH1*%
X171700000Y-115600000D02*
X171800000Y-115700000D01*
X171700000Y-110200000D02*
X171700000Y-115600000D01*
D30*
%TO.N,/PD_SCL*%
X120900000Y-112950000D02*
X120900000Y-110400000D01*
%TD*%
%TA.AperFunction,Conductor*%
%TO.N,GND*%
G36*
X150209220Y-135914901D02*
G01*
X150209220Y-137243916D01*
X150191690Y-137248952D01*
X150187526Y-137249500D01*
X150187525Y-137249500D01*
X150077103Y-137279087D01*
X150047511Y-137287017D01*
X150043184Y-137289515D01*
X149509220Y-137289515D01*
X149509220Y-138389515D01*
X148209220Y-138389515D01*
X148209220Y-136239515D01*
X149640713Y-135905500D01*
X149669102Y-135905500D01*
X149675806Y-135905334D01*
X149679167Y-135905252D01*
X149680494Y-135905186D01*
X149681269Y-135905149D01*
X149687343Y-135905000D01*
X150175500Y-135905000D01*
X150209220Y-135914901D01*
G37*
%TD.AperFunction*%
%TD*%
%TA.AperFunction,Conductor*%
%TO.N,GND*%
G36*
X156618731Y-135905149D02*
G01*
X156619563Y-135905189D01*
X156620833Y-135905252D01*
X156622709Y-135905298D01*
X158100000Y-136250000D01*
X158100000Y-138400000D01*
X156800000Y-138400000D01*
X156800000Y-137300000D01*
X156274975Y-137300000D01*
X156252488Y-137287017D01*
X156252489Y-137287017D01*
X156235944Y-137282583D01*
X156112475Y-137249500D01*
X156112473Y-137249500D01*
X156108310Y-137248952D01*
X156105058Y-137247513D01*
X156104624Y-137247397D01*
X156104642Y-137247329D01*
X156100000Y-137245275D01*
X156100000Y-135910329D01*
X156124500Y-135905000D01*
X156612657Y-135905000D01*
X156618731Y-135905149D01*
G37*
%TD.AperFunction*%
%TD*%
%TA.AperFunction,Conductor*%
%TO.N,/V_BUS*%
G36*
X158309640Y-134051527D02*
G01*
X158346361Y-134057342D01*
X158388756Y-134064057D01*
X158425651Y-134076044D01*
X158488228Y-134107929D01*
X158490135Y-134109314D01*
X158491359Y-134109581D01*
X158519613Y-134130732D01*
X158569267Y-134180386D01*
X158592071Y-134211772D01*
X158623954Y-134274346D01*
X158635942Y-134311242D01*
X158648473Y-134390357D01*
X158650000Y-134409756D01*
X158650000Y-135340243D01*
X158648473Y-135359640D01*
X158648473Y-135359642D01*
X158635942Y-135438757D01*
X158623954Y-135475653D01*
X158592071Y-135538227D01*
X158569267Y-135569613D01*
X158519613Y-135619267D01*
X158488227Y-135642071D01*
X158425653Y-135673954D01*
X158388757Y-135685942D01*
X158326308Y-135695833D01*
X158309640Y-135698473D01*
X158290243Y-135700000D01*
X156630916Y-135700000D01*
X156620738Y-135699500D01*
X156619748Y-135699500D01*
X156080252Y-135699500D01*
X156079262Y-135699500D01*
X156069084Y-135700000D01*
X155659757Y-135700000D01*
X155640359Y-135698473D01*
X155561243Y-135685942D01*
X155524346Y-135673954D01*
X155461772Y-135642071D01*
X155430386Y-135619267D01*
X155380732Y-135569613D01*
X155357928Y-135538227D01*
X155326045Y-135475653D01*
X155314057Y-135438755D01*
X155301527Y-135359640D01*
X155300000Y-135340243D01*
X155300000Y-134409756D01*
X155301527Y-134390359D01*
X155314057Y-134311244D01*
X155314058Y-134311242D01*
X155326043Y-134274349D01*
X155357930Y-134211768D01*
X155380729Y-134180389D01*
X155430389Y-134130729D01*
X155461768Y-134107930D01*
X155524349Y-134076043D01*
X155561235Y-134064058D01*
X155640370Y-134051525D01*
X155659757Y-134050000D01*
X158290243Y-134050000D01*
X158309640Y-134051527D01*
G37*
%TD.AperFunction*%
%TD*%
%TA.AperFunction,Conductor*%
%TO.N,/V_BUS*%
G36*
X150659640Y-134051527D02*
G01*
X150696361Y-134057342D01*
X150738756Y-134064057D01*
X150775651Y-134076044D01*
X150838228Y-134107929D01*
X150840135Y-134109314D01*
X150841359Y-134109581D01*
X150869613Y-134130732D01*
X150919267Y-134180386D01*
X150942071Y-134211772D01*
X150973954Y-134274346D01*
X150985942Y-134311242D01*
X150998473Y-134390357D01*
X151000000Y-134409756D01*
X151000000Y-135340243D01*
X150998473Y-135359640D01*
X150998473Y-135359642D01*
X150985942Y-135438757D01*
X150973954Y-135475653D01*
X150942071Y-135538227D01*
X150919267Y-135569613D01*
X150869613Y-135619267D01*
X150838227Y-135642071D01*
X150775653Y-135673954D01*
X150738757Y-135685942D01*
X150676308Y-135695833D01*
X150659640Y-135698473D01*
X150640243Y-135700000D01*
X150230916Y-135700000D01*
X150220738Y-135699500D01*
X150219748Y-135699500D01*
X149680252Y-135699500D01*
X149679262Y-135699500D01*
X149669084Y-135700000D01*
X148009757Y-135700000D01*
X147990359Y-135698473D01*
X147911243Y-135685942D01*
X147874346Y-135673954D01*
X147811772Y-135642071D01*
X147780386Y-135619267D01*
X147730732Y-135569613D01*
X147707928Y-135538227D01*
X147676045Y-135475653D01*
X147664057Y-135438755D01*
X147651527Y-135359640D01*
X147650000Y-135340243D01*
X147650000Y-134409756D01*
X147651527Y-134390359D01*
X147664057Y-134311244D01*
X147664058Y-134311242D01*
X147676043Y-134274349D01*
X147707930Y-134211768D01*
X147730729Y-134180389D01*
X147780389Y-134130729D01*
X147811768Y-134107930D01*
X147874349Y-134076043D01*
X147911235Y-134064058D01*
X147990370Y-134051525D01*
X148009757Y-134050000D01*
X150640243Y-134050000D01*
X150659640Y-134051527D01*
G37*
%TD.AperFunction*%
%TD*%
%TA.AperFunction,Conductor*%
%TO.N,GND*%
G36*
X118014074Y-100052994D02*
G01*
X118079900Y-100167008D01*
X118172992Y-100260100D01*
X118287006Y-100325926D01*
X118350589Y-100342963D01*
X117718281Y-100975270D01*
X117718281Y-100975271D01*
X117772446Y-101014624D01*
X117773204Y-101015010D01*
X117773442Y-101015234D01*
X117776603Y-101017172D01*
X117776196Y-101017835D01*
X117824005Y-101062979D01*
X117840808Y-101130798D01*
X117818277Y-101196936D01*
X117763567Y-101240393D01*
X117716922Y-101249501D01*
X117585143Y-101249501D01*
X117585116Y-101249503D01*
X117560011Y-101252414D01*
X117560007Y-101252416D01*
X117457234Y-101297794D01*
X117377793Y-101377235D01*
X117332414Y-101480007D01*
X117332414Y-101480009D01*
X117329499Y-101505132D01*
X117329499Y-102242872D01*
X117309814Y-102309911D01*
X117257010Y-102355666D01*
X117187852Y-102365610D01*
X117124296Y-102336585D01*
X117086522Y-102277807D01*
X117083026Y-102262270D01*
X117076106Y-102218586D01*
X117062170Y-102130592D01*
X117016148Y-101988949D01*
X117006211Y-101958364D01*
X117006210Y-101958361D01*
X116970098Y-101887489D01*
X116923995Y-101797007D01*
X116910395Y-101778288D01*
X116817557Y-101650506D01*
X116817553Y-101650501D01*
X116689498Y-101522446D01*
X116689493Y-101522442D01*
X116542996Y-101416007D01*
X116542995Y-101416006D01*
X116542993Y-101416005D01*
X116466905Y-101377236D01*
X116381638Y-101333789D01*
X116381635Y-101333788D01*
X116209409Y-101277830D01*
X116049316Y-101252473D01*
X115986182Y-101222543D01*
X115949251Y-101163232D01*
X115950249Y-101093369D01*
X115988859Y-101035137D01*
X116049317Y-101007527D01*
X116077591Y-101003048D01*
X116209408Y-100982171D01*
X116381638Y-100926211D01*
X116542993Y-100843996D01*
X116689500Y-100737553D01*
X116817552Y-100609501D01*
X116923995Y-100462994D01*
X116991089Y-100331314D01*
X117039062Y-100280519D01*
X117106883Y-100263724D01*
X117173018Y-100286261D01*
X117216470Y-100340976D01*
X117219503Y-100349290D01*
X117228902Y-100378215D01*
X117228901Y-100378215D01*
X117325374Y-100567551D01*
X117364727Y-100621717D01*
X117997036Y-99989409D01*
X118014074Y-100052994D01*
G37*
%TD.AperFunction*%
%TA.AperFunction,Conductor*%
G36*
X132995466Y-81519685D02*
G01*
X133041221Y-81572489D01*
X133051165Y-81641647D01*
X133046554Y-81661707D01*
X132892467Y-82144335D01*
X132820292Y-82370399D01*
X132588043Y-83217429D01*
X132391068Y-84073355D01*
X132229704Y-84936714D01*
X132207109Y-85093219D01*
X132178047Y-85156758D01*
X132119247Y-85194498D01*
X132084382Y-85199500D01*
X124571068Y-85199500D01*
X124417173Y-85234626D01*
X124274957Y-85303114D01*
X124151538Y-85401538D01*
X124053114Y-85524957D01*
X123984626Y-85667173D01*
X123949500Y-85821068D01*
X123949500Y-85978931D01*
X123984626Y-86132826D01*
X124051504Y-86271699D01*
X124062856Y-86340640D01*
X124035134Y-86404775D01*
X123977138Y-86443740D01*
X123939784Y-86449500D01*
X121285929Y-86449500D01*
X121160261Y-86474497D01*
X121160255Y-86474499D01*
X121041874Y-86523534D01*
X120935326Y-86594726D01*
X119069726Y-88460326D01*
X118998534Y-88566874D01*
X118949499Y-88685255D01*
X118949497Y-88685261D01*
X118924500Y-88810928D01*
X118924500Y-88810931D01*
X118924500Y-88939069D01*
X118924500Y-88939071D01*
X118924499Y-88939071D01*
X118946466Y-89049497D01*
X118949497Y-89064738D01*
X118949500Y-89064747D01*
X118998532Y-89183123D01*
X119006285Y-89194726D01*
X119066824Y-89285331D01*
X119069726Y-89289673D01*
X119160326Y-89380273D01*
X119160329Y-89380275D01*
X119160331Y-89380277D01*
X119266873Y-89451465D01*
X119385256Y-89500501D01*
X119385260Y-89500501D01*
X119385261Y-89500502D01*
X119510928Y-89525500D01*
X119510931Y-89525500D01*
X119639071Y-89525500D01*
X119723615Y-89508682D01*
X119764744Y-89500501D01*
X119883127Y-89451465D01*
X119989669Y-89380277D01*
X121469959Y-87899987D01*
X148475001Y-87899987D01*
X148485494Y-88002698D01*
X148540641Y-88169120D01*
X148540643Y-88169125D01*
X148632684Y-88318346D01*
X148756654Y-88442316D01*
X148905876Y-88534357D01*
X148927752Y-88541606D01*
X148985198Y-88581378D01*
X149012022Y-88645893D01*
X148999708Y-88714669D01*
X148958392Y-88759163D01*
X148959416Y-88760513D01*
X148832077Y-88857076D01*
X148740639Y-88977655D01*
X148685122Y-89118437D01*
X148684510Y-89123538D01*
X148674500Y-89206897D01*
X148674500Y-89793101D01*
X148680126Y-89839953D01*
X148685122Y-89881560D01*
X148740639Y-90022342D01*
X148832077Y-90142921D01*
X148952656Y-90234359D01*
X148952657Y-90234359D01*
X148952658Y-90234360D01*
X149093436Y-90289876D01*
X149181898Y-90300499D01*
X149181903Y-90300499D01*
X150218097Y-90300499D01*
X150218102Y-90300499D01*
X150306564Y-90289876D01*
X150447342Y-90234360D01*
X150567922Y-90142921D01*
X150659361Y-90022341D01*
X150659363Y-90022335D01*
X150663517Y-90014949D01*
X150666409Y-90016575D01*
X150699617Y-89973879D01*
X150765520Y-89950672D01*
X150772086Y-89950498D01*
X151510851Y-89950498D01*
X151577890Y-89970183D01*
X151623645Y-90022987D01*
X151633170Y-90061414D01*
X151634088Y-90061308D01*
X151637413Y-90089987D01*
X151637415Y-90089991D01*
X151682793Y-90192764D01*
X151713181Y-90223152D01*
X151746666Y-90284475D01*
X151749500Y-90310833D01*
X151749500Y-92379192D01*
X151729815Y-92446231D01*
X151713181Y-92466873D01*
X151694726Y-92485327D01*
X151694723Y-92485331D01*
X151623538Y-92591866D01*
X151623533Y-92591875D01*
X151574499Y-92710255D01*
X151574497Y-92710261D01*
X151549500Y-92835928D01*
X151549500Y-92835931D01*
X151549500Y-92964069D01*
X151549500Y-92964071D01*
X151549499Y-92964071D01*
X151574497Y-93089738D01*
X151574499Y-93089744D01*
X151623533Y-93208124D01*
X151623538Y-93208133D01*
X151694723Y-93314668D01*
X151694726Y-93314672D01*
X151785327Y-93405273D01*
X151785331Y-93405276D01*
X151891866Y-93476461D01*
X151891872Y-93476464D01*
X151891873Y-93476465D01*
X152010256Y-93525501D01*
X152010260Y-93525501D01*
X152010261Y-93525502D01*
X152135928Y-93550500D01*
X152135931Y-93550500D01*
X152264071Y-93550500D01*
X152348615Y-93533682D01*
X152389744Y-93525501D01*
X152508127Y-93476465D01*
X152614669Y-93405276D01*
X152705276Y-93314669D01*
X152776465Y-93208127D01*
X152825501Y-93089744D01*
X152850500Y-92964069D01*
X152850500Y-92835931D01*
X152850500Y-92835928D01*
X152825502Y-92710261D01*
X152825501Y-92710260D01*
X152825501Y-92710256D01*
X152817062Y-92689882D01*
X152801885Y-92653240D01*
X152782835Y-92607251D01*
X161749212Y-92607251D01*
X161749497Y-92655731D01*
X161749499Y-92656455D01*
X161749499Y-92700020D01*
X161749777Y-92702769D01*
X161750049Y-92751210D01*
X161750049Y-92751213D01*
X161780486Y-92936989D01*
X161839506Y-93115756D01*
X161925659Y-93283127D01*
X161925664Y-93283135D01*
X162032895Y-93429632D01*
X162036857Y-93435044D01*
X162170357Y-93567758D01*
X162170362Y-93567762D01*
X162170364Y-93567764D01*
X162322925Y-93678057D01*
X162490812Y-93763225D01*
X162580366Y-93792206D01*
X162669910Y-93821184D01*
X162669911Y-93821184D01*
X162669920Y-93821187D01*
X162855873Y-93850527D01*
X162949973Y-93850499D01*
X162950001Y-93850499D01*
X162950036Y-93850499D01*
X162989882Y-93850499D01*
X162989882Y-93850498D01*
X163041244Y-93850498D01*
X167398261Y-93850498D01*
X167401307Y-93850788D01*
X167411300Y-93850729D01*
X167411302Y-93850730D01*
X167450672Y-93850498D01*
X167489882Y-93850498D01*
X167490463Y-93850256D01*
X167500950Y-93850192D01*
X167502987Y-93850180D01*
X167502999Y-93850184D01*
X167503037Y-93850180D01*
X167545308Y-93849944D01*
X167731085Y-93819508D01*
X167909847Y-93760490D01*
X168077228Y-93674333D01*
X168229135Y-93563142D01*
X168361857Y-93429635D01*
X168472150Y-93277074D01*
X168557319Y-93109189D01*
X168615281Y-92930081D01*
X168644621Y-92744128D01*
X168644593Y-92650001D01*
X168644593Y-92649714D01*
X168645055Y-91984059D01*
X168647629Y-88278711D01*
X189799500Y-88278711D01*
X189799500Y-88521288D01*
X189830590Y-88757450D01*
X189831162Y-88761789D01*
X189856694Y-88857076D01*
X189893947Y-88996104D01*
X189976219Y-89194726D01*
X189986776Y-89220212D01*
X190108064Y-89430289D01*
X190108066Y-89430292D01*
X190108067Y-89430293D01*
X190255733Y-89622736D01*
X190255739Y-89622743D01*
X190427256Y-89794260D01*
X190427262Y-89794265D01*
X190619711Y-89941936D01*
X190829788Y-90063224D01*
X191053900Y-90156054D01*
X191288211Y-90218838D01*
X191468586Y-90242584D01*
X191528711Y-90250500D01*
X191528712Y-90250500D01*
X191771289Y-90250500D01*
X191822226Y-90243794D01*
X192011789Y-90218838D01*
X192246100Y-90156054D01*
X192470212Y-90063224D01*
X192680289Y-89941936D01*
X192872738Y-89794265D01*
X193044265Y-89622738D01*
X193191936Y-89430289D01*
X193313224Y-89220212D01*
X193406054Y-88996100D01*
X193468838Y-88761789D01*
X193500500Y-88521288D01*
X193500500Y-88278712D01*
X193468838Y-88038211D01*
X193406054Y-87803900D01*
X193313224Y-87579788D01*
X193191936Y-87369711D01*
X193068760Y-87209184D01*
X193044266Y-87177263D01*
X193044260Y-87177256D01*
X192872743Y-87005739D01*
X192872736Y-87005733D01*
X192680293Y-86858067D01*
X192680292Y-86858066D01*
X192680289Y-86858064D01*
X192470212Y-86736776D01*
X192459056Y-86732155D01*
X192246104Y-86643947D01*
X192085060Y-86600795D01*
X192011789Y-86581162D01*
X192011788Y-86581161D01*
X192011785Y-86581161D01*
X191771289Y-86549500D01*
X191771288Y-86549500D01*
X191528712Y-86549500D01*
X191528711Y-86549500D01*
X191288214Y-86581161D01*
X191053895Y-86643947D01*
X190829794Y-86736773D01*
X190829785Y-86736777D01*
X190619706Y-86858067D01*
X190427263Y-87005733D01*
X190427256Y-87005739D01*
X190255739Y-87177256D01*
X190255733Y-87177263D01*
X190108067Y-87369706D01*
X189986777Y-87579785D01*
X189986773Y-87579794D01*
X189893947Y-87803895D01*
X189831161Y-88038214D01*
X189799500Y-88278711D01*
X168647629Y-88278711D01*
X168647632Y-88274567D01*
X168648794Y-86600795D01*
X168650460Y-84202336D01*
X168650462Y-84201856D01*
X168650499Y-84195161D01*
X168650592Y-84194849D01*
X168650787Y-84192802D01*
X168650728Y-84182791D01*
X168650729Y-84182789D01*
X168650502Y-84144471D01*
X168650501Y-84143738D01*
X168650531Y-84101383D01*
X168650290Y-84095499D01*
X168650497Y-84094669D01*
X168650497Y-84094137D01*
X168650188Y-84091111D01*
X168649952Y-84048782D01*
X168649951Y-84048774D01*
X168619516Y-83863013D01*
X168619514Y-83863008D01*
X168619514Y-83863005D01*
X168560495Y-83684243D01*
X168560493Y-83684239D01*
X168560492Y-83684236D01*
X168474341Y-83516869D01*
X168474336Y-83516861D01*
X168456490Y-83492480D01*
X168363145Y-83364955D01*
X168229637Y-83232233D01*
X168229634Y-83232231D01*
X168229631Y-83232228D01*
X168077076Y-83121942D01*
X168077077Y-83121942D01*
X168077075Y-83121941D01*
X167909189Y-83036773D01*
X167909183Y-83036771D01*
X167909178Y-83036769D01*
X167730089Y-82978813D01*
X167730084Y-82978812D01*
X167730082Y-82978811D01*
X167730080Y-82978811D01*
X167629864Y-82962998D01*
X167544129Y-82949471D01*
X167544127Y-82949471D01*
X167481375Y-82949489D01*
X167449999Y-82949499D01*
X162983352Y-82949499D01*
X162982790Y-82949270D01*
X162943927Y-82949499D01*
X162900005Y-82949499D01*
X162897252Y-82949776D01*
X162848785Y-82950048D01*
X162848773Y-82950049D01*
X162663015Y-82980484D01*
X162484242Y-83039506D01*
X162316872Y-83125659D01*
X162316860Y-83125667D01*
X162164959Y-83236851D01*
X162032240Y-83370356D01*
X162032235Y-83370362D01*
X161921941Y-83522924D01*
X161836774Y-83690811D01*
X161836770Y-83690821D01*
X161778814Y-83869909D01*
X161778813Y-83869914D01*
X161749472Y-84055869D01*
X161749499Y-84145277D01*
X161749499Y-92604239D01*
X161749212Y-92607251D01*
X152782835Y-92607251D01*
X152776466Y-92591876D01*
X152776466Y-92591875D01*
X152776465Y-92591873D01*
X152776463Y-92591870D01*
X152776461Y-92591866D01*
X152705276Y-92485331D01*
X152705273Y-92485327D01*
X152686819Y-92466873D01*
X152653334Y-92405550D01*
X152650500Y-92379192D01*
X152650500Y-90310833D01*
X152670185Y-90243794D01*
X152686819Y-90223152D01*
X152691133Y-90218838D01*
X152717206Y-90192765D01*
X152762585Y-90089991D01*
X152765500Y-90064865D01*
X152765499Y-89420943D01*
X153499500Y-89420943D01*
X153499500Y-89579057D01*
X153529158Y-89689744D01*
X153530275Y-89693912D01*
X153534500Y-89726005D01*
X153534500Y-90064856D01*
X153534502Y-90064882D01*
X153537413Y-90089987D01*
X153537415Y-90089991D01*
X153582793Y-90192764D01*
X153582794Y-90192765D01*
X153662235Y-90272206D01*
X153765009Y-90317585D01*
X153790135Y-90320500D01*
X154409864Y-90320499D01*
X154409879Y-90320497D01*
X154409882Y-90320497D01*
X154434987Y-90317586D01*
X154434988Y-90317585D01*
X154434991Y-90317585D01*
X154537765Y-90272206D01*
X154617206Y-90192765D01*
X154625309Y-90174412D01*
X154670392Y-90121038D01*
X154737178Y-90100509D01*
X154738743Y-90100499D01*
X155638320Y-90100499D01*
X155705359Y-90120184D01*
X155724799Y-90138212D01*
X155726085Y-90136927D01*
X155732074Y-90142916D01*
X155732078Y-90142921D01*
X155732082Y-90142924D01*
X155852656Y-90234359D01*
X155852657Y-90234359D01*
X155852658Y-90234360D01*
X155993436Y-90289876D01*
X156081898Y-90300499D01*
X156081903Y-90300499D01*
X157118097Y-90300499D01*
X157118102Y-90300499D01*
X157206564Y-90289876D01*
X157347342Y-90234360D01*
X157467922Y-90142921D01*
X157467928Y-90142912D01*
X157473916Y-90136926D01*
X157475466Y-90138476D01*
X157494208Y-90126432D01*
X157519334Y-90107954D01*
X157524330Y-90107074D01*
X157526746Y-90105522D01*
X157561681Y-90100499D01*
X157775231Y-90100499D01*
X157822683Y-90109937D01*
X157860256Y-90125501D01*
X157860260Y-90125501D01*
X157860261Y-90125502D01*
X157985928Y-90150500D01*
X157985931Y-90150500D01*
X158114071Y-90150500D01*
X158198615Y-90133682D01*
X158239744Y-90125501D01*
X158358127Y-90076465D01*
X158464669Y-90005276D01*
X158555276Y-89914669D01*
X158626465Y-89808127D01*
X158675501Y-89689744D01*
X158700500Y-89564069D01*
X158700500Y-89435931D01*
X158700500Y-89435928D01*
X158675502Y-89310261D01*
X158675501Y-89310260D01*
X158675501Y-89310256D01*
X158626465Y-89191873D01*
X158626464Y-89191872D01*
X158626461Y-89191866D01*
X158555276Y-89085331D01*
X158555273Y-89085327D01*
X158464672Y-88994726D01*
X158464668Y-88994723D01*
X158358133Y-88923538D01*
X158358124Y-88923533D01*
X158239744Y-88874499D01*
X158239738Y-88874497D01*
X158114071Y-88849500D01*
X158114069Y-88849500D01*
X157985931Y-88849500D01*
X157985929Y-88849500D01*
X157860261Y-88874497D01*
X157860255Y-88874499D01*
X157847424Y-88879814D01*
X157822687Y-88890060D01*
X157814511Y-88891686D01*
X157810171Y-88894476D01*
X157775236Y-88899499D01*
X157561681Y-88899499D01*
X157494642Y-88879814D01*
X157475159Y-88861828D01*
X157473916Y-88863072D01*
X157467925Y-88857081D01*
X157467922Y-88857077D01*
X157467917Y-88857073D01*
X157340584Y-88760513D01*
X157341970Y-88758684D01*
X157301680Y-88717370D01*
X157287686Y-88648916D01*
X157312922Y-88583763D01*
X157369376Y-88542597D01*
X157372248Y-88541606D01*
X157394120Y-88534358D01*
X157394124Y-88534357D01*
X157543345Y-88442316D01*
X157667315Y-88318346D01*
X157759356Y-88169125D01*
X157759358Y-88169120D01*
X157814505Y-88002698D01*
X157814506Y-88002691D01*
X157824999Y-87899987D01*
X157825000Y-87899974D01*
X157825000Y-87850001D01*
X155375001Y-87850001D01*
X155375001Y-87899987D01*
X155385494Y-88002698D01*
X155440641Y-88169120D01*
X155440643Y-88169125D01*
X155532684Y-88318346D01*
X155656654Y-88442316D01*
X155805876Y-88534357D01*
X155827752Y-88541606D01*
X155885198Y-88581378D01*
X155912022Y-88645893D01*
X155899708Y-88714669D01*
X155864547Y-88757450D01*
X155855288Y-88764600D01*
X155852658Y-88765638D01*
X155732078Y-88857077D01*
X155727161Y-88863560D01*
X155714116Y-88873636D01*
X155696353Y-88880567D01*
X155681028Y-88891912D01*
X155655795Y-88896394D01*
X155649026Y-88899036D01*
X155645233Y-88898270D01*
X155638319Y-88899499D01*
X154738743Y-88899499D01*
X154671704Y-88879814D01*
X154625949Y-88827010D01*
X154625308Y-88825584D01*
X154618838Y-88810931D01*
X154617206Y-88807235D01*
X154537765Y-88727794D01*
X154473683Y-88699499D01*
X154434992Y-88682415D01*
X154409865Y-88679500D01*
X153790143Y-88679500D01*
X153790117Y-88679502D01*
X153765012Y-88682413D01*
X153765008Y-88682415D01*
X153662235Y-88727793D01*
X153582794Y-88807234D01*
X153537415Y-88910006D01*
X153537415Y-88910008D01*
X153534500Y-88935131D01*
X153534500Y-89273994D01*
X153531617Y-89295892D01*
X153530737Y-89304308D01*
X153530502Y-89305238D01*
X153499500Y-89420943D01*
X152765499Y-89420943D01*
X152765499Y-88935136D01*
X152764154Y-88923535D01*
X152762586Y-88910012D01*
X152762585Y-88910010D01*
X152762585Y-88910009D01*
X152717206Y-88807235D01*
X152637765Y-88727794D01*
X152573683Y-88699499D01*
X152534992Y-88682415D01*
X152509865Y-88679500D01*
X151890143Y-88679500D01*
X151890117Y-88679502D01*
X151865012Y-88682413D01*
X151865008Y-88682415D01*
X151762235Y-88727793D01*
X151682794Y-88807234D01*
X151637415Y-88910006D01*
X151637415Y-88910008D01*
X151634087Y-88938694D01*
X151632539Y-88938514D01*
X151611143Y-88998419D01*
X151555798Y-89041065D01*
X151510850Y-89049498D01*
X150772086Y-89049498D01*
X150705047Y-89029813D01*
X150665362Y-88984014D01*
X150663519Y-88985051D01*
X150659361Y-88977657D01*
X150567922Y-88857076D01*
X150440584Y-88760513D01*
X150441970Y-88758684D01*
X150401680Y-88717370D01*
X150387686Y-88648916D01*
X150412922Y-88583763D01*
X150469376Y-88542597D01*
X150472248Y-88541606D01*
X150494120Y-88534358D01*
X150494124Y-88534357D01*
X150643345Y-88442316D01*
X150767315Y-88318346D01*
X150859356Y-88169125D01*
X150859358Y-88169120D01*
X150914505Y-88002698D01*
X150914506Y-88002691D01*
X150924999Y-87899987D01*
X150925000Y-87899974D01*
X150925000Y-87867844D01*
X152385000Y-87867844D01*
X152391401Y-87927372D01*
X152391403Y-87927379D01*
X152441645Y-88062086D01*
X152441649Y-88062093D01*
X152527809Y-88177187D01*
X152527812Y-88177190D01*
X152642906Y-88263350D01*
X152642913Y-88263354D01*
X152777620Y-88313596D01*
X152777627Y-88313598D01*
X152837155Y-88319999D01*
X152837172Y-88320000D01*
X152900000Y-88320000D01*
X153400000Y-88320000D01*
X153462828Y-88320000D01*
X153462844Y-88319999D01*
X153522372Y-88313598D01*
X153522379Y-88313596D01*
X153657086Y-88263354D01*
X153657093Y-88263350D01*
X153772187Y-88177190D01*
X153772190Y-88177187D01*
X153858350Y-88062093D01*
X153858354Y-88062086D01*
X153908596Y-87927379D01*
X153908598Y-87927372D01*
X153914999Y-87867844D01*
X153915000Y-87867827D01*
X153915000Y-87550000D01*
X153400000Y-87550000D01*
X153400000Y-88320000D01*
X152900000Y-88320000D01*
X152900000Y-87550000D01*
X152385000Y-87550000D01*
X152385000Y-87867844D01*
X150925000Y-87867844D01*
X150925000Y-87850001D01*
X148475001Y-87850001D01*
X148475001Y-87899987D01*
X121469959Y-87899987D01*
X121583127Y-87786819D01*
X121644450Y-87753334D01*
X121670808Y-87750500D01*
X135164071Y-87750500D01*
X135248615Y-87733682D01*
X135289744Y-87725501D01*
X135408127Y-87676465D01*
X135514669Y-87605277D01*
X135585680Y-87534266D01*
X135708990Y-87410957D01*
X135819933Y-87300014D01*
X148475000Y-87300014D01*
X148475000Y-87350001D01*
X149450000Y-87350001D01*
X149950000Y-87350001D01*
X150924999Y-87350001D01*
X150924999Y-87300030D01*
X150924998Y-87300014D01*
X155375000Y-87300014D01*
X155375000Y-87350001D01*
X156350000Y-87350001D01*
X156850000Y-87350001D01*
X157824999Y-87350001D01*
X157824999Y-87300029D01*
X157824998Y-87300014D01*
X157814505Y-87197303D01*
X157759358Y-87030881D01*
X157759356Y-87030876D01*
X157667315Y-86881655D01*
X157543345Y-86757685D01*
X157394124Y-86665644D01*
X157394119Y-86665642D01*
X157227697Y-86610495D01*
X157227690Y-86610494D01*
X157124986Y-86600001D01*
X156850000Y-86600001D01*
X156850000Y-87350001D01*
X156350000Y-87350001D01*
X156350000Y-86600001D01*
X156075029Y-86600001D01*
X156075012Y-86600002D01*
X155972302Y-86610495D01*
X155805880Y-86665642D01*
X155805875Y-86665644D01*
X155656654Y-86757685D01*
X155532684Y-86881655D01*
X155440643Y-87030876D01*
X155440641Y-87030881D01*
X155385494Y-87197303D01*
X155385493Y-87197310D01*
X155375000Y-87300014D01*
X150924998Y-87300014D01*
X150924998Y-87300013D01*
X150914505Y-87197303D01*
X150859358Y-87030881D01*
X150859356Y-87030876D01*
X150767315Y-86881655D01*
X150643345Y-86757685D01*
X150601955Y-86732155D01*
X152385000Y-86732155D01*
X152385000Y-87050000D01*
X152900000Y-87050000D01*
X153400000Y-87050000D01*
X153915000Y-87050000D01*
X153915000Y-86732172D01*
X153914999Y-86732155D01*
X153908598Y-86672627D01*
X153908596Y-86672620D01*
X153858354Y-86537913D01*
X153858350Y-86537906D01*
X153772190Y-86422812D01*
X153772187Y-86422809D01*
X153657093Y-86336649D01*
X153657086Y-86336645D01*
X153522379Y-86286403D01*
X153522372Y-86286401D01*
X153462844Y-86280000D01*
X153400000Y-86280000D01*
X153400000Y-87050000D01*
X152900000Y-87050000D01*
X152900000Y-86280000D01*
X152837155Y-86280000D01*
X152777627Y-86286401D01*
X152777620Y-86286403D01*
X152642913Y-86336645D01*
X152642906Y-86336649D01*
X152527812Y-86422809D01*
X152527809Y-86422812D01*
X152441649Y-86537906D01*
X152441645Y-86537913D01*
X152391403Y-86672620D01*
X152391401Y-86672627D01*
X152385000Y-86732155D01*
X150601955Y-86732155D01*
X150494124Y-86665644D01*
X150494119Y-86665642D01*
X150327697Y-86610495D01*
X150327690Y-86610494D01*
X150224986Y-86600001D01*
X149950000Y-86600001D01*
X149950000Y-87350001D01*
X149450000Y-87350001D01*
X149450000Y-86600001D01*
X149175029Y-86600001D01*
X149175012Y-86600002D01*
X149072302Y-86610495D01*
X148905880Y-86665642D01*
X148905875Y-86665644D01*
X148756654Y-86757685D01*
X148632684Y-86881655D01*
X148540643Y-87030876D01*
X148540641Y-87030881D01*
X148485494Y-87197303D01*
X148485493Y-87197310D01*
X148475000Y-87300014D01*
X135819933Y-87300014D01*
X135910763Y-87209184D01*
X137105271Y-86014675D01*
X137105276Y-86014670D01*
X137176465Y-85908127D01*
X137225501Y-85789744D01*
X137231997Y-85757086D01*
X137250500Y-85664069D01*
X137250500Y-85535931D01*
X137250500Y-85535928D01*
X137225502Y-85410261D01*
X137225501Y-85410260D01*
X137225501Y-85410256D01*
X137187574Y-85318692D01*
X137176466Y-85291875D01*
X137176461Y-85291866D01*
X137105276Y-85185331D01*
X137105273Y-85185327D01*
X137014672Y-85094726D01*
X137014668Y-85094723D01*
X136908133Y-85023538D01*
X136908124Y-85023533D01*
X136789744Y-84974499D01*
X136789738Y-84974497D01*
X136664071Y-84949500D01*
X136664069Y-84949500D01*
X136535931Y-84949500D01*
X136535929Y-84949500D01*
X136410261Y-84974497D01*
X136410255Y-84974499D01*
X136291870Y-85023535D01*
X136185331Y-85094722D01*
X136185324Y-85094728D01*
X134866873Y-86413181D01*
X134805550Y-86446666D01*
X134779192Y-86449500D01*
X133509397Y-86449500D01*
X133442358Y-86429815D01*
X133396603Y-86377011D01*
X133386659Y-86307853D01*
X133402695Y-86262326D01*
X133442808Y-86194580D01*
X133489565Y-86057354D01*
X133498048Y-85987329D01*
X133498108Y-85986840D01*
X133498452Y-85984254D01*
X133619163Y-85149715D01*
X133620026Y-85144538D01*
X133776049Y-84317359D01*
X133777128Y-84312238D01*
X133968397Y-83492450D01*
X133969698Y-83487370D01*
X134195845Y-82676543D01*
X134197358Y-82671537D01*
X134457985Y-81871103D01*
X134459711Y-81866164D01*
X134566404Y-81580600D01*
X134608307Y-81524691D01*
X134673785Y-81500311D01*
X134682561Y-81500000D01*
X171617439Y-81500000D01*
X171684478Y-81519685D01*
X171730233Y-81572489D01*
X171733593Y-81580594D01*
X171800357Y-81759288D01*
X171840276Y-81866130D01*
X171842026Y-81871138D01*
X172102630Y-82671501D01*
X172104164Y-82676579D01*
X172330293Y-83487341D01*
X172331609Y-83492480D01*
X172522863Y-84312204D01*
X172523957Y-84317394D01*
X172679968Y-85144510D01*
X172680840Y-85149743D01*
X172801524Y-85984094D01*
X172801902Y-85986936D01*
X172810425Y-86057317D01*
X172857144Y-86194479D01*
X172857145Y-86194481D01*
X172857146Y-86194483D01*
X172911545Y-86286401D01*
X172930945Y-86319182D01*
X172930949Y-86319188D01*
X172950555Y-86340640D01*
X173028700Y-86426145D01*
X173146274Y-86510839D01*
X173146278Y-86510840D01*
X173146280Y-86510842D01*
X173278688Y-86569681D01*
X173278689Y-86569681D01*
X173278691Y-86569682D01*
X173420346Y-86600184D01*
X173453278Y-86600325D01*
X173453700Y-86600327D01*
X173454118Y-86600500D01*
X173493361Y-86600500D01*
X173493590Y-86600501D01*
X173493591Y-86600501D01*
X173493795Y-86600502D01*
X173532678Y-86600736D01*
X173532679Y-86600735D01*
X173542633Y-86600795D01*
X173545732Y-86600500D01*
X181728927Y-86600500D01*
X181882824Y-86565374D01*
X182025046Y-86496883D01*
X182148462Y-86398462D01*
X182246883Y-86275046D01*
X182259628Y-86248582D01*
X182315373Y-86132826D01*
X182315372Y-86132826D01*
X182315374Y-86132824D01*
X182350500Y-85978927D01*
X182350500Y-85821073D01*
X182347390Y-85807449D01*
X182315373Y-85667173D01*
X182246885Y-85524957D01*
X182246883Y-85524954D01*
X182148462Y-85401538D01*
X182025046Y-85303117D01*
X182025045Y-85303116D01*
X182025042Y-85303114D01*
X181882826Y-85234626D01*
X181728931Y-85199500D01*
X181728927Y-85199500D01*
X181689882Y-85199500D01*
X174215619Y-85199500D01*
X174148580Y-85179815D01*
X174102825Y-85127011D01*
X174092892Y-85093219D01*
X174070296Y-84936714D01*
X173954055Y-84314779D01*
X173908933Y-84073357D01*
X173737238Y-83327284D01*
X173711957Y-83217429D01*
X173662422Y-83036771D01*
X173479704Y-82370384D01*
X173253449Y-81661714D01*
X173251812Y-81591863D01*
X173288198Y-81532216D01*
X173351056Y-81501709D01*
X173371575Y-81500000D01*
X207400480Y-81500000D01*
X207467519Y-81519685D01*
X207513274Y-81572489D01*
X207523419Y-81607815D01*
X207569440Y-81957379D01*
X207569822Y-81960603D01*
X207719442Y-83384146D01*
X207719739Y-83387378D01*
X207832043Y-84814334D01*
X207832255Y-84817573D01*
X207907165Y-86246940D01*
X207907293Y-86250184D01*
X207944763Y-87681093D01*
X207944805Y-87684339D01*
X207944805Y-89115660D01*
X207944763Y-89118906D01*
X207907293Y-90549815D01*
X207907165Y-90553059D01*
X207832255Y-91982426D01*
X207832043Y-91985665D01*
X207719739Y-93412621D01*
X207719442Y-93415853D01*
X207569822Y-94839396D01*
X207569440Y-94842620D01*
X207382612Y-96261719D01*
X207382146Y-96264932D01*
X207158236Y-97678639D01*
X207157687Y-97681838D01*
X206896834Y-99089280D01*
X206896200Y-99092464D01*
X206598611Y-100492507D01*
X206597895Y-100495673D01*
X206263750Y-101887489D01*
X206262951Y-101890636D01*
X205892486Y-103273231D01*
X205891605Y-103276355D01*
X205485071Y-104648788D01*
X205484108Y-104651888D01*
X205041804Y-106013161D01*
X205040761Y-106016235D01*
X204562954Y-107365520D01*
X204561830Y-107368566D01*
X204048878Y-108704851D01*
X204047675Y-108707866D01*
X203499922Y-110030261D01*
X203498641Y-110033243D01*
X202916452Y-111340859D01*
X202915093Y-111343807D01*
X202298877Y-112635732D01*
X202297441Y-112638644D01*
X201647610Y-113914009D01*
X201646098Y-113916882D01*
X200963119Y-115174773D01*
X200961533Y-115177605D01*
X200245851Y-116417202D01*
X200244191Y-116419992D01*
X199496309Y-117640426D01*
X199494577Y-117643171D01*
X198715010Y-118843598D01*
X198713207Y-118846297D01*
X197902460Y-120025941D01*
X197900586Y-120028592D01*
X197059266Y-121186569D01*
X197057324Y-121189170D01*
X196185968Y-122324744D01*
X196183958Y-122327294D01*
X195283167Y-123439678D01*
X195281091Y-123442174D01*
X194351496Y-124530590D01*
X194349356Y-124533030D01*
X193391587Y-125596739D01*
X193389383Y-125599123D01*
X192404103Y-126637392D01*
X192401838Y-126639717D01*
X191389717Y-127651838D01*
X191387392Y-127654103D01*
X190349123Y-128639383D01*
X190346739Y-128641587D01*
X189283030Y-129599356D01*
X189280590Y-129601496D01*
X188192174Y-130531091D01*
X188189678Y-130533167D01*
X187077294Y-131433958D01*
X187074744Y-131435968D01*
X185939170Y-132307324D01*
X185936569Y-132309266D01*
X184778592Y-133150586D01*
X184775941Y-133152460D01*
X183596297Y-133963207D01*
X183593598Y-133965010D01*
X182393171Y-134744577D01*
X182390426Y-134746309D01*
X181169992Y-135494191D01*
X181167202Y-135495851D01*
X179927605Y-136211533D01*
X179924773Y-136213119D01*
X178666882Y-136896098D01*
X178664009Y-136897610D01*
X177388644Y-137547441D01*
X177385732Y-137548877D01*
X176093807Y-138165093D01*
X176090859Y-138166452D01*
X174783243Y-138748641D01*
X174780261Y-138749922D01*
X173457866Y-139297675D01*
X173454851Y-139298878D01*
X172118566Y-139811830D01*
X172115520Y-139812954D01*
X170766235Y-140290761D01*
X170763161Y-140291804D01*
X169401888Y-140734108D01*
X169398788Y-140735071D01*
X168026355Y-141141605D01*
X168023231Y-141142486D01*
X166640636Y-141512951D01*
X166637489Y-141513750D01*
X165245673Y-141847895D01*
X165242507Y-141848611D01*
X163842464Y-142146200D01*
X163839280Y-142146834D01*
X162431838Y-142407687D01*
X162428639Y-142408236D01*
X161014932Y-142632146D01*
X161011719Y-142632612D01*
X159592620Y-142819440D01*
X159589397Y-142819822D01*
X158347657Y-142950334D01*
X158278927Y-142937765D01*
X158227903Y-142890032D01*
X158210785Y-142822292D01*
X158233007Y-142756051D01*
X158247014Y-142739331D01*
X158357177Y-142629168D01*
X158463565Y-142482735D01*
X158545747Y-142321448D01*
X158545748Y-142321445D01*
X158601682Y-142149294D01*
X158630000Y-141970507D01*
X158630000Y-141730001D01*
X157730000Y-141730001D01*
X157730000Y-141230001D01*
X158630000Y-141230001D01*
X158630000Y-140989494D01*
X158601682Y-140810707D01*
X158545748Y-140638556D01*
X158545747Y-140638553D01*
X158463565Y-140477266D01*
X158357176Y-140330831D01*
X158229169Y-140202824D01*
X158082734Y-140096435D01*
X157921447Y-140014253D01*
X157921441Y-140014251D01*
X157749295Y-139958319D01*
X157749285Y-139958316D01*
X157730000Y-139955261D01*
X157730000Y-141030273D01*
X157691940Y-140938387D01*
X157621614Y-140868061D01*
X157529728Y-140830001D01*
X157430272Y-140830001D01*
X157338386Y-140868061D01*
X157268060Y-140938387D01*
X157230000Y-141030273D01*
X157230000Y-139955261D01*
X157210714Y-139958316D01*
X157210704Y-139958319D01*
X157038558Y-140014251D01*
X157038552Y-140014253D01*
X156877265Y-140096435D01*
X156730830Y-140202824D01*
X156602823Y-140330831D01*
X156496434Y-140477266D01*
X156414252Y-140638553D01*
X156414251Y-140638556D01*
X156358317Y-140810707D01*
X156330000Y-140989494D01*
X156330000Y-141230001D01*
X157230000Y-141230001D01*
X157230000Y-141730001D01*
X156330000Y-141730001D01*
X156330000Y-141970507D01*
X156358317Y-142149294D01*
X156414251Y-142321445D01*
X156414252Y-142321448D01*
X156496434Y-142482735D01*
X156602823Y-142629170D01*
X156730824Y-142757171D01*
X156862818Y-142853069D01*
X156879216Y-142874334D01*
X156898338Y-142893185D01*
X156900227Y-142901582D01*
X156905484Y-142908399D01*
X156907781Y-142935152D01*
X156913677Y-142961350D01*
X156910726Y-142969436D01*
X156911463Y-142978012D01*
X156898933Y-143001758D01*
X156889729Y-143026987D01*
X156882874Y-143032194D01*
X156878858Y-143039808D01*
X156855475Y-143053012D01*
X156834096Y-143069257D01*
X156821818Y-143072020D01*
X156818020Y-143074165D01*
X156799663Y-143077006D01*
X156735666Y-143082043D01*
X156732426Y-143082255D01*
X155303059Y-143157165D01*
X155299815Y-143157293D01*
X153868907Y-143194763D01*
X153865661Y-143194805D01*
X152434339Y-143194805D01*
X152431093Y-143194763D01*
X151000184Y-143157293D01*
X150996940Y-143157165D01*
X149567573Y-143082255D01*
X149564333Y-143082043D01*
X149500336Y-143077006D01*
X149435048Y-143052122D01*
X149393578Y-142995890D01*
X149389091Y-142926165D01*
X149423013Y-142865083D01*
X149437182Y-142853069D01*
X149569171Y-142757175D01*
X149697176Y-142629170D01*
X149803565Y-142482735D01*
X149871199Y-142350000D01*
X150441759Y-142350000D01*
X150485357Y-142455254D01*
X150485362Y-142455264D01*
X150567436Y-142578096D01*
X150567439Y-142578100D01*
X150671899Y-142682560D01*
X150671907Y-142682566D01*
X150794739Y-142764640D01*
X150794743Y-142764642D01*
X150899999Y-142808240D01*
X150900000Y-142808240D01*
X151400000Y-142808240D01*
X151505256Y-142764642D01*
X151505260Y-142764640D01*
X151628092Y-142682566D01*
X151628100Y-142682560D01*
X151732560Y-142578100D01*
X151732563Y-142578096D01*
X151814637Y-142455264D01*
X151814642Y-142455254D01*
X151858241Y-142350000D01*
X154441759Y-142350000D01*
X154485357Y-142455254D01*
X154485362Y-142455264D01*
X154567436Y-142578096D01*
X154567439Y-142578100D01*
X154671899Y-142682560D01*
X154671907Y-142682566D01*
X154794739Y-142764640D01*
X154794743Y-142764642D01*
X154899999Y-142808240D01*
X154900000Y-142808240D01*
X155400000Y-142808240D01*
X155505256Y-142764642D01*
X155505260Y-142764640D01*
X155628092Y-142682566D01*
X155628100Y-142682560D01*
X155732560Y-142578100D01*
X155732563Y-142578096D01*
X155814637Y-142455264D01*
X155814642Y-142455254D01*
X155858241Y-142350000D01*
X155400000Y-142350000D01*
X155400000Y-142808240D01*
X154900000Y-142808240D01*
X154900000Y-142350000D01*
X154441759Y-142350000D01*
X151858241Y-142350000D01*
X151400000Y-142350000D01*
X151400000Y-142808240D01*
X150900000Y-142808240D01*
X150900000Y-142350000D01*
X150441759Y-142350000D01*
X149871199Y-142350000D01*
X149885747Y-142321448D01*
X149885749Y-142321442D01*
X149893398Y-142297902D01*
X149893398Y-142297901D01*
X149941682Y-142149294D01*
X149954216Y-142070163D01*
X151000000Y-142070163D01*
X151000000Y-142129837D01*
X151022836Y-142184968D01*
X151065032Y-142227164D01*
X151120163Y-142250000D01*
X151179837Y-142250000D01*
X151234968Y-142227164D01*
X151277164Y-142184968D01*
X151300000Y-142129837D01*
X151300000Y-142070163D01*
X155000000Y-142070163D01*
X155000000Y-142129837D01*
X155022836Y-142184968D01*
X155065032Y-142227164D01*
X155120163Y-142250000D01*
X155179837Y-142250000D01*
X155234968Y-142227164D01*
X155277164Y-142184968D01*
X155300000Y-142129837D01*
X155300000Y-142070163D01*
X155277164Y-142015032D01*
X155234968Y-141972836D01*
X155179837Y-141950000D01*
X155120163Y-141950000D01*
X155065032Y-141972836D01*
X155022836Y-142015032D01*
X155000000Y-142070163D01*
X151300000Y-142070163D01*
X151277164Y-142015032D01*
X151234968Y-141972836D01*
X151179837Y-141950000D01*
X151120163Y-141950000D01*
X151065032Y-141972836D01*
X151022836Y-142015032D01*
X151000000Y-142070163D01*
X149954216Y-142070163D01*
X149970000Y-141970507D01*
X149970000Y-141849999D01*
X150441759Y-141849999D01*
X150441759Y-141850000D01*
X150900000Y-141850000D01*
X151400000Y-141850000D01*
X151858241Y-141850000D01*
X151858240Y-141849999D01*
X154441759Y-141849999D01*
X154441759Y-141850000D01*
X154900000Y-141850000D01*
X155400000Y-141850000D01*
X155858241Y-141850000D01*
X155858240Y-141849999D01*
X155814642Y-141744745D01*
X155814637Y-141744735D01*
X155732563Y-141621903D01*
X155732560Y-141621899D01*
X155628100Y-141517439D01*
X155628096Y-141517436D01*
X155505264Y-141435362D01*
X155505254Y-141435357D01*
X155400000Y-141391759D01*
X155400000Y-141850000D01*
X154900000Y-141850000D01*
X154900000Y-141391759D01*
X154899999Y-141391759D01*
X154794745Y-141435357D01*
X154794735Y-141435362D01*
X154671903Y-141517436D01*
X154671899Y-141517439D01*
X154567439Y-141621899D01*
X154567436Y-141621903D01*
X154485362Y-141744735D01*
X154485357Y-141744745D01*
X154441759Y-141849999D01*
X151858240Y-141849999D01*
X151814642Y-141744745D01*
X151814637Y-141744735D01*
X151732563Y-141621903D01*
X151732560Y-141621899D01*
X151628100Y-141517439D01*
X151628096Y-141517436D01*
X151505264Y-141435362D01*
X151505254Y-141435357D01*
X151400000Y-141391759D01*
X151400000Y-141850000D01*
X150900000Y-141850000D01*
X150900000Y-141391759D01*
X150899999Y-141391759D01*
X150794745Y-141435357D01*
X150794735Y-141435362D01*
X150671903Y-141517436D01*
X150671899Y-141517439D01*
X150567439Y-141621899D01*
X150567436Y-141621903D01*
X150485362Y-141744735D01*
X150485357Y-141744745D01*
X150441759Y-141849999D01*
X149970000Y-141849999D01*
X149970000Y-141730001D01*
X149070000Y-141730001D01*
X149070000Y-141230001D01*
X149970000Y-141230001D01*
X149970000Y-140989494D01*
X149941682Y-140810707D01*
X149885748Y-140638556D01*
X149885747Y-140638553D01*
X149803568Y-140477270D01*
X149754043Y-140409104D01*
X149754042Y-140409101D01*
X149711102Y-140350000D01*
X150441759Y-140350000D01*
X150485357Y-140455254D01*
X150485362Y-140455264D01*
X150567436Y-140578096D01*
X150567439Y-140578100D01*
X150671899Y-140682560D01*
X150671907Y-140682566D01*
X150794739Y-140764640D01*
X150794743Y-140764642D01*
X150899999Y-140808240D01*
X150900000Y-140808240D01*
X151400000Y-140808240D01*
X151505256Y-140764642D01*
X151505260Y-140764640D01*
X151628092Y-140682566D01*
X151628100Y-140682560D01*
X151732560Y-140578100D01*
X151732563Y-140578096D01*
X151814637Y-140455264D01*
X151814642Y-140455254D01*
X151858241Y-140350000D01*
X154441759Y-140350000D01*
X154485357Y-140455254D01*
X154485362Y-140455264D01*
X154567436Y-140578096D01*
X154567439Y-140578100D01*
X154671899Y-140682560D01*
X154671907Y-140682566D01*
X154794739Y-140764640D01*
X154794743Y-140764642D01*
X154899999Y-140808240D01*
X154900000Y-140808240D01*
X155400000Y-140808240D01*
X155505256Y-140764642D01*
X155505260Y-140764640D01*
X155628092Y-140682566D01*
X155628100Y-140682560D01*
X155732560Y-140578100D01*
X155732563Y-140578096D01*
X155814637Y-140455264D01*
X155814642Y-140455254D01*
X155858241Y-140350000D01*
X155400000Y-140350000D01*
X155400000Y-140808240D01*
X154900000Y-140808240D01*
X154900000Y-140350000D01*
X154441759Y-140350000D01*
X151858241Y-140350000D01*
X151400000Y-140350000D01*
X151400000Y-140808240D01*
X150900000Y-140808240D01*
X150900000Y-140350000D01*
X150441759Y-140350000D01*
X149711102Y-140350000D01*
X149697176Y-140330832D01*
X149697172Y-140330827D01*
X149569169Y-140202824D01*
X149422734Y-140096435D01*
X149371174Y-140070163D01*
X151000000Y-140070163D01*
X151000000Y-140129837D01*
X151022836Y-140184968D01*
X151065032Y-140227164D01*
X151120163Y-140250000D01*
X151179837Y-140250000D01*
X151234968Y-140227164D01*
X151277164Y-140184968D01*
X151300000Y-140129837D01*
X151300000Y-140070163D01*
X155000000Y-140070163D01*
X155000000Y-140129837D01*
X155022836Y-140184968D01*
X155065032Y-140227164D01*
X155120163Y-140250000D01*
X155179837Y-140250000D01*
X155234968Y-140227164D01*
X155277164Y-140184968D01*
X155300000Y-140129837D01*
X155300000Y-140070163D01*
X155277164Y-140015032D01*
X155234968Y-139972836D01*
X155179837Y-139950000D01*
X155120163Y-139950000D01*
X155065032Y-139972836D01*
X155022836Y-140015032D01*
X155000000Y-140070163D01*
X151300000Y-140070163D01*
X151277164Y-140015032D01*
X151234968Y-139972836D01*
X151179837Y-139950000D01*
X151120163Y-139950000D01*
X151065032Y-139972836D01*
X151022836Y-140015032D01*
X151000000Y-140070163D01*
X149371174Y-140070163D01*
X149261447Y-140014253D01*
X149261441Y-140014251D01*
X149161293Y-139981712D01*
X149089295Y-139958319D01*
X149089285Y-139958316D01*
X149070000Y-139955261D01*
X149070000Y-141030273D01*
X149031940Y-140938387D01*
X148961614Y-140868061D01*
X148869728Y-140830001D01*
X148770272Y-140830001D01*
X148678386Y-140868061D01*
X148608060Y-140938387D01*
X148570000Y-141030273D01*
X148570000Y-139955261D01*
X148550714Y-139958316D01*
X148550704Y-139958319D01*
X148378558Y-140014251D01*
X148378552Y-140014253D01*
X148217265Y-140096435D01*
X148070830Y-140202824D01*
X147942823Y-140330831D01*
X147836434Y-140477266D01*
X147754252Y-140638553D01*
X147754251Y-140638556D01*
X147698317Y-140810707D01*
X147670000Y-140989494D01*
X147670000Y-141230001D01*
X148570000Y-141230001D01*
X148570000Y-141730001D01*
X147670000Y-141730001D01*
X147670000Y-141970507D01*
X147698317Y-142149294D01*
X147754251Y-142321445D01*
X147754252Y-142321448D01*
X147836434Y-142482735D01*
X147942823Y-142629170D01*
X148052985Y-142739332D01*
X148086470Y-142800655D01*
X148081486Y-142870347D01*
X148039614Y-142926280D01*
X147974150Y-142950697D01*
X147952342Y-142950334D01*
X146710602Y-142819822D01*
X146707379Y-142819440D01*
X145288280Y-142632612D01*
X145285067Y-142632146D01*
X143871360Y-142408236D01*
X143868161Y-142407687D01*
X142460719Y-142146834D01*
X142457535Y-142146200D01*
X141057492Y-141848611D01*
X141054326Y-141847895D01*
X139662510Y-141513750D01*
X139659363Y-141512951D01*
X138276768Y-141142486D01*
X138273644Y-141141605D01*
X138145058Y-141103516D01*
X136901211Y-140735071D01*
X136898111Y-140734108D01*
X135536838Y-140291804D01*
X135533764Y-140290761D01*
X134184479Y-139812954D01*
X134181433Y-139811830D01*
X132845148Y-139298878D01*
X132842133Y-139297675D01*
X132231423Y-139044711D01*
X131963795Y-138933856D01*
X135749500Y-138933856D01*
X135749500Y-139466144D01*
X135754825Y-139510494D01*
X135759640Y-139550588D01*
X135812636Y-139684976D01*
X135899921Y-139800078D01*
X136015023Y-139887363D01*
X136015024Y-139887363D01*
X136015025Y-139887364D01*
X136149410Y-139940359D01*
X136233856Y-139950500D01*
X136233862Y-139950500D01*
X137366138Y-139950500D01*
X137366144Y-139950500D01*
X137450590Y-139940359D01*
X137584975Y-139887364D01*
X137634248Y-139849999D01*
X150441759Y-139849999D01*
X150441759Y-139850000D01*
X150900000Y-139850000D01*
X151400000Y-139850000D01*
X151858241Y-139850000D01*
X151858240Y-139849999D01*
X154441759Y-139849999D01*
X154441759Y-139850000D01*
X154900000Y-139850000D01*
X155400000Y-139850000D01*
X155858241Y-139850000D01*
X155858240Y-139849999D01*
X155814642Y-139744745D01*
X155814637Y-139744735D01*
X155732563Y-139621903D01*
X155732560Y-139621899D01*
X155628100Y-139517439D01*
X155628096Y-139517436D01*
X155505264Y-139435362D01*
X155505254Y-139435357D01*
X155400000Y-139391759D01*
X155400000Y-139850000D01*
X154900000Y-139850000D01*
X154900000Y-139391759D01*
X154899999Y-139391759D01*
X154794745Y-139435357D01*
X154794735Y-139435362D01*
X154671903Y-139517436D01*
X154671899Y-139517439D01*
X154567439Y-139621899D01*
X154567436Y-139621903D01*
X154485362Y-139744735D01*
X154485357Y-139744745D01*
X154441759Y-139849999D01*
X151858240Y-139849999D01*
X151814642Y-139744745D01*
X151814637Y-139744735D01*
X151732563Y-139621903D01*
X151732560Y-139621899D01*
X151628100Y-139517439D01*
X151628096Y-139517436D01*
X151505264Y-139435362D01*
X151505254Y-139435357D01*
X151400000Y-139391759D01*
X151400000Y-139850000D01*
X150900000Y-139850000D01*
X150900000Y-139391759D01*
X150899999Y-139391759D01*
X150794745Y-139435357D01*
X150794735Y-139435362D01*
X150671903Y-139517436D01*
X150671899Y-139517439D01*
X150567439Y-139621899D01*
X150567436Y-139621903D01*
X150485362Y-139744735D01*
X150485357Y-139744745D01*
X150441759Y-139849999D01*
X137634248Y-139849999D01*
X137700078Y-139800078D01*
X137787364Y-139684975D01*
X137840359Y-139550590D01*
X137850500Y-139466144D01*
X137850500Y-138933856D01*
X137840359Y-138849410D01*
X137787364Y-138715025D01*
X137787363Y-138715024D01*
X137787363Y-138715023D01*
X137700078Y-138599921D01*
X137584976Y-138512636D01*
X137450588Y-138459640D01*
X137407242Y-138454435D01*
X137366144Y-138449500D01*
X136233856Y-138449500D01*
X136195841Y-138454065D01*
X136149411Y-138459640D01*
X136015023Y-138512636D01*
X135899921Y-138599921D01*
X135812636Y-138715023D01*
X135759640Y-138849411D01*
X135756392Y-138876461D01*
X135749500Y-138933856D01*
X131963795Y-138933856D01*
X131519738Y-138749922D01*
X131516756Y-138748641D01*
X130209140Y-138166452D01*
X130206192Y-138165093D01*
X129001655Y-137590559D01*
X128914267Y-137548877D01*
X128911355Y-137547441D01*
X127635990Y-136897610D01*
X127633117Y-136896098D01*
X126375226Y-136213119D01*
X126372394Y-136211533D01*
X125670034Y-135806025D01*
X125613391Y-135773322D01*
X130650001Y-135773322D01*
X130660144Y-135872607D01*
X130713452Y-136033481D01*
X130713457Y-136033492D01*
X130802424Y-136177728D01*
X130802427Y-136177732D01*
X130922267Y-136297572D01*
X130922271Y-136297575D01*
X131066507Y-136386542D01*
X131066518Y-136386547D01*
X131227393Y-136439855D01*
X131326683Y-136449999D01*
X131649999Y-136449999D01*
X132150000Y-136449999D01*
X132473308Y-136449999D01*
X132473322Y-136449998D01*
X132572607Y-136439855D01*
X132733481Y-136386547D01*
X132733492Y-136386542D01*
X132877728Y-136297575D01*
X132877732Y-136297572D01*
X132997572Y-136177732D01*
X132997575Y-136177728D01*
X133086542Y-136033492D01*
X133086547Y-136033481D01*
X133139855Y-135872606D01*
X133149999Y-135773322D01*
X133150000Y-135773309D01*
X133150000Y-135750000D01*
X132150000Y-135750000D01*
X132150000Y-136449999D01*
X131649999Y-136449999D01*
X131650000Y-136449998D01*
X131650000Y-135750000D01*
X130650001Y-135750000D01*
X130650001Y-135773322D01*
X125613391Y-135773322D01*
X125132797Y-135495851D01*
X125130007Y-135494191D01*
X125058338Y-135450272D01*
X131650000Y-135450272D01*
X131650000Y-135549728D01*
X131688060Y-135641614D01*
X131758386Y-135711940D01*
X131850272Y-135750000D01*
X131949728Y-135750000D01*
X132041614Y-135711940D01*
X132111940Y-135641614D01*
X132150000Y-135549728D01*
X132150000Y-135450272D01*
X132111940Y-135358386D01*
X132041614Y-135288060D01*
X131949728Y-135250000D01*
X132150000Y-135250000D01*
X133149999Y-135250000D01*
X133149999Y-135226692D01*
X133149998Y-135226677D01*
X133139855Y-135127392D01*
X133086547Y-134966518D01*
X133086542Y-134966507D01*
X132997575Y-134822271D01*
X132997572Y-134822267D01*
X132877732Y-134702427D01*
X132877728Y-134702424D01*
X132733492Y-134613457D01*
X132733481Y-134613452D01*
X132572606Y-134560144D01*
X132473322Y-134550000D01*
X132150000Y-134550000D01*
X132150000Y-135250000D01*
X131949728Y-135250000D01*
X131850272Y-135250000D01*
X131758386Y-135288060D01*
X131688060Y-135358386D01*
X131650000Y-135450272D01*
X125058338Y-135450272D01*
X124860856Y-135329255D01*
X124693464Y-135226677D01*
X130650000Y-135226677D01*
X130650000Y-135250000D01*
X131650000Y-135250000D01*
X131650000Y-134550000D01*
X131326692Y-134550000D01*
X131326676Y-134550001D01*
X131227392Y-134560144D01*
X131066518Y-134613452D01*
X131066507Y-134613457D01*
X130922271Y-134702424D01*
X130922267Y-134702427D01*
X130802427Y-134822267D01*
X130802424Y-134822271D01*
X130713457Y-134966507D01*
X130713452Y-134966518D01*
X130660144Y-135127393D01*
X130650000Y-135226677D01*
X124693464Y-135226677D01*
X123909573Y-134746309D01*
X123906828Y-134744577D01*
X123704913Y-134613452D01*
X123391231Y-134409744D01*
X147344500Y-134409744D01*
X147344500Y-135340254D01*
X147345441Y-135364213D01*
X147346969Y-135383616D01*
X147348412Y-135395812D01*
X147348415Y-135395836D01*
X147349500Y-135404996D01*
X147349500Y-135414069D01*
X147356073Y-135447112D01*
X147356512Y-135449886D01*
X147356539Y-135450064D01*
X147362317Y-135486545D01*
X147369159Y-135515043D01*
X147371645Y-135525397D01*
X147374499Y-135539744D01*
X147379829Y-135552612D01*
X147381833Y-135558782D01*
X147381839Y-135558800D01*
X147385326Y-135569531D01*
X147385495Y-135570051D01*
X147400378Y-135605984D01*
X147403847Y-135614358D01*
X147403848Y-135614361D01*
X147409840Y-135626120D01*
X147412174Y-135630700D01*
X147423535Y-135658127D01*
X147434543Y-135674603D01*
X147435725Y-135676921D01*
X147436555Y-135678276D01*
X147436559Y-135678283D01*
X147460765Y-135717783D01*
X147460769Y-135717789D01*
X147483580Y-135749186D01*
X147483591Y-135749199D01*
X147487249Y-135753482D01*
X147494724Y-135764669D01*
X147508969Y-135778914D01*
X147512118Y-135782601D01*
X147512133Y-135782617D01*
X147514712Y-135785636D01*
X147564349Y-135835273D01*
X147564357Y-135835280D01*
X147564365Y-135835288D01*
X147571068Y-135841013D01*
X147585331Y-135855276D01*
X147596520Y-135862752D01*
X147600810Y-135866416D01*
X147600812Y-135866418D01*
X147600815Y-135866420D01*
X147632200Y-135889223D01*
X147632204Y-135889225D01*
X147632209Y-135889229D01*
X147632215Y-135889233D01*
X147667027Y-135910566D01*
X147673078Y-135914274D01*
X147675393Y-135915453D01*
X147691873Y-135926465D01*
X147719304Y-135937827D01*
X147735652Y-135946157D01*
X147735658Y-135946159D01*
X147735663Y-135946162D01*
X147779928Y-135964496D01*
X147779945Y-135964503D01*
X147788383Y-135967244D01*
X147846058Y-136006678D01*
X147873259Y-136071036D01*
X147861348Y-136139883D01*
X147850388Y-136158059D01*
X147836433Y-136177267D01*
X147754252Y-136338552D01*
X147754251Y-136338555D01*
X147698317Y-136510706D01*
X147670000Y-136689493D01*
X147670000Y-137030000D01*
X148209220Y-137030000D01*
X148209220Y-137530000D01*
X147670000Y-137530000D01*
X147670000Y-137870506D01*
X147698317Y-138049293D01*
X147754251Y-138221444D01*
X147754252Y-138221447D01*
X147836434Y-138382734D01*
X147942823Y-138529169D01*
X148070830Y-138657176D01*
X148217265Y-138763565D01*
X148378552Y-138845747D01*
X148378555Y-138845748D01*
X148550699Y-138901680D01*
X148550712Y-138901683D01*
X148570000Y-138904738D01*
X148570000Y-138389515D01*
X149070000Y-138389515D01*
X149070000Y-138904737D01*
X149089287Y-138901683D01*
X149089300Y-138901680D01*
X149261444Y-138845748D01*
X149261447Y-138845747D01*
X149422734Y-138763565D01*
X149569169Y-138657176D01*
X149697176Y-138529169D01*
X149803567Y-138382732D01*
X149827156Y-138336437D01*
X149875130Y-138285641D01*
X149942951Y-138268845D01*
X149999640Y-138285343D01*
X150047515Y-138312984D01*
X150187525Y-138350500D01*
X150187528Y-138350500D01*
X150332472Y-138350500D01*
X150332475Y-138350500D01*
X150472485Y-138312984D01*
X150598015Y-138240509D01*
X150700509Y-138138015D01*
X150772984Y-138012485D01*
X150810500Y-137872475D01*
X150810500Y-137727525D01*
X150810500Y-137724499D01*
X150811597Y-137720761D01*
X150810729Y-137716963D01*
X150821363Y-137687503D01*
X150830185Y-137657460D01*
X150833129Y-137654908D01*
X150834452Y-137651244D01*
X150859323Y-137632211D01*
X150882989Y-137611705D01*
X150887740Y-137610465D01*
X150889939Y-137608783D01*
X150904728Y-137606033D01*
X150924345Y-137600916D01*
X150929420Y-137600499D01*
X151044864Y-137600499D01*
X151069991Y-137597585D01*
X151094025Y-137586972D01*
X151114844Y-137585262D01*
X151129421Y-137588271D01*
X151144183Y-137586338D01*
X151175084Y-137595410D01*
X151180009Y-137597585D01*
X151205135Y-137600500D01*
X151594864Y-137600499D01*
X151594879Y-137600497D01*
X151594882Y-137600497D01*
X151629258Y-137596511D01*
X151629463Y-137598280D01*
X151670540Y-137598280D01*
X151670745Y-137596511D01*
X151680007Y-137597585D01*
X151680009Y-137597586D01*
X151705135Y-137600501D01*
X152094864Y-137600500D01*
X152094879Y-137600498D01*
X152094882Y-137600498D01*
X152129258Y-137596512D01*
X152129463Y-137598280D01*
X152170539Y-137598279D01*
X152170745Y-137596510D01*
X152180007Y-137597584D01*
X152180009Y-137597585D01*
X152205135Y-137600500D01*
X152594864Y-137600499D01*
X152594879Y-137600497D01*
X152594882Y-137600497D01*
X152629258Y-137596511D01*
X152629463Y-137598281D01*
X152670540Y-137598281D01*
X152670745Y-137596510D01*
X152680007Y-137597584D01*
X152680009Y-137597585D01*
X152705135Y-137600500D01*
X153094864Y-137600499D01*
X153094879Y-137600497D01*
X153094882Y-137600497D01*
X153129258Y-137596511D01*
X153129463Y-137598281D01*
X153170540Y-137598281D01*
X153170745Y-137596510D01*
X153180007Y-137597584D01*
X153180009Y-137597585D01*
X153205135Y-137600500D01*
X153594864Y-137600499D01*
X153594879Y-137600497D01*
X153594882Y-137600497D01*
X153629258Y-137596511D01*
X153629463Y-137598281D01*
X153670540Y-137598281D01*
X153670745Y-137596510D01*
X153680007Y-137597584D01*
X153680009Y-137597585D01*
X153705135Y-137600500D01*
X154094864Y-137600499D01*
X154094879Y-137600497D01*
X154094882Y-137600497D01*
X154129258Y-137596511D01*
X154129463Y-137598280D01*
X154170540Y-137598280D01*
X154170745Y-137596511D01*
X154180007Y-137597585D01*
X154180009Y-137597586D01*
X154205135Y-137600501D01*
X154594864Y-137600500D01*
X154594879Y-137600498D01*
X154594882Y-137600498D01*
X154629258Y-137596512D01*
X154629463Y-137598280D01*
X154670539Y-137598279D01*
X154670745Y-137596510D01*
X154680007Y-137597584D01*
X154680009Y-137597585D01*
X154705135Y-137600500D01*
X155094864Y-137600499D01*
X155094879Y-137600497D01*
X155094882Y-137600497D01*
X155119986Y-137597586D01*
X155119987Y-137597585D01*
X155119991Y-137597585D01*
X155124909Y-137595413D01*
X155185154Y-137585262D01*
X155205975Y-137586972D01*
X155230009Y-137597585D01*
X155255135Y-137600500D01*
X155370587Y-137600499D01*
X155375655Y-137600916D01*
X155403698Y-137611714D01*
X155432539Y-137620183D01*
X155435969Y-137624141D01*
X155440857Y-137626024D01*
X155458611Y-137650272D01*
X155478294Y-137672987D01*
X155479583Y-137678914D01*
X155482134Y-137682398D01*
X155482830Y-137693841D01*
X155489500Y-137724499D01*
X155489500Y-137727525D01*
X155489500Y-137872475D01*
X155516065Y-137971614D01*
X155527017Y-138012488D01*
X155599488Y-138138011D01*
X155599490Y-138138013D01*
X155599491Y-138138015D01*
X155701985Y-138240509D01*
X155701986Y-138240510D01*
X155701988Y-138240511D01*
X155827511Y-138312982D01*
X155827512Y-138312982D01*
X155827515Y-138312984D01*
X155967525Y-138350500D01*
X155967528Y-138350500D01*
X156112472Y-138350500D01*
X156112475Y-138350500D01*
X156252485Y-138312984D01*
X156300357Y-138285344D01*
X156368256Y-138268871D01*
X156434284Y-138291722D01*
X156472842Y-138336435D01*
X156496432Y-138382732D01*
X156602823Y-138529169D01*
X156730830Y-138657176D01*
X156877265Y-138763565D01*
X157038552Y-138845747D01*
X157038555Y-138845748D01*
X157210699Y-138901680D01*
X157210712Y-138901683D01*
X157230000Y-138904738D01*
X157230000Y-138400000D01*
X157730000Y-138400000D01*
X157730000Y-138904737D01*
X157749287Y-138901683D01*
X157749300Y-138901680D01*
X157921444Y-138845748D01*
X157921447Y-138845747D01*
X158082734Y-138763565D01*
X158229169Y-138657176D01*
X158357176Y-138529169D01*
X158463565Y-138382734D01*
X158545747Y-138221447D01*
X158545748Y-138221444D01*
X158601682Y-138049293D01*
X158630000Y-137870506D01*
X158630000Y-137530000D01*
X158100000Y-137530000D01*
X158100000Y-137030000D01*
X158630000Y-137030000D01*
X158630000Y-136689493D01*
X158601682Y-136510706D01*
X158545748Y-136338555D01*
X158545747Y-136338552D01*
X158463566Y-136177266D01*
X158449612Y-136158059D01*
X158441818Y-136136216D01*
X158429907Y-136116322D01*
X158430299Y-136103930D01*
X158426133Y-136092252D01*
X158431386Y-136069662D01*
X158432121Y-136046488D01*
X158439150Y-136036276D01*
X158441959Y-136024199D01*
X158458588Y-136008038D01*
X158471738Y-135988936D01*
X158486517Y-135980896D01*
X158492066Y-135975505D01*
X158502019Y-135970805D01*
X158506733Y-135968829D01*
X158520056Y-135964502D01*
X158564347Y-135946157D01*
X158580476Y-135937937D01*
X158584737Y-135936153D01*
X158584795Y-135936146D01*
X158585177Y-135935970D01*
X158608127Y-135926465D01*
X158619468Y-135918886D01*
X158624855Y-135915586D01*
X158624835Y-135915553D01*
X158667794Y-135889226D01*
X158667793Y-135889226D01*
X158667799Y-135889223D01*
X158699185Y-135866419D01*
X158701772Y-135864208D01*
X158703474Y-135862754D01*
X158714669Y-135855276D01*
X158728931Y-135841012D01*
X158732632Y-135837852D01*
X158732637Y-135837846D01*
X158735634Y-135835288D01*
X158785288Y-135785634D01*
X158787843Y-135782641D01*
X158787849Y-135782636D01*
X158791014Y-135778929D01*
X158805276Y-135764669D01*
X158812754Y-135753474D01*
X158814286Y-135751681D01*
X158816419Y-135749185D01*
X158839223Y-135717799D01*
X158864274Y-135676921D01*
X158865451Y-135674609D01*
X158876465Y-135658127D01*
X158887829Y-135630690D01*
X158896157Y-135614347D01*
X158914502Y-135570056D01*
X158920165Y-135552624D01*
X158925501Y-135539744D01*
X158928359Y-135525372D01*
X158937681Y-135486549D01*
X158943928Y-135447105D01*
X158950500Y-135414069D01*
X158950500Y-135405000D01*
X158951584Y-135395840D01*
X158951587Y-135395821D01*
X158953029Y-135383634D01*
X158953029Y-135383627D01*
X158953031Y-135383615D01*
X158954558Y-135364216D01*
X158955500Y-135340243D01*
X158955500Y-134409756D01*
X158954558Y-134385783D01*
X158953031Y-134366384D01*
X158950500Y-134344998D01*
X158950500Y-134335931D01*
X158943929Y-134302898D01*
X158937681Y-134263450D01*
X158928358Y-134224622D01*
X158925501Y-134210256D01*
X158920167Y-134197379D01*
X158914502Y-134179943D01*
X158896157Y-134135652D01*
X158887827Y-134119304D01*
X158876465Y-134091873D01*
X158865453Y-134075393D01*
X158864274Y-134073078D01*
X158860566Y-134067027D01*
X158839233Y-134032215D01*
X158839229Y-134032209D01*
X158839225Y-134032204D01*
X158839223Y-134032200D01*
X158826835Y-134015150D01*
X158816418Y-134000812D01*
X158816416Y-134000810D01*
X158812752Y-133996520D01*
X158805276Y-133985331D01*
X158791013Y-133971068D01*
X158785288Y-133964365D01*
X158785281Y-133964358D01*
X158785273Y-133964349D01*
X158735649Y-133914726D01*
X158735634Y-133914711D01*
X158731646Y-133911255D01*
X158731646Y-133911254D01*
X158731299Y-133910955D01*
X158728307Y-133908362D01*
X158714669Y-133894724D01*
X158705490Y-133888590D01*
X158702694Y-133886168D01*
X158674440Y-133865017D01*
X158659896Y-133854776D01*
X158659894Y-133854775D01*
X158659891Y-133854773D01*
X158654511Y-133851787D01*
X158646125Y-133847490D01*
X158645847Y-133847320D01*
X158626924Y-133835727D01*
X158626361Y-133835440D01*
X158623819Y-133833890D01*
X158623594Y-133833642D01*
X158619489Y-133831126D01*
X158608124Y-133823533D01*
X158585196Y-133814036D01*
X158576356Y-133809961D01*
X158564341Y-133803839D01*
X158520051Y-133785495D01*
X158520049Y-133785494D01*
X158520046Y-133785493D01*
X158508777Y-133781831D01*
X158508761Y-133781826D01*
X158502608Y-133779827D01*
X158489744Y-133774499D01*
X158475402Y-133771646D01*
X158469909Y-133770327D01*
X158469901Y-133770325D01*
X158436546Y-133762318D01*
X158400018Y-133756533D01*
X158397114Y-133756073D01*
X158364069Y-133749500D01*
X158354995Y-133749500D01*
X158345829Y-133748414D01*
X158345810Y-133748412D01*
X158333618Y-133746969D01*
X158314762Y-133745484D01*
X158249476Y-133720596D01*
X158208009Y-133664362D01*
X158200500Y-133621867D01*
X158200500Y-133064071D01*
X164449499Y-133064071D01*
X164474497Y-133189738D01*
X164474499Y-133189744D01*
X164523533Y-133308124D01*
X164523538Y-133308133D01*
X164594723Y-133414668D01*
X164594725Y-133414671D01*
X164613179Y-133433124D01*
X164646666Y-133494446D01*
X164649500Y-133520807D01*
X164649500Y-137779192D01*
X164629815Y-137846231D01*
X164613181Y-137866873D01*
X164594726Y-137885327D01*
X164594723Y-137885331D01*
X164523538Y-137991866D01*
X164523533Y-137991875D01*
X164474499Y-138110255D01*
X164474497Y-138110261D01*
X164449500Y-138235928D01*
X164449500Y-138235931D01*
X164449500Y-138364069D01*
X164449500Y-138364071D01*
X164449499Y-138364071D01*
X164474497Y-138489738D01*
X164474499Y-138489744D01*
X164523533Y-138608124D01*
X164523538Y-138608133D01*
X164594723Y-138714668D01*
X164594726Y-138714672D01*
X164685327Y-138805273D01*
X164685331Y-138805276D01*
X164791866Y-138876461D01*
X164791872Y-138876464D01*
X164791873Y-138876465D01*
X164910256Y-138925501D01*
X164910260Y-138925501D01*
X164910261Y-138925502D01*
X165035928Y-138950500D01*
X165035931Y-138950500D01*
X165164071Y-138950500D01*
X165248615Y-138933682D01*
X165289744Y-138925501D01*
X165408127Y-138876465D01*
X165514669Y-138805276D01*
X165605276Y-138714669D01*
X165676465Y-138608127D01*
X165725501Y-138489744D01*
X165733682Y-138448615D01*
X165750500Y-138364071D01*
X165750500Y-138235928D01*
X165725502Y-138110261D01*
X165725501Y-138110260D01*
X165725501Y-138110256D01*
X165676465Y-137991873D01*
X165676464Y-137991872D01*
X165676461Y-137991866D01*
X165605276Y-137885331D01*
X165605273Y-137885327D01*
X165586819Y-137866873D01*
X165553334Y-137805550D01*
X165550500Y-137779192D01*
X165550500Y-137012131D01*
X167739230Y-137012131D01*
X167739230Y-137012132D01*
X167758898Y-137155242D01*
X167816450Y-137287739D01*
X167816452Y-137287742D01*
X167868994Y-137354626D01*
X168245373Y-137731005D01*
X168312257Y-137783547D01*
X168312260Y-137783549D01*
X168444757Y-137841101D01*
X168587867Y-137860770D01*
X168587868Y-137860770D01*
X168587869Y-137860770D01*
X168693653Y-137846231D01*
X168730979Y-137841101D01*
X168863476Y-137783549D01*
X168930359Y-137731008D01*
X169731008Y-136930359D01*
X169783549Y-136863476D01*
X169841101Y-136730979D01*
X169860770Y-136587868D01*
X169841101Y-136444757D01*
X169783549Y-136312260D01*
X169731008Y-136245377D01*
X169731005Y-136245373D01*
X169354626Y-135868994D01*
X169287742Y-135816452D01*
X169287739Y-135816450D01*
X169278350Y-135812372D01*
X169188449Y-135773322D01*
X172400001Y-135773322D01*
X172410144Y-135872607D01*
X172463452Y-136033481D01*
X172463457Y-136033492D01*
X172552424Y-136177728D01*
X172552427Y-136177732D01*
X172672267Y-136297572D01*
X172672271Y-136297575D01*
X172816507Y-136386542D01*
X172816518Y-136386547D01*
X172977393Y-136439855D01*
X173076683Y-136449999D01*
X173399999Y-136449999D01*
X173900000Y-136449999D01*
X174223308Y-136449999D01*
X174223322Y-136449998D01*
X174322607Y-136439855D01*
X174483481Y-136386547D01*
X174483492Y-136386542D01*
X174627728Y-136297575D01*
X174627732Y-136297572D01*
X174747572Y-136177732D01*
X174747575Y-136177728D01*
X174836542Y-136033492D01*
X174836547Y-136033481D01*
X174889855Y-135872606D01*
X174899999Y-135773322D01*
X174900000Y-135773309D01*
X174900000Y-135750000D01*
X173900000Y-135750000D01*
X173900000Y-136449999D01*
X173399999Y-136449999D01*
X173400000Y-136449998D01*
X173400000Y-135750000D01*
X172400001Y-135750000D01*
X172400001Y-135773322D01*
X169188449Y-135773322D01*
X169155242Y-135758898D01*
X169012133Y-135739230D01*
X169012131Y-135739230D01*
X168869021Y-135758898D01*
X168736524Y-135816450D01*
X168736521Y-135816452D01*
X168669637Y-135868994D01*
X167868994Y-136669637D01*
X167816452Y-136736521D01*
X167816450Y-136736524D01*
X167758898Y-136869021D01*
X167739230Y-137012131D01*
X165550500Y-137012131D01*
X165550500Y-135450272D01*
X173400000Y-135450272D01*
X173400000Y-135549728D01*
X173438060Y-135641614D01*
X173508386Y-135711940D01*
X173600272Y-135750000D01*
X173699728Y-135750000D01*
X173791614Y-135711940D01*
X173861940Y-135641614D01*
X173900000Y-135549728D01*
X173900000Y-135450272D01*
X173861940Y-135358386D01*
X173791614Y-135288060D01*
X173699728Y-135250000D01*
X173900000Y-135250000D01*
X174899999Y-135250000D01*
X174899999Y-135226692D01*
X174899998Y-135226677D01*
X174889855Y-135127392D01*
X174836547Y-134966518D01*
X174836542Y-134966507D01*
X174747575Y-134822271D01*
X174747572Y-134822267D01*
X174627732Y-134702427D01*
X174627728Y-134702424D01*
X174483492Y-134613457D01*
X174483481Y-134613452D01*
X174322606Y-134560144D01*
X174223322Y-134550000D01*
X173900000Y-134550000D01*
X173900000Y-135250000D01*
X173699728Y-135250000D01*
X173600272Y-135250000D01*
X173508386Y-135288060D01*
X173438060Y-135358386D01*
X173400000Y-135450272D01*
X165550500Y-135450272D01*
X165550500Y-135226677D01*
X172400000Y-135226677D01*
X172400000Y-135250000D01*
X173400000Y-135250000D01*
X173400000Y-134550000D01*
X173076692Y-134550000D01*
X173076676Y-134550001D01*
X172977392Y-134560144D01*
X172816518Y-134613452D01*
X172816507Y-134613457D01*
X172672271Y-134702424D01*
X172672267Y-134702427D01*
X172552427Y-134822267D01*
X172552424Y-134822271D01*
X172463457Y-134966507D01*
X172463452Y-134966518D01*
X172410144Y-135127393D01*
X172400000Y-135226677D01*
X165550500Y-135226677D01*
X165550500Y-133520807D01*
X165570185Y-133453768D01*
X165586821Y-133433124D01*
X165605274Y-133414671D01*
X165605276Y-133414669D01*
X165676465Y-133308127D01*
X165725501Y-133189744D01*
X165750500Y-133064069D01*
X165750500Y-132935931D01*
X165750500Y-132935928D01*
X165725502Y-132810261D01*
X165725501Y-132810260D01*
X165725501Y-132810256D01*
X165676465Y-132691873D01*
X165676464Y-132691872D01*
X165676461Y-132691866D01*
X165605276Y-132585331D01*
X165605273Y-132585327D01*
X165514672Y-132494726D01*
X165514668Y-132494723D01*
X165408133Y-132423538D01*
X165408124Y-132423533D01*
X165289744Y-132374499D01*
X165289738Y-132374497D01*
X165164071Y-132349500D01*
X165164069Y-132349500D01*
X165035931Y-132349500D01*
X165035929Y-132349500D01*
X164910261Y-132374497D01*
X164910255Y-132374499D01*
X164791875Y-132423533D01*
X164791866Y-132423538D01*
X164685331Y-132494723D01*
X164685327Y-132494726D01*
X164594726Y-132585327D01*
X164594723Y-132585331D01*
X164523538Y-132691866D01*
X164523533Y-132691875D01*
X164474499Y-132810255D01*
X164474497Y-132810261D01*
X164449500Y-132935928D01*
X164449500Y-132935931D01*
X164449500Y-133064069D01*
X164449500Y-133064071D01*
X164449499Y-133064071D01*
X158200500Y-133064071D01*
X158200500Y-131985928D01*
X158175502Y-131860261D01*
X158175501Y-131860260D01*
X158175501Y-131860256D01*
X158126465Y-131741873D01*
X158070508Y-131658127D01*
X158066737Y-131652483D01*
X158055279Y-131635333D01*
X158055276Y-131635330D01*
X157264674Y-130844727D01*
X157264673Y-130844726D01*
X157264669Y-130844723D01*
X157158127Y-130773535D01*
X157061469Y-130733498D01*
X157039744Y-130724499D01*
X157039738Y-130724497D01*
X156914071Y-130699500D01*
X156914069Y-130699500D01*
X154185931Y-130699500D01*
X154185929Y-130699500D01*
X154060261Y-130724497D01*
X154060255Y-130724499D01*
X153941870Y-130773535D01*
X153835331Y-130844722D01*
X153835324Y-130844728D01*
X150966873Y-133713181D01*
X150939945Y-133727884D01*
X150914127Y-133744477D01*
X150907926Y-133745368D01*
X150905550Y-133746666D01*
X150879192Y-133749500D01*
X150712308Y-133749500D01*
X150697731Y-133748640D01*
X150683613Y-133746968D01*
X150664213Y-133745441D01*
X150640255Y-133744500D01*
X150640243Y-133744500D01*
X148009757Y-133744500D01*
X148009746Y-133744500D01*
X147985808Y-133745440D01*
X147966417Y-133746965D01*
X147954145Y-133748417D01*
X147954122Y-133748420D01*
X147944999Y-133749500D01*
X147935931Y-133749500D01*
X147902895Y-133756071D01*
X147900048Y-133756521D01*
X147899954Y-133756536D01*
X147863451Y-133762317D01*
X147863450Y-133762317D01*
X147830080Y-133770327D01*
X147830052Y-133770335D01*
X147824575Y-133771650D01*
X147810256Y-133774499D01*
X147797410Y-133779819D01*
X147791305Y-133781802D01*
X147791244Y-133781821D01*
X147779948Y-133785493D01*
X147735660Y-133803838D01*
X147735645Y-133803845D01*
X147723621Y-133809971D01*
X147723297Y-133810136D01*
X147719295Y-133812176D01*
X147691873Y-133823535D01*
X147675397Y-133834543D01*
X147673073Y-133835728D01*
X147671730Y-133836551D01*
X147632185Y-133860784D01*
X147632170Y-133860794D01*
X147600819Y-133883574D01*
X147600810Y-133883581D01*
X147596512Y-133887252D01*
X147585331Y-133894724D01*
X147571089Y-133908964D01*
X147567403Y-133912113D01*
X147567403Y-133912114D01*
X147564365Y-133914709D01*
X147514709Y-133964365D01*
X147512114Y-133967403D01*
X147508970Y-133971083D01*
X147494724Y-133985331D01*
X147487252Y-133996511D01*
X147483581Y-134000810D01*
X147483574Y-134000819D01*
X147460794Y-134032170D01*
X147460784Y-134032185D01*
X147436554Y-134071724D01*
X147436550Y-134071730D01*
X147435728Y-134073073D01*
X147434543Y-134075397D01*
X147423535Y-134091873D01*
X147412176Y-134119295D01*
X147410103Y-134123362D01*
X147409880Y-134123799D01*
X147403841Y-134135653D01*
X147385492Y-134179953D01*
X147385484Y-134179976D01*
X147381839Y-134191191D01*
X147381818Y-134191260D01*
X147379825Y-134197396D01*
X147374499Y-134210256D01*
X147371647Y-134224589D01*
X147370330Y-134230075D01*
X147370324Y-134230096D01*
X147362319Y-134263451D01*
X147358652Y-134286603D01*
X147356072Y-134302890D01*
X147349500Y-134335931D01*
X147349500Y-134345001D01*
X147348418Y-134354134D01*
X147348414Y-134354167D01*
X147346969Y-134366379D01*
X147345441Y-134385785D01*
X147344500Y-134409744D01*
X123391231Y-134409744D01*
X122706400Y-133965009D01*
X122703702Y-133963207D01*
X121524058Y-133152460D01*
X121521407Y-133150586D01*
X120363430Y-132309266D01*
X120360829Y-132307324D01*
X119225255Y-131435968D01*
X119222705Y-131433958D01*
X118966536Y-131226516D01*
X118852110Y-131133856D01*
X126149500Y-131133856D01*
X126149500Y-131666144D01*
X126154825Y-131710494D01*
X126159640Y-131750588D01*
X126212636Y-131884976D01*
X126299921Y-132000078D01*
X126415023Y-132087363D01*
X126415024Y-132087363D01*
X126415025Y-132087364D01*
X126549410Y-132140359D01*
X126633856Y-132150500D01*
X126633862Y-132150500D01*
X127766138Y-132150500D01*
X127766144Y-132150500D01*
X127850590Y-132140359D01*
X127984975Y-132087364D01*
X128100078Y-132000078D01*
X128187364Y-131884975D01*
X128240359Y-131750590D01*
X128250500Y-131666144D01*
X128250500Y-131133856D01*
X128240359Y-131049410D01*
X128187364Y-130915025D01*
X128187363Y-130915024D01*
X128187363Y-130915023D01*
X128100078Y-130799921D01*
X127984976Y-130712636D01*
X127850588Y-130659640D01*
X127807242Y-130654435D01*
X127766144Y-130649500D01*
X126633856Y-130649500D01*
X126595841Y-130654065D01*
X126549411Y-130659640D01*
X126415023Y-130712636D01*
X126299921Y-130799921D01*
X126212636Y-130915023D01*
X126159640Y-131049411D01*
X126154065Y-131095841D01*
X126149500Y-131133856D01*
X118852110Y-131133856D01*
X118110321Y-130533167D01*
X118107825Y-130531091D01*
X117019409Y-129601496D01*
X117016969Y-129599356D01*
X116581454Y-129207216D01*
X116485871Y-129121153D01*
X131999500Y-129121153D01*
X131999500Y-129278846D01*
X132030261Y-129433489D01*
X132030264Y-129433501D01*
X132090602Y-129579172D01*
X132090609Y-129579185D01*
X132178210Y-129710288D01*
X132178213Y-129710292D01*
X133589707Y-131121786D01*
X133589711Y-131121789D01*
X133720814Y-131209390D01*
X133720818Y-131209392D01*
X133720821Y-131209394D01*
X133866503Y-131269738D01*
X134021153Y-131300499D01*
X134021157Y-131300500D01*
X134021158Y-131300500D01*
X134178844Y-131300500D01*
X134178845Y-131300499D01*
X134333498Y-131269738D01*
X134479179Y-131209394D01*
X134610290Y-131121789D01*
X134721789Y-131010290D01*
X134809394Y-130879179D01*
X134869738Y-130733498D01*
X134900500Y-130578843D01*
X134900500Y-130421158D01*
X134869738Y-130266503D01*
X134809394Y-130120821D01*
X134809392Y-130120818D01*
X134809390Y-130120814D01*
X134721789Y-129989711D01*
X134721786Y-129989707D01*
X133374645Y-128642566D01*
X145521004Y-128642566D01*
X145546002Y-128768233D01*
X145546004Y-128768239D01*
X145595038Y-128886619D01*
X145595043Y-128886628D01*
X145666228Y-128993163D01*
X145666231Y-128993167D01*
X145756832Y-129083768D01*
X145756836Y-129083771D01*
X145863371Y-129154956D01*
X145863377Y-129154959D01*
X145863378Y-129154960D01*
X145981761Y-129203996D01*
X145981765Y-129203996D01*
X145981766Y-129203997D01*
X146107433Y-129228995D01*
X146107436Y-129228995D01*
X146235576Y-129228995D01*
X146345061Y-129207216D01*
X146361249Y-129203996D01*
X146479632Y-129154960D01*
X146586174Y-129083771D01*
X146676781Y-128993164D01*
X146747970Y-128886622D01*
X146797006Y-128768239D01*
X146812627Y-128689711D01*
X146822005Y-128642566D01*
X146822005Y-128624449D01*
X146841690Y-128557410D01*
X146858319Y-128536772D01*
X147895551Y-127499540D01*
X147956872Y-127466057D01*
X147958914Y-127465631D01*
X148009719Y-127455526D01*
X148128102Y-127406490D01*
X148234644Y-127335301D01*
X148325251Y-127244694D01*
X148396440Y-127138152D01*
X148445476Y-127019769D01*
X148464987Y-126921683D01*
X148470475Y-126894096D01*
X148470475Y-126778711D01*
X151299500Y-126778711D01*
X151299500Y-127021288D01*
X151331161Y-127261785D01*
X151393947Y-127496104D01*
X151458931Y-127652988D01*
X151486776Y-127720212D01*
X151608064Y-127930289D01*
X151608066Y-127930292D01*
X151608067Y-127930293D01*
X151755733Y-128122736D01*
X151755739Y-128122743D01*
X151927256Y-128294260D01*
X151927262Y-128294265D01*
X152119711Y-128441936D01*
X152329788Y-128563224D01*
X152553900Y-128656054D01*
X152788211Y-128718838D01*
X152968586Y-128742584D01*
X153028711Y-128750500D01*
X153028712Y-128750500D01*
X153271289Y-128750500D01*
X153319388Y-128744167D01*
X153511789Y-128718838D01*
X153746100Y-128656054D01*
X153970212Y-128563224D01*
X154180289Y-128441936D01*
X154372738Y-128294265D01*
X154544265Y-128122738D01*
X154691936Y-127930289D01*
X154813224Y-127720212D01*
X154906054Y-127496100D01*
X154968838Y-127261789D01*
X155000500Y-127021288D01*
X155000500Y-126783430D01*
X158915304Y-126783430D01*
X158940302Y-126909097D01*
X158940304Y-126909103D01*
X158989338Y-127027483D01*
X158989343Y-127027492D01*
X159060528Y-127134027D01*
X159060531Y-127134031D01*
X159151132Y-127224632D01*
X159151136Y-127224635D01*
X159257671Y-127295820D01*
X159257677Y-127295823D01*
X159257678Y-127295824D01*
X159376061Y-127344860D01*
X159376065Y-127344860D01*
X159376066Y-127344861D01*
X159501733Y-127369859D01*
X159501736Y-127369859D01*
X159629876Y-127369859D01*
X159714420Y-127353041D01*
X159755549Y-127344860D01*
X159873932Y-127295824D01*
X159980474Y-127224635D01*
X160071081Y-127134028D01*
X160142270Y-127027486D01*
X160191306Y-126909103D01*
X160216305Y-126783428D01*
X160216305Y-126721968D01*
X160235990Y-126654929D01*
X160252619Y-126634291D01*
X161351032Y-125535878D01*
X161412353Y-125502395D01*
X161462903Y-125501944D01*
X161480906Y-125505525D01*
X161609046Y-125505525D01*
X161713514Y-125484744D01*
X161734719Y-125480526D01*
X161853102Y-125431490D01*
X161959644Y-125360301D01*
X162050251Y-125269694D01*
X162121440Y-125163152D01*
X162170476Y-125044769D01*
X162181993Y-124986872D01*
X162195475Y-124919096D01*
X162195475Y-124790953D01*
X162170477Y-124665286D01*
X162170476Y-124665282D01*
X162170476Y-124665281D01*
X162121440Y-124546898D01*
X162121439Y-124546897D01*
X162121436Y-124546891D01*
X162050251Y-124440356D01*
X162050248Y-124440352D01*
X161959647Y-124349751D01*
X161959643Y-124349748D01*
X161853108Y-124278563D01*
X161853099Y-124278558D01*
X161734719Y-124229524D01*
X161734713Y-124229522D01*
X161609046Y-124204525D01*
X161609044Y-124204525D01*
X161480906Y-124204525D01*
X161480904Y-124204525D01*
X161355236Y-124229522D01*
X161355230Y-124229524D01*
X161236850Y-124278558D01*
X161236841Y-124278563D01*
X161130306Y-124349748D01*
X161130302Y-124349751D01*
X161039701Y-124440352D01*
X161039698Y-124440356D01*
X160968513Y-124546891D01*
X160968508Y-124546900D01*
X160919473Y-124665282D01*
X160919472Y-124665286D01*
X160902313Y-124751548D01*
X160869927Y-124813459D01*
X160868377Y-124815037D01*
X159650876Y-126032540D01*
X159589553Y-126066025D01*
X159563195Y-126068859D01*
X159501734Y-126068859D01*
X159376066Y-126093856D01*
X159376060Y-126093858D01*
X159257680Y-126142892D01*
X159257671Y-126142897D01*
X159151136Y-126214082D01*
X159151132Y-126214085D01*
X159060531Y-126304686D01*
X159060528Y-126304690D01*
X158989343Y-126411225D01*
X158989338Y-126411234D01*
X158940304Y-126529614D01*
X158940302Y-126529620D01*
X158915305Y-126655287D01*
X158915305Y-126655290D01*
X158915305Y-126783428D01*
X158915305Y-126783430D01*
X158915304Y-126783430D01*
X155000500Y-126783430D01*
X155000500Y-126778712D01*
X154968838Y-126538211D01*
X154906054Y-126303900D01*
X154813224Y-126079788D01*
X154691936Y-125869711D01*
X154600467Y-125750506D01*
X154544266Y-125677263D01*
X154544260Y-125677256D01*
X154372743Y-125505739D01*
X154372736Y-125505733D01*
X154180293Y-125358067D01*
X154180292Y-125358066D01*
X154180289Y-125358064D01*
X153970212Y-125236776D01*
X153970205Y-125236773D01*
X153746104Y-125143947D01*
X153511785Y-125081161D01*
X153271289Y-125049500D01*
X153271288Y-125049500D01*
X153028712Y-125049500D01*
X153028711Y-125049500D01*
X152788214Y-125081161D01*
X152553895Y-125143947D01*
X152329794Y-125236773D01*
X152329785Y-125236777D01*
X152119706Y-125358067D01*
X151927263Y-125505733D01*
X151927256Y-125505739D01*
X151755739Y-125677256D01*
X151755733Y-125677263D01*
X151608067Y-125869706D01*
X151608064Y-125869710D01*
X151608064Y-125869711D01*
X151591817Y-125897851D01*
X151486777Y-126079785D01*
X151486773Y-126079794D01*
X151393947Y-126303895D01*
X151331161Y-126538214D01*
X151299500Y-126778711D01*
X148470475Y-126778711D01*
X148470475Y-126765953D01*
X148445477Y-126640286D01*
X148445476Y-126640285D01*
X148445476Y-126640281D01*
X148399639Y-126529620D01*
X148396441Y-126521900D01*
X148396436Y-126521891D01*
X148325251Y-126415356D01*
X148325248Y-126415352D01*
X148234647Y-126324751D01*
X148234643Y-126324748D01*
X148128108Y-126253563D01*
X148128099Y-126253558D01*
X148009719Y-126204524D01*
X148009713Y-126204522D01*
X147884046Y-126179525D01*
X147884044Y-126179525D01*
X147755906Y-126179525D01*
X147755904Y-126179525D01*
X147630236Y-126204522D01*
X147630230Y-126204524D01*
X147511850Y-126253558D01*
X147511841Y-126253563D01*
X147405306Y-126324748D01*
X147405302Y-126324751D01*
X147314701Y-126415352D01*
X147314698Y-126415356D01*
X147243513Y-126521891D01*
X147243508Y-126521900D01*
X147194474Y-126640280D01*
X147194472Y-126640286D01*
X147169475Y-126765953D01*
X147169475Y-126900049D01*
X147149790Y-126967088D01*
X147133156Y-126987730D01*
X146229211Y-127891676D01*
X146167888Y-127925161D01*
X146141530Y-127927995D01*
X146107434Y-127927995D01*
X145981766Y-127952992D01*
X145981760Y-127952994D01*
X145863380Y-128002028D01*
X145863371Y-128002033D01*
X145756836Y-128073218D01*
X145756832Y-128073221D01*
X145666231Y-128163822D01*
X145666228Y-128163826D01*
X145595043Y-128270361D01*
X145595038Y-128270370D01*
X145546004Y-128388750D01*
X145546002Y-128388756D01*
X145521005Y-128514423D01*
X145521005Y-128514426D01*
X145521005Y-128642564D01*
X145521005Y-128642566D01*
X145521004Y-128642566D01*
X133374645Y-128642566D01*
X133310292Y-128578213D01*
X133310288Y-128578210D01*
X133179185Y-128490609D01*
X133179172Y-128490602D01*
X133033501Y-128430264D01*
X133033489Y-128430261D01*
X132878845Y-128399500D01*
X132878842Y-128399500D01*
X132721158Y-128399500D01*
X132721155Y-128399500D01*
X132566510Y-128430261D01*
X132566498Y-128430264D01*
X132420827Y-128490602D01*
X132420814Y-128490609D01*
X132289711Y-128578210D01*
X132289707Y-128578213D01*
X132178213Y-128689707D01*
X132178210Y-128689711D01*
X132090609Y-128820814D01*
X132090602Y-128820827D01*
X132030264Y-128966498D01*
X132030261Y-128966510D01*
X131999500Y-129121153D01*
X116485871Y-129121153D01*
X115953260Y-128641587D01*
X115950876Y-128639383D01*
X114912607Y-127654103D01*
X114910282Y-127651838D01*
X113898161Y-126639717D01*
X113895896Y-126637392D01*
X112910616Y-125599123D01*
X112908412Y-125596739D01*
X112062974Y-124657786D01*
X111993748Y-124580903D01*
X120204525Y-124580903D01*
X120204525Y-124580906D01*
X120204525Y-124709044D01*
X120221002Y-124791879D01*
X120222486Y-124799336D01*
X120222486Y-124799338D01*
X120229522Y-124834712D01*
X120229524Y-124834719D01*
X120278560Y-124953102D01*
X120349748Y-125059644D01*
X120349751Y-125059648D01*
X120440350Y-125150247D01*
X120440353Y-125150249D01*
X120440356Y-125150252D01*
X120537929Y-125215447D01*
X120546898Y-125221440D01*
X120665281Y-125270476D01*
X120665285Y-125270476D01*
X120665286Y-125270477D01*
X120790953Y-125295475D01*
X120790956Y-125295475D01*
X120919096Y-125295475D01*
X121018331Y-125275735D01*
X121044769Y-125270476D01*
X121163152Y-125221440D01*
X121172121Y-125215447D01*
X121269694Y-125150252D01*
X122886602Y-123533344D01*
X124455876Y-121964071D01*
X128449499Y-121964071D01*
X128474497Y-122089738D01*
X128474499Y-122089744D01*
X128523533Y-122208124D01*
X128523538Y-122208133D01*
X128594723Y-122314668D01*
X128594725Y-122314671D01*
X128613179Y-122333124D01*
X128646666Y-122394446D01*
X128649500Y-122420807D01*
X128649500Y-124774198D01*
X128629815Y-124841237D01*
X128613181Y-124861879D01*
X128594726Y-124880333D01*
X128594723Y-124880337D01*
X128523538Y-124986872D01*
X128523533Y-124986881D01*
X128474499Y-125105261D01*
X128474497Y-125105267D01*
X128449500Y-125230934D01*
X128449500Y-125230937D01*
X128449500Y-125359075D01*
X128449500Y-125359077D01*
X128449499Y-125359077D01*
X128474497Y-125484744D01*
X128474499Y-125484750D01*
X128523533Y-125603130D01*
X128523538Y-125603139D01*
X128594723Y-125709674D01*
X128594726Y-125709678D01*
X128685327Y-125800279D01*
X128685331Y-125800282D01*
X128791866Y-125871467D01*
X128791875Y-125871472D01*
X128818692Y-125882580D01*
X128910256Y-125920507D01*
X128910260Y-125920507D01*
X128910261Y-125920508D01*
X129035928Y-125945506D01*
X129035931Y-125945506D01*
X129164071Y-125945506D01*
X129248615Y-125928688D01*
X129289744Y-125920507D01*
X129408127Y-125871471D01*
X129514669Y-125800282D01*
X129605276Y-125709675D01*
X129676465Y-125603133D01*
X129725501Y-125484750D01*
X129740740Y-125408139D01*
X129750500Y-125359077D01*
X129750500Y-125230934D01*
X129737201Y-125164077D01*
X132149499Y-125164077D01*
X132174497Y-125289744D01*
X132174499Y-125289750D01*
X132223533Y-125408130D01*
X132223538Y-125408139D01*
X132294723Y-125514674D01*
X132294726Y-125514678D01*
X132385327Y-125605279D01*
X132385331Y-125605282D01*
X132491866Y-125676467D01*
X132491875Y-125676472D01*
X132493785Y-125677263D01*
X132610256Y-125725507D01*
X132610260Y-125725507D01*
X132610261Y-125725508D01*
X132735928Y-125750506D01*
X132735931Y-125750506D01*
X132864071Y-125750506D01*
X132948615Y-125733688D01*
X132989744Y-125725507D01*
X133108127Y-125676471D01*
X133214669Y-125605282D01*
X133305276Y-125514675D01*
X133376465Y-125408133D01*
X133425501Y-125289750D01*
X133436038Y-125236777D01*
X133450500Y-125164077D01*
X133450500Y-125144240D01*
X133470185Y-125077201D01*
X133522989Y-125031446D01*
X133592147Y-125021502D01*
X133609432Y-125025343D01*
X133735928Y-125050506D01*
X133735931Y-125050506D01*
X133864071Y-125050506D01*
X133959887Y-125031446D01*
X133989744Y-125025507D01*
X134108127Y-124976471D01*
X134214669Y-124905282D01*
X134214672Y-124905279D01*
X134233127Y-124886825D01*
X134294450Y-124853340D01*
X134320808Y-124850506D01*
X134679192Y-124850506D01*
X134746231Y-124870191D01*
X134766873Y-124886825D01*
X134785327Y-124905279D01*
X134785331Y-124905282D01*
X134891866Y-124976467D01*
X134891872Y-124976470D01*
X134891873Y-124976471D01*
X135010256Y-125025507D01*
X135010260Y-125025507D01*
X135010261Y-125025508D01*
X135135928Y-125050506D01*
X135135931Y-125050506D01*
X135264071Y-125050506D01*
X135359887Y-125031446D01*
X135389744Y-125025507D01*
X135508127Y-124976471D01*
X135614669Y-124905282D01*
X135705276Y-124814675D01*
X135776465Y-124708133D01*
X135825501Y-124589750D01*
X135838672Y-124523539D01*
X135850500Y-124464077D01*
X135850500Y-124335934D01*
X135825502Y-124210267D01*
X135825501Y-124210266D01*
X135825501Y-124210262D01*
X135776465Y-124091879D01*
X135776464Y-124091878D01*
X135776461Y-124091872D01*
X135727699Y-124018895D01*
X135706821Y-123952218D01*
X135725305Y-123884837D01*
X135727672Y-123881153D01*
X135776465Y-123808130D01*
X135825501Y-123689747D01*
X135842673Y-123603422D01*
X135850500Y-123564074D01*
X135850500Y-123435931D01*
X135825502Y-123310264D01*
X135825501Y-123310263D01*
X135825501Y-123310259D01*
X135787574Y-123218695D01*
X135776466Y-123191878D01*
X135776461Y-123191869D01*
X135727699Y-123118892D01*
X135706821Y-123052215D01*
X135725305Y-122984834D01*
X135727672Y-122981150D01*
X135776465Y-122908127D01*
X135825501Y-122789744D01*
X135837909Y-122727365D01*
X135850500Y-122664071D01*
X140152443Y-122664071D01*
X140177441Y-122789738D01*
X140177443Y-122789744D01*
X140226477Y-122908124D01*
X140226482Y-122908133D01*
X140297667Y-123014668D01*
X140297670Y-123014672D01*
X140388271Y-123105273D01*
X140388275Y-123105276D01*
X140494810Y-123176461D01*
X140494816Y-123176464D01*
X140494817Y-123176465D01*
X140613200Y-123225501D01*
X140613204Y-123225501D01*
X140613205Y-123225502D01*
X140738872Y-123250500D01*
X140738875Y-123250500D01*
X140812794Y-123250500D01*
X140879833Y-123270185D01*
X140900475Y-123286819D01*
X142663946Y-125050290D01*
X142697431Y-125111613D01*
X142700265Y-125137971D01*
X142700265Y-125164075D01*
X142700265Y-125164077D01*
X142700264Y-125164077D01*
X142725262Y-125289744D01*
X142725264Y-125289750D01*
X142774298Y-125408130D01*
X142774303Y-125408139D01*
X142845488Y-125514674D01*
X142845491Y-125514678D01*
X142936092Y-125605279D01*
X142936096Y-125605282D01*
X143042631Y-125676467D01*
X143042640Y-125676472D01*
X143044550Y-125677263D01*
X143161021Y-125725507D01*
X143161025Y-125725507D01*
X143161026Y-125725508D01*
X143286693Y-125750506D01*
X143286696Y-125750506D01*
X143414836Y-125750506D01*
X143499380Y-125733688D01*
X143540509Y-125725507D01*
X143658892Y-125676471D01*
X143765434Y-125605282D01*
X143856041Y-125514675D01*
X143927230Y-125408133D01*
X143976266Y-125289750D01*
X143986803Y-125236777D01*
X144001265Y-125164077D01*
X144001265Y-125035934D01*
X143976267Y-124910267D01*
X143976266Y-124910266D01*
X143976266Y-124910262D01*
X143927230Y-124791879D01*
X143927229Y-124791878D01*
X143927226Y-124791872D01*
X143856041Y-124685337D01*
X143856038Y-124685333D01*
X143765437Y-124594732D01*
X143765433Y-124594729D01*
X143658898Y-124523544D01*
X143658889Y-124523539D01*
X143540509Y-124474505D01*
X143540503Y-124474503D01*
X143414836Y-124449506D01*
X143414834Y-124449506D01*
X143388730Y-124449506D01*
X143321691Y-124429821D01*
X143301049Y-124413187D01*
X141487404Y-122599542D01*
X141453919Y-122538219D01*
X141453468Y-122536052D01*
X141435774Y-122447102D01*
X141428445Y-122410256D01*
X141379409Y-122291873D01*
X141379408Y-122291872D01*
X141379405Y-122291866D01*
X141308220Y-122185331D01*
X141308217Y-122185327D01*
X141217616Y-122094726D01*
X141217612Y-122094723D01*
X141111077Y-122023538D01*
X141111068Y-122023533D01*
X140992688Y-121974499D01*
X140992682Y-121974497D01*
X140867015Y-121949500D01*
X140867013Y-121949500D01*
X140738875Y-121949500D01*
X140738873Y-121949500D01*
X140613205Y-121974497D01*
X140613199Y-121974499D01*
X140494819Y-122023533D01*
X140494810Y-122023538D01*
X140388275Y-122094723D01*
X140388271Y-122094726D01*
X140297670Y-122185327D01*
X140297667Y-122185331D01*
X140226482Y-122291866D01*
X140226477Y-122291875D01*
X140177443Y-122410255D01*
X140177441Y-122410261D01*
X140152444Y-122535928D01*
X140152444Y-122535931D01*
X140152444Y-122664069D01*
X140152444Y-122664071D01*
X140152443Y-122664071D01*
X135850500Y-122664071D01*
X135850500Y-122535928D01*
X135825502Y-122410261D01*
X135825501Y-122410260D01*
X135825501Y-122410256D01*
X135776465Y-122291873D01*
X135776464Y-122291872D01*
X135776461Y-122291866D01*
X135705276Y-122185331D01*
X135705273Y-122185327D01*
X135614672Y-122094726D01*
X135614668Y-122094723D01*
X135508133Y-122023538D01*
X135508124Y-122023533D01*
X135389744Y-121974499D01*
X135389738Y-121974497D01*
X135264071Y-121949500D01*
X135264069Y-121949500D01*
X135135931Y-121949500D01*
X135135929Y-121949500D01*
X135010261Y-121974497D01*
X135010255Y-121974499D01*
X134891875Y-122023533D01*
X134891866Y-122023538D01*
X134785331Y-122094723D01*
X134785327Y-122094726D01*
X134766873Y-122113181D01*
X134705550Y-122146666D01*
X134679192Y-122149500D01*
X134320808Y-122149500D01*
X134253769Y-122129815D01*
X134233127Y-122113181D01*
X134214672Y-122094726D01*
X134214668Y-122094723D01*
X134108133Y-122023538D01*
X134108124Y-122023533D01*
X133989744Y-121974499D01*
X133989738Y-121974497D01*
X133864071Y-121949500D01*
X133864069Y-121949500D01*
X133735931Y-121949500D01*
X133735929Y-121949500D01*
X133604282Y-121975687D01*
X133604043Y-121974486D01*
X133540615Y-121975045D01*
X133481506Y-121937790D01*
X133451922Y-121874493D01*
X133450500Y-121855765D01*
X133450500Y-121635928D01*
X133425502Y-121510261D01*
X133425501Y-121510260D01*
X133425501Y-121510256D01*
X133376465Y-121391873D01*
X133376464Y-121391872D01*
X133376461Y-121391866D01*
X133305276Y-121285331D01*
X133305273Y-121285327D01*
X133214672Y-121194726D01*
X133214668Y-121194723D01*
X133108133Y-121123538D01*
X133108124Y-121123533D01*
X132989744Y-121074499D01*
X132989738Y-121074497D01*
X132864071Y-121049500D01*
X132864069Y-121049500D01*
X132735931Y-121049500D01*
X132735929Y-121049500D01*
X132610261Y-121074497D01*
X132610255Y-121074499D01*
X132491875Y-121123533D01*
X132491866Y-121123538D01*
X132385331Y-121194723D01*
X132385327Y-121194726D01*
X132294726Y-121285327D01*
X132294723Y-121285331D01*
X132223538Y-121391866D01*
X132223533Y-121391875D01*
X132174499Y-121510255D01*
X132174497Y-121510261D01*
X132149500Y-121635928D01*
X132149500Y-121635931D01*
X132149500Y-125164075D01*
X132149500Y-125164077D01*
X132149499Y-125164077D01*
X129737201Y-125164077D01*
X129725502Y-125105267D01*
X129725501Y-125105266D01*
X129725501Y-125105262D01*
X129676465Y-124986879D01*
X129676464Y-124986878D01*
X129676461Y-124986872D01*
X129605276Y-124880337D01*
X129605273Y-124880333D01*
X129586819Y-124861879D01*
X129553334Y-124800556D01*
X129550500Y-124774198D01*
X129550500Y-122420807D01*
X129570185Y-122353768D01*
X129586821Y-122333124D01*
X129605274Y-122314671D01*
X129605276Y-122314669D01*
X129676465Y-122208127D01*
X129725501Y-122089744D01*
X129748317Y-121975045D01*
X129750500Y-121964071D01*
X129750500Y-121835928D01*
X129725502Y-121710261D01*
X129725501Y-121710260D01*
X129725501Y-121710256D01*
X129714101Y-121682734D01*
X129711847Y-121677291D01*
X129676466Y-121591876D01*
X129676466Y-121591875D01*
X129676465Y-121591873D01*
X129676463Y-121591870D01*
X129676461Y-121591866D01*
X129605276Y-121485331D01*
X129605273Y-121485327D01*
X129514672Y-121394726D01*
X129514668Y-121394723D01*
X129408133Y-121323538D01*
X129408124Y-121323533D01*
X129289744Y-121274499D01*
X129289738Y-121274497D01*
X129164071Y-121249500D01*
X129164069Y-121249500D01*
X129035931Y-121249500D01*
X129035929Y-121249500D01*
X128910261Y-121274497D01*
X128910255Y-121274499D01*
X128791875Y-121323533D01*
X128791866Y-121323538D01*
X128685331Y-121394723D01*
X128685327Y-121394726D01*
X128594726Y-121485327D01*
X128594723Y-121485331D01*
X128523538Y-121591866D01*
X128523533Y-121591875D01*
X128474499Y-121710255D01*
X128474497Y-121710261D01*
X128449500Y-121835928D01*
X128449500Y-121835931D01*
X128449500Y-121964069D01*
X128449500Y-121964071D01*
X128449499Y-121964071D01*
X124455876Y-121964071D01*
X124677789Y-121742158D01*
X124805271Y-121614675D01*
X124805276Y-121614670D01*
X124876465Y-121508127D01*
X124925501Y-121389744D01*
X124928655Y-121373886D01*
X124950500Y-121264069D01*
X124950500Y-121135931D01*
X124950500Y-121135928D01*
X124925502Y-121010261D01*
X124925501Y-121010260D01*
X124925501Y-121010256D01*
X124876465Y-120891873D01*
X124876464Y-120891872D01*
X124876461Y-120891866D01*
X124805276Y-120785331D01*
X124805273Y-120785327D01*
X124714672Y-120694726D01*
X124714668Y-120694723D01*
X124608133Y-120623538D01*
X124608124Y-120623533D01*
X124489744Y-120574499D01*
X124489738Y-120574497D01*
X124364071Y-120549500D01*
X124364069Y-120549500D01*
X124235931Y-120549500D01*
X124235929Y-120549500D01*
X124110261Y-120574497D01*
X124110255Y-120574499D01*
X123991870Y-120623535D01*
X123885331Y-120694722D01*
X123885324Y-120694728D01*
X120349747Y-124230306D01*
X120349743Y-124230311D01*
X120313547Y-124284485D01*
X120313547Y-124284486D01*
X120278559Y-124336849D01*
X120229524Y-124455230D01*
X120229522Y-124455236D01*
X120204525Y-124580903D01*
X111993748Y-124580903D01*
X111950643Y-124533030D01*
X111948503Y-124530590D01*
X111018908Y-123442174D01*
X111016832Y-123439678D01*
X110415501Y-122697096D01*
X110116030Y-122327281D01*
X110114031Y-122324744D01*
X110106299Y-122314668D01*
X109242675Y-121189170D01*
X109240733Y-121186569D01*
X108399413Y-120028592D01*
X108397539Y-120025941D01*
X108109678Y-119607100D01*
X107835815Y-119208627D01*
X169794055Y-119208627D01*
X169819053Y-119334294D01*
X169819055Y-119334300D01*
X169868089Y-119452680D01*
X169868094Y-119452689D01*
X169939279Y-119559224D01*
X169939282Y-119559228D01*
X170029883Y-119649829D01*
X170029887Y-119649832D01*
X170136422Y-119721017D01*
X170136429Y-119721021D01*
X170174000Y-119736583D01*
X170214228Y-119763463D01*
X170826066Y-120375301D01*
X170852946Y-120415528D01*
X170866909Y-120449238D01*
X170868510Y-120453101D01*
X170868513Y-120453108D01*
X170939698Y-120559643D01*
X170939701Y-120559647D01*
X171030302Y-120650248D01*
X171030306Y-120650251D01*
X171136841Y-120721436D01*
X171136847Y-120721439D01*
X171136848Y-120721440D01*
X171255231Y-120770476D01*
X171255235Y-120770476D01*
X171255236Y-120770477D01*
X171380903Y-120795475D01*
X171380906Y-120795475D01*
X171509046Y-120795475D01*
X171599865Y-120777409D01*
X171634719Y-120770476D01*
X171753102Y-120721440D01*
X171859644Y-120650251D01*
X171950251Y-120559644D01*
X172021440Y-120453102D01*
X172070476Y-120334719D01*
X172095475Y-120209044D01*
X172095475Y-120080906D01*
X172095475Y-120080903D01*
X172070477Y-119955236D01*
X172070476Y-119955235D01*
X172070476Y-119955231D01*
X172021440Y-119836848D01*
X172021439Y-119836847D01*
X172021436Y-119836841D01*
X171950251Y-119730306D01*
X171950248Y-119730302D01*
X171859647Y-119639701D01*
X171859643Y-119639698D01*
X171753108Y-119568513D01*
X171753103Y-119568511D01*
X171753102Y-119568510D01*
X171715528Y-119552946D01*
X171675301Y-119526066D01*
X171063463Y-118914228D01*
X171036583Y-118874000D01*
X171021021Y-118836429D01*
X171021017Y-118836422D01*
X170949832Y-118729887D01*
X170949829Y-118729883D01*
X170859228Y-118639282D01*
X170859224Y-118639279D01*
X170752689Y-118568094D01*
X170752680Y-118568089D01*
X170634300Y-118519055D01*
X170634294Y-118519053D01*
X170508627Y-118494056D01*
X170508625Y-118494056D01*
X170380487Y-118494056D01*
X170380485Y-118494056D01*
X170254817Y-118519053D01*
X170254811Y-118519055D01*
X170136431Y-118568089D01*
X170136422Y-118568094D01*
X170029887Y-118639279D01*
X170029883Y-118639282D01*
X169939282Y-118729883D01*
X169939279Y-118729887D01*
X169868094Y-118836422D01*
X169868089Y-118836431D01*
X169819055Y-118954811D01*
X169819053Y-118954817D01*
X169794056Y-119080484D01*
X169794056Y-119080487D01*
X169794056Y-119208625D01*
X169794056Y-119208627D01*
X169794055Y-119208627D01*
X107835815Y-119208627D01*
X107586780Y-118846279D01*
X107584989Y-118843598D01*
X107580335Y-118836431D01*
X106805405Y-117643144D01*
X106803690Y-117640426D01*
X106055808Y-116419992D01*
X106054148Y-116417202D01*
X105696446Y-115797644D01*
X105572853Y-115583575D01*
X105338460Y-115177594D01*
X105336880Y-115174773D01*
X105320917Y-115145373D01*
X104653891Y-113916863D01*
X104652389Y-113914009D01*
X104600545Y-113812260D01*
X104497207Y-113609448D01*
X110749501Y-113609448D01*
X110749501Y-113790551D01*
X110777830Y-113969410D01*
X110833788Y-114141636D01*
X110833789Y-114141639D01*
X110889665Y-114251300D01*
X110893143Y-114258126D01*
X110916007Y-114302997D01*
X111022442Y-114449494D01*
X111022446Y-114449499D01*
X111150501Y-114577554D01*
X111150506Y-114577558D01*
X111204040Y-114616452D01*
X111297007Y-114683996D01*
X111402485Y-114737740D01*
X111458361Y-114766211D01*
X111458364Y-114766212D01*
X111544477Y-114794191D01*
X111630592Y-114822171D01*
X111713430Y-114835291D01*
X111809450Y-114850500D01*
X111809455Y-114850500D01*
X111990551Y-114850500D01*
X112003430Y-114848460D01*
X112072723Y-114857414D01*
X112126176Y-114902409D01*
X112146816Y-114969161D01*
X112128092Y-115036475D01*
X112123148Y-115043818D01*
X112015376Y-115192155D01*
X111952902Y-115314765D01*
X112816449Y-115546151D01*
X112769902Y-115592699D01*
X112704076Y-115706713D01*
X112670001Y-115833880D01*
X112670001Y-115965532D01*
X112687038Y-116029116D01*
X112056717Y-115860222D01*
X111820001Y-115796794D01*
X111820001Y-116005952D01*
X111853243Y-116215833D01*
X111853243Y-116215836D01*
X111918905Y-116417923D01*
X112015380Y-116607263D01*
X112140273Y-116779165D01*
X112140277Y-116779170D01*
X112290536Y-116929429D01*
X112290541Y-116929433D01*
X112462443Y-117054326D01*
X112585059Y-117116803D01*
X112816446Y-116253257D01*
X112862994Y-116299805D01*
X112977008Y-116365631D01*
X113104175Y-116399706D01*
X113235827Y-116399706D01*
X113299410Y-116382668D01*
X113067089Y-117249705D01*
X113067089Y-117249706D01*
X113276247Y-117249706D01*
X113486128Y-117216463D01*
X113486131Y-117216463D01*
X113688218Y-117150801D01*
X113877558Y-117054326D01*
X114049460Y-116929433D01*
X114049465Y-116929429D01*
X114199724Y-116779170D01*
X114199728Y-116779165D01*
X114324621Y-116607264D01*
X114387098Y-116484646D01*
X113523553Y-116253259D01*
X113570100Y-116206713D01*
X113635926Y-116092699D01*
X113670001Y-115965532D01*
X113670001Y-115833880D01*
X113652962Y-115770293D01*
X114520000Y-116002616D01*
X114520001Y-116002616D01*
X114520001Y-115793459D01*
X114486758Y-115583578D01*
X114486758Y-115583575D01*
X114421096Y-115381488D01*
X114324621Y-115192148D01*
X114199728Y-115020246D01*
X114199724Y-115020241D01*
X114049465Y-114869982D01*
X114049460Y-114869978D01*
X113877558Y-114745085D01*
X113754940Y-114682607D01*
X113523553Y-115546152D01*
X113477008Y-115499607D01*
X113362994Y-115433781D01*
X113235827Y-115399706D01*
X113104175Y-115399706D01*
X113040588Y-115416744D01*
X113272913Y-114549706D01*
X113063755Y-114549706D01*
X112953743Y-114567130D01*
X112884449Y-114558175D01*
X112830997Y-114513179D01*
X112810358Y-114446427D01*
X112829083Y-114379114D01*
X112834016Y-114371786D01*
X112883997Y-114302994D01*
X112966212Y-114141639D01*
X113022172Y-113969409D01*
X113047062Y-113812260D01*
X113050501Y-113790551D01*
X113050501Y-113609448D01*
X113027687Y-113465411D01*
X113022172Y-113430591D01*
X112966387Y-113258899D01*
X112966213Y-113258363D01*
X112966212Y-113258360D01*
X112905770Y-113139738D01*
X112883997Y-113097006D01*
X112832746Y-113026465D01*
X112777559Y-112950505D01*
X112777555Y-112950500D01*
X112649500Y-112822445D01*
X112649495Y-112822441D01*
X112502998Y-112716006D01*
X112502997Y-112716005D01*
X112502995Y-112716004D01*
X112412600Y-112669945D01*
X112341640Y-112633788D01*
X112341637Y-112633787D01*
X112169411Y-112577829D01*
X111990552Y-112549500D01*
X111990547Y-112549500D01*
X111809455Y-112549500D01*
X111809450Y-112549500D01*
X111630590Y-112577829D01*
X111458364Y-112633787D01*
X111458356Y-112633791D01*
X111421902Y-112652365D01*
X111421882Y-112652376D01*
X111297007Y-112716004D01*
X111235244Y-112760877D01*
X111235234Y-112760883D01*
X111150501Y-112822445D01*
X111022446Y-112950500D01*
X111022442Y-112950505D01*
X110916007Y-113097002D01*
X110833789Y-113258360D01*
X110833788Y-113258363D01*
X110777830Y-113430589D01*
X110749501Y-113609448D01*
X104497207Y-113609448D01*
X104002550Y-112638627D01*
X104001122Y-112635732D01*
X104000195Y-112633789D01*
X103595740Y-111785831D01*
X103384906Y-111343807D01*
X103383547Y-111340859D01*
X103166679Y-110853766D01*
X102801341Y-110033204D01*
X102800094Y-110030300D01*
X102359228Y-108965954D01*
X107894080Y-108965954D01*
X107906167Y-109077646D01*
X107906167Y-109077648D01*
X107909200Y-109084662D01*
X107916206Y-109100866D01*
X108794863Y-110622742D01*
X108811074Y-110650819D01*
X108811080Y-110650828D01*
X108826156Y-110671117D01*
X108826158Y-110671119D01*
X108826159Y-110671120D01*
X108916845Y-110737435D01*
X109025364Y-110766513D01*
X109137058Y-110754425D01*
X109160275Y-110744387D01*
X109803249Y-110373164D01*
X109871148Y-110356692D01*
X109937175Y-110379544D01*
X109980366Y-110434466D01*
X109987007Y-110504019D01*
X109954991Y-110566122D01*
X109938134Y-110580870D01*
X109880501Y-110622742D01*
X109752446Y-110750797D01*
X109752442Y-110750802D01*
X109646007Y-110897299D01*
X109563789Y-111058657D01*
X109563788Y-111058660D01*
X109507830Y-111230886D01*
X109479501Y-111409745D01*
X109479501Y-111590848D01*
X109507830Y-111769707D01*
X109563788Y-111941933D01*
X109563789Y-111941936D01*
X109646007Y-112103294D01*
X109752442Y-112249791D01*
X109752446Y-112249796D01*
X109880501Y-112377851D01*
X109880506Y-112377855D01*
X109987064Y-112455273D01*
X110027007Y-112484293D01*
X110109766Y-112526461D01*
X110188361Y-112566508D01*
X110188364Y-112566509D01*
X110274477Y-112594488D01*
X110360592Y-112622468D01*
X110432083Y-112633791D01*
X110539450Y-112650797D01*
X110539455Y-112650797D01*
X110720552Y-112650797D01*
X110815664Y-112635732D01*
X110899410Y-112622468D01*
X111071640Y-112566508D01*
X111174553Y-112514071D01*
X117724499Y-112514071D01*
X117749497Y-112639738D01*
X117749499Y-112639744D01*
X117798533Y-112758124D01*
X117798538Y-112758133D01*
X117869723Y-112864668D01*
X117869726Y-112864672D01*
X117960327Y-112955273D01*
X117960331Y-112955276D01*
X118066866Y-113026461D01*
X118066872Y-113026464D01*
X118066873Y-113026465D01*
X118185256Y-113075501D01*
X118185260Y-113075501D01*
X118185261Y-113075502D01*
X118310928Y-113100500D01*
X118310931Y-113100500D01*
X118439071Y-113100500D01*
X118523615Y-113083682D01*
X118564744Y-113075501D01*
X118683127Y-113026465D01*
X118789669Y-112955276D01*
X118880276Y-112864669D01*
X118951465Y-112758127D01*
X119000501Y-112639744D01*
X119021271Y-112535331D01*
X119025500Y-112514071D01*
X119025500Y-112385928D01*
X119000502Y-112260261D01*
X119000501Y-112260260D01*
X119000501Y-112260256D01*
X118951465Y-112141873D01*
X118951464Y-112141872D01*
X118951461Y-112141866D01*
X118880273Y-112035326D01*
X118878644Y-112033341D01*
X118878116Y-112032098D01*
X118876892Y-112030266D01*
X118877239Y-112030033D01*
X118851333Y-111969030D01*
X118850500Y-111954680D01*
X118850500Y-111020807D01*
X118870185Y-110953768D01*
X118886821Y-110933124D01*
X118905274Y-110914671D01*
X118905276Y-110914669D01*
X118976465Y-110808127D01*
X119025501Y-110689744D01*
X119036664Y-110633624D01*
X119050500Y-110564071D01*
X119050500Y-110464071D01*
X120249499Y-110464071D01*
X120274497Y-110589738D01*
X120274499Y-110589744D01*
X120323533Y-110708124D01*
X120323538Y-110708133D01*
X120394723Y-110814668D01*
X120394725Y-110814671D01*
X120413179Y-110833124D01*
X120446666Y-110894446D01*
X120449500Y-110920807D01*
X120449500Y-112429192D01*
X120429815Y-112496231D01*
X120413181Y-112516873D01*
X120394726Y-112535327D01*
X120394723Y-112535331D01*
X120323538Y-112641866D01*
X120323533Y-112641875D01*
X120274499Y-112760255D01*
X120274497Y-112760261D01*
X120249500Y-112885928D01*
X120249500Y-112885931D01*
X120249500Y-113014069D01*
X120249500Y-113014071D01*
X120249499Y-113014071D01*
X120274497Y-113139738D01*
X120274499Y-113139744D01*
X120323533Y-113258124D01*
X120323538Y-113258133D01*
X120394723Y-113364668D01*
X120394726Y-113364672D01*
X120485327Y-113455273D01*
X120485331Y-113455276D01*
X120591866Y-113526461D01*
X120591872Y-113526464D01*
X120591873Y-113526465D01*
X120710256Y-113575501D01*
X120710260Y-113575501D01*
X120710261Y-113575502D01*
X120835928Y-113600500D01*
X120835931Y-113600500D01*
X120964071Y-113600500D01*
X121048615Y-113583682D01*
X121089744Y-113575501D01*
X121154372Y-113548730D01*
X121223840Y-113541262D01*
X121286319Y-113572537D01*
X121321972Y-113632625D01*
X121323441Y-113639100D01*
X121324497Y-113644411D01*
X121324499Y-113644417D01*
X121373533Y-113762797D01*
X121373538Y-113762806D01*
X121444723Y-113869341D01*
X121444726Y-113869345D01*
X121535327Y-113959946D01*
X121535331Y-113959949D01*
X121641866Y-114031134D01*
X121641872Y-114031137D01*
X121641873Y-114031138D01*
X121760256Y-114080174D01*
X121760260Y-114080174D01*
X121760261Y-114080175D01*
X121885928Y-114105173D01*
X121885931Y-114105173D01*
X122014071Y-114105173D01*
X122101070Y-114087867D01*
X122139744Y-114080174D01*
X122206089Y-114052692D01*
X122275556Y-114045223D01*
X122338036Y-114076497D01*
X122372198Y-114134072D01*
X122372730Y-114133911D01*
X122373386Y-114136075D01*
X122373689Y-114136585D01*
X122374127Y-114138519D01*
X122374499Y-114139743D01*
X122423533Y-114258123D01*
X122423538Y-114258132D01*
X122494723Y-114364667D01*
X122494726Y-114364671D01*
X122585327Y-114455272D01*
X122585331Y-114455275D01*
X122691866Y-114526460D01*
X122691872Y-114526463D01*
X122691873Y-114526464D01*
X122810256Y-114575500D01*
X122810260Y-114575500D01*
X122810261Y-114575501D01*
X122935928Y-114600499D01*
X122935931Y-114600499D01*
X123064071Y-114600499D01*
X123148615Y-114583681D01*
X123189744Y-114575500D01*
X123308127Y-114526464D01*
X123414669Y-114455275D01*
X123505276Y-114364668D01*
X123576465Y-114258126D01*
X123625501Y-114139743D01*
X123635820Y-114087867D01*
X144639230Y-114087867D01*
X144639230Y-114087868D01*
X144658898Y-114230978D01*
X144716450Y-114363475D01*
X144716452Y-114363478D01*
X144768994Y-114430362D01*
X145569637Y-115231005D01*
X145636521Y-115283547D01*
X145636524Y-115283549D01*
X145769021Y-115341101D01*
X145912131Y-115360770D01*
X145912132Y-115360770D01*
X145912133Y-115360770D01*
X145983687Y-115350935D01*
X146055243Y-115341101D01*
X146187740Y-115283549D01*
X146254623Y-115231008D01*
X146631008Y-114854623D01*
X146683549Y-114787740D01*
X146741101Y-114655243D01*
X146760770Y-114512132D01*
X146750750Y-114439230D01*
X146741101Y-114369021D01*
X146683549Y-114236524D01*
X146683547Y-114236521D01*
X146631005Y-114169637D01*
X145830362Y-113368994D01*
X145763478Y-113316452D01*
X145763475Y-113316450D01*
X145630978Y-113258898D01*
X145487869Y-113239230D01*
X145487867Y-113239230D01*
X145344757Y-113258898D01*
X145212260Y-113316450D01*
X145212257Y-113316452D01*
X145145373Y-113368994D01*
X144768994Y-113745373D01*
X144716452Y-113812257D01*
X144716450Y-113812260D01*
X144658898Y-113944757D01*
X144639230Y-114087867D01*
X123635820Y-114087867D01*
X123637350Y-114080175D01*
X123642320Y-114055194D01*
X123642320Y-114055192D01*
X123650499Y-114014072D01*
X123650500Y-114014070D01*
X123650500Y-113885927D01*
X123625502Y-113760260D01*
X123625501Y-113760259D01*
X123625501Y-113760255D01*
X123576465Y-113641872D01*
X123576464Y-113641871D01*
X123576461Y-113641865D01*
X123505276Y-113535330D01*
X123505273Y-113535326D01*
X123486819Y-113516872D01*
X123453334Y-113455549D01*
X123450500Y-113429191D01*
X123450500Y-110920805D01*
X123470185Y-110853766D01*
X123486821Y-110833122D01*
X123505273Y-110814670D01*
X123505274Y-110814669D01*
X123505275Y-110814668D01*
X123576464Y-110708126D01*
X123615423Y-110614071D01*
X138149496Y-110614071D01*
X138174494Y-110739738D01*
X138174496Y-110739744D01*
X138223530Y-110858124D01*
X138223535Y-110858133D01*
X138294720Y-110964668D01*
X138294722Y-110964671D01*
X138313176Y-110983124D01*
X138346663Y-111044446D01*
X138349497Y-111070807D01*
X138349497Y-111429192D01*
X138329812Y-111496231D01*
X138313178Y-111516873D01*
X138294723Y-111535327D01*
X138294720Y-111535331D01*
X138223535Y-111641866D01*
X138223530Y-111641875D01*
X138174496Y-111760255D01*
X138174494Y-111760261D01*
X138149497Y-111885928D01*
X138149497Y-111885931D01*
X138149497Y-112014069D01*
X138149497Y-112014071D01*
X138149496Y-112014071D01*
X138174494Y-112139738D01*
X138174496Y-112139744D01*
X138223530Y-112258124D01*
X138223535Y-112258133D01*
X138294720Y-112364668D01*
X138294723Y-112364672D01*
X138385324Y-112455273D01*
X138385328Y-112455276D01*
X138491863Y-112526461D01*
X138491869Y-112526464D01*
X138491870Y-112526465D01*
X138610253Y-112575501D01*
X138610257Y-112575501D01*
X138610258Y-112575502D01*
X138735925Y-112600500D01*
X138735928Y-112600500D01*
X138864068Y-112600500D01*
X138948612Y-112583682D01*
X138989741Y-112575501D01*
X139108124Y-112526465D01*
X139181108Y-112477698D01*
X139247784Y-112456821D01*
X139315164Y-112475305D01*
X139318889Y-112477699D01*
X139391866Y-112526461D01*
X139391872Y-112526464D01*
X139391873Y-112526465D01*
X139510256Y-112575501D01*
X139510260Y-112575501D01*
X139510261Y-112575502D01*
X139635928Y-112600500D01*
X139635931Y-112600500D01*
X139764071Y-112600500D01*
X139848615Y-112583682D01*
X139889744Y-112575501D01*
X140008127Y-112526465D01*
X140114669Y-112455276D01*
X140205276Y-112364669D01*
X140276465Y-112258127D01*
X140325501Y-112139744D01*
X140346271Y-112035331D01*
X140350500Y-112014071D01*
X140350500Y-111885928D01*
X140325502Y-111760261D01*
X140325501Y-111760260D01*
X140325501Y-111760256D01*
X140276465Y-111641873D01*
X140276464Y-111641872D01*
X140276461Y-111641866D01*
X140205276Y-111535331D01*
X140205273Y-111535327D01*
X140186819Y-111516873D01*
X140153334Y-111455550D01*
X140150500Y-111429192D01*
X140150500Y-111070807D01*
X140170185Y-111003768D01*
X140186821Y-110983124D01*
X140205274Y-110964671D01*
X140205276Y-110964669D01*
X140276465Y-110858127D01*
X140325501Y-110739744D01*
X140343190Y-110650819D01*
X140350500Y-110614071D01*
X140350500Y-110485928D01*
X140325502Y-110360261D01*
X140325501Y-110360260D01*
X140325501Y-110360256D01*
X140276465Y-110241873D01*
X140276464Y-110241872D01*
X140276461Y-110241866D01*
X140205276Y-110135331D01*
X140205273Y-110135327D01*
X140114672Y-110044726D01*
X140114668Y-110044723D01*
X140008133Y-109973538D01*
X140008124Y-109973533D01*
X139889744Y-109924499D01*
X139889738Y-109924497D01*
X139764071Y-109899500D01*
X139764069Y-109899500D01*
X139635931Y-109899500D01*
X139635929Y-109899500D01*
X139510261Y-109924497D01*
X139510255Y-109924499D01*
X139391875Y-109973533D01*
X139391868Y-109973537D01*
X139318888Y-110022301D01*
X139252211Y-110043178D01*
X139184831Y-110024693D01*
X139181107Y-110022300D01*
X139108130Y-109973538D01*
X139108121Y-109973533D01*
X138989741Y-109924499D01*
X138989735Y-109924497D01*
X138864068Y-109899500D01*
X138864066Y-109899500D01*
X138735928Y-109899500D01*
X138735926Y-109899500D01*
X138610258Y-109924497D01*
X138610252Y-109924499D01*
X138491872Y-109973533D01*
X138491863Y-109973538D01*
X138385328Y-110044723D01*
X138385324Y-110044726D01*
X138294723Y-110135327D01*
X138294720Y-110135331D01*
X138223535Y-110241866D01*
X138223530Y-110241875D01*
X138174496Y-110360255D01*
X138174494Y-110360261D01*
X138149497Y-110485928D01*
X138149497Y-110485931D01*
X138149497Y-110614069D01*
X138149497Y-110614071D01*
X138149496Y-110614071D01*
X123615423Y-110614071D01*
X123625500Y-110589743D01*
X123641735Y-110508127D01*
X123650499Y-110464070D01*
X123650499Y-110335927D01*
X123625501Y-110210260D01*
X123625500Y-110210256D01*
X123625500Y-110210255D01*
X123576464Y-110091872D01*
X123576463Y-110091871D01*
X123576460Y-110091865D01*
X123505275Y-109985330D01*
X123505272Y-109985326D01*
X123414671Y-109894725D01*
X123414667Y-109894722D01*
X123308132Y-109823537D01*
X123308123Y-109823532D01*
X123189743Y-109774498D01*
X123189737Y-109774496D01*
X123064070Y-109749499D01*
X123064068Y-109749499D01*
X122935930Y-109749499D01*
X122935928Y-109749499D01*
X122810260Y-109774496D01*
X122810254Y-109774498D01*
X122691874Y-109823532D01*
X122691865Y-109823537D01*
X122585330Y-109894722D01*
X122585326Y-109894725D01*
X122562680Y-109917372D01*
X122501357Y-109950857D01*
X122431665Y-109945873D01*
X122387318Y-109917372D01*
X122364672Y-109894726D01*
X122364668Y-109894723D01*
X122258133Y-109823538D01*
X122258124Y-109823533D01*
X122139744Y-109774499D01*
X122139738Y-109774497D01*
X122014071Y-109749500D01*
X122014069Y-109749500D01*
X121885931Y-109749500D01*
X121885929Y-109749500D01*
X121760261Y-109774497D01*
X121760255Y-109774499D01*
X121641875Y-109823533D01*
X121641866Y-109823538D01*
X121535331Y-109894723D01*
X121535327Y-109894726D01*
X121512681Y-109917373D01*
X121451358Y-109950858D01*
X121381666Y-109945874D01*
X121337319Y-109917373D01*
X121314672Y-109894726D01*
X121314668Y-109894723D01*
X121208133Y-109823538D01*
X121208124Y-109823533D01*
X121089744Y-109774499D01*
X121089738Y-109774497D01*
X120964071Y-109749500D01*
X120964069Y-109749500D01*
X120835931Y-109749500D01*
X120835929Y-109749500D01*
X120710261Y-109774497D01*
X120710255Y-109774499D01*
X120591875Y-109823533D01*
X120591866Y-109823538D01*
X120485331Y-109894723D01*
X120485327Y-109894726D01*
X120394726Y-109985327D01*
X120394723Y-109985331D01*
X120323538Y-110091866D01*
X120323533Y-110091875D01*
X120274499Y-110210255D01*
X120274497Y-110210261D01*
X120249500Y-110335928D01*
X120249500Y-110335930D01*
X120249500Y-110335931D01*
X120249500Y-110464069D01*
X120249500Y-110464071D01*
X120249499Y-110464071D01*
X119050500Y-110464071D01*
X119050500Y-110435928D01*
X119034209Y-110354031D01*
X119025502Y-110310261D01*
X119025501Y-110310260D01*
X119025501Y-110310256D01*
X118984079Y-110210254D01*
X118976466Y-110191875D01*
X118976461Y-110191866D01*
X118905276Y-110085331D01*
X118905273Y-110085327D01*
X118814672Y-109994726D01*
X118814668Y-109994723D01*
X118708133Y-109923538D01*
X118708124Y-109923533D01*
X118589744Y-109874499D01*
X118589738Y-109874497D01*
X118464071Y-109849500D01*
X118464069Y-109849500D01*
X118335931Y-109849500D01*
X118335929Y-109849500D01*
X118210261Y-109874497D01*
X118210255Y-109874499D01*
X118091875Y-109923533D01*
X118091866Y-109923538D01*
X117985331Y-109994723D01*
X117985327Y-109994726D01*
X117894726Y-110085327D01*
X117894723Y-110085331D01*
X117823538Y-110191866D01*
X117823533Y-110191875D01*
X117774499Y-110310255D01*
X117774497Y-110310261D01*
X117749500Y-110435928D01*
X117749500Y-110435931D01*
X117749500Y-110564069D01*
X117749500Y-110564071D01*
X117749499Y-110564071D01*
X117774497Y-110689738D01*
X117774499Y-110689744D01*
X117823533Y-110808124D01*
X117823538Y-110808133D01*
X117894723Y-110914668D01*
X117894725Y-110914671D01*
X117913179Y-110933124D01*
X117946666Y-110994446D01*
X117949500Y-111020807D01*
X117949500Y-111904192D01*
X117929815Y-111971231D01*
X117913181Y-111991873D01*
X117869726Y-112035327D01*
X117869723Y-112035331D01*
X117798538Y-112141866D01*
X117798533Y-112141875D01*
X117749499Y-112260255D01*
X117749497Y-112260261D01*
X117724500Y-112385928D01*
X117724500Y-112385931D01*
X117724500Y-112514069D01*
X117724500Y-112514071D01*
X117724499Y-112514071D01*
X111174553Y-112514071D01*
X111232995Y-112484293D01*
X111379502Y-112377850D01*
X111507554Y-112249798D01*
X111613997Y-112103291D01*
X111696212Y-111941936D01*
X111752172Y-111769706D01*
X111770813Y-111652013D01*
X111780501Y-111590848D01*
X111780501Y-111409745D01*
X111764020Y-111305694D01*
X111752172Y-111230888D01*
X111724192Y-111144773D01*
X111696213Y-111058660D01*
X111696212Y-111058657D01*
X111648321Y-110964668D01*
X111613997Y-110897303D01*
X111593756Y-110869443D01*
X111507559Y-110750802D01*
X111507555Y-110750797D01*
X111379500Y-110622742D01*
X111379495Y-110622738D01*
X111232998Y-110516303D01*
X111232997Y-110516302D01*
X111232995Y-110516301D01*
X111130485Y-110464069D01*
X111071640Y-110434085D01*
X111071637Y-110434084D01*
X110899411Y-110378126D01*
X110720552Y-110349797D01*
X110720547Y-110349797D01*
X110539455Y-110349797D01*
X110539450Y-110349797D01*
X110360588Y-110378126D01*
X110188243Y-110434123D01*
X110118402Y-110436118D01*
X110058569Y-110400037D01*
X110027742Y-110337336D01*
X110035707Y-110267921D01*
X110079936Y-110213833D01*
X110087901Y-110208820D01*
X110710225Y-109849521D01*
X110730529Y-109834434D01*
X110796844Y-109743748D01*
X110825922Y-109635229D01*
X110813834Y-109523535D01*
X110803796Y-109500318D01*
X110378723Y-108764071D01*
X114949499Y-108764071D01*
X114974497Y-108889738D01*
X114974499Y-108889744D01*
X115023533Y-109008124D01*
X115023538Y-109008133D01*
X115094723Y-109114668D01*
X115094726Y-109114672D01*
X115185327Y-109205273D01*
X115185331Y-109205276D01*
X115291866Y-109276461D01*
X115291872Y-109276464D01*
X115291873Y-109276465D01*
X115410256Y-109325501D01*
X115410260Y-109325501D01*
X115410261Y-109325502D01*
X115535928Y-109350500D01*
X115535931Y-109350500D01*
X115664071Y-109350500D01*
X115748615Y-109333682D01*
X115789744Y-109325501D01*
X115808235Y-109317841D01*
X115827315Y-109309939D01*
X115874767Y-109300500D01*
X117325233Y-109300500D01*
X117372685Y-109309939D01*
X117398127Y-109320477D01*
X117410256Y-109325501D01*
X117410260Y-109325501D01*
X117410261Y-109325502D01*
X117535928Y-109350500D01*
X117535931Y-109350500D01*
X117664071Y-109350500D01*
X117748615Y-109333682D01*
X117789744Y-109325501D01*
X117908127Y-109276465D01*
X118014669Y-109205276D01*
X118105276Y-109114669D01*
X118176465Y-109008127D01*
X118225501Y-108889744D01*
X118245533Y-108789040D01*
X118250500Y-108764071D01*
X118250500Y-108759046D01*
X123454524Y-108759046D01*
X123479522Y-108884713D01*
X123479524Y-108884719D01*
X123528558Y-109003099D01*
X123528563Y-109003108D01*
X123599748Y-109109643D01*
X123599751Y-109109647D01*
X123690352Y-109200248D01*
X123690356Y-109200251D01*
X123796891Y-109271436D01*
X123796897Y-109271439D01*
X123796898Y-109271440D01*
X123915281Y-109320476D01*
X123915285Y-109320476D01*
X123915286Y-109320477D01*
X124040953Y-109345475D01*
X124040956Y-109345475D01*
X124169096Y-109345475D01*
X124269517Y-109325499D01*
X124294769Y-109320476D01*
X124413152Y-109271440D01*
X124519694Y-109200251D01*
X124610301Y-109109644D01*
X124681490Y-109003102D01*
X124730526Y-108884719D01*
X124739578Y-108839208D01*
X124771961Y-108777299D01*
X124773454Y-108775779D01*
X125682391Y-107866844D01*
X125743714Y-107833359D01*
X125770072Y-107830525D01*
X132869876Y-107830525D01*
X132899316Y-107839169D01*
X132929303Y-107845693D01*
X132934318Y-107849447D01*
X132936915Y-107850210D01*
X132957557Y-107866844D01*
X132964623Y-107873910D01*
X132980043Y-107892699D01*
X132994721Y-107914666D01*
X132994726Y-107914672D01*
X133085327Y-108005273D01*
X133085331Y-108005276D01*
X133191866Y-108076461D01*
X133191875Y-108076466D01*
X133218692Y-108087574D01*
X133310256Y-108125501D01*
X133310260Y-108125501D01*
X133310261Y-108125502D01*
X133435928Y-108150500D01*
X133435931Y-108150500D01*
X133564071Y-108150500D01*
X133648615Y-108133682D01*
X133689744Y-108125501D01*
X133808127Y-108076465D01*
X133914669Y-108005276D01*
X134005276Y-107914669D01*
X134076465Y-107808127D01*
X134125501Y-107689744D01*
X134147130Y-107581011D01*
X134150500Y-107564071D01*
X134150500Y-107435928D01*
X134125502Y-107310261D01*
X134125501Y-107310260D01*
X134125501Y-107310256D01*
X134076465Y-107191873D01*
X134076464Y-107191872D01*
X134076461Y-107191866D01*
X134005276Y-107085331D01*
X134005273Y-107085327D01*
X133914672Y-106994726D01*
X133914668Y-106994723D01*
X133808133Y-106923538D01*
X133808124Y-106923533D01*
X133689744Y-106874499D01*
X133683912Y-106872730D01*
X133684617Y-106870405D01*
X133632187Y-106842973D01*
X133630616Y-106841430D01*
X133538692Y-106749506D01*
X133538691Y-106749505D01*
X133451879Y-106699385D01*
X133451879Y-106699384D01*
X133451875Y-106699383D01*
X133401760Y-106670448D01*
X133249032Y-106629524D01*
X133090918Y-106629524D01*
X133083322Y-106629524D01*
X133083306Y-106629525D01*
X125744742Y-106629525D01*
X125697290Y-106620086D01*
X125659723Y-106604525D01*
X125659713Y-106604522D01*
X125534046Y-106579525D01*
X125534044Y-106579525D01*
X125405906Y-106579525D01*
X125405904Y-106579525D01*
X125280236Y-106604522D01*
X125280230Y-106604524D01*
X125161850Y-106653558D01*
X125161841Y-106653563D01*
X125055306Y-106724748D01*
X125055302Y-106724751D01*
X124964700Y-106815353D01*
X124893508Y-106921901D01*
X124877945Y-106959471D01*
X124851067Y-106999695D01*
X123736311Y-108114453D01*
X123624506Y-108226257D01*
X123624504Y-108226260D01*
X123594224Y-108278709D01*
X123592203Y-108282209D01*
X123590401Y-108285331D01*
X123554346Y-108347778D01*
X123550063Y-108354665D01*
X123528559Y-108386848D01*
X123479524Y-108505230D01*
X123479522Y-108505236D01*
X123454525Y-108630903D01*
X123454525Y-108630906D01*
X123454525Y-108759044D01*
X123454525Y-108759046D01*
X123454524Y-108759046D01*
X118250500Y-108759046D01*
X118250500Y-108635928D01*
X118225502Y-108510261D01*
X118225501Y-108510260D01*
X118225501Y-108510256D01*
X118180450Y-108401493D01*
X118176466Y-108391875D01*
X118176461Y-108391866D01*
X118105276Y-108285331D01*
X118105273Y-108285327D01*
X118014672Y-108194726D01*
X118014668Y-108194723D01*
X117908133Y-108123538D01*
X117908124Y-108123533D01*
X117789744Y-108074499D01*
X117789738Y-108074497D01*
X117664071Y-108049500D01*
X117664069Y-108049500D01*
X117535931Y-108049500D01*
X117535929Y-108049500D01*
X117410261Y-108074497D01*
X117410251Y-108074500D01*
X117372685Y-108090061D01*
X117325233Y-108099500D01*
X115874767Y-108099500D01*
X115827315Y-108090061D01*
X115789748Y-108074500D01*
X115789738Y-108074497D01*
X115664071Y-108049500D01*
X115664069Y-108049500D01*
X115535931Y-108049500D01*
X115535929Y-108049500D01*
X115410261Y-108074497D01*
X115410255Y-108074499D01*
X115291875Y-108123533D01*
X115291866Y-108123538D01*
X115185331Y-108194723D01*
X115185327Y-108194726D01*
X115094726Y-108285327D01*
X115094723Y-108285331D01*
X115023538Y-108391866D01*
X115023533Y-108391875D01*
X114974499Y-108510255D01*
X114974497Y-108510261D01*
X114949500Y-108635928D01*
X114949500Y-108635931D01*
X114949500Y-108764069D01*
X114949500Y-108764071D01*
X114949499Y-108764071D01*
X110378723Y-108764071D01*
X109908930Y-107950368D01*
X109908926Y-107950363D01*
X109908921Y-107950355D01*
X109893845Y-107930066D01*
X109893843Y-107930064D01*
X109803156Y-107863748D01*
X109694638Y-107834671D01*
X109582946Y-107846758D01*
X109582944Y-107846758D01*
X109560332Y-107856535D01*
X109559727Y-107856797D01*
X109559720Y-107856800D01*
X109559716Y-107856803D01*
X108009773Y-108751665D01*
X108009764Y-108751671D01*
X107989475Y-108766747D01*
X107989473Y-108766749D01*
X107923157Y-108857436D01*
X107894080Y-108965954D01*
X102359228Y-108965954D01*
X102299313Y-108821307D01*
X102252324Y-108707866D01*
X102251121Y-108704851D01*
X101738169Y-107368566D01*
X101737045Y-107365520D01*
X101259238Y-106016235D01*
X101258195Y-106013161D01*
X100973544Y-105137093D01*
X100815886Y-104651872D01*
X100814928Y-104648788D01*
X100408387Y-103276332D01*
X100407513Y-103273231D01*
X100037034Y-101890583D01*
X100036262Y-101887543D01*
X99702096Y-100495638D01*
X99701388Y-100492507D01*
X99695116Y-100462998D01*
X99547697Y-99769448D01*
X109709499Y-99769448D01*
X109709499Y-99950551D01*
X109737828Y-100129410D01*
X109793786Y-100301636D01*
X109793787Y-100301639D01*
X109876005Y-100462997D01*
X109982440Y-100609494D01*
X109982444Y-100609499D01*
X110110499Y-100737554D01*
X110110504Y-100737558D01*
X110190393Y-100795600D01*
X110257005Y-100843996D01*
X110362483Y-100897740D01*
X110418359Y-100926211D01*
X110418362Y-100926212D01*
X110504475Y-100954191D01*
X110590590Y-100982171D01*
X110697598Y-100999119D01*
X110750680Y-101007527D01*
X110813815Y-101037456D01*
X110850746Y-101096768D01*
X110849748Y-101166630D01*
X110811138Y-101224863D01*
X110750681Y-101252473D01*
X110590588Y-101277830D01*
X110418362Y-101333788D01*
X110418359Y-101333789D01*
X110257001Y-101416007D01*
X110110504Y-101522442D01*
X110110499Y-101522446D01*
X109982444Y-101650501D01*
X109982440Y-101650506D01*
X109876005Y-101797003D01*
X109793787Y-101958361D01*
X109793786Y-101958364D01*
X109737828Y-102130590D01*
X109709499Y-102309449D01*
X109709499Y-102490552D01*
X109737828Y-102669411D01*
X109793786Y-102841637D01*
X109793787Y-102841640D01*
X109849663Y-102951301D01*
X109876002Y-103002994D01*
X109876005Y-103002998D01*
X109982440Y-103149495D01*
X109982444Y-103149500D01*
X110110499Y-103277555D01*
X110110504Y-103277559D01*
X110238286Y-103370397D01*
X110257005Y-103383997D01*
X110333093Y-103422766D01*
X110418359Y-103466212D01*
X110418362Y-103466213D01*
X110504475Y-103494192D01*
X110590590Y-103522172D01*
X110673428Y-103535292D01*
X110769448Y-103550501D01*
X110769453Y-103550501D01*
X110950550Y-103550501D01*
X111037258Y-103536766D01*
X111129408Y-103522172D01*
X111301638Y-103466212D01*
X111462993Y-103383997D01*
X111609500Y-103277554D01*
X111737552Y-103149502D01*
X111843995Y-103002995D01*
X111926210Y-102841640D01*
X111982170Y-102669410D01*
X112007526Y-102509318D01*
X112037455Y-102446184D01*
X112096767Y-102409253D01*
X112166629Y-102410251D01*
X112224862Y-102448861D01*
X112252472Y-102509318D01*
X112277829Y-102669410D01*
X112333787Y-102841636D01*
X112333788Y-102841639D01*
X112416006Y-103002997D01*
X112522441Y-103149494D01*
X112522445Y-103149499D01*
X112650500Y-103277554D01*
X112650505Y-103277558D01*
X112708914Y-103319994D01*
X112797006Y-103383996D01*
X112873094Y-103422765D01*
X112958360Y-103466211D01*
X112958363Y-103466212D01*
X113044476Y-103494191D01*
X113130591Y-103522171D01*
X113213429Y-103535291D01*
X113309449Y-103550500D01*
X113309454Y-103550500D01*
X113490551Y-103550500D01*
X113577259Y-103536765D01*
X113669409Y-103522171D01*
X113841639Y-103466211D01*
X114002994Y-103383996D01*
X114149501Y-103277553D01*
X114277553Y-103149501D01*
X114383996Y-103002994D01*
X114466211Y-102841639D01*
X114522171Y-102669409D01*
X114547526Y-102509324D01*
X114577455Y-102446190D01*
X114636767Y-102409259D01*
X114706629Y-102410257D01*
X114764862Y-102448867D01*
X114792472Y-102509324D01*
X114817828Y-102669412D01*
X114873786Y-102841637D01*
X114873787Y-102841640D01*
X114929663Y-102951301D01*
X114956002Y-103002994D01*
X114956005Y-103002998D01*
X115062440Y-103149495D01*
X115062444Y-103149500D01*
X115190499Y-103277555D01*
X115190504Y-103277559D01*
X115318286Y-103370397D01*
X115337005Y-103383997D01*
X115413093Y-103422766D01*
X115498359Y-103466212D01*
X115498362Y-103466213D01*
X115584475Y-103494192D01*
X115670590Y-103522172D01*
X115753428Y-103535292D01*
X115849448Y-103550501D01*
X115849453Y-103550501D01*
X116030550Y-103550501D01*
X116117258Y-103536766D01*
X116209408Y-103522172D01*
X116381638Y-103466212D01*
X116542993Y-103383997D01*
X116689500Y-103277554D01*
X116817552Y-103149502D01*
X116923995Y-103002995D01*
X117006210Y-102841640D01*
X117062170Y-102669410D01*
X117083026Y-102537730D01*
X117112955Y-102474596D01*
X117172266Y-102437664D01*
X117242129Y-102438662D01*
X117300362Y-102477272D01*
X117328476Y-102541235D01*
X117329499Y-102557128D01*
X117329499Y-103294857D01*
X117329501Y-103294883D01*
X117332412Y-103319988D01*
X117332414Y-103319992D01*
X117377792Y-103422765D01*
X117377793Y-103422766D01*
X117457234Y-103502207D01*
X117560008Y-103547586D01*
X117585134Y-103550501D01*
X119374863Y-103550500D01*
X119374878Y-103550498D01*
X119374881Y-103550498D01*
X119399986Y-103547587D01*
X119399987Y-103547586D01*
X119399990Y-103547586D01*
X119502764Y-103502207D01*
X119582205Y-103422766D01*
X119627584Y-103319992D01*
X119630499Y-103294866D01*
X119630498Y-101505137D01*
X119630496Y-101505118D01*
X119627585Y-101480013D01*
X119627584Y-101480011D01*
X119627584Y-101480010D01*
X119582205Y-101377236D01*
X119502764Y-101297795D01*
X119502762Y-101297794D01*
X119399991Y-101252416D01*
X119374867Y-101249501D01*
X119243078Y-101249501D01*
X119176039Y-101229816D01*
X119130284Y-101177012D01*
X119120340Y-101107854D01*
X119149365Y-101044298D01*
X119183605Y-101017503D01*
X119183401Y-101017169D01*
X119186316Y-101015382D01*
X119186786Y-101015015D01*
X119187551Y-101014624D01*
X119241715Y-100975271D01*
X119241716Y-100975271D01*
X118609407Y-100342963D01*
X118672992Y-100325926D01*
X118787006Y-100260100D01*
X118880098Y-100167008D01*
X118945924Y-100052994D01*
X118962961Y-99989409D01*
X119595269Y-100621718D01*
X119595269Y-100621717D01*
X119634621Y-100567555D01*
X119731094Y-100378218D01*
X119796756Y-100176131D01*
X119796756Y-100176128D01*
X119829999Y-99966247D01*
X119829999Y-99753754D01*
X119796756Y-99543873D01*
X119796756Y-99543870D01*
X119731094Y-99341783D01*
X119634623Y-99152450D01*
X119595269Y-99098283D01*
X119595268Y-99098283D01*
X118962961Y-99730591D01*
X118945924Y-99667008D01*
X118880098Y-99552994D01*
X118787006Y-99459902D01*
X118672992Y-99394076D01*
X118609408Y-99377038D01*
X119241715Y-98744729D01*
X119187549Y-98705376D01*
X118998216Y-98608905D01*
X118796128Y-98543243D01*
X118586245Y-98510001D01*
X118373753Y-98510001D01*
X118163871Y-98543243D01*
X118163868Y-98543243D01*
X117961781Y-98608905D01*
X117772438Y-98705381D01*
X117718281Y-98744728D01*
X117718281Y-98744729D01*
X118350590Y-99377038D01*
X118287006Y-99394076D01*
X118172992Y-99459902D01*
X118079900Y-99552994D01*
X118014074Y-99667008D01*
X117997036Y-99730592D01*
X117364727Y-99098283D01*
X117364726Y-99098283D01*
X117325379Y-99152440D01*
X117228904Y-99341782D01*
X117219505Y-99370709D01*
X117180067Y-99428384D01*
X117115708Y-99455582D01*
X117046861Y-99443667D01*
X116995386Y-99396422D01*
X116991089Y-99388685D01*
X116967191Y-99341783D01*
X116923995Y-99257006D01*
X116882594Y-99200022D01*
X116817557Y-99110505D01*
X116817553Y-99110500D01*
X116689498Y-98982445D01*
X116689493Y-98982441D01*
X116565432Y-98892306D01*
X116542996Y-98876006D01*
X116542995Y-98876005D01*
X116542993Y-98876004D01*
X116491299Y-98849664D01*
X116381638Y-98793788D01*
X116381635Y-98793787D01*
X116209409Y-98737829D01*
X116030550Y-98709500D01*
X116030545Y-98709500D01*
X115849453Y-98709500D01*
X115849448Y-98709500D01*
X115670588Y-98737829D01*
X115498362Y-98793787D01*
X115498359Y-98793788D01*
X115337001Y-98876006D01*
X115190504Y-98982441D01*
X115190499Y-98982445D01*
X115062444Y-99110500D01*
X115062440Y-99110505D01*
X114956005Y-99257002D01*
X114873787Y-99418360D01*
X114873786Y-99418363D01*
X114817828Y-99590589D01*
X114792471Y-99750679D01*
X114762541Y-99813813D01*
X114703229Y-99850744D01*
X114633367Y-99849746D01*
X114575134Y-99811135D01*
X114547525Y-99750678D01*
X114531302Y-99648251D01*
X114522170Y-99590592D01*
X114494190Y-99504477D01*
X114466211Y-99418364D01*
X114466210Y-99418361D01*
X114420423Y-99328501D01*
X114383995Y-99257007D01*
X114342589Y-99200016D01*
X114277557Y-99110506D01*
X114277553Y-99110501D01*
X114149498Y-98982446D01*
X114149493Y-98982442D01*
X114002996Y-98876007D01*
X114002995Y-98876006D01*
X114002993Y-98876005D01*
X113951299Y-98849665D01*
X113841638Y-98793789D01*
X113841635Y-98793788D01*
X113669409Y-98737830D01*
X113490550Y-98709501D01*
X113490545Y-98709501D01*
X113309453Y-98709501D01*
X113309448Y-98709501D01*
X113130588Y-98737830D01*
X112958362Y-98793788D01*
X112958359Y-98793789D01*
X112797001Y-98876007D01*
X112650504Y-98982442D01*
X112650499Y-98982446D01*
X112522444Y-99110501D01*
X112522440Y-99110506D01*
X112416005Y-99257003D01*
X112333787Y-99418361D01*
X112333786Y-99418364D01*
X112277828Y-99590590D01*
X112252472Y-99750678D01*
X112222543Y-99813813D01*
X112163231Y-99850744D01*
X112093368Y-99849746D01*
X112035136Y-99811136D01*
X112007526Y-99750678D01*
X111991302Y-99648251D01*
X111982170Y-99590591D01*
X111939956Y-99460666D01*
X111926211Y-99418363D01*
X111926210Y-99418360D01*
X111880430Y-99328514D01*
X111843995Y-99257006D01*
X111802594Y-99200022D01*
X111737557Y-99110505D01*
X111737553Y-99110500D01*
X111609498Y-98982445D01*
X111609493Y-98982441D01*
X111462996Y-98876006D01*
X111462995Y-98876005D01*
X111462993Y-98876004D01*
X111411299Y-98849664D01*
X111301638Y-98793788D01*
X111301635Y-98793787D01*
X111129409Y-98737829D01*
X110950550Y-98709500D01*
X110950545Y-98709500D01*
X110769453Y-98709500D01*
X110769448Y-98709500D01*
X110590588Y-98737829D01*
X110418362Y-98793787D01*
X110418359Y-98793788D01*
X110257001Y-98876006D01*
X110110504Y-98982441D01*
X110110499Y-98982445D01*
X109982444Y-99110500D01*
X109982440Y-99110505D01*
X109876005Y-99257002D01*
X109793787Y-99418360D01*
X109793786Y-99418363D01*
X109737828Y-99590589D01*
X109709499Y-99769448D01*
X99547697Y-99769448D01*
X99403789Y-99092416D01*
X99403174Y-99089326D01*
X99142312Y-97681838D01*
X99141763Y-97678639D01*
X99084200Y-97315199D01*
X98917845Y-96264880D01*
X98917394Y-96261771D01*
X98730554Y-94842584D01*
X98730177Y-94839396D01*
X98729751Y-94835345D01*
X98580555Y-93415836D01*
X98580260Y-93412621D01*
X98579682Y-93405273D01*
X98467954Y-91985635D01*
X98467744Y-91982426D01*
X98461500Y-91863288D01*
X98406879Y-90821068D01*
X123949500Y-90821068D01*
X123949500Y-90978931D01*
X123984626Y-91132826D01*
X124053114Y-91275042D01*
X124053116Y-91275045D01*
X124053117Y-91275046D01*
X124151538Y-91398462D01*
X124274954Y-91496883D01*
X124274957Y-91496885D01*
X124417173Y-91565373D01*
X124417174Y-91565373D01*
X124417176Y-91565374D01*
X124523459Y-91589632D01*
X124571068Y-91600499D01*
X124571073Y-91600500D01*
X124610118Y-91600500D01*
X132084385Y-91600500D01*
X132151424Y-91620185D01*
X132197179Y-91672989D01*
X132207112Y-91706781D01*
X132229707Y-91863285D01*
X132391071Y-92726644D01*
X132588046Y-93582570D01*
X132820295Y-94429600D01*
X132820299Y-94429613D01*
X132820300Y-94429616D01*
X133087430Y-95266312D01*
X133254131Y-95722339D01*
X133388980Y-96091233D01*
X133724433Y-96902960D01*
X134093199Y-97700071D01*
X134494676Y-98481262D01*
X134672022Y-98793787D01*
X134902545Y-99200022D01*
X134928157Y-99245155D01*
X135392884Y-99990419D01*
X135888088Y-100715817D01*
X136412907Y-101420087D01*
X136966420Y-102101996D01*
X136966421Y-102101997D01*
X136966432Y-102102010D01*
X137547725Y-102760431D01*
X138155785Y-103394215D01*
X138637025Y-103855922D01*
X138789570Y-104002276D01*
X139447990Y-104583568D01*
X140129917Y-105137097D01*
X140834182Y-105661911D01*
X141559575Y-106157112D01*
X142304853Y-106621848D01*
X143068737Y-107055323D01*
X143759372Y-107410261D01*
X143849928Y-107456800D01*
X144647039Y-107825566D01*
X144647050Y-107825571D01*
X145458772Y-108161021D01*
X146283688Y-108462570D01*
X147120385Y-108729700D01*
X147967425Y-108961952D01*
X148823357Y-109158929D01*
X149282551Y-109244752D01*
X149686693Y-109320288D01*
X149686705Y-109320289D01*
X149686712Y-109320291D01*
X149843221Y-109342887D01*
X149906757Y-109371948D01*
X149944497Y-109430748D01*
X149949500Y-109465614D01*
X149949500Y-116978931D01*
X149984626Y-117132826D01*
X150053114Y-117275042D01*
X150053116Y-117275045D01*
X150053117Y-117275046D01*
X150151538Y-117398462D01*
X150274954Y-117496883D01*
X150274957Y-117496885D01*
X150417173Y-117565373D01*
X150417174Y-117565373D01*
X150417176Y-117565374D01*
X150523459Y-117589632D01*
X150571068Y-117600499D01*
X150571073Y-117600500D01*
X150728927Y-117600500D01*
X150882824Y-117565374D01*
X151025046Y-117496883D01*
X151148462Y-117398462D01*
X151246883Y-117275046D01*
X151315374Y-117132824D01*
X151350500Y-116978927D01*
X151350500Y-116900000D01*
X151350500Y-116860118D01*
X151350500Y-108782874D01*
X151350760Y-108782235D01*
X151350500Y-108742958D01*
X151350500Y-108703802D01*
X151350500Y-108694640D01*
X151350064Y-108690407D01*
X151349970Y-108678948D01*
X154948923Y-108678948D01*
X154949496Y-108750793D01*
X154949500Y-108751781D01*
X154949500Y-116978931D01*
X154984626Y-117132826D01*
X155053114Y-117275042D01*
X155053116Y-117275045D01*
X155053117Y-117275046D01*
X155151538Y-117398462D01*
X155274954Y-117496883D01*
X155274957Y-117496885D01*
X155417173Y-117565373D01*
X155417174Y-117565373D01*
X155417176Y-117565374D01*
X155523459Y-117589632D01*
X155571068Y-117600499D01*
X155571073Y-117600500D01*
X155728927Y-117600500D01*
X155882824Y-117565374D01*
X156025046Y-117496883D01*
X156148462Y-117398462D01*
X156177828Y-117361638D01*
X179123793Y-117361638D01*
X179123793Y-117489776D01*
X179138831Y-117565374D01*
X179140308Y-117572800D01*
X179140309Y-117572810D01*
X179148790Y-117615443D01*
X179148792Y-117615451D01*
X179197827Y-117733832D01*
X179269019Y-117840380D01*
X179269020Y-117840381D01*
X179563181Y-118134541D01*
X179596666Y-118195864D01*
X179599500Y-118222222D01*
X179599500Y-119099605D01*
X179624165Y-119223598D01*
X179624167Y-119223620D01*
X179624169Y-119223620D01*
X179624498Y-119225278D01*
X179673533Y-119343658D01*
X179744726Y-119450207D01*
X179744727Y-119450208D01*
X183581559Y-123287039D01*
X183615044Y-123348362D01*
X183610060Y-123418054D01*
X183607613Y-123424121D01*
X183546230Y-123565440D01*
X183525624Y-123715361D01*
X183525624Y-123715362D01*
X183546230Y-123865286D01*
X183606515Y-124004077D01*
X183606518Y-124004081D01*
X183606519Y-124004083D01*
X183636352Y-124042058D01*
X183661559Y-124074145D01*
X183661568Y-124074155D01*
X184747810Y-125160397D01*
X184747820Y-125160406D01*
X184817883Y-125215447D01*
X184817885Y-125215448D01*
X184817888Y-125215450D01*
X184956680Y-125275735D01*
X184956682Y-125275735D01*
X184956684Y-125275736D01*
X185106604Y-125296342D01*
X185256524Y-125275736D01*
X185256525Y-125275735D01*
X185256528Y-125275735D01*
X185395319Y-125215450D01*
X185395320Y-125215449D01*
X185395325Y-125215447D01*
X185465389Y-125160406D01*
X186374872Y-124250923D01*
X186429913Y-124180859D01*
X186429916Y-124180853D01*
X186490201Y-124042062D01*
X186493386Y-124018895D01*
X186510808Y-123892138D01*
X186490202Y-123742218D01*
X186490201Y-123742216D01*
X186490201Y-123742213D01*
X186429916Y-123603422D01*
X186429913Y-123603418D01*
X186429913Y-123603417D01*
X186374872Y-123533354D01*
X186374863Y-123533344D01*
X186169505Y-123327986D01*
X186136020Y-123266663D01*
X186141004Y-123196971D01*
X186182876Y-123141038D01*
X186248340Y-123116621D01*
X186313481Y-123129820D01*
X186432731Y-123190582D01*
X186432734Y-123190583D01*
X186518847Y-123218562D01*
X186604962Y-123246542D01*
X186783825Y-123274872D01*
X186783826Y-123274872D01*
X186964916Y-123274872D01*
X186964917Y-123274872D01*
X187143780Y-123246542D01*
X187316010Y-123190582D01*
X187477365Y-123108367D01*
X187623872Y-123001923D01*
X187751923Y-122873872D01*
X187858367Y-122727365D01*
X187940582Y-122566010D01*
X187996542Y-122393780D01*
X188024872Y-122214917D01*
X188024872Y-122033825D01*
X187996542Y-121854962D01*
X187949525Y-121710255D01*
X187940583Y-121682734D01*
X187940582Y-121682731D01*
X187858366Y-121521376D01*
X187838244Y-121493681D01*
X187814765Y-121427876D01*
X187830590Y-121359822D01*
X187880695Y-121311127D01*
X187949173Y-121297251D01*
X188011448Y-121320477D01*
X188039144Y-121340600D01*
X188104459Y-121373880D01*
X188200498Y-121422815D01*
X188200501Y-121422816D01*
X188286614Y-121450795D01*
X188372729Y-121478775D01*
X188551592Y-121507105D01*
X188551593Y-121507105D01*
X188732683Y-121507105D01*
X188732684Y-121507105D01*
X188911547Y-121478775D01*
X189083777Y-121422815D01*
X189245132Y-121340600D01*
X189391639Y-121234156D01*
X189519690Y-121106105D01*
X189626134Y-120959598D01*
X189708349Y-120798243D01*
X189764309Y-120626013D01*
X189792639Y-120447150D01*
X189792639Y-120266058D01*
X189764309Y-120087195D01*
X189708349Y-119914965D01*
X189708349Y-119914964D01*
X189626133Y-119753609D01*
X189613762Y-119736582D01*
X189519690Y-119607103D01*
X189214863Y-119302276D01*
X189068356Y-119195832D01*
X188907001Y-119113616D01*
X188906998Y-119113615D01*
X188734772Y-119057657D01*
X188614365Y-119038586D01*
X188555908Y-119029327D01*
X188374816Y-119029327D01*
X188374811Y-119029327D01*
X188316353Y-119038586D01*
X188247060Y-119029632D01*
X188209274Y-119003794D01*
X184850208Y-115644727D01*
X184850207Y-115644726D01*
X184829633Y-115630979D01*
X184743661Y-115573535D01*
X184732763Y-115569021D01*
X184694623Y-115553223D01*
X184625278Y-115524499D01*
X184625276Y-115524498D01*
X184625275Y-115524498D01*
X184620437Y-115523536D01*
X184620432Y-115523535D01*
X184499605Y-115499500D01*
X184499603Y-115499500D01*
X182720808Y-115499500D01*
X182653769Y-115479815D01*
X182633127Y-115463181D01*
X182114674Y-114944727D01*
X182114673Y-114944726D01*
X182114669Y-114944723D01*
X182008127Y-114873535D01*
X181999549Y-114869982D01*
X181889744Y-114824499D01*
X181889738Y-114824497D01*
X181764071Y-114799500D01*
X181764069Y-114799500D01*
X181635931Y-114799500D01*
X181635929Y-114799500D01*
X181510261Y-114824497D01*
X181510255Y-114824499D01*
X181391874Y-114873534D01*
X181285326Y-114944726D01*
X181194726Y-115035326D01*
X181123534Y-115141874D01*
X181074499Y-115260255D01*
X181074497Y-115260260D01*
X181055116Y-115357692D01*
X181022730Y-115419603D01*
X180962014Y-115454176D01*
X180957692Y-115455116D01*
X180860260Y-115474497D01*
X180860255Y-115474499D01*
X180741874Y-115523534D01*
X180635326Y-115594726D01*
X180544724Y-115685328D01*
X180492508Y-115763477D01*
X180473535Y-115791872D01*
X180424499Y-115910255D01*
X180424497Y-115910261D01*
X180399500Y-116035928D01*
X180399500Y-116164070D01*
X180407959Y-116206592D01*
X180416693Y-116250500D01*
X180424499Y-116289744D01*
X180455932Y-116365631D01*
X180473535Y-116408127D01*
X180523930Y-116483549D01*
X180544726Y-116514673D01*
X181139522Y-117109469D01*
X181139660Y-117109594D01*
X185554266Y-121524200D01*
X185587751Y-121585523D01*
X185584518Y-121650194D01*
X185575425Y-121678183D01*
X185575422Y-121678192D01*
X185550808Y-121833599D01*
X185547094Y-121857049D01*
X185547094Y-122038141D01*
X185558980Y-122113181D01*
X185575424Y-122217005D01*
X185631382Y-122389231D01*
X185631383Y-122389234D01*
X185692145Y-122508484D01*
X185705041Y-122577153D01*
X185678765Y-122641894D01*
X185621658Y-122682151D01*
X185551853Y-122685143D01*
X185493979Y-122652460D01*
X185288621Y-122447102D01*
X185288611Y-122447093D01*
X185269488Y-122432071D01*
X185218549Y-122392053D01*
X185218547Y-122392052D01*
X185218543Y-122392049D01*
X185079751Y-122331764D01*
X185079752Y-122331764D01*
X184929828Y-122311158D01*
X184779906Y-122331764D01*
X184638587Y-122393147D01*
X184569255Y-122401800D01*
X184506251Y-122371596D01*
X184501505Y-122367093D01*
X180936819Y-118802407D01*
X180903334Y-118741084D01*
X180900500Y-118714726D01*
X180900500Y-117835928D01*
X180875502Y-117710261D01*
X180875501Y-117710260D01*
X180875501Y-117710256D01*
X180836228Y-117615443D01*
X180826466Y-117591875D01*
X180826461Y-117591866D01*
X180755276Y-117485331D01*
X180755273Y-117485327D01*
X180664667Y-117394721D01*
X180661488Y-117392112D01*
X180652475Y-117383943D01*
X180188967Y-116920434D01*
X180188966Y-116920433D01*
X180188962Y-116920430D01*
X180082420Y-116849242D01*
X180052428Y-116836819D01*
X179964037Y-116800206D01*
X179964031Y-116800204D01*
X179838364Y-116775207D01*
X179838362Y-116775207D01*
X179710224Y-116775207D01*
X179710222Y-116775207D01*
X179584554Y-116800204D01*
X179584548Y-116800206D01*
X179466167Y-116849241D01*
X179359619Y-116920433D01*
X179269019Y-117011033D01*
X179269016Y-117011038D01*
X179209240Y-117100500D01*
X179209239Y-117100502D01*
X179197830Y-117117575D01*
X179197827Y-117117580D01*
X179148792Y-117235962D01*
X179148790Y-117235968D01*
X179124372Y-117358721D01*
X179124372Y-117358725D01*
X179123793Y-117361638D01*
X156177828Y-117361638D01*
X156246883Y-117275046D01*
X156315374Y-117132824D01*
X156350500Y-116978927D01*
X156350500Y-116900000D01*
X156350500Y-116860118D01*
X156350500Y-115712131D01*
X167539230Y-115712131D01*
X167539230Y-115712132D01*
X167558898Y-115855242D01*
X167616450Y-115987739D01*
X167616452Y-115987742D01*
X167668994Y-116054626D01*
X168045373Y-116431005D01*
X168112257Y-116483547D01*
X168112260Y-116483549D01*
X168244757Y-116541101D01*
X168387867Y-116560770D01*
X168387868Y-116560770D01*
X168387869Y-116560770D01*
X168459423Y-116550935D01*
X168530979Y-116541101D01*
X168663476Y-116483549D01*
X168730359Y-116431008D01*
X169054776Y-116106589D01*
X169116095Y-116073107D01*
X169185787Y-116078091D01*
X169239963Y-116117670D01*
X169268992Y-116154623D01*
X169268994Y-116154625D01*
X169268998Y-116154630D01*
X169645373Y-116531005D01*
X169712257Y-116583547D01*
X169712260Y-116583549D01*
X169844757Y-116641101D01*
X169987867Y-116660770D01*
X169987868Y-116660770D01*
X169987869Y-116660770D01*
X170059423Y-116650935D01*
X170130979Y-116641101D01*
X170263476Y-116583549D01*
X170330359Y-116531008D01*
X170654776Y-116206589D01*
X170716095Y-116173107D01*
X170785787Y-116178091D01*
X170839963Y-116217670D01*
X170868992Y-116254623D01*
X170868994Y-116254625D01*
X170868998Y-116254630D01*
X171245373Y-116631005D01*
X171312257Y-116683547D01*
X171312260Y-116683549D01*
X171444757Y-116741101D01*
X171587867Y-116760770D01*
X171587868Y-116760770D01*
X171587869Y-116760770D01*
X171659423Y-116750935D01*
X171730979Y-116741101D01*
X171863476Y-116683549D01*
X171930359Y-116631008D01*
X172731008Y-115830359D01*
X172783549Y-115763476D01*
X172783548Y-115763476D01*
X172783550Y-115763475D01*
X172835129Y-115644727D01*
X172841101Y-115630979D01*
X172860770Y-115487868D01*
X172856139Y-115454176D01*
X172841101Y-115344757D01*
X172783549Y-115212260D01*
X172783547Y-115212257D01*
X172731005Y-115145373D01*
X172354626Y-114768994D01*
X172287742Y-114716452D01*
X172287738Y-114716450D01*
X172224598Y-114689024D01*
X172170951Y-114644260D01*
X172150022Y-114577599D01*
X172150000Y-114575290D01*
X172150000Y-112944200D01*
X172169685Y-112877161D01*
X172222489Y-112831406D01*
X172291647Y-112821462D01*
X172310001Y-112825541D01*
X172310249Y-112825616D01*
X172310257Y-112825619D01*
X172339349Y-112831406D01*
X172435929Y-112850618D01*
X172435932Y-112850618D01*
X172564072Y-112850618D01*
X172648616Y-112833800D01*
X172689745Y-112825619D01*
X172808128Y-112776583D01*
X172914670Y-112705394D01*
X173005277Y-112614787D01*
X173076466Y-112508245D01*
X173125502Y-112389862D01*
X173150501Y-112264187D01*
X173150501Y-112136049D01*
X173150501Y-112136046D01*
X173125503Y-112010379D01*
X173125502Y-112010378D01*
X173125502Y-112010374D01*
X173076466Y-111891991D01*
X173076462Y-111891984D01*
X173005277Y-111785449D01*
X173005274Y-111785445D01*
X172986319Y-111766490D01*
X172952834Y-111705167D01*
X172950000Y-111678809D01*
X172950000Y-108821307D01*
X172969685Y-108754268D01*
X172986321Y-108733624D01*
X173005274Y-108714671D01*
X173005276Y-108714669D01*
X173076465Y-108608127D01*
X173125501Y-108489744D01*
X173136159Y-108436163D01*
X173150500Y-108364071D01*
X173150500Y-108235928D01*
X173125502Y-108110261D01*
X173125501Y-108110260D01*
X173125501Y-108110256D01*
X173082017Y-108005276D01*
X173076466Y-107991875D01*
X173076461Y-107991866D01*
X173005276Y-107885331D01*
X173005273Y-107885327D01*
X172914672Y-107794726D01*
X172914668Y-107794723D01*
X172808133Y-107723538D01*
X172808124Y-107723533D01*
X172689744Y-107674499D01*
X172689738Y-107674497D01*
X172564071Y-107649500D01*
X172564069Y-107649500D01*
X172435931Y-107649500D01*
X172435929Y-107649500D01*
X172310261Y-107674497D01*
X172310255Y-107674499D01*
X172191875Y-107723533D01*
X172191866Y-107723538D01*
X172085331Y-107794723D01*
X172085327Y-107794726D01*
X171994726Y-107885327D01*
X171994723Y-107885331D01*
X171923538Y-107991866D01*
X171923533Y-107991875D01*
X171874499Y-108110255D01*
X171874497Y-108110261D01*
X171849500Y-108235928D01*
X171849500Y-108235931D01*
X171849500Y-108364069D01*
X171849500Y-108364071D01*
X171849499Y-108364071D01*
X171874497Y-108489738D01*
X171874499Y-108489744D01*
X171923533Y-108608124D01*
X171923538Y-108608133D01*
X171994723Y-108714668D01*
X171994725Y-108714671D01*
X172013679Y-108733624D01*
X172047166Y-108794946D01*
X172050000Y-108821307D01*
X172050000Y-109455917D01*
X172030315Y-109522956D01*
X171977511Y-109568711D01*
X171908353Y-109578655D01*
X171890012Y-109574580D01*
X171889743Y-109574498D01*
X171764071Y-109549500D01*
X171764069Y-109549500D01*
X171635931Y-109549500D01*
X171635929Y-109549500D01*
X171510261Y-109574497D01*
X171510255Y-109574499D01*
X171391875Y-109623533D01*
X171391866Y-109623538D01*
X171285331Y-109694723D01*
X171285327Y-109694726D01*
X171194726Y-109785327D01*
X171194723Y-109785331D01*
X171123538Y-109891866D01*
X171123533Y-109891875D01*
X171074499Y-110010255D01*
X171074497Y-110010261D01*
X171049500Y-110135928D01*
X171049500Y-110135931D01*
X171049500Y-110264069D01*
X171049500Y-110264071D01*
X171049499Y-110264071D01*
X171074497Y-110389738D01*
X171074499Y-110389744D01*
X171123533Y-110508124D01*
X171123538Y-110508133D01*
X171194723Y-110614668D01*
X171194725Y-110614671D01*
X171213679Y-110633624D01*
X171247166Y-110694946D01*
X171250000Y-110721307D01*
X171250000Y-111456417D01*
X171230315Y-111523456D01*
X171177511Y-111569211D01*
X171108353Y-111579155D01*
X171090012Y-111575080D01*
X171089743Y-111574998D01*
X170964071Y-111550000D01*
X170964069Y-111550000D01*
X170835931Y-111550000D01*
X170835929Y-111550000D01*
X170710261Y-111574997D01*
X170710255Y-111574999D01*
X170591875Y-111624033D01*
X170591866Y-111624038D01*
X170485331Y-111695223D01*
X170485327Y-111695226D01*
X170394726Y-111785827D01*
X170394723Y-111785831D01*
X170323538Y-111892366D01*
X170323533Y-111892375D01*
X170274499Y-112010755D01*
X170274497Y-112010761D01*
X170249500Y-112136428D01*
X170249500Y-112136431D01*
X170249500Y-112264569D01*
X170249500Y-112264571D01*
X170249499Y-112264571D01*
X170274497Y-112390238D01*
X170274499Y-112390244D01*
X170323533Y-112508624D01*
X170323538Y-112508633D01*
X170394723Y-112615168D01*
X170394725Y-112615171D01*
X170413179Y-112633624D01*
X170446666Y-112694946D01*
X170449500Y-112721307D01*
X170449500Y-114425971D01*
X170429815Y-114493010D01*
X170377011Y-114538765D01*
X170342384Y-114548816D01*
X170269021Y-114558898D01*
X170136524Y-114616450D01*
X170136521Y-114616452D01*
X170069650Y-114668984D01*
X170069642Y-114668991D01*
X169745225Y-114993407D01*
X169683902Y-115026891D01*
X169614210Y-115021907D01*
X169560035Y-114982327D01*
X169531008Y-114945377D01*
X169531003Y-114945372D01*
X169531000Y-114945368D01*
X169154626Y-114568994D01*
X169087742Y-114516452D01*
X169087739Y-114516450D01*
X168955242Y-114458898D01*
X168812133Y-114439230D01*
X168812131Y-114439230D01*
X168669021Y-114458898D01*
X168536524Y-114516450D01*
X168536521Y-114516452D01*
X168469637Y-114568994D01*
X167668994Y-115369637D01*
X167616452Y-115436521D01*
X167616450Y-115436524D01*
X167558898Y-115569021D01*
X167539230Y-115712131D01*
X156350500Y-115712131D01*
X156350500Y-109465614D01*
X156370185Y-109398576D01*
X156422989Y-109352821D01*
X156456774Y-109342889D01*
X156613288Y-109320292D01*
X156613297Y-109320290D01*
X156613306Y-109320289D01*
X156880391Y-109270370D01*
X157476643Y-109158930D01*
X158332575Y-108961953D01*
X159179616Y-108729701D01*
X160016312Y-108462571D01*
X160841229Y-108161022D01*
X161652950Y-107825572D01*
X162450085Y-107456795D01*
X163231264Y-107055324D01*
X163392073Y-106964071D01*
X174749499Y-106964071D01*
X174774497Y-107089738D01*
X174774499Y-107089744D01*
X174823533Y-107208124D01*
X174823538Y-107208133D01*
X174894723Y-107314668D01*
X174894726Y-107314672D01*
X174985327Y-107405273D01*
X174985331Y-107405276D01*
X175091866Y-107476461D01*
X175091872Y-107476464D01*
X175091873Y-107476465D01*
X175210256Y-107525501D01*
X175210260Y-107525501D01*
X175210261Y-107525502D01*
X175335928Y-107550500D01*
X175335931Y-107550500D01*
X175362742Y-107550500D01*
X175429781Y-107570185D01*
X175450423Y-107586819D01*
X176113181Y-108249577D01*
X176146666Y-108310900D01*
X176149500Y-108337258D01*
X176149500Y-108364069D01*
X176149500Y-108364071D01*
X176149499Y-108364071D01*
X176174497Y-108489738D01*
X176174499Y-108489744D01*
X176223533Y-108608124D01*
X176223538Y-108608133D01*
X176294723Y-108714668D01*
X176294726Y-108714672D01*
X176385327Y-108805273D01*
X176385331Y-108805276D01*
X176491866Y-108876461D01*
X176491872Y-108876464D01*
X176491873Y-108876465D01*
X176610256Y-108925501D01*
X176610260Y-108925501D01*
X176610261Y-108925502D01*
X176735928Y-108950500D01*
X176735931Y-108950500D01*
X176864071Y-108950500D01*
X176948615Y-108933682D01*
X176989744Y-108925501D01*
X177108127Y-108876465D01*
X177214669Y-108805276D01*
X177305276Y-108714669D01*
X177376465Y-108608127D01*
X177425501Y-108489744D01*
X177450500Y-108364069D01*
X177450500Y-108364060D01*
X177450708Y-108361959D01*
X177451126Y-108360923D01*
X177451689Y-108358094D01*
X177452225Y-108358200D01*
X177476867Y-108297172D01*
X177533901Y-108256812D01*
X177561959Y-108250708D01*
X177564061Y-108250500D01*
X177564069Y-108250500D01*
X177689744Y-108225501D01*
X177808127Y-108176465D01*
X177914669Y-108105276D01*
X178005276Y-108014669D01*
X178076465Y-107908127D01*
X178125501Y-107789744D01*
X178145394Y-107689738D01*
X178150500Y-107664071D01*
X178150500Y-107535928D01*
X178125502Y-107410261D01*
X178125501Y-107410260D01*
X178125501Y-107410256D01*
X178076465Y-107291873D01*
X178076464Y-107291872D01*
X178076461Y-107291866D01*
X178005276Y-107185331D01*
X178005273Y-107185327D01*
X177914672Y-107094726D01*
X177914668Y-107094723D01*
X177808133Y-107023538D01*
X177808124Y-107023533D01*
X177689744Y-106974499D01*
X177689738Y-106974497D01*
X177564071Y-106949500D01*
X177564069Y-106949500D01*
X177437258Y-106949500D01*
X177370219Y-106929815D01*
X177349577Y-106913181D01*
X176686819Y-106250423D01*
X176653334Y-106189100D01*
X176650500Y-106162742D01*
X176650500Y-106135928D01*
X176625502Y-106010261D01*
X176625501Y-106010260D01*
X176625501Y-106010256D01*
X176576465Y-105891873D01*
X176576464Y-105891872D01*
X176576461Y-105891866D01*
X176505276Y-105785331D01*
X176505273Y-105785327D01*
X176414672Y-105694726D01*
X176414668Y-105694723D01*
X176308133Y-105623538D01*
X176308124Y-105623533D01*
X176189744Y-105574499D01*
X176189738Y-105574497D01*
X176064071Y-105549500D01*
X176064069Y-105549500D01*
X175935931Y-105549500D01*
X175935929Y-105549500D01*
X175810261Y-105574497D01*
X175810255Y-105574499D01*
X175691875Y-105623533D01*
X175691866Y-105623538D01*
X175585331Y-105694723D01*
X175585327Y-105694726D01*
X175494726Y-105785327D01*
X175494723Y-105785331D01*
X175423538Y-105891866D01*
X175423533Y-105891875D01*
X175374499Y-106010255D01*
X175374497Y-106010261D01*
X175349500Y-106135928D01*
X175349500Y-106145037D01*
X175329815Y-106212076D01*
X175277011Y-106257831D01*
X175249692Y-106266654D01*
X175210261Y-106274497D01*
X175210255Y-106274499D01*
X175091875Y-106323533D01*
X175091866Y-106323538D01*
X174985331Y-106394723D01*
X174985327Y-106394726D01*
X174894726Y-106485327D01*
X174894723Y-106485331D01*
X174823538Y-106591866D01*
X174823533Y-106591875D01*
X174774499Y-106710255D01*
X174774497Y-106710261D01*
X174749500Y-106835928D01*
X174749500Y-106835931D01*
X174749500Y-106964069D01*
X174749500Y-106964071D01*
X174749499Y-106964071D01*
X163392073Y-106964071D01*
X163995147Y-106621849D01*
X164740425Y-106157112D01*
X165465819Y-105661912D01*
X166170083Y-105137097D01*
X166852011Y-104583569D01*
X167510432Y-104002276D01*
X168144216Y-103394216D01*
X168752276Y-102760432D01*
X169333569Y-102102011D01*
X169887097Y-101420083D01*
X170411912Y-100715819D01*
X170907112Y-99990425D01*
X171371849Y-99245147D01*
X171805324Y-98481264D01*
X172206795Y-97700085D01*
X172575572Y-96902950D01*
X172911022Y-96091229D01*
X173212571Y-95266312D01*
X173479701Y-94429616D01*
X173711953Y-93582575D01*
X173908930Y-92726643D01*
X174070292Y-91863288D01*
X174070293Y-91863285D01*
X174092889Y-91706781D01*
X174121951Y-91643242D01*
X174180751Y-91605502D01*
X174215616Y-91600500D01*
X181728927Y-91600500D01*
X181882824Y-91565374D01*
X182025046Y-91496883D01*
X182148462Y-91398462D01*
X182246883Y-91275046D01*
X182315374Y-91132824D01*
X182350500Y-90978927D01*
X182350500Y-90821073D01*
X182349016Y-90814573D01*
X182337145Y-90762562D01*
X182315374Y-90667176D01*
X182315373Y-90667173D01*
X182246885Y-90524957D01*
X182246883Y-90524954D01*
X182148462Y-90401538D01*
X182025046Y-90303117D01*
X182025045Y-90303116D01*
X182025042Y-90303114D01*
X181882826Y-90234626D01*
X181728931Y-90199500D01*
X181728927Y-90199500D01*
X181689882Y-90199500D01*
X173532875Y-90199500D01*
X173532235Y-90199240D01*
X173492958Y-90199500D01*
X173453802Y-90199500D01*
X173444682Y-90199500D01*
X173440442Y-90199934D01*
X173419962Y-90200104D01*
X173278440Y-90230656D01*
X173278437Y-90230657D01*
X173146160Y-90289507D01*
X173146157Y-90289509D01*
X173028709Y-90374174D01*
X172931057Y-90481075D01*
X172857339Y-90605681D01*
X172810663Y-90742738D01*
X172808181Y-90762668D01*
X172808180Y-90762679D01*
X172806668Y-90774808D01*
X172806581Y-90774963D01*
X172801874Y-90813272D01*
X172801855Y-90813423D01*
X172801851Y-90813431D01*
X172801530Y-90815837D01*
X172680841Y-91650233D01*
X172679969Y-91655466D01*
X172523958Y-92482583D01*
X172522864Y-92487773D01*
X172331611Y-93307500D01*
X172330295Y-93312639D01*
X172104166Y-94123402D01*
X172102632Y-94128480D01*
X171842029Y-94928844D01*
X171840279Y-94933852D01*
X171545685Y-95722329D01*
X171543728Y-95727244D01*
X171430494Y-95994808D01*
X171215665Y-96502437D01*
X171213493Y-96507276D01*
X170852600Y-97267676D01*
X170850224Y-97272419D01*
X170457123Y-98016715D01*
X170454546Y-98021352D01*
X170029962Y-98748172D01*
X170027188Y-98752694D01*
X169571937Y-99460638D01*
X169568973Y-99465037D01*
X169083830Y-100152904D01*
X169080681Y-100157173D01*
X168566578Y-100823641D01*
X168563249Y-100827771D01*
X168021104Y-101471650D01*
X168017601Y-101475634D01*
X167448411Y-102095736D01*
X167444741Y-102099566D01*
X166849566Y-102694741D01*
X166845736Y-102698411D01*
X166225634Y-103267601D01*
X166221650Y-103271104D01*
X165577771Y-103813249D01*
X165573641Y-103816578D01*
X164907173Y-104330681D01*
X164902904Y-104333830D01*
X164215037Y-104818973D01*
X164210638Y-104821937D01*
X163502694Y-105277188D01*
X163498172Y-105279962D01*
X162771352Y-105704546D01*
X162766715Y-105707123D01*
X162022419Y-106100224D01*
X162017676Y-106102600D01*
X161257276Y-106463493D01*
X161252437Y-106465665D01*
X160808454Y-106653560D01*
X160477248Y-106793727D01*
X160472329Y-106795685D01*
X159683852Y-107090279D01*
X159678844Y-107092029D01*
X158878480Y-107352632D01*
X158873402Y-107354166D01*
X158062639Y-107580295D01*
X158057500Y-107581611D01*
X157237773Y-107772864D01*
X157232583Y-107773958D01*
X156405466Y-107929969D01*
X156400233Y-107930841D01*
X155565867Y-108051526D01*
X155563230Y-108051878D01*
X155560673Y-108052192D01*
X155560596Y-108052202D01*
X155491972Y-108060585D01*
X155491969Y-108060586D01*
X155353655Y-108108002D01*
X155353649Y-108108005D01*
X155228116Y-108182949D01*
X155120745Y-108282210D01*
X155036188Y-108401493D01*
X154978081Y-108535663D01*
X154978079Y-108535668D01*
X154948923Y-108678948D01*
X151349970Y-108678948D01*
X151349896Y-108669965D01*
X151319344Y-108528441D01*
X151260491Y-108396158D01*
X151175826Y-108278709D01*
X151068928Y-108181060D01*
X151068925Y-108181058D01*
X151068924Y-108181057D01*
X150944318Y-108107339D01*
X150807258Y-108060662D01*
X150787264Y-108058172D01*
X150787261Y-108058171D01*
X150775178Y-108056665D01*
X150775028Y-108056581D01*
X150736923Y-108051898D01*
X150736572Y-108051855D01*
X150736565Y-108051852D01*
X150734153Y-108051530D01*
X149899758Y-107930840D01*
X149894525Y-107929968D01*
X149067409Y-107773958D01*
X149062219Y-107772864D01*
X148242494Y-107581611D01*
X148237355Y-107580295D01*
X147426593Y-107354166D01*
X147421515Y-107352632D01*
X146621151Y-107092029D01*
X146616143Y-107090279D01*
X145827676Y-106795689D01*
X145822747Y-106793727D01*
X145491549Y-106653563D01*
X145047546Y-106465660D01*
X145042721Y-106463494D01*
X144591837Y-106249500D01*
X144282323Y-106102601D01*
X144277580Y-106100225D01*
X143533285Y-105707125D01*
X143528648Y-105704548D01*
X142997965Y-105394540D01*
X142801822Y-105279960D01*
X142797307Y-105277190D01*
X142797304Y-105277188D01*
X142089355Y-104821934D01*
X142084965Y-104818977D01*
X142084959Y-104818973D01*
X141488624Y-104398387D01*
X141397098Y-104333835D01*
X141392829Y-104330685D01*
X140726362Y-103816582D01*
X140722232Y-103813253D01*
X140258470Y-103422766D01*
X140078346Y-103271102D01*
X140074370Y-103267606D01*
X139945700Y-103149501D01*
X139454268Y-102698418D01*
X139450438Y-102694748D01*
X138855264Y-102099573D01*
X138851594Y-102095743D01*
X138753568Y-101988949D01*
X138282395Y-101475631D01*
X138278902Y-101471658D01*
X138278895Y-101471650D01*
X137934794Y-101062979D01*
X137736757Y-100827781D01*
X137733428Y-100823651D01*
X137380186Y-100365718D01*
X137325522Y-100294853D01*
X139528685Y-100294853D01*
X139528685Y-100546777D01*
X139540555Y-100621718D01*
X139568095Y-100795600D01*
X139645945Y-101035198D01*
X139712914Y-101166630D01*
X139755139Y-101249502D01*
X139760317Y-101259663D01*
X139908386Y-101463464D01*
X139908390Y-101463469D01*
X140086530Y-101641609D01*
X140086535Y-101641613D01*
X140264302Y-101770767D01*
X140290340Y-101789685D01*
X140433369Y-101862562D01*
X140514801Y-101904054D01*
X140514803Y-101904054D01*
X140514806Y-101904056D01*
X140754400Y-101981905D01*
X141003223Y-102021315D01*
X141003224Y-102021315D01*
X141255146Y-102021315D01*
X141255147Y-102021315D01*
X141503970Y-101981905D01*
X141743564Y-101904056D01*
X141968030Y-101789685D01*
X142171841Y-101641608D01*
X142349978Y-101463471D01*
X142498055Y-101259660D01*
X142612426Y-101035194D01*
X142690275Y-100795600D01*
X142729685Y-100546777D01*
X142729685Y-100294853D01*
X163570315Y-100294853D01*
X163570315Y-100546777D01*
X163582185Y-100621718D01*
X163609725Y-100795600D01*
X163687575Y-101035198D01*
X163754544Y-101166630D01*
X163796769Y-101249502D01*
X163801947Y-101259663D01*
X163950016Y-101463464D01*
X163950020Y-101463469D01*
X164128160Y-101641609D01*
X164128165Y-101641613D01*
X164305932Y-101770767D01*
X164331970Y-101789685D01*
X164474999Y-101862562D01*
X164556431Y-101904054D01*
X164556433Y-101904054D01*
X164556436Y-101904056D01*
X164796030Y-101981905D01*
X165044853Y-102021315D01*
X165044854Y-102021315D01*
X165296776Y-102021315D01*
X165296777Y-102021315D01*
X165545600Y-101981905D01*
X165785194Y-101904056D01*
X166009660Y-101789685D01*
X166213471Y-101641608D01*
X166391608Y-101463471D01*
X166539685Y-101259660D01*
X166654056Y-101035194D01*
X166731905Y-100795600D01*
X166771315Y-100546777D01*
X166771315Y-100294853D01*
X166731905Y-100046030D01*
X166654056Y-99806436D01*
X166654054Y-99806433D01*
X166654054Y-99806431D01*
X166583014Y-99667008D01*
X166539685Y-99581970D01*
X166512004Y-99543870D01*
X166391613Y-99378165D01*
X166391609Y-99378160D01*
X166213469Y-99200020D01*
X166213464Y-99200016D01*
X166009663Y-99051947D01*
X166009662Y-99051946D01*
X166009660Y-99051945D01*
X165939562Y-99016228D01*
X165785198Y-98937575D01*
X165545600Y-98859725D01*
X165296777Y-98820315D01*
X165044853Y-98820315D01*
X164920441Y-98840020D01*
X164796029Y-98859725D01*
X164556431Y-98937575D01*
X164331966Y-99051947D01*
X164128165Y-99200016D01*
X164128160Y-99200020D01*
X163950020Y-99378160D01*
X163950016Y-99378165D01*
X163801947Y-99581966D01*
X163687575Y-99806431D01*
X163609725Y-100046029D01*
X163590564Y-100167008D01*
X163570315Y-100294853D01*
X142729685Y-100294853D01*
X142690275Y-100046030D01*
X142612426Y-99806436D01*
X142612424Y-99806433D01*
X142612424Y-99806431D01*
X142541384Y-99667008D01*
X142498055Y-99581970D01*
X142470374Y-99543870D01*
X142349983Y-99378165D01*
X142349979Y-99378160D01*
X142171839Y-99200020D01*
X142171834Y-99200016D01*
X141968033Y-99051947D01*
X141968032Y-99051946D01*
X141968030Y-99051945D01*
X141897932Y-99016228D01*
X141743568Y-98937575D01*
X141503970Y-98859725D01*
X141255147Y-98820315D01*
X141003223Y-98820315D01*
X140878811Y-98840020D01*
X140754399Y-98859725D01*
X140514801Y-98937575D01*
X140290336Y-99051947D01*
X140086535Y-99200016D01*
X140086530Y-99200020D01*
X139908390Y-99378160D01*
X139908386Y-99378165D01*
X139760317Y-99581966D01*
X139645945Y-99806431D01*
X139568095Y-100046029D01*
X139548934Y-100167008D01*
X139528685Y-100294853D01*
X137325522Y-100294853D01*
X137219314Y-100157169D01*
X137216165Y-100152900D01*
X136731044Y-99465065D01*
X136728080Y-99460666D01*
X136272818Y-98752706D01*
X136270044Y-98748184D01*
X136114117Y-98481263D01*
X135845455Y-98021358D01*
X135842883Y-98016730D01*
X135747502Y-97836137D01*
X135449774Y-97272419D01*
X135447418Y-97267718D01*
X135086495Y-96507257D01*
X135084356Y-96502491D01*
X134756270Y-95727246D01*
X134754326Y-95722362D01*
X134459719Y-94933852D01*
X134457976Y-94928864D01*
X134197365Y-94128478D01*
X134195845Y-94123446D01*
X133969704Y-93312639D01*
X133968393Y-93307521D01*
X133777133Y-92487772D01*
X133776050Y-92482632D01*
X133620030Y-91655466D01*
X133619162Y-91650258D01*
X133619158Y-91650233D01*
X133498447Y-90815692D01*
X133498122Y-90813272D01*
X133493419Y-90774990D01*
X133493333Y-90774840D01*
X133491819Y-90762679D01*
X133489336Y-90742737D01*
X133442661Y-90605683D01*
X133368941Y-90481072D01*
X133271291Y-90374175D01*
X133226866Y-90342150D01*
X133153844Y-90289510D01*
X133153839Y-90289507D01*
X133021562Y-90230657D01*
X133021559Y-90230656D01*
X132880037Y-90200104D01*
X132859568Y-90199934D01*
X132859568Y-90199933D01*
X132846995Y-90199829D01*
X132846198Y-90199500D01*
X132807042Y-90199500D01*
X132806388Y-90199495D01*
X132806387Y-90199495D01*
X132758031Y-90199175D01*
X132754618Y-90199500D01*
X124571068Y-90199500D01*
X124417173Y-90234626D01*
X124274957Y-90303114D01*
X124151538Y-90401538D01*
X124053114Y-90524957D01*
X123984626Y-90667173D01*
X123949500Y-90821068D01*
X98406879Y-90821068D01*
X98392833Y-90553058D01*
X98392706Y-90549815D01*
X98359091Y-89266081D01*
X98359082Y-89265730D01*
X101702882Y-89265730D01*
X101702882Y-90074269D01*
X101705735Y-90104699D01*
X101705735Y-90104701D01*
X101749810Y-90230656D01*
X101750589Y-90232882D01*
X101831232Y-90342150D01*
X101940500Y-90422793D01*
X101983227Y-90437744D01*
X102068681Y-90467646D01*
X102099112Y-90470500D01*
X102099116Y-90470500D01*
X104907652Y-90470500D01*
X104938081Y-90467646D01*
X104938083Y-90467646D01*
X105002172Y-90445219D01*
X105066264Y-90422793D01*
X105175532Y-90342150D01*
X105256175Y-90232882D01*
X105256176Y-90232878D01*
X105260517Y-90224667D01*
X105261817Y-90225354D01*
X105296663Y-90176770D01*
X105361615Y-90151022D01*
X105372984Y-90150500D01*
X105779192Y-90150500D01*
X105846231Y-90170185D01*
X105866873Y-90186819D01*
X105885327Y-90205273D01*
X105885331Y-90205276D01*
X105991866Y-90276461D01*
X105991872Y-90276464D01*
X105991873Y-90276465D01*
X106110256Y-90325501D01*
X106110260Y-90325501D01*
X106110261Y-90325502D01*
X106235928Y-90350500D01*
X106235931Y-90350500D01*
X106364071Y-90350500D01*
X106448615Y-90333682D01*
X106489744Y-90325501D01*
X106608127Y-90276465D01*
X106714669Y-90205276D01*
X106805276Y-90114669D01*
X106876465Y-90008127D01*
X106925501Y-89889744D01*
X106941737Y-89808124D01*
X106950500Y-89764071D01*
X106950500Y-89635928D01*
X106925502Y-89510261D01*
X106925501Y-89510260D01*
X106925501Y-89510256D01*
X106876465Y-89391873D01*
X106876464Y-89391872D01*
X106876461Y-89391866D01*
X106805276Y-89285331D01*
X106805273Y-89285327D01*
X106714672Y-89194726D01*
X106714668Y-89194723D01*
X106608133Y-89123538D01*
X106608124Y-89123533D01*
X106489744Y-89074499D01*
X106489738Y-89074497D01*
X106364071Y-89049500D01*
X106364069Y-89049500D01*
X106235931Y-89049500D01*
X106235929Y-89049500D01*
X106110261Y-89074497D01*
X106110255Y-89074499D01*
X105991875Y-89123533D01*
X105991866Y-89123538D01*
X105885331Y-89194723D01*
X105885327Y-89194726D01*
X105866873Y-89213181D01*
X105805550Y-89246666D01*
X105779192Y-89249500D01*
X105393979Y-89249500D01*
X105326940Y-89229815D01*
X105281185Y-89177011D01*
X105276938Y-89166455D01*
X105270280Y-89147430D01*
X105256175Y-89107118D01*
X105175532Y-88997850D01*
X105066264Y-88917207D01*
X105066262Y-88917206D01*
X104938082Y-88872353D01*
X104907652Y-88869500D01*
X104907648Y-88869500D01*
X102099116Y-88869500D01*
X102099112Y-88869500D01*
X102068682Y-88872353D01*
X102068680Y-88872353D01*
X101940501Y-88917206D01*
X101940499Y-88917207D01*
X101831232Y-88997850D01*
X101750589Y-89107117D01*
X101750588Y-89107119D01*
X101705735Y-89235298D01*
X101705735Y-89235300D01*
X101702882Y-89265730D01*
X98359082Y-89265730D01*
X98355237Y-89118906D01*
X98355195Y-89115660D01*
X98355195Y-88278711D01*
X112799500Y-88278711D01*
X112799500Y-88521288D01*
X112830590Y-88757450D01*
X112831162Y-88761789D01*
X112856694Y-88857076D01*
X112893947Y-88996104D01*
X112976219Y-89194726D01*
X112986776Y-89220212D01*
X113108064Y-89430289D01*
X113108066Y-89430292D01*
X113108067Y-89430293D01*
X113255733Y-89622736D01*
X113255739Y-89622743D01*
X113427256Y-89794260D01*
X113427262Y-89794265D01*
X113619711Y-89941936D01*
X113829788Y-90063224D01*
X114053900Y-90156054D01*
X114288211Y-90218838D01*
X114468586Y-90242584D01*
X114528711Y-90250500D01*
X114528712Y-90250500D01*
X114771289Y-90250500D01*
X114822226Y-90243794D01*
X115011789Y-90218838D01*
X115246100Y-90156054D01*
X115470212Y-90063224D01*
X115680289Y-89941936D01*
X115872738Y-89794265D01*
X116044265Y-89622738D01*
X116191936Y-89430289D01*
X116313224Y-89220212D01*
X116406054Y-88996100D01*
X116468838Y-88761789D01*
X116500500Y-88521288D01*
X116500500Y-88278712D01*
X116468838Y-88038211D01*
X116406054Y-87803900D01*
X116313224Y-87579788D01*
X116191936Y-87369711D01*
X116068760Y-87209184D01*
X116044266Y-87177263D01*
X116044260Y-87177256D01*
X115872743Y-87005739D01*
X115872736Y-87005733D01*
X115680293Y-86858067D01*
X115680292Y-86858066D01*
X115680289Y-86858064D01*
X115470212Y-86736776D01*
X115459056Y-86732155D01*
X115246104Y-86643947D01*
X115085060Y-86600795D01*
X115011789Y-86581162D01*
X115011788Y-86581161D01*
X115011785Y-86581161D01*
X114771289Y-86549500D01*
X114771288Y-86549500D01*
X114528712Y-86549500D01*
X114528711Y-86549500D01*
X114288214Y-86581161D01*
X114053895Y-86643947D01*
X113829794Y-86736773D01*
X113829785Y-86736777D01*
X113619706Y-86858067D01*
X113427263Y-87005733D01*
X113427256Y-87005739D01*
X113255739Y-87177256D01*
X113255733Y-87177263D01*
X113108067Y-87369706D01*
X112986777Y-87579785D01*
X112986773Y-87579794D01*
X112893947Y-87803895D01*
X112831161Y-88038214D01*
X112799500Y-88278711D01*
X98355195Y-88278711D01*
X98355195Y-87684339D01*
X98355237Y-87681093D01*
X98367905Y-87197303D01*
X98380253Y-86725730D01*
X101702882Y-86725730D01*
X101702882Y-87534269D01*
X101705735Y-87564699D01*
X101705735Y-87564701D01*
X101750588Y-87692880D01*
X101750589Y-87692882D01*
X101831232Y-87802150D01*
X101940500Y-87882793D01*
X101983227Y-87897744D01*
X102068681Y-87927646D01*
X102099112Y-87930500D01*
X102099116Y-87930500D01*
X108348844Y-87930500D01*
X108348845Y-87930499D01*
X108503497Y-87899737D01*
X108649179Y-87839394D01*
X108780289Y-87751789D01*
X108921788Y-87610290D01*
X109009393Y-87479179D01*
X109069737Y-87333498D01*
X109100500Y-87178843D01*
X109100500Y-87021158D01*
X109100500Y-87021155D01*
X109100499Y-87021153D01*
X109069738Y-86866510D01*
X109069737Y-86866503D01*
X109009393Y-86720821D01*
X109009391Y-86720818D01*
X109009389Y-86720814D01*
X108921788Y-86589711D01*
X108921785Y-86589707D01*
X108810292Y-86478214D01*
X108810288Y-86478211D01*
X108679185Y-86390610D01*
X108679175Y-86390605D01*
X108533497Y-86330263D01*
X108533489Y-86330261D01*
X108378845Y-86299500D01*
X108378842Y-86299500D01*
X108221157Y-86299500D01*
X108221155Y-86299500D01*
X108126840Y-86318260D01*
X108082317Y-86327117D01*
X108058127Y-86329500D01*
X102099112Y-86329500D01*
X102068682Y-86332353D01*
X102068680Y-86332353D01*
X101940501Y-86377206D01*
X101940499Y-86377207D01*
X101831232Y-86457850D01*
X101750589Y-86567117D01*
X101750588Y-86567119D01*
X101705735Y-86695298D01*
X101705735Y-86695300D01*
X101702882Y-86725730D01*
X98380253Y-86725730D01*
X98392706Y-86250180D01*
X98392834Y-86246940D01*
X98395996Y-86186612D01*
X98467746Y-84817536D01*
X98467956Y-84814334D01*
X98480502Y-84654932D01*
X98580262Y-83387345D01*
X98580557Y-83384146D01*
X98582006Y-83370362D01*
X98730181Y-81960568D01*
X98730552Y-81957432D01*
X98776581Y-81607814D01*
X98804848Y-81543918D01*
X98863172Y-81505447D01*
X98899520Y-81500000D01*
X132928427Y-81500000D01*
X132995466Y-81519685D01*
G37*
%TD.AperFunction*%
%TD*%
M02*
